%TF.GenerationSoftware,KiCad,Pcbnew,5.0.1*%
%TF.CreationDate,2019-02-20T12:32:28+01:00*%
%TF.ProjectId,rgbww-micro-board,72676277772D6D6963726F2D626F6172,rev?*%
%TF.SameCoordinates,PXb903480PY55d4a80*%
%TF.FileFunction,Copper,L1,Top,Signal*%
%TF.FilePolarity,Positive*%
%FSLAX46Y46*%
G04 Gerber Fmt 4.6, Leading zero omitted, Abs format (unit mm)*
G04 Created by KiCad (PCBNEW 5.0.1) date Mi 20 Feb 2019 12:32:28 CET*
%MOMM*%
%LPD*%
G01*
G04 APERTURE LIST*
%ADD10C,0.200000*%
%ADD11R,1.000000X2.500000*%
%ADD12R,1.800000X1.000000*%
%ADD13C,1.524000*%
%ADD14C,1.998980*%
%ADD15R,2.000000X2.000000*%
%ADD16C,2.000000*%
%ADD17R,1.000000X1.500000*%
%ADD18R,1.500000X1.000000*%
%ADD19C,0.800000*%
%ADD20C,0.400000*%
%ADD21C,0.250000*%
%ADD22C,0.700000*%
%ADD23C,0.254000*%
G04 APERTURE END LIST*
D10*
X44500000Y33750000D02*
X0Y33750000D01*
X44500000Y0D02*
X44500000Y33750000D01*
X0Y0D02*
X44500000Y0D01*
X0Y33750000D02*
X0Y0D01*
D11*
X8240000Y8740000D03*
X10240000Y8740000D03*
X12240000Y8740000D03*
X14240000Y8740000D03*
X16240000Y8740000D03*
X18240000Y8740000D03*
X20240000Y8740000D03*
X22240000Y8740000D03*
D12*
X23740000Y11340000D03*
X23740000Y13340000D03*
X23740000Y15340000D03*
X23740000Y17340000D03*
X23740000Y19340000D03*
X23740000Y21340000D03*
D11*
X22240000Y23940000D03*
X20240000Y23940000D03*
X18240000Y23940000D03*
X16240000Y23940000D03*
X14240000Y23940000D03*
X12240000Y23940000D03*
X10240000Y23940000D03*
X8240000Y23940000D03*
D13*
X42450000Y13050000D03*
X39950000Y13050000D03*
X31550000Y13050000D03*
X29050000Y13050000D03*
X42450000Y31550000D03*
X39950000Y31550000D03*
X31550000Y31550000D03*
X29050000Y31550000D03*
D14*
X19250000Y2000000D03*
X14000000Y30000000D03*
X10500000Y30000000D03*
X12750000Y2000000D03*
X42250000Y27250000D03*
X39250000Y27250000D03*
X5500000Y32000000D03*
X2500000Y29000000D03*
X5500000Y29000000D03*
X23500000Y30000000D03*
X2500000Y32000000D03*
X32250000Y27250000D03*
X29250000Y27250000D03*
X42250000Y16750000D03*
X40250000Y9250000D03*
X43250000Y9250000D03*
X37250000Y9250000D03*
X39250000Y16750000D03*
X16000000Y2000000D03*
D15*
X24500000Y2500000D03*
D16*
X28000000Y2500000D03*
X35000000Y2250000D03*
D15*
X38500000Y2250000D03*
D17*
X4350000Y5000000D03*
X5650000Y5000000D03*
D18*
X19500000Y29350000D03*
X19500000Y30650000D03*
D17*
X5650000Y2000000D03*
X4350000Y2000000D03*
D19*
X24250000Y8000000D03*
X9500000Y13750000D03*
X11250000Y13750000D03*
X13000000Y13750000D03*
X13000000Y15500000D03*
X11250000Y15500000D03*
X9500000Y15500000D03*
X20750000Y17000000D03*
X20750000Y19000000D03*
X26000000Y24000000D03*
X26000000Y22000000D03*
X26000000Y26000000D03*
X21750000Y20250000D03*
X21750000Y18000000D03*
X25750000Y16000000D03*
X15750000Y27750000D03*
X12500000Y27750000D03*
X8500000Y32250000D03*
X12250000Y32250000D03*
X16250000Y32250000D03*
X21500000Y28000000D03*
X21500000Y32250000D03*
X2500000Y5500000D03*
X2500000Y3250000D03*
X9250000Y1750000D03*
X9250000Y1750000D03*
X9250000Y1750000D03*
X10500000Y4000000D03*
X8000000Y11000000D03*
X13750000Y11250000D03*
X12250000Y11250000D03*
X20000000Y21500000D03*
X18750000Y22000000D03*
X14250000Y21750000D03*
X12250000Y21750000D03*
X18500000Y10750000D03*
X20250000Y11000000D03*
X16250000Y11000000D03*
D20*
X22240000Y6160000D02*
X22240000Y8740000D01*
X24500000Y2500000D02*
X24500000Y3900000D01*
X24500000Y3900000D02*
X22240000Y6160000D01*
X22980000Y8000000D02*
X22240000Y8740000D01*
X24250000Y8000000D02*
X22980000Y8000000D01*
X24500000Y3900000D02*
X29850000Y9250000D01*
X29850000Y9250000D02*
X31500000Y9250000D01*
X31500000Y9250000D02*
X35500000Y13250000D01*
X35500000Y23500000D02*
X39250000Y27250000D01*
X35500000Y13250000D02*
X35500000Y23500000D01*
X39250000Y27250000D02*
X42250000Y27250000D01*
X42250000Y31350000D02*
X42450000Y31550000D01*
X42250000Y27250000D02*
X42250000Y31350000D01*
X42450000Y31550000D02*
X39950000Y31550000D01*
X39950000Y27950000D02*
X39250000Y27250000D01*
X39950000Y31550000D02*
X39950000Y27950000D01*
D21*
X4350000Y2000000D02*
X4350000Y5000000D01*
X22240000Y25440000D02*
X22240000Y23940000D01*
X22240000Y25860000D02*
X22240000Y25440000D01*
X19500000Y28600000D02*
X22240000Y25860000D01*
X19500000Y29350000D02*
X19500000Y28600000D01*
X30127630Y31550000D02*
X31550000Y31550000D01*
X29050000Y31550000D02*
X30127630Y31550000D01*
X31550000Y27950000D02*
X32250000Y27250000D01*
X31550000Y31550000D02*
X31550000Y27950000D01*
X30836508Y27250000D02*
X29250000Y27250000D01*
X32250000Y27250000D02*
X30836508Y27250000D01*
X29250000Y31350000D02*
X29050000Y31550000D01*
X29250000Y27250000D02*
X29250000Y31350000D01*
X32250000Y27250000D02*
X32250000Y14500000D01*
X32311999Y14438001D02*
X32311999Y13811999D01*
X32311999Y13811999D02*
X31550000Y13050000D01*
X32250000Y14500000D02*
X32311999Y14438001D01*
X29050000Y27050000D02*
X29250000Y27250000D01*
X29050000Y13050000D02*
X29050000Y27050000D01*
X22240000Y24690000D02*
X22240000Y23940000D01*
X24800000Y27250000D02*
X22240000Y24690000D01*
X29250000Y27250000D02*
X24800000Y27250000D01*
X34750000Y2500000D02*
X35000000Y2250000D01*
X28000000Y2500000D02*
X34750000Y2500000D01*
X30788001Y12288001D02*
X31550000Y13050000D01*
X29811999Y12288001D02*
X30788001Y12288001D01*
X29050000Y13050000D02*
X29811999Y12288001D01*
X4350000Y2000000D02*
X4350000Y650000D01*
X4350000Y650000D02*
X4500000Y500000D01*
X26000000Y500000D02*
X28000000Y2500000D01*
X4500000Y500000D02*
X26000000Y500000D01*
D22*
X38500000Y8000000D02*
X37250000Y9250000D01*
X38500000Y2250000D02*
X38500000Y8000000D01*
X38500000Y7500000D02*
X40250000Y9250000D01*
X38500000Y2250000D02*
X38500000Y7500000D01*
X42450000Y13050000D02*
X39950000Y13050000D01*
X42250000Y16750000D02*
X39250000Y16750000D01*
X42450000Y13050000D02*
X42450000Y16550000D01*
X42450000Y16550000D02*
X42250000Y16750000D01*
X39950000Y16050000D02*
X39250000Y16750000D01*
X39950000Y13050000D02*
X39950000Y16050000D01*
X39950000Y13050000D02*
X39950000Y9550000D01*
X39950000Y9550000D02*
X40250000Y9250000D01*
X42450000Y13050000D02*
X42450000Y10050000D01*
X42450000Y10050000D02*
X43250000Y9250000D01*
X40250000Y9250000D02*
X43250000Y9250000D01*
X37250000Y9250000D02*
X40250000Y9250000D01*
D21*
X2500000Y26500000D02*
X2500000Y29000000D01*
X8240000Y23940000D02*
X8240000Y25440000D01*
X3000000Y26000000D02*
X2500000Y26500000D01*
X7680000Y26000000D02*
X3000000Y26000000D01*
X8240000Y25440000D02*
X7680000Y26000000D01*
X6000000Y27000000D02*
X5500000Y27500000D01*
X5500000Y27500000D02*
X5500000Y29000000D01*
X8680000Y27000000D02*
X6000000Y27000000D01*
X10240000Y23940000D02*
X10240000Y25440000D01*
X10240000Y25440000D02*
X8680000Y27000000D01*
X16240000Y25440000D02*
X17000000Y26200000D01*
X16240000Y23940000D02*
X16240000Y25440000D01*
X17000000Y26200000D02*
X17000000Y30000000D01*
X17650000Y30650000D02*
X19500000Y30650000D01*
X17000000Y30000000D02*
X17650000Y30650000D01*
X22850000Y30650000D02*
X23500000Y30000000D01*
X19500000Y30650000D02*
X22850000Y30650000D01*
X8240000Y7240000D02*
X8240000Y8740000D01*
X8240000Y6840000D02*
X8240000Y7240000D01*
X6400000Y5000000D02*
X8240000Y6840000D01*
X5650000Y5000000D02*
X6400000Y5000000D01*
X8240000Y8740000D02*
X8240000Y10760000D01*
X8240000Y10760000D02*
X8000000Y11000000D01*
X6400000Y2000000D02*
X10150000Y5750000D01*
X5650000Y2000000D02*
X6400000Y2000000D01*
X10150000Y5750000D02*
X14000000Y5750000D01*
X14240000Y5990000D02*
X14240000Y8740000D01*
X14000000Y5750000D02*
X14240000Y5990000D01*
X14240000Y10760000D02*
X14240000Y8740000D01*
X13750000Y11250000D02*
X14240000Y10760000D01*
X12250000Y8750000D02*
X12240000Y8740000D01*
X12250000Y11250000D02*
X12250000Y8750000D01*
X20000000Y23700000D02*
X20240000Y23940000D01*
X20000000Y21500000D02*
X20000000Y23700000D01*
X18240000Y23940000D02*
X18240000Y22510000D01*
X18240000Y22510000D02*
X18750000Y22000000D01*
X14240000Y29760000D02*
X14000000Y30000000D01*
X14240000Y23940000D02*
X14240000Y29760000D01*
X14250000Y23930000D02*
X14240000Y23940000D01*
X14250000Y21750000D02*
X14250000Y23930000D01*
X12240000Y23940000D02*
X12240000Y25760000D01*
X12240000Y25760000D02*
X10500000Y27500000D01*
X10500000Y27500000D02*
X10500000Y30000000D01*
X12250000Y23930000D02*
X12240000Y23940000D01*
X12250000Y21750000D02*
X12250000Y23930000D01*
X16000000Y3413492D02*
X16836508Y4250000D01*
X16000000Y2000000D02*
X16000000Y3413492D01*
X16836508Y4250000D02*
X17750000Y4250000D01*
X18240000Y4740000D02*
X18240000Y8740000D01*
X17750000Y4250000D02*
X18240000Y4740000D01*
X18240000Y8740000D02*
X18240000Y10490000D01*
X18240000Y10490000D02*
X18500000Y10750000D01*
X20249489Y2999489D02*
X20249489Y3000511D01*
X19250000Y2000000D02*
X20249489Y2999489D01*
X20240000Y3010000D02*
X20240000Y8740000D01*
X20249489Y3000511D02*
X20240000Y3010000D01*
X20250000Y8750000D02*
X20240000Y8740000D01*
X20250000Y11000000D02*
X20250000Y8750000D01*
X12750000Y4500000D02*
X12750000Y2000000D01*
X13000000Y4750000D02*
X12750000Y4500000D01*
X15500000Y4750000D02*
X13000000Y4750000D01*
X16240000Y8740000D02*
X16240000Y5490000D01*
X16240000Y5490000D02*
X15500000Y4750000D01*
X16250000Y8750000D02*
X16240000Y8740000D01*
X16250000Y11000000D02*
X16250000Y8750000D01*
D23*
G36*
X43765001Y18377000D02*
X42593202Y18377000D01*
X42575120Y18384490D01*
X41924880Y18384490D01*
X41906798Y18377000D01*
X39593202Y18377000D01*
X39575120Y18384490D01*
X38924880Y18384490D01*
X38906798Y18377000D01*
X37750000Y18377000D01*
X37701399Y18367333D01*
X37660197Y18339803D01*
X37632667Y18298601D01*
X37623000Y18250000D01*
X37623000Y17093202D01*
X37615510Y17075120D01*
X37615510Y16424880D01*
X37623000Y16406798D01*
X37623000Y10877000D01*
X37593202Y10877000D01*
X37575120Y10884490D01*
X36924880Y10884490D01*
X36906798Y10877000D01*
X35750000Y10877000D01*
X35701399Y10867333D01*
X35660197Y10839803D01*
X35632667Y10798601D01*
X35623000Y10750000D01*
X35623000Y9593202D01*
X35615510Y9575120D01*
X35615510Y8924880D01*
X35623000Y8906798D01*
X35623000Y7750000D01*
X35632667Y7701399D01*
X35660197Y7660197D01*
X35701399Y7632667D01*
X35750000Y7623000D01*
X36906798Y7623000D01*
X36924880Y7615510D01*
X37491489Y7615510D01*
X37514169Y7592830D01*
X37495704Y7500000D01*
X37515001Y7402988D01*
X37515000Y4873000D01*
X37515000Y3897440D01*
X37500000Y3897440D01*
X37252235Y3848157D01*
X37042191Y3707809D01*
X36901843Y3497765D01*
X36852560Y3250000D01*
X36852560Y1250000D01*
X36901843Y1002235D01*
X37042191Y792191D01*
X37127783Y735000D01*
X35643434Y735000D01*
X35874264Y830613D01*
X35972927Y1097468D01*
X35000000Y2070395D01*
X34027073Y1097468D01*
X34125736Y830613D01*
X34383097Y735000D01*
X20296518Y735000D01*
X20635654Y1074136D01*
X20884490Y1674880D01*
X20884490Y2325120D01*
X20818838Y2483618D01*
X20965393Y2702952D01*
X21009489Y2924637D01*
X21009489Y2924642D01*
X21024377Y2999489D01*
X21024275Y3000001D01*
X21024377Y3000512D01*
X21009489Y3075359D01*
X21009489Y3075362D01*
X21000000Y3123066D01*
X21000000Y6900018D01*
X21197809Y7032191D01*
X21240000Y7095334D01*
X21282191Y7032191D01*
X21405000Y6950132D01*
X21405000Y6242233D01*
X21388643Y6160000D01*
X21405000Y6077767D01*
X21405000Y6077764D01*
X21453448Y5834200D01*
X21637999Y5557999D01*
X21707720Y5511413D01*
X23173551Y4045582D01*
X23042191Y3957809D01*
X22901843Y3747765D01*
X22852560Y3500000D01*
X22852560Y1500000D01*
X22901843Y1252235D01*
X23042191Y1042191D01*
X23252235Y901843D01*
X23500000Y852560D01*
X25500000Y852560D01*
X25747765Y901843D01*
X25957809Y1042191D01*
X26098157Y1252235D01*
X26117099Y1347468D01*
X27027073Y1347468D01*
X27125736Y1080613D01*
X27735461Y854092D01*
X28385460Y878144D01*
X28874264Y1080613D01*
X28972927Y1347468D01*
X28000000Y2320395D01*
X27027073Y1347468D01*
X26117099Y1347468D01*
X26147440Y1500000D01*
X26147440Y2764539D01*
X26354092Y2764539D01*
X26378144Y2114540D01*
X26580613Y1625736D01*
X26847468Y1527073D01*
X27820395Y2500000D01*
X28179605Y2500000D01*
X29152532Y1527073D01*
X29419387Y1625736D01*
X29645908Y2235461D01*
X29635582Y2514539D01*
X33354092Y2514539D01*
X33378144Y1864540D01*
X33580613Y1375736D01*
X33847468Y1277073D01*
X34820395Y2250000D01*
X35179605Y2250000D01*
X36152532Y1277073D01*
X36419387Y1375736D01*
X36645908Y1985461D01*
X36621856Y2635460D01*
X36419387Y3124264D01*
X36152532Y3222927D01*
X35179605Y2250000D01*
X34820395Y2250000D01*
X33847468Y3222927D01*
X33580613Y3124264D01*
X33354092Y2514539D01*
X29635582Y2514539D01*
X29621856Y2885460D01*
X29419387Y3374264D01*
X29342931Y3402532D01*
X34027073Y3402532D01*
X35000000Y2429605D01*
X35972927Y3402532D01*
X35874264Y3669387D01*
X35264539Y3895908D01*
X34614540Y3871856D01*
X34125736Y3669387D01*
X34027073Y3402532D01*
X29342931Y3402532D01*
X29152532Y3472927D01*
X28179605Y2500000D01*
X27820395Y2500000D01*
X26847468Y3472927D01*
X26580613Y3374264D01*
X26354092Y2764539D01*
X26147440Y2764539D01*
X26147440Y3500000D01*
X26117100Y3652532D01*
X27027073Y3652532D01*
X28000000Y2679605D01*
X28972927Y3652532D01*
X28874264Y3919387D01*
X28264539Y4145908D01*
X27614540Y4121856D01*
X27125736Y3919387D01*
X27027073Y3652532D01*
X26117100Y3652532D01*
X26098157Y3747765D01*
X25957809Y3957809D01*
X25826449Y4045582D01*
X30195868Y8415000D01*
X31417767Y8415000D01*
X31500000Y8398643D01*
X31582233Y8415000D01*
X31582237Y8415000D01*
X31825801Y8463448D01*
X32102001Y8647999D01*
X32148587Y8717720D01*
X36032283Y12601415D01*
X36102001Y12647999D01*
X36286552Y12924199D01*
X36335000Y13167763D01*
X36335000Y13167766D01*
X36351357Y13249999D01*
X36335000Y13332232D01*
X36335000Y23154133D01*
X38834015Y25653147D01*
X38924880Y25615510D01*
X39575120Y25615510D01*
X40175864Y25864346D01*
X40184518Y25873000D01*
X41315482Y25873000D01*
X41324136Y25864346D01*
X41924880Y25615510D01*
X42575120Y25615510D01*
X43175864Y25864346D01*
X43184518Y25873000D01*
X43500000Y25873000D01*
X43548601Y25882667D01*
X43589803Y25910197D01*
X43617333Y25951399D01*
X43627000Y26000000D01*
X43627000Y26315482D01*
X43635654Y26324136D01*
X43765001Y26636407D01*
X43765001Y18377000D01*
X43765001Y18377000D01*
G37*
X43765001Y18377000D02*
X42593202Y18377000D01*
X42575120Y18384490D01*
X41924880Y18384490D01*
X41906798Y18377000D01*
X39593202Y18377000D01*
X39575120Y18384490D01*
X38924880Y18384490D01*
X38906798Y18377000D01*
X37750000Y18377000D01*
X37701399Y18367333D01*
X37660197Y18339803D01*
X37632667Y18298601D01*
X37623000Y18250000D01*
X37623000Y17093202D01*
X37615510Y17075120D01*
X37615510Y16424880D01*
X37623000Y16406798D01*
X37623000Y10877000D01*
X37593202Y10877000D01*
X37575120Y10884490D01*
X36924880Y10884490D01*
X36906798Y10877000D01*
X35750000Y10877000D01*
X35701399Y10867333D01*
X35660197Y10839803D01*
X35632667Y10798601D01*
X35623000Y10750000D01*
X35623000Y9593202D01*
X35615510Y9575120D01*
X35615510Y8924880D01*
X35623000Y8906798D01*
X35623000Y7750000D01*
X35632667Y7701399D01*
X35660197Y7660197D01*
X35701399Y7632667D01*
X35750000Y7623000D01*
X36906798Y7623000D01*
X36924880Y7615510D01*
X37491489Y7615510D01*
X37514169Y7592830D01*
X37495704Y7500000D01*
X37515001Y7402988D01*
X37515000Y4873000D01*
X37515000Y3897440D01*
X37500000Y3897440D01*
X37252235Y3848157D01*
X37042191Y3707809D01*
X36901843Y3497765D01*
X36852560Y3250000D01*
X36852560Y1250000D01*
X36901843Y1002235D01*
X37042191Y792191D01*
X37127783Y735000D01*
X35643434Y735000D01*
X35874264Y830613D01*
X35972927Y1097468D01*
X35000000Y2070395D01*
X34027073Y1097468D01*
X34125736Y830613D01*
X34383097Y735000D01*
X20296518Y735000D01*
X20635654Y1074136D01*
X20884490Y1674880D01*
X20884490Y2325120D01*
X20818838Y2483618D01*
X20965393Y2702952D01*
X21009489Y2924637D01*
X21009489Y2924642D01*
X21024377Y2999489D01*
X21024275Y3000001D01*
X21024377Y3000512D01*
X21009489Y3075359D01*
X21009489Y3075362D01*
X21000000Y3123066D01*
X21000000Y6900018D01*
X21197809Y7032191D01*
X21240000Y7095334D01*
X21282191Y7032191D01*
X21405000Y6950132D01*
X21405000Y6242233D01*
X21388643Y6160000D01*
X21405000Y6077767D01*
X21405000Y6077764D01*
X21453448Y5834200D01*
X21637999Y5557999D01*
X21707720Y5511413D01*
X23173551Y4045582D01*
X23042191Y3957809D01*
X22901843Y3747765D01*
X22852560Y3500000D01*
X22852560Y1500000D01*
X22901843Y1252235D01*
X23042191Y1042191D01*
X23252235Y901843D01*
X23500000Y852560D01*
X25500000Y852560D01*
X25747765Y901843D01*
X25957809Y1042191D01*
X26098157Y1252235D01*
X26117099Y1347468D01*
X27027073Y1347468D01*
X27125736Y1080613D01*
X27735461Y854092D01*
X28385460Y878144D01*
X28874264Y1080613D01*
X28972927Y1347468D01*
X28000000Y2320395D01*
X27027073Y1347468D01*
X26117099Y1347468D01*
X26147440Y1500000D01*
X26147440Y2764539D01*
X26354092Y2764539D01*
X26378144Y2114540D01*
X26580613Y1625736D01*
X26847468Y1527073D01*
X27820395Y2500000D01*
X28179605Y2500000D01*
X29152532Y1527073D01*
X29419387Y1625736D01*
X29645908Y2235461D01*
X29635582Y2514539D01*
X33354092Y2514539D01*
X33378144Y1864540D01*
X33580613Y1375736D01*
X33847468Y1277073D01*
X34820395Y2250000D01*
X35179605Y2250000D01*
X36152532Y1277073D01*
X36419387Y1375736D01*
X36645908Y1985461D01*
X36621856Y2635460D01*
X36419387Y3124264D01*
X36152532Y3222927D01*
X35179605Y2250000D01*
X34820395Y2250000D01*
X33847468Y3222927D01*
X33580613Y3124264D01*
X33354092Y2514539D01*
X29635582Y2514539D01*
X29621856Y2885460D01*
X29419387Y3374264D01*
X29342931Y3402532D01*
X34027073Y3402532D01*
X35000000Y2429605D01*
X35972927Y3402532D01*
X35874264Y3669387D01*
X35264539Y3895908D01*
X34614540Y3871856D01*
X34125736Y3669387D01*
X34027073Y3402532D01*
X29342931Y3402532D01*
X29152532Y3472927D01*
X28179605Y2500000D01*
X27820395Y2500000D01*
X26847468Y3472927D01*
X26580613Y3374264D01*
X26354092Y2764539D01*
X26147440Y2764539D01*
X26147440Y3500000D01*
X26117100Y3652532D01*
X27027073Y3652532D01*
X28000000Y2679605D01*
X28972927Y3652532D01*
X28874264Y3919387D01*
X28264539Y4145908D01*
X27614540Y4121856D01*
X27125736Y3919387D01*
X27027073Y3652532D01*
X26117100Y3652532D01*
X26098157Y3747765D01*
X25957809Y3957809D01*
X25826449Y4045582D01*
X30195868Y8415000D01*
X31417767Y8415000D01*
X31500000Y8398643D01*
X31582233Y8415000D01*
X31582237Y8415000D01*
X31825801Y8463448D01*
X32102001Y8647999D01*
X32148587Y8717720D01*
X36032283Y12601415D01*
X36102001Y12647999D01*
X36286552Y12924199D01*
X36335000Y13167763D01*
X36335000Y13167766D01*
X36351357Y13249999D01*
X36335000Y13332232D01*
X36335000Y23154133D01*
X38834015Y25653147D01*
X38924880Y25615510D01*
X39575120Y25615510D01*
X40175864Y25864346D01*
X40184518Y25873000D01*
X41315482Y25873000D01*
X41324136Y25864346D01*
X41924880Y25615510D01*
X42575120Y25615510D01*
X43175864Y25864346D01*
X43184518Y25873000D01*
X43500000Y25873000D01*
X43548601Y25882667D01*
X43589803Y25910197D01*
X43617333Y25951399D01*
X43627000Y26000000D01*
X43627000Y26315482D01*
X43635654Y26324136D01*
X43765001Y26636407D01*
X43765001Y18377000D01*
G36*
X7092560Y7490000D02*
X7141843Y7242235D01*
X7282191Y7032191D01*
X7327269Y7002071D01*
X6562969Y6237770D01*
X6397765Y6348157D01*
X6150000Y6397440D01*
X5150000Y6397440D01*
X5012368Y6370064D01*
X4976309Y6385000D01*
X4635750Y6385000D01*
X4477000Y6226250D01*
X4477000Y5127000D01*
X4497000Y5127000D01*
X4497000Y4873000D01*
X4477000Y4873000D01*
X4477000Y3773750D01*
X4635750Y3615000D01*
X4976309Y3615000D01*
X5012368Y3629936D01*
X5150000Y3602560D01*
X6150000Y3602560D01*
X6397765Y3651843D01*
X6607809Y3792191D01*
X6748157Y4002235D01*
X6797440Y4250000D01*
X6797440Y4351517D01*
X6947929Y4452071D01*
X6990331Y4515530D01*
X8724473Y6249671D01*
X8787929Y6292071D01*
X8955904Y6543463D01*
X9000000Y6765148D01*
X9000000Y6765153D01*
X9014888Y6840000D01*
X9002604Y6901758D01*
X9197809Y7032191D01*
X9240000Y7095334D01*
X9282191Y7032191D01*
X9492235Y6891843D01*
X9740000Y6842560D01*
X10740000Y6842560D01*
X10987765Y6891843D01*
X11197809Y7032191D01*
X11240000Y7095334D01*
X11282191Y7032191D01*
X11492235Y6891843D01*
X11740000Y6842560D01*
X12740000Y6842560D01*
X12987765Y6891843D01*
X13197809Y7032191D01*
X13240000Y7095334D01*
X13282191Y7032191D01*
X13480000Y6900018D01*
X13480000Y6510000D01*
X10224847Y6510000D01*
X10150000Y6524888D01*
X10075153Y6510000D01*
X10075148Y6510000D01*
X9853463Y6465904D01*
X9602071Y6297929D01*
X9559671Y6234473D01*
X6562969Y3237770D01*
X6397765Y3348157D01*
X6150000Y3397440D01*
X5150000Y3397440D01*
X5012368Y3370064D01*
X4976309Y3385000D01*
X4635750Y3385000D01*
X4477000Y3226250D01*
X4477000Y2127000D01*
X4497000Y2127000D01*
X4497000Y1873000D01*
X4477000Y1873000D01*
X4477000Y1853000D01*
X4223000Y1853000D01*
X4223000Y1873000D01*
X3373750Y1873000D01*
X3215000Y1714250D01*
X3215000Y1123690D01*
X3311673Y890301D01*
X3466975Y735000D01*
X735000Y735000D01*
X735000Y2876310D01*
X3215000Y2876310D01*
X3215000Y2285750D01*
X3373750Y2127000D01*
X4223000Y2127000D01*
X4223000Y3226250D01*
X4064250Y3385000D01*
X3723691Y3385000D01*
X3490302Y3288327D01*
X3311673Y3109699D01*
X3215000Y2876310D01*
X735000Y2876310D01*
X735000Y4714250D01*
X3215000Y4714250D01*
X3215000Y4123690D01*
X3311673Y3890301D01*
X3490302Y3711673D01*
X3723691Y3615000D01*
X4064250Y3615000D01*
X4223000Y3773750D01*
X4223000Y4873000D01*
X3373750Y4873000D01*
X3215000Y4714250D01*
X735000Y4714250D01*
X735000Y5876310D01*
X3215000Y5876310D01*
X3215000Y5285750D01*
X3373750Y5127000D01*
X4223000Y5127000D01*
X4223000Y6226250D01*
X4064250Y6385000D01*
X3723691Y6385000D01*
X3490302Y6288327D01*
X3311673Y6109699D01*
X3215000Y5876310D01*
X735000Y5876310D01*
X735000Y8155762D01*
X7092560Y8367681D01*
X7092560Y7490000D01*
X7092560Y7490000D01*
G37*
X7092560Y7490000D02*
X7141843Y7242235D01*
X7282191Y7032191D01*
X7327269Y7002071D01*
X6562969Y6237770D01*
X6397765Y6348157D01*
X6150000Y6397440D01*
X5150000Y6397440D01*
X5012368Y6370064D01*
X4976309Y6385000D01*
X4635750Y6385000D01*
X4477000Y6226250D01*
X4477000Y5127000D01*
X4497000Y5127000D01*
X4497000Y4873000D01*
X4477000Y4873000D01*
X4477000Y3773750D01*
X4635750Y3615000D01*
X4976309Y3615000D01*
X5012368Y3629936D01*
X5150000Y3602560D01*
X6150000Y3602560D01*
X6397765Y3651843D01*
X6607809Y3792191D01*
X6748157Y4002235D01*
X6797440Y4250000D01*
X6797440Y4351517D01*
X6947929Y4452071D01*
X6990331Y4515530D01*
X8724473Y6249671D01*
X8787929Y6292071D01*
X8955904Y6543463D01*
X9000000Y6765148D01*
X9000000Y6765153D01*
X9014888Y6840000D01*
X9002604Y6901758D01*
X9197809Y7032191D01*
X9240000Y7095334D01*
X9282191Y7032191D01*
X9492235Y6891843D01*
X9740000Y6842560D01*
X10740000Y6842560D01*
X10987765Y6891843D01*
X11197809Y7032191D01*
X11240000Y7095334D01*
X11282191Y7032191D01*
X11492235Y6891843D01*
X11740000Y6842560D01*
X12740000Y6842560D01*
X12987765Y6891843D01*
X13197809Y7032191D01*
X13240000Y7095334D01*
X13282191Y7032191D01*
X13480000Y6900018D01*
X13480000Y6510000D01*
X10224847Y6510000D01*
X10150000Y6524888D01*
X10075153Y6510000D01*
X10075148Y6510000D01*
X9853463Y6465904D01*
X9602071Y6297929D01*
X9559671Y6234473D01*
X6562969Y3237770D01*
X6397765Y3348157D01*
X6150000Y3397440D01*
X5150000Y3397440D01*
X5012368Y3370064D01*
X4976309Y3385000D01*
X4635750Y3385000D01*
X4477000Y3226250D01*
X4477000Y2127000D01*
X4497000Y2127000D01*
X4497000Y1873000D01*
X4477000Y1873000D01*
X4477000Y1853000D01*
X4223000Y1853000D01*
X4223000Y1873000D01*
X3373750Y1873000D01*
X3215000Y1714250D01*
X3215000Y1123690D01*
X3311673Y890301D01*
X3466975Y735000D01*
X735000Y735000D01*
X735000Y2876310D01*
X3215000Y2876310D01*
X3215000Y2285750D01*
X3373750Y2127000D01*
X4223000Y2127000D01*
X4223000Y3226250D01*
X4064250Y3385000D01*
X3723691Y3385000D01*
X3490302Y3288327D01*
X3311673Y3109699D01*
X3215000Y2876310D01*
X735000Y2876310D01*
X735000Y4714250D01*
X3215000Y4714250D01*
X3215000Y4123690D01*
X3311673Y3890301D01*
X3490302Y3711673D01*
X3723691Y3615000D01*
X4064250Y3615000D01*
X4223000Y3773750D01*
X4223000Y4873000D01*
X3373750Y4873000D01*
X3215000Y4714250D01*
X735000Y4714250D01*
X735000Y5876310D01*
X3215000Y5876310D01*
X3215000Y5285750D01*
X3373750Y5127000D01*
X4223000Y5127000D01*
X4223000Y6226250D01*
X4064250Y6385000D01*
X3723691Y6385000D01*
X3490302Y6288327D01*
X3311673Y6109699D01*
X3215000Y5876310D01*
X735000Y5876310D01*
X735000Y8155762D01*
X7092560Y8367681D01*
X7092560Y7490000D01*
G36*
X4515750Y735000D02*
X4477002Y735000D01*
X4477002Y773748D01*
X4515750Y735000D01*
X4515750Y735000D01*
G37*
X4515750Y735000D02*
X4477002Y735000D01*
X4477002Y773748D01*
X4515750Y735000D01*
G36*
X4222998Y735000D02*
X4184250Y735000D01*
X4222998Y773748D01*
X4222998Y735000D01*
X4222998Y735000D01*
G37*
X4222998Y735000D02*
X4184250Y735000D01*
X4222998Y773748D01*
X4222998Y735000D01*
G36*
X12034096Y4796536D02*
X11990000Y4574851D01*
X11990000Y4574847D01*
X11975112Y4500000D01*
X11990000Y4425153D01*
X11990000Y3454357D01*
X11824136Y3385654D01*
X11364346Y2925864D01*
X11115510Y2325120D01*
X11115510Y1674880D01*
X11364346Y1074136D01*
X11703482Y735000D01*
X6522217Y735000D01*
X6607809Y792191D01*
X6748157Y1002235D01*
X6797440Y1250000D01*
X6797440Y1351517D01*
X6947929Y1452071D01*
X6990331Y1515530D01*
X10464802Y4990000D01*
X12163364Y4990000D01*
X12034096Y4796536D01*
X12034096Y4796536D01*
G37*
X12034096Y4796536D02*
X11990000Y4574851D01*
X11990000Y4574847D01*
X11975112Y4500000D01*
X11990000Y4425153D01*
X11990000Y3454357D01*
X11824136Y3385654D01*
X11364346Y2925864D01*
X11115510Y2325120D01*
X11115510Y1674880D01*
X11364346Y1074136D01*
X11703482Y735000D01*
X6522217Y735000D01*
X6607809Y792191D01*
X6748157Y1002235D01*
X6797440Y1250000D01*
X6797440Y1351517D01*
X6947929Y1452071D01*
X6990331Y1515530D01*
X10464802Y4990000D01*
X12163364Y4990000D01*
X12034096Y4796536D01*
G36*
X43765001Y32025845D02*
X43634320Y32341337D01*
X43627000Y32348657D01*
X43627000Y32500000D01*
X43617333Y32548601D01*
X43589803Y32589803D01*
X43548601Y32617333D01*
X43500000Y32627000D01*
X43348657Y32627000D01*
X43241337Y32734320D01*
X42727881Y32947000D01*
X42172119Y32947000D01*
X41658663Y32734320D01*
X41551343Y32627000D01*
X40848657Y32627000D01*
X40741337Y32734320D01*
X40227881Y32947000D01*
X39672119Y32947000D01*
X39158663Y32734320D01*
X39051343Y32627000D01*
X38000000Y32627000D01*
X37951399Y32617333D01*
X37910197Y32589803D01*
X37882667Y32548601D01*
X37873000Y32500000D01*
X37873000Y28184518D01*
X37864346Y28175864D01*
X37615510Y27575120D01*
X37615510Y26924880D01*
X37653147Y26834015D01*
X34967718Y24148585D01*
X34898000Y24102001D01*
X34851416Y24032283D01*
X34713448Y23825800D01*
X34648643Y23500000D01*
X34665001Y23417762D01*
X34665000Y13595868D01*
X31154133Y10085000D01*
X29932237Y10085000D01*
X29850000Y10101358D01*
X29767763Y10085000D01*
X29524199Y10036552D01*
X29247999Y9852001D01*
X29201415Y9782283D01*
X24500000Y5080867D01*
X23075000Y6505867D01*
X23075000Y6950132D01*
X23197809Y7032191D01*
X23286550Y7165000D01*
X23621289Y7165000D01*
X23663720Y7122569D01*
X24044126Y6965000D01*
X24455874Y6965000D01*
X24836280Y7122569D01*
X25127431Y7413720D01*
X25285000Y7794126D01*
X25285000Y8205874D01*
X25127431Y8586280D01*
X24836280Y8877431D01*
X24455874Y9035000D01*
X24044126Y9035000D01*
X23663720Y8877431D01*
X23621289Y8835000D01*
X23387440Y8835000D01*
X23387440Y9990000D01*
X23347149Y10192560D01*
X24640000Y10192560D01*
X24887765Y10241843D01*
X25097809Y10382191D01*
X25238157Y10592235D01*
X25287440Y10840000D01*
X25287440Y11840000D01*
X25241734Y12069787D01*
X28249392Y12069787D01*
X28318857Y11827603D01*
X28842302Y11640856D01*
X29397368Y11668638D01*
X29781143Y11827603D01*
X29850608Y12069787D01*
X30749392Y12069787D01*
X30818857Y11827603D01*
X31342302Y11640856D01*
X31897368Y11668638D01*
X32281143Y11827603D01*
X32350608Y12069787D01*
X31550000Y12870395D01*
X30749392Y12069787D01*
X29850608Y12069787D01*
X29050000Y12870395D01*
X28249392Y12069787D01*
X25241734Y12069787D01*
X25238157Y12087765D01*
X25097809Y12297809D01*
X25034666Y12340000D01*
X25097809Y12382191D01*
X25238157Y12592235D01*
X25287440Y12840000D01*
X25287440Y13257698D01*
X27640856Y13257698D01*
X27668638Y12702632D01*
X27827603Y12318857D01*
X28069787Y12249392D01*
X28870395Y13050000D01*
X29229605Y13050000D01*
X30030213Y12249392D01*
X30272397Y12318857D01*
X30297943Y12390462D01*
X30327603Y12318857D01*
X30569787Y12249392D01*
X31370395Y13050000D01*
X31729605Y13050000D01*
X32530213Y12249392D01*
X32772397Y12318857D01*
X32959144Y12842302D01*
X32931362Y13397368D01*
X32772397Y13781143D01*
X32530213Y13850608D01*
X31729605Y13050000D01*
X31370395Y13050000D01*
X30569787Y13850608D01*
X30327603Y13781143D01*
X30302057Y13709538D01*
X30272397Y13781143D01*
X30030213Y13850608D01*
X29229605Y13050000D01*
X28870395Y13050000D01*
X28069787Y13850608D01*
X27827603Y13781143D01*
X27640856Y13257698D01*
X25287440Y13257698D01*
X25287440Y13840000D01*
X25249605Y14030213D01*
X28249392Y14030213D01*
X29050000Y13229605D01*
X29850608Y14030213D01*
X30749392Y14030213D01*
X31550000Y13229605D01*
X32350608Y14030213D01*
X32281143Y14272397D01*
X31757698Y14459144D01*
X31202632Y14431362D01*
X30818857Y14272397D01*
X30749392Y14030213D01*
X29850608Y14030213D01*
X29781143Y14272397D01*
X29257698Y14459144D01*
X28702632Y14431362D01*
X28318857Y14272397D01*
X28249392Y14030213D01*
X25249605Y14030213D01*
X25238157Y14087765D01*
X25097809Y14297809D01*
X25034666Y14340000D01*
X25097809Y14382191D01*
X25238157Y14592235D01*
X25287440Y14840000D01*
X25287440Y15840000D01*
X25238157Y16087765D01*
X25097809Y16297809D01*
X25034666Y16340000D01*
X25097809Y16382191D01*
X25238157Y16592235D01*
X25287440Y16840000D01*
X25287440Y17840000D01*
X25238157Y18087765D01*
X25097809Y18297809D01*
X25034666Y18340000D01*
X25097809Y18382191D01*
X25238157Y18592235D01*
X25287440Y18840000D01*
X25287440Y19840000D01*
X25238157Y20087765D01*
X25097809Y20297809D01*
X25034666Y20340000D01*
X25097809Y20382191D01*
X25238157Y20592235D01*
X25287440Y20840000D01*
X25287440Y21840000D01*
X25238157Y22087765D01*
X25097809Y22297809D01*
X24887765Y22438157D01*
X24640000Y22487440D01*
X23343416Y22487440D01*
X23375000Y22563691D01*
X23375000Y23654250D01*
X23216250Y23813000D01*
X22367000Y23813000D01*
X22367000Y23793000D01*
X22113000Y23793000D01*
X22113000Y23813000D01*
X22093000Y23813000D01*
X22093000Y24067000D01*
X22113000Y24067000D01*
X22113000Y25666250D01*
X22367000Y25666250D01*
X22367000Y24067000D01*
X23216250Y24067000D01*
X23375000Y24225750D01*
X23375000Y25316309D01*
X23278327Y25549698D01*
X23099699Y25728327D01*
X22866310Y25825000D01*
X22525750Y25825000D01*
X22367000Y25666250D01*
X22113000Y25666250D01*
X21954250Y25825000D01*
X21613690Y25825000D01*
X21380301Y25728327D01*
X21238655Y25586680D01*
X21197809Y25647809D01*
X20987765Y25788157D01*
X20740000Y25837440D01*
X19740000Y25837440D01*
X19492235Y25788157D01*
X19282191Y25647809D01*
X19240000Y25584666D01*
X19197809Y25647809D01*
X18987765Y25788157D01*
X18740000Y25837440D01*
X17740000Y25837440D01*
X17661333Y25821792D01*
X17695549Y25873000D01*
X17715904Y25903463D01*
X17754567Y26097837D01*
X28277443Y26097837D01*
X28376042Y25831035D01*
X28985582Y25604599D01*
X29635377Y25628659D01*
X30123958Y25831035D01*
X30222557Y26097837D01*
X31277443Y26097837D01*
X31376042Y25831035D01*
X31985582Y25604599D01*
X32635377Y25628659D01*
X33123958Y25831035D01*
X33222557Y26097837D01*
X32250000Y27070395D01*
X31277443Y26097837D01*
X30222557Y26097837D01*
X29250000Y27070395D01*
X28277443Y26097837D01*
X17754567Y26097837D01*
X17760000Y26125148D01*
X17760000Y26125152D01*
X17774888Y26199999D01*
X17760000Y26274846D01*
X17760000Y27514418D01*
X27604599Y27514418D01*
X27628659Y26864623D01*
X27831035Y26376042D01*
X28097837Y26277443D01*
X29070395Y27250000D01*
X29429605Y27250000D01*
X30402163Y26277443D01*
X30668965Y26376042D01*
X30745593Y26582317D01*
X30831035Y26376042D01*
X31097837Y26277443D01*
X32070395Y27250000D01*
X32429605Y27250000D01*
X33402163Y26277443D01*
X33668965Y26376042D01*
X33895401Y26985582D01*
X33871341Y27635377D01*
X33668965Y28123958D01*
X33402163Y28222557D01*
X32429605Y27250000D01*
X32070395Y27250000D01*
X31097837Y28222557D01*
X30831035Y28123958D01*
X30754407Y27917683D01*
X30668965Y28123958D01*
X30402163Y28222557D01*
X29429605Y27250000D01*
X29070395Y27250000D01*
X28097837Y28222557D01*
X27831035Y28123958D01*
X27604599Y27514418D01*
X17760000Y27514418D01*
X17760000Y29064250D01*
X18115000Y29064250D01*
X18115000Y28723691D01*
X18211673Y28490302D01*
X18390301Y28311673D01*
X18623690Y28215000D01*
X19214250Y28215000D01*
X19373000Y28373750D01*
X19373000Y29223000D01*
X19627000Y29223000D01*
X19627000Y28373750D01*
X19785750Y28215000D01*
X20376310Y28215000D01*
X20609699Y28311673D01*
X20788327Y28490302D01*
X20885000Y28723691D01*
X20885000Y29064250D01*
X20726250Y29223000D01*
X19627000Y29223000D01*
X19373000Y29223000D01*
X18273750Y29223000D01*
X18115000Y29064250D01*
X17760000Y29064250D01*
X17760000Y29685199D01*
X17964802Y29890000D01*
X18115000Y29890000D01*
X18115000Y29635750D01*
X18273750Y29477000D01*
X19373000Y29477000D01*
X19373000Y29497000D01*
X19627000Y29497000D01*
X19627000Y29477000D01*
X20726250Y29477000D01*
X20885000Y29635750D01*
X20885000Y29890000D01*
X21865510Y29890000D01*
X21865510Y29674880D01*
X22114346Y29074136D01*
X22574136Y28614346D01*
X23174880Y28365510D01*
X23825120Y28365510D01*
X23913608Y28402163D01*
X28277443Y28402163D01*
X29250000Y27429605D01*
X30222557Y28402163D01*
X31277443Y28402163D01*
X32250000Y27429605D01*
X33222557Y28402163D01*
X33123958Y28668965D01*
X32514418Y28895401D01*
X31864623Y28871341D01*
X31376042Y28668965D01*
X31277443Y28402163D01*
X30222557Y28402163D01*
X30123958Y28668965D01*
X29514418Y28895401D01*
X28864623Y28871341D01*
X28376042Y28668965D01*
X28277443Y28402163D01*
X23913608Y28402163D01*
X24425864Y28614346D01*
X24885654Y29074136D01*
X25134490Y29674880D01*
X25134490Y30325120D01*
X25033146Y30569787D01*
X28249392Y30569787D01*
X28318857Y30327603D01*
X28842302Y30140856D01*
X29397368Y30168638D01*
X29781143Y30327603D01*
X29850608Y30569787D01*
X30749392Y30569787D01*
X30818857Y30327603D01*
X31342302Y30140856D01*
X31897368Y30168638D01*
X32281143Y30327603D01*
X32350608Y30569787D01*
X31550000Y31370395D01*
X30749392Y30569787D01*
X29850608Y30569787D01*
X29050000Y31370395D01*
X28249392Y30569787D01*
X25033146Y30569787D01*
X24885654Y30925864D01*
X24425864Y31385654D01*
X23825120Y31634490D01*
X23174880Y31634490D01*
X22632913Y31410000D01*
X20839982Y31410000D01*
X20707809Y31607809D01*
X20497765Y31748157D01*
X20449799Y31757698D01*
X27640856Y31757698D01*
X27668638Y31202632D01*
X27827603Y30818857D01*
X28069787Y30749392D01*
X28870395Y31550000D01*
X29229605Y31550000D01*
X30030213Y30749392D01*
X30272397Y30818857D01*
X30297943Y30890462D01*
X30327603Y30818857D01*
X30569787Y30749392D01*
X31370395Y31550000D01*
X31729605Y31550000D01*
X32530213Y30749392D01*
X32772397Y30818857D01*
X32959144Y31342302D01*
X32931362Y31897368D01*
X32772397Y32281143D01*
X32530213Y32350608D01*
X31729605Y31550000D01*
X31370395Y31550000D01*
X30569787Y32350608D01*
X30327603Y32281143D01*
X30302057Y32209538D01*
X30272397Y32281143D01*
X30030213Y32350608D01*
X29229605Y31550000D01*
X28870395Y31550000D01*
X28069787Y32350608D01*
X27827603Y32281143D01*
X27640856Y31757698D01*
X20449799Y31757698D01*
X20250000Y31797440D01*
X18750000Y31797440D01*
X18502235Y31748157D01*
X18292191Y31607809D01*
X18160018Y31410000D01*
X17724848Y31410000D01*
X17650000Y31424888D01*
X17575152Y31410000D01*
X17575148Y31410000D01*
X17401605Y31375480D01*
X17353462Y31365904D01*
X17213104Y31272119D01*
X17102071Y31197929D01*
X17059671Y31134473D01*
X16515528Y30590329D01*
X16452072Y30547929D01*
X16409672Y30484473D01*
X16409671Y30484472D01*
X16284097Y30296537D01*
X16225112Y30000000D01*
X16240001Y29925148D01*
X16240000Y26514802D01*
X15755527Y26030329D01*
X15692072Y25987929D01*
X15649672Y25924473D01*
X15649671Y25924472D01*
X15568759Y25803378D01*
X15492235Y25788157D01*
X15282191Y25647809D01*
X15240000Y25584666D01*
X15197809Y25647809D01*
X15000000Y25779982D01*
X15000000Y28688482D01*
X15385654Y29074136D01*
X15634490Y29674880D01*
X15634490Y30325120D01*
X15385654Y30925864D01*
X14925864Y31385654D01*
X14325120Y31634490D01*
X13674880Y31634490D01*
X13074136Y31385654D01*
X12614346Y30925864D01*
X12365510Y30325120D01*
X12365510Y29674880D01*
X12614346Y29074136D01*
X13074136Y28614346D01*
X13480001Y28446232D01*
X13480000Y25779982D01*
X13282191Y25647809D01*
X13240000Y25584666D01*
X13197809Y25647809D01*
X13012586Y25771572D01*
X13000000Y25834848D01*
X13000000Y25834852D01*
X12955904Y26056537D01*
X12787929Y26307929D01*
X12724473Y26350329D01*
X11260000Y27814801D01*
X11260000Y28545643D01*
X11425864Y28614346D01*
X11885654Y29074136D01*
X12134490Y29674880D01*
X12134490Y30325120D01*
X11885654Y30925864D01*
X11425864Y31385654D01*
X10825120Y31634490D01*
X10174880Y31634490D01*
X9574136Y31385654D01*
X9114346Y30925864D01*
X8865510Y30325120D01*
X8865510Y29674880D01*
X9114346Y29074136D01*
X9574136Y28614346D01*
X9740000Y28545643D01*
X9740000Y27574847D01*
X9725112Y27500000D01*
X9740000Y27425153D01*
X9740000Y27425149D01*
X9784096Y27203464D01*
X9952071Y26952071D01*
X10015530Y26909669D01*
X11280268Y25644931D01*
X11240000Y25584666D01*
X11197809Y25647809D01*
X10987765Y25788157D01*
X10911242Y25803378D01*
X10787929Y25987929D01*
X10724473Y26030329D01*
X9270331Y27484470D01*
X9227929Y27547929D01*
X8976537Y27715904D01*
X8754852Y27760000D01*
X8754847Y27760000D01*
X8680000Y27774888D01*
X8605153Y27760000D01*
X6571518Y27760000D01*
X6885654Y28074136D01*
X7134490Y28674880D01*
X7134490Y29325120D01*
X6885654Y29925864D01*
X6425864Y30385654D01*
X6149808Y30500000D01*
X6425864Y30614346D01*
X6885654Y31074136D01*
X7134490Y31674880D01*
X7134490Y32325120D01*
X7049538Y32530213D01*
X28249392Y32530213D01*
X29050000Y31729605D01*
X29850608Y32530213D01*
X30749392Y32530213D01*
X31550000Y31729605D01*
X32350608Y32530213D01*
X32281143Y32772397D01*
X31757698Y32959144D01*
X31202632Y32931362D01*
X30818857Y32772397D01*
X30749392Y32530213D01*
X29850608Y32530213D01*
X29781143Y32772397D01*
X29257698Y32959144D01*
X28702632Y32931362D01*
X28318857Y32772397D01*
X28249392Y32530213D01*
X7049538Y32530213D01*
X6885654Y32925864D01*
X6796518Y33015000D01*
X43765001Y33015000D01*
X43765001Y32025845D01*
X43765001Y32025845D01*
G37*
X43765001Y32025845D02*
X43634320Y32341337D01*
X43627000Y32348657D01*
X43627000Y32500000D01*
X43617333Y32548601D01*
X43589803Y32589803D01*
X43548601Y32617333D01*
X43500000Y32627000D01*
X43348657Y32627000D01*
X43241337Y32734320D01*
X42727881Y32947000D01*
X42172119Y32947000D01*
X41658663Y32734320D01*
X41551343Y32627000D01*
X40848657Y32627000D01*
X40741337Y32734320D01*
X40227881Y32947000D01*
X39672119Y32947000D01*
X39158663Y32734320D01*
X39051343Y32627000D01*
X38000000Y32627000D01*
X37951399Y32617333D01*
X37910197Y32589803D01*
X37882667Y32548601D01*
X37873000Y32500000D01*
X37873000Y28184518D01*
X37864346Y28175864D01*
X37615510Y27575120D01*
X37615510Y26924880D01*
X37653147Y26834015D01*
X34967718Y24148585D01*
X34898000Y24102001D01*
X34851416Y24032283D01*
X34713448Y23825800D01*
X34648643Y23500000D01*
X34665001Y23417762D01*
X34665000Y13595868D01*
X31154133Y10085000D01*
X29932237Y10085000D01*
X29850000Y10101358D01*
X29767763Y10085000D01*
X29524199Y10036552D01*
X29247999Y9852001D01*
X29201415Y9782283D01*
X24500000Y5080867D01*
X23075000Y6505867D01*
X23075000Y6950132D01*
X23197809Y7032191D01*
X23286550Y7165000D01*
X23621289Y7165000D01*
X23663720Y7122569D01*
X24044126Y6965000D01*
X24455874Y6965000D01*
X24836280Y7122569D01*
X25127431Y7413720D01*
X25285000Y7794126D01*
X25285000Y8205874D01*
X25127431Y8586280D01*
X24836280Y8877431D01*
X24455874Y9035000D01*
X24044126Y9035000D01*
X23663720Y8877431D01*
X23621289Y8835000D01*
X23387440Y8835000D01*
X23387440Y9990000D01*
X23347149Y10192560D01*
X24640000Y10192560D01*
X24887765Y10241843D01*
X25097809Y10382191D01*
X25238157Y10592235D01*
X25287440Y10840000D01*
X25287440Y11840000D01*
X25241734Y12069787D01*
X28249392Y12069787D01*
X28318857Y11827603D01*
X28842302Y11640856D01*
X29397368Y11668638D01*
X29781143Y11827603D01*
X29850608Y12069787D01*
X30749392Y12069787D01*
X30818857Y11827603D01*
X31342302Y11640856D01*
X31897368Y11668638D01*
X32281143Y11827603D01*
X32350608Y12069787D01*
X31550000Y12870395D01*
X30749392Y12069787D01*
X29850608Y12069787D01*
X29050000Y12870395D01*
X28249392Y12069787D01*
X25241734Y12069787D01*
X25238157Y12087765D01*
X25097809Y12297809D01*
X25034666Y12340000D01*
X25097809Y12382191D01*
X25238157Y12592235D01*
X25287440Y12840000D01*
X25287440Y13257698D01*
X27640856Y13257698D01*
X27668638Y12702632D01*
X27827603Y12318857D01*
X28069787Y12249392D01*
X28870395Y13050000D01*
X29229605Y13050000D01*
X30030213Y12249392D01*
X30272397Y12318857D01*
X30297943Y12390462D01*
X30327603Y12318857D01*
X30569787Y12249392D01*
X31370395Y13050000D01*
X31729605Y13050000D01*
X32530213Y12249392D01*
X32772397Y12318857D01*
X32959144Y12842302D01*
X32931362Y13397368D01*
X32772397Y13781143D01*
X32530213Y13850608D01*
X31729605Y13050000D01*
X31370395Y13050000D01*
X30569787Y13850608D01*
X30327603Y13781143D01*
X30302057Y13709538D01*
X30272397Y13781143D01*
X30030213Y13850608D01*
X29229605Y13050000D01*
X28870395Y13050000D01*
X28069787Y13850608D01*
X27827603Y13781143D01*
X27640856Y13257698D01*
X25287440Y13257698D01*
X25287440Y13840000D01*
X25249605Y14030213D01*
X28249392Y14030213D01*
X29050000Y13229605D01*
X29850608Y14030213D01*
X30749392Y14030213D01*
X31550000Y13229605D01*
X32350608Y14030213D01*
X32281143Y14272397D01*
X31757698Y14459144D01*
X31202632Y14431362D01*
X30818857Y14272397D01*
X30749392Y14030213D01*
X29850608Y14030213D01*
X29781143Y14272397D01*
X29257698Y14459144D01*
X28702632Y14431362D01*
X28318857Y14272397D01*
X28249392Y14030213D01*
X25249605Y14030213D01*
X25238157Y14087765D01*
X25097809Y14297809D01*
X25034666Y14340000D01*
X25097809Y14382191D01*
X25238157Y14592235D01*
X25287440Y14840000D01*
X25287440Y15840000D01*
X25238157Y16087765D01*
X25097809Y16297809D01*
X25034666Y16340000D01*
X25097809Y16382191D01*
X25238157Y16592235D01*
X25287440Y16840000D01*
X25287440Y17840000D01*
X25238157Y18087765D01*
X25097809Y18297809D01*
X25034666Y18340000D01*
X25097809Y18382191D01*
X25238157Y18592235D01*
X25287440Y18840000D01*
X25287440Y19840000D01*
X25238157Y20087765D01*
X25097809Y20297809D01*
X25034666Y20340000D01*
X25097809Y20382191D01*
X25238157Y20592235D01*
X25287440Y20840000D01*
X25287440Y21840000D01*
X25238157Y22087765D01*
X25097809Y22297809D01*
X24887765Y22438157D01*
X24640000Y22487440D01*
X23343416Y22487440D01*
X23375000Y22563691D01*
X23375000Y23654250D01*
X23216250Y23813000D01*
X22367000Y23813000D01*
X22367000Y23793000D01*
X22113000Y23793000D01*
X22113000Y23813000D01*
X22093000Y23813000D01*
X22093000Y24067000D01*
X22113000Y24067000D01*
X22113000Y25666250D01*
X22367000Y25666250D01*
X22367000Y24067000D01*
X23216250Y24067000D01*
X23375000Y24225750D01*
X23375000Y25316309D01*
X23278327Y25549698D01*
X23099699Y25728327D01*
X22866310Y25825000D01*
X22525750Y25825000D01*
X22367000Y25666250D01*
X22113000Y25666250D01*
X21954250Y25825000D01*
X21613690Y25825000D01*
X21380301Y25728327D01*
X21238655Y25586680D01*
X21197809Y25647809D01*
X20987765Y25788157D01*
X20740000Y25837440D01*
X19740000Y25837440D01*
X19492235Y25788157D01*
X19282191Y25647809D01*
X19240000Y25584666D01*
X19197809Y25647809D01*
X18987765Y25788157D01*
X18740000Y25837440D01*
X17740000Y25837440D01*
X17661333Y25821792D01*
X17695549Y25873000D01*
X17715904Y25903463D01*
X17754567Y26097837D01*
X28277443Y26097837D01*
X28376042Y25831035D01*
X28985582Y25604599D01*
X29635377Y25628659D01*
X30123958Y25831035D01*
X30222557Y26097837D01*
X31277443Y26097837D01*
X31376042Y25831035D01*
X31985582Y25604599D01*
X32635377Y25628659D01*
X33123958Y25831035D01*
X33222557Y26097837D01*
X32250000Y27070395D01*
X31277443Y26097837D01*
X30222557Y26097837D01*
X29250000Y27070395D01*
X28277443Y26097837D01*
X17754567Y26097837D01*
X17760000Y26125148D01*
X17760000Y26125152D01*
X17774888Y26199999D01*
X17760000Y26274846D01*
X17760000Y27514418D01*
X27604599Y27514418D01*
X27628659Y26864623D01*
X27831035Y26376042D01*
X28097837Y26277443D01*
X29070395Y27250000D01*
X29429605Y27250000D01*
X30402163Y26277443D01*
X30668965Y26376042D01*
X30745593Y26582317D01*
X30831035Y26376042D01*
X31097837Y26277443D01*
X32070395Y27250000D01*
X32429605Y27250000D01*
X33402163Y26277443D01*
X33668965Y26376042D01*
X33895401Y26985582D01*
X33871341Y27635377D01*
X33668965Y28123958D01*
X33402163Y28222557D01*
X32429605Y27250000D01*
X32070395Y27250000D01*
X31097837Y28222557D01*
X30831035Y28123958D01*
X30754407Y27917683D01*
X30668965Y28123958D01*
X30402163Y28222557D01*
X29429605Y27250000D01*
X29070395Y27250000D01*
X28097837Y28222557D01*
X27831035Y28123958D01*
X27604599Y27514418D01*
X17760000Y27514418D01*
X17760000Y29064250D01*
X18115000Y29064250D01*
X18115000Y28723691D01*
X18211673Y28490302D01*
X18390301Y28311673D01*
X18623690Y28215000D01*
X19214250Y28215000D01*
X19373000Y28373750D01*
X19373000Y29223000D01*
X19627000Y29223000D01*
X19627000Y28373750D01*
X19785750Y28215000D01*
X20376310Y28215000D01*
X20609699Y28311673D01*
X20788327Y28490302D01*
X20885000Y28723691D01*
X20885000Y29064250D01*
X20726250Y29223000D01*
X19627000Y29223000D01*
X19373000Y29223000D01*
X18273750Y29223000D01*
X18115000Y29064250D01*
X17760000Y29064250D01*
X17760000Y29685199D01*
X17964802Y29890000D01*
X18115000Y29890000D01*
X18115000Y29635750D01*
X18273750Y29477000D01*
X19373000Y29477000D01*
X19373000Y29497000D01*
X19627000Y29497000D01*
X19627000Y29477000D01*
X20726250Y29477000D01*
X20885000Y29635750D01*
X20885000Y29890000D01*
X21865510Y29890000D01*
X21865510Y29674880D01*
X22114346Y29074136D01*
X22574136Y28614346D01*
X23174880Y28365510D01*
X23825120Y28365510D01*
X23913608Y28402163D01*
X28277443Y28402163D01*
X29250000Y27429605D01*
X30222557Y28402163D01*
X31277443Y28402163D01*
X32250000Y27429605D01*
X33222557Y28402163D01*
X33123958Y28668965D01*
X32514418Y28895401D01*
X31864623Y28871341D01*
X31376042Y28668965D01*
X31277443Y28402163D01*
X30222557Y28402163D01*
X30123958Y28668965D01*
X29514418Y28895401D01*
X28864623Y28871341D01*
X28376042Y28668965D01*
X28277443Y28402163D01*
X23913608Y28402163D01*
X24425864Y28614346D01*
X24885654Y29074136D01*
X25134490Y29674880D01*
X25134490Y30325120D01*
X25033146Y30569787D01*
X28249392Y30569787D01*
X28318857Y30327603D01*
X28842302Y30140856D01*
X29397368Y30168638D01*
X29781143Y30327603D01*
X29850608Y30569787D01*
X30749392Y30569787D01*
X30818857Y30327603D01*
X31342302Y30140856D01*
X31897368Y30168638D01*
X32281143Y30327603D01*
X32350608Y30569787D01*
X31550000Y31370395D01*
X30749392Y30569787D01*
X29850608Y30569787D01*
X29050000Y31370395D01*
X28249392Y30569787D01*
X25033146Y30569787D01*
X24885654Y30925864D01*
X24425864Y31385654D01*
X23825120Y31634490D01*
X23174880Y31634490D01*
X22632913Y31410000D01*
X20839982Y31410000D01*
X20707809Y31607809D01*
X20497765Y31748157D01*
X20449799Y31757698D01*
X27640856Y31757698D01*
X27668638Y31202632D01*
X27827603Y30818857D01*
X28069787Y30749392D01*
X28870395Y31550000D01*
X29229605Y31550000D01*
X30030213Y30749392D01*
X30272397Y30818857D01*
X30297943Y30890462D01*
X30327603Y30818857D01*
X30569787Y30749392D01*
X31370395Y31550000D01*
X31729605Y31550000D01*
X32530213Y30749392D01*
X32772397Y30818857D01*
X32959144Y31342302D01*
X32931362Y31897368D01*
X32772397Y32281143D01*
X32530213Y32350608D01*
X31729605Y31550000D01*
X31370395Y31550000D01*
X30569787Y32350608D01*
X30327603Y32281143D01*
X30302057Y32209538D01*
X30272397Y32281143D01*
X30030213Y32350608D01*
X29229605Y31550000D01*
X28870395Y31550000D01*
X28069787Y32350608D01*
X27827603Y32281143D01*
X27640856Y31757698D01*
X20449799Y31757698D01*
X20250000Y31797440D01*
X18750000Y31797440D01*
X18502235Y31748157D01*
X18292191Y31607809D01*
X18160018Y31410000D01*
X17724848Y31410000D01*
X17650000Y31424888D01*
X17575152Y31410000D01*
X17575148Y31410000D01*
X17401605Y31375480D01*
X17353462Y31365904D01*
X17213104Y31272119D01*
X17102071Y31197929D01*
X17059671Y31134473D01*
X16515528Y30590329D01*
X16452072Y30547929D01*
X16409672Y30484473D01*
X16409671Y30484472D01*
X16284097Y30296537D01*
X16225112Y30000000D01*
X16240001Y29925148D01*
X16240000Y26514802D01*
X15755527Y26030329D01*
X15692072Y25987929D01*
X15649672Y25924473D01*
X15649671Y25924472D01*
X15568759Y25803378D01*
X15492235Y25788157D01*
X15282191Y25647809D01*
X15240000Y25584666D01*
X15197809Y25647809D01*
X15000000Y25779982D01*
X15000000Y28688482D01*
X15385654Y29074136D01*
X15634490Y29674880D01*
X15634490Y30325120D01*
X15385654Y30925864D01*
X14925864Y31385654D01*
X14325120Y31634490D01*
X13674880Y31634490D01*
X13074136Y31385654D01*
X12614346Y30925864D01*
X12365510Y30325120D01*
X12365510Y29674880D01*
X12614346Y29074136D01*
X13074136Y28614346D01*
X13480001Y28446232D01*
X13480000Y25779982D01*
X13282191Y25647809D01*
X13240000Y25584666D01*
X13197809Y25647809D01*
X13012586Y25771572D01*
X13000000Y25834848D01*
X13000000Y25834852D01*
X12955904Y26056537D01*
X12787929Y26307929D01*
X12724473Y26350329D01*
X11260000Y27814801D01*
X11260000Y28545643D01*
X11425864Y28614346D01*
X11885654Y29074136D01*
X12134490Y29674880D01*
X12134490Y30325120D01*
X11885654Y30925864D01*
X11425864Y31385654D01*
X10825120Y31634490D01*
X10174880Y31634490D01*
X9574136Y31385654D01*
X9114346Y30925864D01*
X8865510Y30325120D01*
X8865510Y29674880D01*
X9114346Y29074136D01*
X9574136Y28614346D01*
X9740000Y28545643D01*
X9740000Y27574847D01*
X9725112Y27500000D01*
X9740000Y27425153D01*
X9740000Y27425149D01*
X9784096Y27203464D01*
X9952071Y26952071D01*
X10015530Y26909669D01*
X11280268Y25644931D01*
X11240000Y25584666D01*
X11197809Y25647809D01*
X10987765Y25788157D01*
X10911242Y25803378D01*
X10787929Y25987929D01*
X10724473Y26030329D01*
X9270331Y27484470D01*
X9227929Y27547929D01*
X8976537Y27715904D01*
X8754852Y27760000D01*
X8754847Y27760000D01*
X8680000Y27774888D01*
X8605153Y27760000D01*
X6571518Y27760000D01*
X6885654Y28074136D01*
X7134490Y28674880D01*
X7134490Y29325120D01*
X6885654Y29925864D01*
X6425864Y30385654D01*
X6149808Y30500000D01*
X6425864Y30614346D01*
X6885654Y31074136D01*
X7134490Y31674880D01*
X7134490Y32325120D01*
X7049538Y32530213D01*
X28249392Y32530213D01*
X29050000Y31729605D01*
X29850608Y32530213D01*
X30749392Y32530213D01*
X31550000Y31729605D01*
X32350608Y32530213D01*
X32281143Y32772397D01*
X31757698Y32959144D01*
X31202632Y32931362D01*
X30818857Y32772397D01*
X30749392Y32530213D01*
X29850608Y32530213D01*
X29781143Y32772397D01*
X29257698Y32959144D01*
X28702632Y32931362D01*
X28318857Y32772397D01*
X28249392Y32530213D01*
X7049538Y32530213D01*
X6885654Y32925864D01*
X6796518Y33015000D01*
X43765001Y33015000D01*
X43765001Y32025845D01*
G36*
X17282191Y22232191D02*
X17492235Y22091843D01*
X17622701Y22065892D01*
X17629979Y22055000D01*
X17692072Y21962071D01*
X17715000Y21946751D01*
X17715000Y21794126D01*
X17872569Y21413720D01*
X18163720Y21122569D01*
X18544126Y20965000D01*
X18955874Y20965000D01*
X19080027Y21016426D01*
X19122569Y20913720D01*
X19413720Y20622569D01*
X19794126Y20465000D01*
X20205874Y20465000D01*
X20586280Y20622569D01*
X20877431Y20913720D01*
X21035000Y21294126D01*
X21035000Y21705874D01*
X20883701Y22071144D01*
X20987765Y22091843D01*
X21197809Y22232191D01*
X21238655Y22293320D01*
X21380301Y22151673D01*
X21613690Y22055000D01*
X21954250Y22055000D01*
X22112998Y22213748D01*
X22112998Y22055000D01*
X22235326Y22055000D01*
X22192560Y21840000D01*
X22192560Y20840000D01*
X22241843Y20592235D01*
X22382191Y20382191D01*
X22445334Y20340000D01*
X22382191Y20297809D01*
X22241843Y20087765D01*
X22192560Y19840000D01*
X22192560Y18840000D01*
X22241843Y18592235D01*
X22382191Y18382191D01*
X22445334Y18340000D01*
X22382191Y18297809D01*
X22241843Y18087765D01*
X22192560Y17840000D01*
X22192560Y16840000D01*
X22241843Y16592235D01*
X22382191Y16382191D01*
X22445334Y16340000D01*
X22382191Y16297809D01*
X22241843Y16087765D01*
X22192560Y15840000D01*
X22192560Y14840000D01*
X22241843Y14592235D01*
X22382191Y14382191D01*
X22445334Y14340000D01*
X22382191Y14297809D01*
X22241843Y14087765D01*
X22192560Y13840000D01*
X22192560Y12840000D01*
X22241843Y12592235D01*
X22382191Y12382191D01*
X22445334Y12340000D01*
X22382191Y12297809D01*
X22241843Y12087765D01*
X22192560Y11840000D01*
X22192560Y10840000D01*
X22232851Y10637440D01*
X21740000Y10637440D01*
X21492235Y10588157D01*
X21282191Y10447809D01*
X21240000Y10384666D01*
X21197809Y10447809D01*
X21153746Y10477251D01*
X21285000Y10794126D01*
X21285000Y11205874D01*
X21127431Y11586280D01*
X20836280Y11877431D01*
X20455874Y12035000D01*
X20044126Y12035000D01*
X19663720Y11877431D01*
X19372569Y11586280D01*
X19300770Y11412941D01*
X19086280Y11627431D01*
X18705874Y11785000D01*
X18294126Y11785000D01*
X17913720Y11627431D01*
X17622569Y11336280D01*
X17465000Y10955874D01*
X17465000Y10569959D01*
X17282191Y10447809D01*
X17240000Y10384666D01*
X17197809Y10447809D01*
X17153746Y10477251D01*
X17285000Y10794126D01*
X17285000Y11205874D01*
X17127431Y11586280D01*
X16836280Y11877431D01*
X16455874Y12035000D01*
X16044126Y12035000D01*
X15663720Y11877431D01*
X15372569Y11586280D01*
X15215000Y11205874D01*
X15215000Y10794126D01*
X15341918Y10487718D01*
X15282191Y10447809D01*
X15240000Y10384666D01*
X15197809Y10447809D01*
X15000000Y10579982D01*
X15000000Y10685152D01*
X15014888Y10760000D01*
X15000000Y10834848D01*
X15000000Y10834852D01*
X14955904Y11056537D01*
X14787929Y11307929D01*
X14785000Y11309886D01*
X14785000Y11455874D01*
X14627431Y11836280D01*
X14336280Y12127431D01*
X13955874Y12285000D01*
X13544126Y12285000D01*
X13163720Y12127431D01*
X13000000Y11963711D01*
X12836280Y12127431D01*
X12455874Y12285000D01*
X12044126Y12285000D01*
X11663720Y12127431D01*
X11372569Y11836280D01*
X11215000Y11455874D01*
X11215000Y11044126D01*
X11372569Y10663720D01*
X11465797Y10570492D01*
X11282191Y10447809D01*
X11240000Y10384666D01*
X11197809Y10447809D01*
X10987765Y10588157D01*
X10740000Y10637440D01*
X9740000Y10637440D01*
X9492235Y10588157D01*
X9282191Y10447809D01*
X9240000Y10384666D01*
X9197809Y10447809D01*
X9000000Y10579982D01*
X9000000Y10685154D01*
X9009366Y10732240D01*
X9035000Y10794126D01*
X9035000Y11205874D01*
X8877431Y11586280D01*
X8586280Y11877431D01*
X8205874Y12035000D01*
X7794126Y12035000D01*
X7413720Y11877431D01*
X7377000Y11840711D01*
X7377000Y22168841D01*
X7492235Y22091843D01*
X7740000Y22042560D01*
X8740000Y22042560D01*
X8987765Y22091843D01*
X9197809Y22232191D01*
X9240000Y22295334D01*
X9282191Y22232191D01*
X9492235Y22091843D01*
X9740000Y22042560D01*
X10740000Y22042560D01*
X10987765Y22091843D01*
X11197809Y22232191D01*
X11240000Y22295334D01*
X11282191Y22232191D01*
X11319209Y22207456D01*
X11215000Y21955874D01*
X11215000Y21544126D01*
X11372569Y21163720D01*
X11663720Y20872569D01*
X12044126Y20715000D01*
X12455874Y20715000D01*
X12836280Y20872569D01*
X13127431Y21163720D01*
X13250000Y21459628D01*
X13372569Y21163720D01*
X13663720Y20872569D01*
X14044126Y20715000D01*
X14455874Y20715000D01*
X14836280Y20872569D01*
X15127431Y21163720D01*
X15285000Y21544126D01*
X15285000Y21955874D01*
X15176456Y22217923D01*
X15197809Y22232191D01*
X15240000Y22295334D01*
X15282191Y22232191D01*
X15492235Y22091843D01*
X15740000Y22042560D01*
X16740000Y22042560D01*
X16987765Y22091843D01*
X17197809Y22232191D01*
X17240000Y22295334D01*
X17282191Y22232191D01*
X17282191Y22232191D01*
G37*
X17282191Y22232191D02*
X17492235Y22091843D01*
X17622701Y22065892D01*
X17629979Y22055000D01*
X17692072Y21962071D01*
X17715000Y21946751D01*
X17715000Y21794126D01*
X17872569Y21413720D01*
X18163720Y21122569D01*
X18544126Y20965000D01*
X18955874Y20965000D01*
X19080027Y21016426D01*
X19122569Y20913720D01*
X19413720Y20622569D01*
X19794126Y20465000D01*
X20205874Y20465000D01*
X20586280Y20622569D01*
X20877431Y20913720D01*
X21035000Y21294126D01*
X21035000Y21705874D01*
X20883701Y22071144D01*
X20987765Y22091843D01*
X21197809Y22232191D01*
X21238655Y22293320D01*
X21380301Y22151673D01*
X21613690Y22055000D01*
X21954250Y22055000D01*
X22112998Y22213748D01*
X22112998Y22055000D01*
X22235326Y22055000D01*
X22192560Y21840000D01*
X22192560Y20840000D01*
X22241843Y20592235D01*
X22382191Y20382191D01*
X22445334Y20340000D01*
X22382191Y20297809D01*
X22241843Y20087765D01*
X22192560Y19840000D01*
X22192560Y18840000D01*
X22241843Y18592235D01*
X22382191Y18382191D01*
X22445334Y18340000D01*
X22382191Y18297809D01*
X22241843Y18087765D01*
X22192560Y17840000D01*
X22192560Y16840000D01*
X22241843Y16592235D01*
X22382191Y16382191D01*
X22445334Y16340000D01*
X22382191Y16297809D01*
X22241843Y16087765D01*
X22192560Y15840000D01*
X22192560Y14840000D01*
X22241843Y14592235D01*
X22382191Y14382191D01*
X22445334Y14340000D01*
X22382191Y14297809D01*
X22241843Y14087765D01*
X22192560Y13840000D01*
X22192560Y12840000D01*
X22241843Y12592235D01*
X22382191Y12382191D01*
X22445334Y12340000D01*
X22382191Y12297809D01*
X22241843Y12087765D01*
X22192560Y11840000D01*
X22192560Y10840000D01*
X22232851Y10637440D01*
X21740000Y10637440D01*
X21492235Y10588157D01*
X21282191Y10447809D01*
X21240000Y10384666D01*
X21197809Y10447809D01*
X21153746Y10477251D01*
X21285000Y10794126D01*
X21285000Y11205874D01*
X21127431Y11586280D01*
X20836280Y11877431D01*
X20455874Y12035000D01*
X20044126Y12035000D01*
X19663720Y11877431D01*
X19372569Y11586280D01*
X19300770Y11412941D01*
X19086280Y11627431D01*
X18705874Y11785000D01*
X18294126Y11785000D01*
X17913720Y11627431D01*
X17622569Y11336280D01*
X17465000Y10955874D01*
X17465000Y10569959D01*
X17282191Y10447809D01*
X17240000Y10384666D01*
X17197809Y10447809D01*
X17153746Y10477251D01*
X17285000Y10794126D01*
X17285000Y11205874D01*
X17127431Y11586280D01*
X16836280Y11877431D01*
X16455874Y12035000D01*
X16044126Y12035000D01*
X15663720Y11877431D01*
X15372569Y11586280D01*
X15215000Y11205874D01*
X15215000Y10794126D01*
X15341918Y10487718D01*
X15282191Y10447809D01*
X15240000Y10384666D01*
X15197809Y10447809D01*
X15000000Y10579982D01*
X15000000Y10685152D01*
X15014888Y10760000D01*
X15000000Y10834848D01*
X15000000Y10834852D01*
X14955904Y11056537D01*
X14787929Y11307929D01*
X14785000Y11309886D01*
X14785000Y11455874D01*
X14627431Y11836280D01*
X14336280Y12127431D01*
X13955874Y12285000D01*
X13544126Y12285000D01*
X13163720Y12127431D01*
X13000000Y11963711D01*
X12836280Y12127431D01*
X12455874Y12285000D01*
X12044126Y12285000D01*
X11663720Y12127431D01*
X11372569Y11836280D01*
X11215000Y11455874D01*
X11215000Y11044126D01*
X11372569Y10663720D01*
X11465797Y10570492D01*
X11282191Y10447809D01*
X11240000Y10384666D01*
X11197809Y10447809D01*
X10987765Y10588157D01*
X10740000Y10637440D01*
X9740000Y10637440D01*
X9492235Y10588157D01*
X9282191Y10447809D01*
X9240000Y10384666D01*
X9197809Y10447809D01*
X9000000Y10579982D01*
X9000000Y10685154D01*
X9009366Y10732240D01*
X9035000Y10794126D01*
X9035000Y11205874D01*
X8877431Y11586280D01*
X8586280Y11877431D01*
X8205874Y12035000D01*
X7794126Y12035000D01*
X7413720Y11877431D01*
X7377000Y11840711D01*
X7377000Y22168841D01*
X7492235Y22091843D01*
X7740000Y22042560D01*
X8740000Y22042560D01*
X8987765Y22091843D01*
X9197809Y22232191D01*
X9240000Y22295334D01*
X9282191Y22232191D01*
X9492235Y22091843D01*
X9740000Y22042560D01*
X10740000Y22042560D01*
X10987765Y22091843D01*
X11197809Y22232191D01*
X11240000Y22295334D01*
X11282191Y22232191D01*
X11319209Y22207456D01*
X11215000Y21955874D01*
X11215000Y21544126D01*
X11372569Y21163720D01*
X11663720Y20872569D01*
X12044126Y20715000D01*
X12455874Y20715000D01*
X12836280Y20872569D01*
X13127431Y21163720D01*
X13250000Y21459628D01*
X13372569Y21163720D01*
X13663720Y20872569D01*
X14044126Y20715000D01*
X14455874Y20715000D01*
X14836280Y20872569D01*
X15127431Y21163720D01*
X15285000Y21544126D01*
X15285000Y21955874D01*
X15176456Y22217923D01*
X15197809Y22232191D01*
X15240000Y22295334D01*
X15282191Y22232191D01*
X15492235Y22091843D01*
X15740000Y22042560D01*
X16740000Y22042560D01*
X16987765Y22091843D01*
X17197809Y22232191D01*
X17240000Y22295334D01*
X17282191Y22232191D01*
G36*
X1347836Y32972556D02*
X1081035Y32873958D01*
X854599Y32264418D01*
X878659Y31614623D01*
X1081035Y31126042D01*
X1347837Y31027443D01*
X2320395Y32000000D01*
X2306252Y32014142D01*
X2485858Y32193748D01*
X2500000Y32179605D01*
X2514142Y32193748D01*
X2693748Y32014142D01*
X2679605Y32000000D01*
X3652163Y31027443D01*
X3918965Y31126042D01*
X4001178Y31347349D01*
X4114346Y31074136D01*
X4574136Y30614346D01*
X4850192Y30500000D01*
X4574136Y30385654D01*
X4114346Y29925864D01*
X4000000Y29649808D01*
X3885654Y29925864D01*
X3425864Y30385654D01*
X3164065Y30494095D01*
X3373958Y30581035D01*
X3472557Y30847837D01*
X2500000Y31820395D01*
X1527443Y30847837D01*
X1626042Y30581035D01*
X1847349Y30498822D01*
X1574136Y30385654D01*
X1114346Y29925864D01*
X865510Y29325120D01*
X865510Y28674880D01*
X1114346Y28074136D01*
X1574136Y27614346D01*
X1740000Y27545643D01*
X1740000Y26574847D01*
X1725112Y26500000D01*
X1740000Y26425153D01*
X1740000Y26425149D01*
X1784096Y26203464D01*
X1952071Y25952071D01*
X2015529Y25909669D01*
X2409671Y25515528D01*
X2452071Y25452071D01*
X2515527Y25409671D01*
X2703462Y25284096D01*
X2751605Y25274520D01*
X2925148Y25240000D01*
X2925152Y25240000D01*
X3000000Y25225112D01*
X3074848Y25240000D01*
X7102506Y25240000D01*
X7092560Y25190000D01*
X7092560Y24377000D01*
X735000Y24377000D01*
X735000Y33015000D01*
X1305392Y33015000D01*
X1347836Y32972556D01*
X1347836Y32972556D01*
G37*
X1347836Y32972556D02*
X1081035Y32873958D01*
X854599Y32264418D01*
X878659Y31614623D01*
X1081035Y31126042D01*
X1347837Y31027443D01*
X2320395Y32000000D01*
X2306252Y32014142D01*
X2485858Y32193748D01*
X2500000Y32179605D01*
X2514142Y32193748D01*
X2693748Y32014142D01*
X2679605Y32000000D01*
X3652163Y31027443D01*
X3918965Y31126042D01*
X4001178Y31347349D01*
X4114346Y31074136D01*
X4574136Y30614346D01*
X4850192Y30500000D01*
X4574136Y30385654D01*
X4114346Y29925864D01*
X4000000Y29649808D01*
X3885654Y29925864D01*
X3425864Y30385654D01*
X3164065Y30494095D01*
X3373958Y30581035D01*
X3472557Y30847837D01*
X2500000Y31820395D01*
X1527443Y30847837D01*
X1626042Y30581035D01*
X1847349Y30498822D01*
X1574136Y30385654D01*
X1114346Y29925864D01*
X865510Y29325120D01*
X865510Y28674880D01*
X1114346Y28074136D01*
X1574136Y27614346D01*
X1740000Y27545643D01*
X1740000Y26574847D01*
X1725112Y26500000D01*
X1740000Y26425153D01*
X1740000Y26425149D01*
X1784096Y26203464D01*
X1952071Y25952071D01*
X2015529Y25909669D01*
X2409671Y25515528D01*
X2452071Y25452071D01*
X2515527Y25409671D01*
X2703462Y25284096D01*
X2751605Y25274520D01*
X2925148Y25240000D01*
X2925152Y25240000D01*
X3000000Y25225112D01*
X3074848Y25240000D01*
X7102506Y25240000D01*
X7092560Y25190000D01*
X7092560Y24377000D01*
X735000Y24377000D01*
X735000Y33015000D01*
X1305392Y33015000D01*
X1347836Y32972556D01*
M02*
