%TF.GenerationSoftware,KiCad,Pcbnew,5.0.1*%
%TF.CreationDate,2019-02-20T12:32:28+01:00*%
%TF.ProjectId,rgbww-micro-board,72676277772D6D6963726F2D626F6172,rev?*%
%TF.SameCoordinates,PXb903480PY55d4a80*%
%TF.FileFunction,Soldermask,Bot*%
%TF.FilePolarity,Negative*%
%FSLAX46Y46*%
G04 Gerber Fmt 4.6, Leading zero omitted, Abs format (unit mm)*
G04 Created by KiCad (PCBNEW 5.0.1) date Mi 20 Feb 2019 12:32:28 CET*
%MOMM*%
%LPD*%
G01*
G04 APERTURE LIST*
%ADD10C,0.200000*%
%ADD11C,0.100000*%
G04 APERTURE END LIST*
D10*
X44500000Y33750000D02*
X0Y33750000D01*
X44500000Y0D02*
X44500000Y33750000D01*
X0Y0D02*
X44500000Y0D01*
X0Y33750000D02*
X0Y0D01*
D11*
G36*
X13056414Y3010121D02*
X13056416Y3010120D01*
X13056417Y3010120D01*
X13086078Y2997834D01*
X13247594Y2930932D01*
X13419651Y2815967D01*
X13565967Y2669651D01*
X13680932Y2497594D01*
X13760121Y2306414D01*
X13800490Y2103466D01*
X13800490Y1896534D01*
X13760121Y1693586D01*
X13680932Y1502406D01*
X13565967Y1330349D01*
X13419651Y1184033D01*
X13419648Y1184031D01*
X13247594Y1069068D01*
X13056417Y989880D01*
X13056416Y989880D01*
X13056414Y989879D01*
X12853466Y949510D01*
X12646534Y949510D01*
X12443586Y989879D01*
X12443584Y989880D01*
X12443583Y989880D01*
X12252406Y1069068D01*
X12080352Y1184031D01*
X12080349Y1184033D01*
X11934033Y1330349D01*
X11819068Y1502406D01*
X11739879Y1693586D01*
X11699510Y1896534D01*
X11699510Y2103466D01*
X11739879Y2306414D01*
X11819068Y2497594D01*
X11934033Y2669651D01*
X12080349Y2815967D01*
X12252406Y2930932D01*
X12413922Y2997834D01*
X12443583Y3010120D01*
X12443584Y3010120D01*
X12443586Y3010121D01*
X12646534Y3050490D01*
X12853466Y3050490D01*
X13056414Y3010121D01*
X13056414Y3010121D01*
G37*
G36*
X16306414Y3010121D02*
X16306416Y3010120D01*
X16306417Y3010120D01*
X16336078Y2997834D01*
X16497594Y2930932D01*
X16669651Y2815967D01*
X16815967Y2669651D01*
X16930932Y2497594D01*
X17010121Y2306414D01*
X17050490Y2103466D01*
X17050490Y1896534D01*
X17010121Y1693586D01*
X16930932Y1502406D01*
X16815967Y1330349D01*
X16669651Y1184033D01*
X16669648Y1184031D01*
X16497594Y1069068D01*
X16306417Y989880D01*
X16306416Y989880D01*
X16306414Y989879D01*
X16103466Y949510D01*
X15896534Y949510D01*
X15693586Y989879D01*
X15693584Y989880D01*
X15693583Y989880D01*
X15502406Y1069068D01*
X15330352Y1184031D01*
X15330349Y1184033D01*
X15184033Y1330349D01*
X15069068Y1502406D01*
X14989879Y1693586D01*
X14949510Y1896534D01*
X14949510Y2103466D01*
X14989879Y2306414D01*
X15069068Y2497594D01*
X15184033Y2669651D01*
X15330349Y2815967D01*
X15502406Y2930932D01*
X15663922Y2997834D01*
X15693583Y3010120D01*
X15693584Y3010120D01*
X15693586Y3010121D01*
X15896534Y3050490D01*
X16103466Y3050490D01*
X16306414Y3010121D01*
X16306414Y3010121D01*
G37*
G36*
X19556414Y3010121D02*
X19556416Y3010120D01*
X19556417Y3010120D01*
X19586078Y2997834D01*
X19747594Y2930932D01*
X19919651Y2815967D01*
X20065967Y2669651D01*
X20180932Y2497594D01*
X20260121Y2306414D01*
X20300490Y2103466D01*
X20300490Y1896534D01*
X20260121Y1693586D01*
X20180932Y1502406D01*
X20065967Y1330349D01*
X19919651Y1184033D01*
X19919648Y1184031D01*
X19747594Y1069068D01*
X19556417Y989880D01*
X19556416Y989880D01*
X19556414Y989879D01*
X19353466Y949510D01*
X19146534Y949510D01*
X18943586Y989879D01*
X18943584Y989880D01*
X18943583Y989880D01*
X18752406Y1069068D01*
X18580352Y1184031D01*
X18580349Y1184033D01*
X18434033Y1330349D01*
X18319068Y1502406D01*
X18239879Y1693586D01*
X18199510Y1896534D01*
X18199510Y2103466D01*
X18239879Y2306414D01*
X18319068Y2497594D01*
X18434033Y2669651D01*
X18580349Y2815967D01*
X18752406Y2930932D01*
X18913922Y2997834D01*
X18943583Y3010120D01*
X18943584Y3010120D01*
X18943586Y3010121D01*
X19146534Y3050490D01*
X19353466Y3050490D01*
X19556414Y3010121D01*
X19556414Y3010121D01*
G37*
G36*
X39551000Y1199000D02*
X37449000Y1199000D01*
X37449000Y3301000D01*
X39551000Y3301000D01*
X39551000Y1199000D01*
X39551000Y1199000D01*
G37*
G36*
X35306565Y3260611D02*
X35497834Y3181385D01*
X35669976Y3066363D01*
X35816363Y2919976D01*
X35931385Y2747834D01*
X36010611Y2556565D01*
X36051000Y2353516D01*
X36051000Y2146484D01*
X36010611Y1943435D01*
X35931385Y1752166D01*
X35816363Y1580024D01*
X35669976Y1433637D01*
X35497834Y1318615D01*
X35306565Y1239389D01*
X35103516Y1199000D01*
X34896484Y1199000D01*
X34693435Y1239389D01*
X34502166Y1318615D01*
X34330024Y1433637D01*
X34183637Y1580024D01*
X34068615Y1752166D01*
X33989389Y1943435D01*
X33949000Y2146484D01*
X33949000Y2353516D01*
X33989389Y2556565D01*
X34068615Y2747834D01*
X34183637Y2919976D01*
X34330024Y3066363D01*
X34502166Y3181385D01*
X34693435Y3260611D01*
X34896484Y3301000D01*
X35103516Y3301000D01*
X35306565Y3260611D01*
X35306565Y3260611D01*
G37*
G36*
X28306565Y3510611D02*
X28497834Y3431385D01*
X28669976Y3316363D01*
X28816363Y3169976D01*
X28931385Y2997834D01*
X29010611Y2806565D01*
X29051000Y2603516D01*
X29051000Y2396484D01*
X29010611Y2193435D01*
X28931385Y2002166D01*
X28816363Y1830024D01*
X28669976Y1683637D01*
X28497834Y1568615D01*
X28306565Y1489389D01*
X28103516Y1449000D01*
X27896484Y1449000D01*
X27693435Y1489389D01*
X27502166Y1568615D01*
X27330024Y1683637D01*
X27183637Y1830024D01*
X27068615Y2002166D01*
X26989389Y2193435D01*
X26949000Y2396484D01*
X26949000Y2603516D01*
X26989389Y2806565D01*
X27068615Y2997834D01*
X27183637Y3169976D01*
X27330024Y3316363D01*
X27502166Y3431385D01*
X27693435Y3510611D01*
X27896484Y3551000D01*
X28103516Y3551000D01*
X28306565Y3510611D01*
X28306565Y3510611D01*
G37*
G36*
X25551000Y1449000D02*
X23449000Y1449000D01*
X23449000Y3551000D01*
X25551000Y3551000D01*
X25551000Y1449000D01*
X25551000Y1449000D01*
G37*
G36*
X16088677Y6571535D02*
X16126364Y6560102D01*
X16161103Y6541534D01*
X16191548Y6516548D01*
X16216534Y6486103D01*
X16235102Y6451364D01*
X16246535Y6413677D01*
X16251000Y6368339D01*
X16251000Y5531661D01*
X16246535Y5486323D01*
X16235102Y5448636D01*
X16216534Y5413897D01*
X16191548Y5383452D01*
X16161103Y5358466D01*
X16126364Y5339898D01*
X16088677Y5328465D01*
X16043339Y5324000D01*
X14956661Y5324000D01*
X14911323Y5328465D01*
X14873636Y5339898D01*
X14838897Y5358466D01*
X14808452Y5383452D01*
X14783466Y5413897D01*
X14764898Y5448636D01*
X14753465Y5486323D01*
X14749000Y5531661D01*
X14749000Y6368339D01*
X14753465Y6413677D01*
X14764898Y6451364D01*
X14783466Y6486103D01*
X14808452Y6516548D01*
X14838897Y6541534D01*
X14873636Y6560102D01*
X14911323Y6571535D01*
X14956661Y6576000D01*
X16043339Y6576000D01*
X16088677Y6571535D01*
X16088677Y6571535D01*
G37*
G36*
X12588677Y6571535D02*
X12626364Y6560102D01*
X12661103Y6541534D01*
X12691548Y6516548D01*
X12716534Y6486103D01*
X12735102Y6451364D01*
X12746535Y6413677D01*
X12751000Y6368339D01*
X12751000Y5531661D01*
X12746535Y5486323D01*
X12735102Y5448636D01*
X12716534Y5413897D01*
X12691548Y5383452D01*
X12661103Y5358466D01*
X12626364Y5339898D01*
X12588677Y5328465D01*
X12543339Y5324000D01*
X11456661Y5324000D01*
X11411323Y5328465D01*
X11373636Y5339898D01*
X11338897Y5358466D01*
X11308452Y5383452D01*
X11283466Y5413897D01*
X11264898Y5448636D01*
X11253465Y5486323D01*
X11249000Y5531661D01*
X11249000Y6368339D01*
X11253465Y6413677D01*
X11264898Y6451364D01*
X11283466Y6486103D01*
X11308452Y6516548D01*
X11338897Y6541534D01*
X11373636Y6560102D01*
X11411323Y6571535D01*
X11456661Y6576000D01*
X12543339Y6576000D01*
X12588677Y6571535D01*
X12588677Y6571535D01*
G37*
G36*
X8588677Y6621535D02*
X8626364Y6610102D01*
X8661103Y6591534D01*
X8691548Y6566548D01*
X8716534Y6536103D01*
X8735102Y6501364D01*
X8746535Y6463677D01*
X8751000Y6418339D01*
X8751000Y5581661D01*
X8746535Y5536323D01*
X8735102Y5498636D01*
X8716534Y5463897D01*
X8691548Y5433452D01*
X8661103Y5408466D01*
X8626364Y5389898D01*
X8588677Y5378465D01*
X8543339Y5374000D01*
X7456661Y5374000D01*
X7411323Y5378465D01*
X7373636Y5389898D01*
X7338897Y5408466D01*
X7308452Y5433452D01*
X7283466Y5463897D01*
X7264898Y5498636D01*
X7253465Y5536323D01*
X7249000Y5581661D01*
X7249000Y6418339D01*
X7253465Y6463677D01*
X7264898Y6501364D01*
X7283466Y6536103D01*
X7308452Y6566548D01*
X7338897Y6591534D01*
X7373636Y6610102D01*
X7411323Y6621535D01*
X7456661Y6626000D01*
X8543339Y6626000D01*
X8588677Y6621535D01*
X8588677Y6621535D01*
G37*
G36*
X16088677Y8621535D02*
X16126364Y8610102D01*
X16161103Y8591534D01*
X16191548Y8566548D01*
X16216534Y8536103D01*
X16235102Y8501364D01*
X16246535Y8463677D01*
X16251000Y8418339D01*
X16251000Y7581661D01*
X16246535Y7536323D01*
X16235102Y7498636D01*
X16216534Y7463897D01*
X16191548Y7433452D01*
X16161103Y7408466D01*
X16126364Y7389898D01*
X16088677Y7378465D01*
X16043339Y7374000D01*
X14956661Y7374000D01*
X14911323Y7378465D01*
X14873636Y7389898D01*
X14838897Y7408466D01*
X14808452Y7433452D01*
X14783466Y7463897D01*
X14764898Y7498636D01*
X14753465Y7536323D01*
X14749000Y7581661D01*
X14749000Y8418339D01*
X14753465Y8463677D01*
X14764898Y8501364D01*
X14783466Y8536103D01*
X14808452Y8566548D01*
X14838897Y8591534D01*
X14873636Y8610102D01*
X14911323Y8621535D01*
X14956661Y8626000D01*
X16043339Y8626000D01*
X16088677Y8621535D01*
X16088677Y8621535D01*
G37*
G36*
X12588677Y8621535D02*
X12626364Y8610102D01*
X12661103Y8591534D01*
X12691548Y8566548D01*
X12716534Y8536103D01*
X12735102Y8501364D01*
X12746535Y8463677D01*
X12751000Y8418339D01*
X12751000Y7581661D01*
X12746535Y7536323D01*
X12735102Y7498636D01*
X12716534Y7463897D01*
X12691548Y7433452D01*
X12661103Y7408466D01*
X12626364Y7389898D01*
X12588677Y7378465D01*
X12543339Y7374000D01*
X11456661Y7374000D01*
X11411323Y7378465D01*
X11373636Y7389898D01*
X11338897Y7408466D01*
X11308452Y7433452D01*
X11283466Y7463897D01*
X11264898Y7498636D01*
X11253465Y7536323D01*
X11249000Y7581661D01*
X11249000Y8418339D01*
X11253465Y8463677D01*
X11264898Y8501364D01*
X11283466Y8536103D01*
X11308452Y8566548D01*
X11338897Y8591534D01*
X11373636Y8610102D01*
X11411323Y8621535D01*
X11456661Y8626000D01*
X12543339Y8626000D01*
X12588677Y8621535D01*
X12588677Y8621535D01*
G37*
G36*
X8588677Y8671535D02*
X8626364Y8660102D01*
X8661103Y8641534D01*
X8691548Y8616548D01*
X8716534Y8586103D01*
X8735102Y8551364D01*
X8746535Y8513677D01*
X8751000Y8468339D01*
X8751000Y7631661D01*
X8746535Y7586323D01*
X8735102Y7548636D01*
X8716534Y7513897D01*
X8691548Y7483452D01*
X8661103Y7458466D01*
X8626364Y7439898D01*
X8588677Y7428465D01*
X8543339Y7424000D01*
X7456661Y7424000D01*
X7411323Y7428465D01*
X7373636Y7439898D01*
X7338897Y7458466D01*
X7308452Y7483452D01*
X7283466Y7513897D01*
X7264898Y7548636D01*
X7253465Y7586323D01*
X7249000Y7631661D01*
X7249000Y8468339D01*
X7253465Y8513677D01*
X7264898Y8551364D01*
X7283466Y8586103D01*
X7308452Y8616548D01*
X7338897Y8641534D01*
X7373636Y8660102D01*
X7411323Y8671535D01*
X7456661Y8676000D01*
X8543339Y8676000D01*
X8588677Y8671535D01*
X8588677Y8671535D01*
G37*
G36*
X43556414Y10260121D02*
X43556416Y10260120D01*
X43556417Y10260120D01*
X43747594Y10180932D01*
X43919651Y10065967D01*
X44065967Y9919651D01*
X44180932Y9747594D01*
X44260121Y9556414D01*
X44300490Y9353466D01*
X44300490Y9146534D01*
X44260121Y8943586D01*
X44180932Y8752406D01*
X44065967Y8580349D01*
X43919651Y8434033D01*
X43919648Y8434031D01*
X43747594Y8319068D01*
X43556417Y8239880D01*
X43556416Y8239880D01*
X43556414Y8239879D01*
X43353466Y8199510D01*
X43146534Y8199510D01*
X42943586Y8239879D01*
X42943584Y8239880D01*
X42943583Y8239880D01*
X42752406Y8319068D01*
X42580352Y8434031D01*
X42580349Y8434033D01*
X42434033Y8580349D01*
X42319068Y8752406D01*
X42239879Y8943586D01*
X42199510Y9146534D01*
X42199510Y9353466D01*
X42239879Y9556414D01*
X42319068Y9747594D01*
X42434033Y9919651D01*
X42580349Y10065967D01*
X42752406Y10180932D01*
X42943583Y10260120D01*
X42943584Y10260120D01*
X42943586Y10260121D01*
X43146534Y10300490D01*
X43353466Y10300490D01*
X43556414Y10260121D01*
X43556414Y10260121D01*
G37*
G36*
X40556414Y10260121D02*
X40556416Y10260120D01*
X40556417Y10260120D01*
X40747594Y10180932D01*
X40919651Y10065967D01*
X41065967Y9919651D01*
X41180932Y9747594D01*
X41260121Y9556414D01*
X41300490Y9353466D01*
X41300490Y9146534D01*
X41260121Y8943586D01*
X41180932Y8752406D01*
X41065967Y8580349D01*
X40919651Y8434033D01*
X40919648Y8434031D01*
X40747594Y8319068D01*
X40556417Y8239880D01*
X40556416Y8239880D01*
X40556414Y8239879D01*
X40353466Y8199510D01*
X40146534Y8199510D01*
X39943586Y8239879D01*
X39943584Y8239880D01*
X39943583Y8239880D01*
X39752406Y8319068D01*
X39580352Y8434031D01*
X39580349Y8434033D01*
X39434033Y8580349D01*
X39319068Y8752406D01*
X39239879Y8943586D01*
X39199510Y9146534D01*
X39199510Y9353466D01*
X39239879Y9556414D01*
X39319068Y9747594D01*
X39434033Y9919651D01*
X39580349Y10065967D01*
X39752406Y10180932D01*
X39943583Y10260120D01*
X39943584Y10260120D01*
X39943586Y10260121D01*
X40146534Y10300490D01*
X40353466Y10300490D01*
X40556414Y10260121D01*
X40556414Y10260121D01*
G37*
G36*
X37556414Y10260121D02*
X37556416Y10260120D01*
X37556417Y10260120D01*
X37747594Y10180932D01*
X37919651Y10065967D01*
X38065967Y9919651D01*
X38180932Y9747594D01*
X38260121Y9556414D01*
X38300490Y9353466D01*
X38300490Y9146534D01*
X38260121Y8943586D01*
X38180932Y8752406D01*
X38065967Y8580349D01*
X37919651Y8434033D01*
X37919648Y8434031D01*
X37747594Y8319068D01*
X37556417Y8239880D01*
X37556416Y8239880D01*
X37556414Y8239879D01*
X37353466Y8199510D01*
X37146534Y8199510D01*
X36943586Y8239879D01*
X36943584Y8239880D01*
X36943583Y8239880D01*
X36752406Y8319068D01*
X36580352Y8434031D01*
X36580349Y8434033D01*
X36434033Y8580349D01*
X36319068Y8752406D01*
X36239879Y8943586D01*
X36199510Y9146534D01*
X36199510Y9353466D01*
X36239879Y9556414D01*
X36319068Y9747594D01*
X36434033Y9919651D01*
X36580349Y10065967D01*
X36752406Y10180932D01*
X36943583Y10260120D01*
X36943584Y10260120D01*
X36943586Y10260121D01*
X37146534Y10300490D01*
X37353466Y10300490D01*
X37556414Y10260121D01*
X37556414Y10260121D01*
G37*
G36*
X22088677Y13121535D02*
X22126364Y13110102D01*
X22161103Y13091534D01*
X22191548Y13066548D01*
X22216534Y13036103D01*
X22235102Y13001364D01*
X22246535Y12963677D01*
X22251000Y12918339D01*
X22251000Y12081661D01*
X22246535Y12036323D01*
X22235102Y11998636D01*
X22216534Y11963897D01*
X22191548Y11933452D01*
X22161103Y11908466D01*
X22126364Y11889898D01*
X22088677Y11878465D01*
X22043339Y11874000D01*
X20956661Y11874000D01*
X20911323Y11878465D01*
X20873636Y11889898D01*
X20838897Y11908466D01*
X20808452Y11933452D01*
X20783466Y11963897D01*
X20764898Y11998636D01*
X20753465Y12036323D01*
X20749000Y12081661D01*
X20749000Y12918339D01*
X20753465Y12963677D01*
X20764898Y13001364D01*
X20783466Y13036103D01*
X20808452Y13066548D01*
X20838897Y13091534D01*
X20873636Y13110102D01*
X20911323Y13121535D01*
X20956661Y13126000D01*
X22043339Y13126000D01*
X22088677Y13121535D01*
X22088677Y13121535D01*
G37*
G36*
X19088677Y13121535D02*
X19126364Y13110102D01*
X19161103Y13091534D01*
X19191548Y13066548D01*
X19216534Y13036103D01*
X19235102Y13001364D01*
X19246535Y12963677D01*
X19251000Y12918339D01*
X19251000Y12081661D01*
X19246535Y12036323D01*
X19235102Y11998636D01*
X19216534Y11963897D01*
X19191548Y11933452D01*
X19161103Y11908466D01*
X19126364Y11889898D01*
X19088677Y11878465D01*
X19043339Y11874000D01*
X17956661Y11874000D01*
X17911323Y11878465D01*
X17873636Y11889898D01*
X17838897Y11908466D01*
X17808452Y11933452D01*
X17783466Y11963897D01*
X17764898Y11998636D01*
X17753465Y12036323D01*
X17749000Y12081661D01*
X17749000Y12918339D01*
X17753465Y12963677D01*
X17764898Y13001364D01*
X17783466Y13036103D01*
X17808452Y13066548D01*
X17838897Y13091534D01*
X17873636Y13110102D01*
X17911323Y13121535D01*
X17956661Y13126000D01*
X19043339Y13126000D01*
X19088677Y13121535D01*
X19088677Y13121535D01*
G37*
G36*
X25338677Y13121535D02*
X25376364Y13110102D01*
X25411103Y13091534D01*
X25441548Y13066548D01*
X25466534Y13036103D01*
X25485102Y13001364D01*
X25496535Y12963677D01*
X25501000Y12918339D01*
X25501000Y12081661D01*
X25496535Y12036323D01*
X25485102Y11998636D01*
X25466534Y11963897D01*
X25441548Y11933452D01*
X25411103Y11908466D01*
X25376364Y11889898D01*
X25338677Y11878465D01*
X25293339Y11874000D01*
X24206661Y11874000D01*
X24161323Y11878465D01*
X24123636Y11889898D01*
X24088897Y11908466D01*
X24058452Y11933452D01*
X24033466Y11963897D01*
X24014898Y11998636D01*
X24003465Y12036323D01*
X23999000Y12081661D01*
X23999000Y12918339D01*
X24003465Y12963677D01*
X24014898Y13001364D01*
X24033466Y13036103D01*
X24058452Y13066548D01*
X24088897Y13091534D01*
X24123636Y13110102D01*
X24161323Y13121535D01*
X24206661Y13126000D01*
X25293339Y13126000D01*
X25338677Y13121535D01*
X25338677Y13121535D01*
G37*
G36*
X16088677Y13121535D02*
X16126364Y13110102D01*
X16161103Y13091534D01*
X16191548Y13066548D01*
X16216534Y13036103D01*
X16235102Y13001364D01*
X16246535Y12963677D01*
X16251000Y12918339D01*
X16251000Y12081661D01*
X16246535Y12036323D01*
X16235102Y11998636D01*
X16216534Y11963897D01*
X16191548Y11933452D01*
X16161103Y11908466D01*
X16126364Y11889898D01*
X16088677Y11878465D01*
X16043339Y11874000D01*
X14956661Y11874000D01*
X14911323Y11878465D01*
X14873636Y11889898D01*
X14838897Y11908466D01*
X14808452Y11933452D01*
X14783466Y11963897D01*
X14764898Y11998636D01*
X14753465Y12036323D01*
X14749000Y12081661D01*
X14749000Y12918339D01*
X14753465Y12963677D01*
X14764898Y13001364D01*
X14783466Y13036103D01*
X14808452Y13066548D01*
X14838897Y13091534D01*
X14873636Y13110102D01*
X14911323Y13121535D01*
X14956661Y13126000D01*
X16043339Y13126000D01*
X16088677Y13121535D01*
X16088677Y13121535D01*
G37*
G36*
X40187142Y13831758D02*
X40335102Y13770470D01*
X40468258Y13681498D01*
X40581498Y13568258D01*
X40670470Y13435102D01*
X40731758Y13287142D01*
X40763000Y13130075D01*
X40763000Y12969925D01*
X40731758Y12812858D01*
X40670470Y12664898D01*
X40581498Y12531742D01*
X40468258Y12418502D01*
X40335102Y12329530D01*
X40187142Y12268242D01*
X40030075Y12237000D01*
X39869925Y12237000D01*
X39712858Y12268242D01*
X39564898Y12329530D01*
X39431742Y12418502D01*
X39318502Y12531742D01*
X39229530Y12664898D01*
X39168242Y12812858D01*
X39137000Y12969925D01*
X39137000Y13130075D01*
X39168242Y13287142D01*
X39229530Y13435102D01*
X39318502Y13568258D01*
X39431742Y13681498D01*
X39564898Y13770470D01*
X39712858Y13831758D01*
X39869925Y13863000D01*
X40030075Y13863000D01*
X40187142Y13831758D01*
X40187142Y13831758D01*
G37*
G36*
X29287142Y13831758D02*
X29435102Y13770470D01*
X29568258Y13681498D01*
X29681498Y13568258D01*
X29770470Y13435102D01*
X29831758Y13287142D01*
X29863000Y13130075D01*
X29863000Y12969925D01*
X29831758Y12812858D01*
X29770470Y12664898D01*
X29681498Y12531742D01*
X29568258Y12418502D01*
X29435102Y12329530D01*
X29287142Y12268242D01*
X29130075Y12237000D01*
X28969925Y12237000D01*
X28812858Y12268242D01*
X28664898Y12329530D01*
X28531742Y12418502D01*
X28418502Y12531742D01*
X28329530Y12664898D01*
X28268242Y12812858D01*
X28237000Y12969925D01*
X28237000Y13130075D01*
X28268242Y13287142D01*
X28329530Y13435102D01*
X28418502Y13568258D01*
X28531742Y13681498D01*
X28664898Y13770470D01*
X28812858Y13831758D01*
X28969925Y13863000D01*
X29130075Y13863000D01*
X29287142Y13831758D01*
X29287142Y13831758D01*
G37*
G36*
X31787142Y13831758D02*
X31935102Y13770470D01*
X32068258Y13681498D01*
X32181498Y13568258D01*
X32270470Y13435102D01*
X32331758Y13287142D01*
X32363000Y13130075D01*
X32363000Y12969925D01*
X32331758Y12812858D01*
X32270470Y12664898D01*
X32181498Y12531742D01*
X32068258Y12418502D01*
X31935102Y12329530D01*
X31787142Y12268242D01*
X31630075Y12237000D01*
X31469925Y12237000D01*
X31312858Y12268242D01*
X31164898Y12329530D01*
X31031742Y12418502D01*
X30918502Y12531742D01*
X30829530Y12664898D01*
X30768242Y12812858D01*
X30737000Y12969925D01*
X30737000Y13130075D01*
X30768242Y13287142D01*
X30829530Y13435102D01*
X30918502Y13568258D01*
X31031742Y13681498D01*
X31164898Y13770470D01*
X31312858Y13831758D01*
X31469925Y13863000D01*
X31630075Y13863000D01*
X31787142Y13831758D01*
X31787142Y13831758D01*
G37*
G36*
X42687142Y13831758D02*
X42835102Y13770470D01*
X42968258Y13681498D01*
X43081498Y13568258D01*
X43170470Y13435102D01*
X43231758Y13287142D01*
X43263000Y13130075D01*
X43263000Y12969925D01*
X43231758Y12812858D01*
X43170470Y12664898D01*
X43081498Y12531742D01*
X42968258Y12418502D01*
X42835102Y12329530D01*
X42687142Y12268242D01*
X42530075Y12237000D01*
X42369925Y12237000D01*
X42212858Y12268242D01*
X42064898Y12329530D01*
X41931742Y12418502D01*
X41818502Y12531742D01*
X41729530Y12664898D01*
X41668242Y12812858D01*
X41637000Y12969925D01*
X41637000Y13130075D01*
X41668242Y13287142D01*
X41729530Y13435102D01*
X41818502Y13568258D01*
X41931742Y13681498D01*
X42064898Y13770470D01*
X42212858Y13831758D01*
X42369925Y13863000D01*
X42530075Y13863000D01*
X42687142Y13831758D01*
X42687142Y13831758D01*
G37*
G36*
X16088677Y15171535D02*
X16126364Y15160102D01*
X16161103Y15141534D01*
X16191548Y15116548D01*
X16216534Y15086103D01*
X16235102Y15051364D01*
X16246535Y15013677D01*
X16251000Y14968339D01*
X16251000Y14131661D01*
X16246535Y14086323D01*
X16235102Y14048636D01*
X16216534Y14013897D01*
X16191548Y13983452D01*
X16161103Y13958466D01*
X16126364Y13939898D01*
X16088677Y13928465D01*
X16043339Y13924000D01*
X14956661Y13924000D01*
X14911323Y13928465D01*
X14873636Y13939898D01*
X14838897Y13958466D01*
X14808452Y13983452D01*
X14783466Y14013897D01*
X14764898Y14048636D01*
X14753465Y14086323D01*
X14749000Y14131661D01*
X14749000Y14968339D01*
X14753465Y15013677D01*
X14764898Y15051364D01*
X14783466Y15086103D01*
X14808452Y15116548D01*
X14838897Y15141534D01*
X14873636Y15160102D01*
X14911323Y15171535D01*
X14956661Y15176000D01*
X16043339Y15176000D01*
X16088677Y15171535D01*
X16088677Y15171535D01*
G37*
G36*
X22088677Y15171535D02*
X22126364Y15160102D01*
X22161103Y15141534D01*
X22191548Y15116548D01*
X22216534Y15086103D01*
X22235102Y15051364D01*
X22246535Y15013677D01*
X22251000Y14968339D01*
X22251000Y14131661D01*
X22246535Y14086323D01*
X22235102Y14048636D01*
X22216534Y14013897D01*
X22191548Y13983452D01*
X22161103Y13958466D01*
X22126364Y13939898D01*
X22088677Y13928465D01*
X22043339Y13924000D01*
X20956661Y13924000D01*
X20911323Y13928465D01*
X20873636Y13939898D01*
X20838897Y13958466D01*
X20808452Y13983452D01*
X20783466Y14013897D01*
X20764898Y14048636D01*
X20753465Y14086323D01*
X20749000Y14131661D01*
X20749000Y14968339D01*
X20753465Y15013677D01*
X20764898Y15051364D01*
X20783466Y15086103D01*
X20808452Y15116548D01*
X20838897Y15141534D01*
X20873636Y15160102D01*
X20911323Y15171535D01*
X20956661Y15176000D01*
X22043339Y15176000D01*
X22088677Y15171535D01*
X22088677Y15171535D01*
G37*
G36*
X25338677Y15171535D02*
X25376364Y15160102D01*
X25411103Y15141534D01*
X25441548Y15116548D01*
X25466534Y15086103D01*
X25485102Y15051364D01*
X25496535Y15013677D01*
X25501000Y14968339D01*
X25501000Y14131661D01*
X25496535Y14086323D01*
X25485102Y14048636D01*
X25466534Y14013897D01*
X25441548Y13983452D01*
X25411103Y13958466D01*
X25376364Y13939898D01*
X25338677Y13928465D01*
X25293339Y13924000D01*
X24206661Y13924000D01*
X24161323Y13928465D01*
X24123636Y13939898D01*
X24088897Y13958466D01*
X24058452Y13983452D01*
X24033466Y14013897D01*
X24014898Y14048636D01*
X24003465Y14086323D01*
X23999000Y14131661D01*
X23999000Y14968339D01*
X24003465Y15013677D01*
X24014898Y15051364D01*
X24033466Y15086103D01*
X24058452Y15116548D01*
X24088897Y15141534D01*
X24123636Y15160102D01*
X24161323Y15171535D01*
X24206661Y15176000D01*
X25293339Y15176000D01*
X25338677Y15171535D01*
X25338677Y15171535D01*
G37*
G36*
X19088677Y15171535D02*
X19126364Y15160102D01*
X19161103Y15141534D01*
X19191548Y15116548D01*
X19216534Y15086103D01*
X19235102Y15051364D01*
X19246535Y15013677D01*
X19251000Y14968339D01*
X19251000Y14131661D01*
X19246535Y14086323D01*
X19235102Y14048636D01*
X19216534Y14013897D01*
X19191548Y13983452D01*
X19161103Y13958466D01*
X19126364Y13939898D01*
X19088677Y13928465D01*
X19043339Y13924000D01*
X17956661Y13924000D01*
X17911323Y13928465D01*
X17873636Y13939898D01*
X17838897Y13958466D01*
X17808452Y13983452D01*
X17783466Y14013897D01*
X17764898Y14048636D01*
X17753465Y14086323D01*
X17749000Y14131661D01*
X17749000Y14968339D01*
X17753465Y15013677D01*
X17764898Y15051364D01*
X17783466Y15086103D01*
X17808452Y15116548D01*
X17838897Y15141534D01*
X17873636Y15160102D01*
X17911323Y15171535D01*
X17956661Y15176000D01*
X19043339Y15176000D01*
X19088677Y15171535D01*
X19088677Y15171535D01*
G37*
G36*
X39556414Y17760121D02*
X39556416Y17760120D01*
X39556417Y17760120D01*
X39747594Y17680932D01*
X39919651Y17565967D01*
X40065967Y17419651D01*
X40180932Y17247594D01*
X40260121Y17056414D01*
X40300490Y16853466D01*
X40300490Y16646534D01*
X40260121Y16443586D01*
X40180932Y16252406D01*
X40065967Y16080349D01*
X39919651Y15934033D01*
X39919648Y15934031D01*
X39747594Y15819068D01*
X39556417Y15739880D01*
X39556416Y15739880D01*
X39556414Y15739879D01*
X39353466Y15699510D01*
X39146534Y15699510D01*
X38943586Y15739879D01*
X38943584Y15739880D01*
X38943583Y15739880D01*
X38752406Y15819068D01*
X38580352Y15934031D01*
X38580349Y15934033D01*
X38434033Y16080349D01*
X38319068Y16252406D01*
X38239879Y16443586D01*
X38199510Y16646534D01*
X38199510Y16853466D01*
X38239879Y17056414D01*
X38319068Y17247594D01*
X38434033Y17419651D01*
X38580349Y17565967D01*
X38752406Y17680932D01*
X38943583Y17760120D01*
X38943584Y17760120D01*
X38943586Y17760121D01*
X39146534Y17800490D01*
X39353466Y17800490D01*
X39556414Y17760121D01*
X39556414Y17760121D01*
G37*
G36*
X42556414Y17760121D02*
X42556416Y17760120D01*
X42556417Y17760120D01*
X42747594Y17680932D01*
X42919651Y17565967D01*
X43065967Y17419651D01*
X43180932Y17247594D01*
X43260121Y17056414D01*
X43300490Y16853466D01*
X43300490Y16646534D01*
X43260121Y16443586D01*
X43180932Y16252406D01*
X43065967Y16080349D01*
X42919651Y15934033D01*
X42919648Y15934031D01*
X42747594Y15819068D01*
X42556417Y15739880D01*
X42556416Y15739880D01*
X42556414Y15739879D01*
X42353466Y15699510D01*
X42146534Y15699510D01*
X41943586Y15739879D01*
X41943584Y15739880D01*
X41943583Y15739880D01*
X41752406Y15819068D01*
X41580352Y15934031D01*
X41580349Y15934033D01*
X41434033Y16080349D01*
X41319068Y16252406D01*
X41239879Y16443586D01*
X41199510Y16646534D01*
X41199510Y16853466D01*
X41239879Y17056414D01*
X41319068Y17247594D01*
X41434033Y17419651D01*
X41580349Y17565967D01*
X41752406Y17680932D01*
X41943583Y17760120D01*
X41943584Y17760120D01*
X41943586Y17760121D01*
X42146534Y17800490D01*
X42353466Y17800490D01*
X42556414Y17760121D01*
X42556414Y17760121D01*
G37*
G36*
X11588677Y19096535D02*
X11626364Y19085102D01*
X11661103Y19066534D01*
X11691548Y19041548D01*
X11716534Y19011103D01*
X11735102Y18976364D01*
X11746535Y18938677D01*
X11751000Y18893339D01*
X11751000Y18056661D01*
X11746535Y18011323D01*
X11735102Y17973636D01*
X11716534Y17938897D01*
X11691548Y17908452D01*
X11661103Y17883466D01*
X11626364Y17864898D01*
X11588677Y17853465D01*
X11543339Y17849000D01*
X10456661Y17849000D01*
X10411323Y17853465D01*
X10373636Y17864898D01*
X10338897Y17883466D01*
X10308452Y17908452D01*
X10283466Y17938897D01*
X10264898Y17973636D01*
X10253465Y18011323D01*
X10249000Y18056661D01*
X10249000Y18893339D01*
X10253465Y18938677D01*
X10264898Y18976364D01*
X10283466Y19011103D01*
X10308452Y19041548D01*
X10338897Y19066534D01*
X10373636Y19085102D01*
X10411323Y19096535D01*
X10456661Y19101000D01*
X11543339Y19101000D01*
X11588677Y19096535D01*
X11588677Y19096535D01*
G37*
G36*
X18088677Y19121535D02*
X18126364Y19110102D01*
X18161103Y19091534D01*
X18191548Y19066548D01*
X18216534Y19036103D01*
X18235102Y19001364D01*
X18246535Y18963677D01*
X18251000Y18918339D01*
X18251000Y18081661D01*
X18246535Y18036323D01*
X18235102Y17998636D01*
X18216534Y17963897D01*
X18191548Y17933452D01*
X18161103Y17908466D01*
X18126364Y17889898D01*
X18088677Y17878465D01*
X18043339Y17874000D01*
X16956661Y17874000D01*
X16911323Y17878465D01*
X16873636Y17889898D01*
X16838897Y17908466D01*
X16808452Y17933452D01*
X16783466Y17963897D01*
X16764898Y17998636D01*
X16753465Y18036323D01*
X16749000Y18081661D01*
X16749000Y18918339D01*
X16753465Y18963677D01*
X16764898Y19001364D01*
X16783466Y19036103D01*
X16808452Y19066548D01*
X16838897Y19091534D01*
X16873636Y19110102D01*
X16911323Y19121535D01*
X16956661Y19126000D01*
X18043339Y19126000D01*
X18088677Y19121535D01*
X18088677Y19121535D01*
G37*
G36*
X14868677Y19121535D02*
X14906364Y19110102D01*
X14941103Y19091534D01*
X14971548Y19066548D01*
X14996534Y19036103D01*
X15015102Y19001364D01*
X15026535Y18963677D01*
X15031000Y18918339D01*
X15031000Y18081661D01*
X15026535Y18036323D01*
X15015102Y17998636D01*
X14996534Y17963897D01*
X14971548Y17933452D01*
X14941103Y17908466D01*
X14906364Y17889898D01*
X14868677Y17878465D01*
X14823339Y17874000D01*
X13736661Y17874000D01*
X13691323Y17878465D01*
X13653636Y17889898D01*
X13618897Y17908466D01*
X13588452Y17933452D01*
X13563466Y17963897D01*
X13544898Y17998636D01*
X13533465Y18036323D01*
X13529000Y18081661D01*
X13529000Y18918339D01*
X13533465Y18963677D01*
X13544898Y19001364D01*
X13563466Y19036103D01*
X13588452Y19066548D01*
X13618897Y19091534D01*
X13653636Y19110102D01*
X13691323Y19121535D01*
X13736661Y19126000D01*
X14823339Y19126000D01*
X14868677Y19121535D01*
X14868677Y19121535D01*
G37*
G36*
X11588677Y21146535D02*
X11626364Y21135102D01*
X11661103Y21116534D01*
X11691548Y21091548D01*
X11716534Y21061103D01*
X11735102Y21026364D01*
X11746535Y20988677D01*
X11751000Y20943339D01*
X11751000Y20106661D01*
X11746535Y20061323D01*
X11735102Y20023636D01*
X11716534Y19988897D01*
X11691548Y19958452D01*
X11661103Y19933466D01*
X11626364Y19914898D01*
X11588677Y19903465D01*
X11543339Y19899000D01*
X10456661Y19899000D01*
X10411323Y19903465D01*
X10373636Y19914898D01*
X10338897Y19933466D01*
X10308452Y19958452D01*
X10283466Y19988897D01*
X10264898Y20023636D01*
X10253465Y20061323D01*
X10249000Y20106661D01*
X10249000Y20943339D01*
X10253465Y20988677D01*
X10264898Y21026364D01*
X10283466Y21061103D01*
X10308452Y21091548D01*
X10338897Y21116534D01*
X10373636Y21135102D01*
X10411323Y21146535D01*
X10456661Y21151000D01*
X11543339Y21151000D01*
X11588677Y21146535D01*
X11588677Y21146535D01*
G37*
G36*
X18088677Y21171535D02*
X18126364Y21160102D01*
X18161103Y21141534D01*
X18191548Y21116548D01*
X18216534Y21086103D01*
X18235102Y21051364D01*
X18246535Y21013677D01*
X18251000Y20968339D01*
X18251000Y20131661D01*
X18246535Y20086323D01*
X18235102Y20048636D01*
X18216534Y20013897D01*
X18191548Y19983452D01*
X18161103Y19958466D01*
X18126364Y19939898D01*
X18088677Y19928465D01*
X18043339Y19924000D01*
X16956661Y19924000D01*
X16911323Y19928465D01*
X16873636Y19939898D01*
X16838897Y19958466D01*
X16808452Y19983452D01*
X16783466Y20013897D01*
X16764898Y20048636D01*
X16753465Y20086323D01*
X16749000Y20131661D01*
X16749000Y20968339D01*
X16753465Y21013677D01*
X16764898Y21051364D01*
X16783466Y21086103D01*
X16808452Y21116548D01*
X16838897Y21141534D01*
X16873636Y21160102D01*
X16911323Y21171535D01*
X16956661Y21176000D01*
X18043339Y21176000D01*
X18088677Y21171535D01*
X18088677Y21171535D01*
G37*
G36*
X14868677Y21171535D02*
X14906364Y21160102D01*
X14941103Y21141534D01*
X14971548Y21116548D01*
X14996534Y21086103D01*
X15015102Y21051364D01*
X15026535Y21013677D01*
X15031000Y20968339D01*
X15031000Y20131661D01*
X15026535Y20086323D01*
X15015102Y20048636D01*
X14996534Y20013897D01*
X14971548Y19983452D01*
X14941103Y19958466D01*
X14906364Y19939898D01*
X14868677Y19928465D01*
X14823339Y19924000D01*
X13736661Y19924000D01*
X13691323Y19928465D01*
X13653636Y19939898D01*
X13618897Y19958466D01*
X13588452Y19983452D01*
X13563466Y20013897D01*
X13544898Y20048636D01*
X13533465Y20086323D01*
X13529000Y20131661D01*
X13529000Y20968339D01*
X13533465Y21013677D01*
X13544898Y21051364D01*
X13563466Y21086103D01*
X13588452Y21116548D01*
X13618897Y21141534D01*
X13653636Y21160102D01*
X13691323Y21171535D01*
X13736661Y21176000D01*
X14823339Y21176000D01*
X14868677Y21171535D01*
X14868677Y21171535D01*
G37*
G36*
X19088677Y24571535D02*
X19126364Y24560102D01*
X19161103Y24541534D01*
X19191548Y24516548D01*
X19216534Y24486103D01*
X19235102Y24451364D01*
X19246535Y24413677D01*
X19251000Y24368339D01*
X19251000Y23531661D01*
X19246535Y23486323D01*
X19235102Y23448636D01*
X19216534Y23413897D01*
X19191548Y23383452D01*
X19161103Y23358466D01*
X19126364Y23339898D01*
X19088677Y23328465D01*
X19043339Y23324000D01*
X17956661Y23324000D01*
X17911323Y23328465D01*
X17873636Y23339898D01*
X17838897Y23358466D01*
X17808452Y23383452D01*
X17783466Y23413897D01*
X17764898Y23448636D01*
X17753465Y23486323D01*
X17749000Y23531661D01*
X17749000Y24368339D01*
X17753465Y24413677D01*
X17764898Y24451364D01*
X17783466Y24486103D01*
X17808452Y24516548D01*
X17838897Y24541534D01*
X17873636Y24560102D01*
X17911323Y24571535D01*
X17956661Y24576000D01*
X19043339Y24576000D01*
X19088677Y24571535D01*
X19088677Y24571535D01*
G37*
G36*
X19088677Y26621535D02*
X19126364Y26610102D01*
X19161103Y26591534D01*
X19191548Y26566548D01*
X19216534Y26536103D01*
X19235102Y26501364D01*
X19246535Y26463677D01*
X19251000Y26418339D01*
X19251000Y25581661D01*
X19246535Y25536323D01*
X19235102Y25498636D01*
X19216534Y25463897D01*
X19191548Y25433452D01*
X19161103Y25408466D01*
X19126364Y25389898D01*
X19088677Y25378465D01*
X19043339Y25374000D01*
X17956661Y25374000D01*
X17911323Y25378465D01*
X17873636Y25389898D01*
X17838897Y25408466D01*
X17808452Y25433452D01*
X17783466Y25463897D01*
X17764898Y25498636D01*
X17753465Y25536323D01*
X17749000Y25581661D01*
X17749000Y26418339D01*
X17753465Y26463677D01*
X17764898Y26501364D01*
X17783466Y26536103D01*
X17808452Y26566548D01*
X17838897Y26591534D01*
X17873636Y26610102D01*
X17911323Y26621535D01*
X17956661Y26626000D01*
X19043339Y26626000D01*
X19088677Y26621535D01*
X19088677Y26621535D01*
G37*
G36*
X29556414Y28260121D02*
X29556416Y28260120D01*
X29556417Y28260120D01*
X29740112Y28184031D01*
X29747594Y28180932D01*
X29919651Y28065967D01*
X30065967Y27919651D01*
X30180932Y27747594D01*
X30260121Y27556414D01*
X30300490Y27353466D01*
X30300490Y27146534D01*
X30260121Y26943586D01*
X30180932Y26752406D01*
X30065967Y26580349D01*
X29919651Y26434033D01*
X29919648Y26434031D01*
X29747594Y26319068D01*
X29556417Y26239880D01*
X29556416Y26239880D01*
X29556414Y26239879D01*
X29353466Y26199510D01*
X29146534Y26199510D01*
X28943586Y26239879D01*
X28943584Y26239880D01*
X28943583Y26239880D01*
X28752406Y26319068D01*
X28580352Y26434031D01*
X28580349Y26434033D01*
X28434033Y26580349D01*
X28319068Y26752406D01*
X28239879Y26943586D01*
X28199510Y27146534D01*
X28199510Y27353466D01*
X28239879Y27556414D01*
X28319068Y27747594D01*
X28434033Y27919651D01*
X28580349Y28065967D01*
X28752406Y28180932D01*
X28759888Y28184031D01*
X28943583Y28260120D01*
X28943584Y28260120D01*
X28943586Y28260121D01*
X29146534Y28300490D01*
X29353466Y28300490D01*
X29556414Y28260121D01*
X29556414Y28260121D01*
G37*
G36*
X42556414Y28260121D02*
X42556416Y28260120D01*
X42556417Y28260120D01*
X42740112Y28184031D01*
X42747594Y28180932D01*
X42919651Y28065967D01*
X43065967Y27919651D01*
X43180932Y27747594D01*
X43260121Y27556414D01*
X43300490Y27353466D01*
X43300490Y27146534D01*
X43260121Y26943586D01*
X43180932Y26752406D01*
X43065967Y26580349D01*
X42919651Y26434033D01*
X42919648Y26434031D01*
X42747594Y26319068D01*
X42556417Y26239880D01*
X42556416Y26239880D01*
X42556414Y26239879D01*
X42353466Y26199510D01*
X42146534Y26199510D01*
X41943586Y26239879D01*
X41943584Y26239880D01*
X41943583Y26239880D01*
X41752406Y26319068D01*
X41580352Y26434031D01*
X41580349Y26434033D01*
X41434033Y26580349D01*
X41319068Y26752406D01*
X41239879Y26943586D01*
X41199510Y27146534D01*
X41199510Y27353466D01*
X41239879Y27556414D01*
X41319068Y27747594D01*
X41434033Y27919651D01*
X41580349Y28065967D01*
X41752406Y28180932D01*
X41759888Y28184031D01*
X41943583Y28260120D01*
X41943584Y28260120D01*
X41943586Y28260121D01*
X42146534Y28300490D01*
X42353466Y28300490D01*
X42556414Y28260121D01*
X42556414Y28260121D01*
G37*
G36*
X39556414Y28260121D02*
X39556416Y28260120D01*
X39556417Y28260120D01*
X39740112Y28184031D01*
X39747594Y28180932D01*
X39919651Y28065967D01*
X40065967Y27919651D01*
X40180932Y27747594D01*
X40260121Y27556414D01*
X40300490Y27353466D01*
X40300490Y27146534D01*
X40260121Y26943586D01*
X40180932Y26752406D01*
X40065967Y26580349D01*
X39919651Y26434033D01*
X39919648Y26434031D01*
X39747594Y26319068D01*
X39556417Y26239880D01*
X39556416Y26239880D01*
X39556414Y26239879D01*
X39353466Y26199510D01*
X39146534Y26199510D01*
X38943586Y26239879D01*
X38943584Y26239880D01*
X38943583Y26239880D01*
X38752406Y26319068D01*
X38580352Y26434031D01*
X38580349Y26434033D01*
X38434033Y26580349D01*
X38319068Y26752406D01*
X38239879Y26943586D01*
X38199510Y27146534D01*
X38199510Y27353466D01*
X38239879Y27556414D01*
X38319068Y27747594D01*
X38434033Y27919651D01*
X38580349Y28065967D01*
X38752406Y28180932D01*
X38759888Y28184031D01*
X38943583Y28260120D01*
X38943584Y28260120D01*
X38943586Y28260121D01*
X39146534Y28300490D01*
X39353466Y28300490D01*
X39556414Y28260121D01*
X39556414Y28260121D01*
G37*
G36*
X32556414Y28260121D02*
X32556416Y28260120D01*
X32556417Y28260120D01*
X32740112Y28184031D01*
X32747594Y28180932D01*
X32919651Y28065967D01*
X33065967Y27919651D01*
X33180932Y27747594D01*
X33260121Y27556414D01*
X33300490Y27353466D01*
X33300490Y27146534D01*
X33260121Y26943586D01*
X33180932Y26752406D01*
X33065967Y26580349D01*
X32919651Y26434033D01*
X32919648Y26434031D01*
X32747594Y26319068D01*
X32556417Y26239880D01*
X32556416Y26239880D01*
X32556414Y26239879D01*
X32353466Y26199510D01*
X32146534Y26199510D01*
X31943586Y26239879D01*
X31943584Y26239880D01*
X31943583Y26239880D01*
X31752406Y26319068D01*
X31580352Y26434031D01*
X31580349Y26434033D01*
X31434033Y26580349D01*
X31319068Y26752406D01*
X31239879Y26943586D01*
X31199510Y27146534D01*
X31199510Y27353466D01*
X31239879Y27556414D01*
X31319068Y27747594D01*
X31434033Y27919651D01*
X31580349Y28065967D01*
X31752406Y28180932D01*
X31759888Y28184031D01*
X31943583Y28260120D01*
X31943584Y28260120D01*
X31943586Y28260121D01*
X32146534Y28300490D01*
X32353466Y28300490D01*
X32556414Y28260121D01*
X32556414Y28260121D01*
G37*
G36*
X5806414Y30010121D02*
X5806416Y30010120D01*
X5806417Y30010120D01*
X5997594Y29930932D01*
X6169651Y29815967D01*
X6315967Y29669651D01*
X6430932Y29497594D01*
X6510121Y29306414D01*
X6550490Y29103466D01*
X6550490Y28896534D01*
X6510121Y28693586D01*
X6430932Y28502406D01*
X6315967Y28330349D01*
X6169651Y28184033D01*
X6169648Y28184031D01*
X5997594Y28069068D01*
X5806417Y27989880D01*
X5806416Y27989880D01*
X5806414Y27989879D01*
X5603466Y27949510D01*
X5396534Y27949510D01*
X5193586Y27989879D01*
X5193584Y27989880D01*
X5193583Y27989880D01*
X5002406Y28069068D01*
X4830352Y28184031D01*
X4830349Y28184033D01*
X4684033Y28330349D01*
X4569068Y28502406D01*
X4489879Y28693586D01*
X4449510Y28896534D01*
X4449510Y29103466D01*
X4489879Y29306414D01*
X4569068Y29497594D01*
X4684033Y29669651D01*
X4830349Y29815967D01*
X5002406Y29930932D01*
X5193583Y30010120D01*
X5193584Y30010120D01*
X5193586Y30010121D01*
X5396534Y30050490D01*
X5603466Y30050490D01*
X5806414Y30010121D01*
X5806414Y30010121D01*
G37*
G36*
X2806414Y30010121D02*
X2806416Y30010120D01*
X2806417Y30010120D01*
X2997594Y29930932D01*
X3169651Y29815967D01*
X3315967Y29669651D01*
X3430932Y29497594D01*
X3510121Y29306414D01*
X3550490Y29103466D01*
X3550490Y28896534D01*
X3510121Y28693586D01*
X3430932Y28502406D01*
X3315967Y28330349D01*
X3169651Y28184033D01*
X3169648Y28184031D01*
X2997594Y28069068D01*
X2806417Y27989880D01*
X2806416Y27989880D01*
X2806414Y27989879D01*
X2603466Y27949510D01*
X2396534Y27949510D01*
X2193586Y27989879D01*
X2193584Y27989880D01*
X2193583Y27989880D01*
X2002406Y28069068D01*
X1830352Y28184031D01*
X1830349Y28184033D01*
X1684033Y28330349D01*
X1569068Y28502406D01*
X1489879Y28693586D01*
X1449510Y28896534D01*
X1449510Y29103466D01*
X1489879Y29306414D01*
X1569068Y29497594D01*
X1684033Y29669651D01*
X1830349Y29815967D01*
X2002406Y29930932D01*
X2193583Y30010120D01*
X2193584Y30010120D01*
X2193586Y30010121D01*
X2396534Y30050490D01*
X2603466Y30050490D01*
X2806414Y30010121D01*
X2806414Y30010121D01*
G37*
G36*
X10806414Y31010121D02*
X10806416Y31010120D01*
X10806417Y31010120D01*
X10855283Y30989879D01*
X10997594Y30930932D01*
X11169651Y30815967D01*
X11315967Y30669651D01*
X11430932Y30497594D01*
X11510121Y30306414D01*
X11550490Y30103466D01*
X11550490Y29896534D01*
X11510121Y29693586D01*
X11430932Y29502406D01*
X11315967Y29330349D01*
X11169651Y29184033D01*
X11169648Y29184031D01*
X10997594Y29069068D01*
X10806417Y28989880D01*
X10806416Y28989880D01*
X10806414Y28989879D01*
X10603466Y28949510D01*
X10396534Y28949510D01*
X10193586Y28989879D01*
X10193584Y28989880D01*
X10193583Y28989880D01*
X10002406Y29069068D01*
X9830352Y29184031D01*
X9830349Y29184033D01*
X9684033Y29330349D01*
X9569068Y29502406D01*
X9489879Y29693586D01*
X9449510Y29896534D01*
X9449510Y30103466D01*
X9489879Y30306414D01*
X9569068Y30497594D01*
X9684033Y30669651D01*
X9830349Y30815967D01*
X10002406Y30930932D01*
X10144717Y30989879D01*
X10193583Y31010120D01*
X10193584Y31010120D01*
X10193586Y31010121D01*
X10396534Y31050490D01*
X10603466Y31050490D01*
X10806414Y31010121D01*
X10806414Y31010121D01*
G37*
G36*
X23806414Y31010121D02*
X23806416Y31010120D01*
X23806417Y31010120D01*
X23855283Y30989879D01*
X23997594Y30930932D01*
X24169651Y30815967D01*
X24315967Y30669651D01*
X24430932Y30497594D01*
X24510121Y30306414D01*
X24550490Y30103466D01*
X24550490Y29896534D01*
X24510121Y29693586D01*
X24430932Y29502406D01*
X24315967Y29330349D01*
X24169651Y29184033D01*
X24169648Y29184031D01*
X23997594Y29069068D01*
X23806417Y28989880D01*
X23806416Y28989880D01*
X23806414Y28989879D01*
X23603466Y28949510D01*
X23396534Y28949510D01*
X23193586Y28989879D01*
X23193584Y28989880D01*
X23193583Y28989880D01*
X23002406Y29069068D01*
X22830352Y29184031D01*
X22830349Y29184033D01*
X22684033Y29330349D01*
X22569068Y29502406D01*
X22489879Y29693586D01*
X22449510Y29896534D01*
X22449510Y30103466D01*
X22489879Y30306414D01*
X22569068Y30497594D01*
X22684033Y30669651D01*
X22830349Y30815967D01*
X23002406Y30930932D01*
X23144717Y30989879D01*
X23193583Y31010120D01*
X23193584Y31010120D01*
X23193586Y31010121D01*
X23396534Y31050490D01*
X23603466Y31050490D01*
X23806414Y31010121D01*
X23806414Y31010121D01*
G37*
G36*
X14306414Y31010121D02*
X14306416Y31010120D01*
X14306417Y31010120D01*
X14355283Y30989879D01*
X14497594Y30930932D01*
X14669651Y30815967D01*
X14815967Y30669651D01*
X14930932Y30497594D01*
X15010121Y30306414D01*
X15050490Y30103466D01*
X15050490Y29896534D01*
X15010121Y29693586D01*
X14930932Y29502406D01*
X14815967Y29330349D01*
X14669651Y29184033D01*
X14669648Y29184031D01*
X14497594Y29069068D01*
X14306417Y28989880D01*
X14306416Y28989880D01*
X14306414Y28989879D01*
X14103466Y28949510D01*
X13896534Y28949510D01*
X13693586Y28989879D01*
X13693584Y28989880D01*
X13693583Y28989880D01*
X13502406Y29069068D01*
X13330352Y29184031D01*
X13330349Y29184033D01*
X13184033Y29330349D01*
X13069068Y29502406D01*
X12989879Y29693586D01*
X12949510Y29896534D01*
X12949510Y30103466D01*
X12989879Y30306414D01*
X13069068Y30497594D01*
X13184033Y30669651D01*
X13330349Y30815967D01*
X13502406Y30930932D01*
X13644717Y30989879D01*
X13693583Y31010120D01*
X13693584Y31010120D01*
X13693586Y31010121D01*
X13896534Y31050490D01*
X14103466Y31050490D01*
X14306414Y31010121D01*
X14306414Y31010121D01*
G37*
G36*
X42687142Y32331758D02*
X42835102Y32270470D01*
X42968258Y32181498D01*
X43081498Y32068258D01*
X43170470Y31935102D01*
X43231758Y31787142D01*
X43263000Y31630075D01*
X43263000Y31469925D01*
X43231758Y31312858D01*
X43184354Y31198417D01*
X43170471Y31164900D01*
X43106439Y31069068D01*
X43081498Y31031742D01*
X42968258Y30918502D01*
X42835102Y30829530D01*
X42687142Y30768242D01*
X42530075Y30737000D01*
X42369925Y30737000D01*
X42212858Y30768242D01*
X42064898Y30829530D01*
X41931742Y30918502D01*
X41818502Y31031742D01*
X41793562Y31069068D01*
X41729529Y31164900D01*
X41715646Y31198417D01*
X41668242Y31312858D01*
X41637000Y31469925D01*
X41637000Y31630075D01*
X41668242Y31787142D01*
X41729530Y31935102D01*
X41818502Y32068258D01*
X41931742Y32181498D01*
X42064898Y32270470D01*
X42212858Y32331758D01*
X42369925Y32363000D01*
X42530075Y32363000D01*
X42687142Y32331758D01*
X42687142Y32331758D01*
G37*
G36*
X29287142Y32331758D02*
X29435102Y32270470D01*
X29568258Y32181498D01*
X29681498Y32068258D01*
X29770470Y31935102D01*
X29831758Y31787142D01*
X29863000Y31630075D01*
X29863000Y31469925D01*
X29831758Y31312858D01*
X29784354Y31198417D01*
X29770471Y31164900D01*
X29706439Y31069068D01*
X29681498Y31031742D01*
X29568258Y30918502D01*
X29435102Y30829530D01*
X29287142Y30768242D01*
X29130075Y30737000D01*
X28969925Y30737000D01*
X28812858Y30768242D01*
X28664898Y30829530D01*
X28531742Y30918502D01*
X28418502Y31031742D01*
X28393562Y31069068D01*
X28329529Y31164900D01*
X28315646Y31198417D01*
X28268242Y31312858D01*
X28237000Y31469925D01*
X28237000Y31630075D01*
X28268242Y31787142D01*
X28329530Y31935102D01*
X28418502Y32068258D01*
X28531742Y32181498D01*
X28664898Y32270470D01*
X28812858Y32331758D01*
X28969925Y32363000D01*
X29130075Y32363000D01*
X29287142Y32331758D01*
X29287142Y32331758D01*
G37*
G36*
X31787142Y32331758D02*
X31935102Y32270470D01*
X32068258Y32181498D01*
X32181498Y32068258D01*
X32270470Y31935102D01*
X32331758Y31787142D01*
X32363000Y31630075D01*
X32363000Y31469925D01*
X32331758Y31312858D01*
X32284354Y31198417D01*
X32270471Y31164900D01*
X32206439Y31069068D01*
X32181498Y31031742D01*
X32068258Y30918502D01*
X31935102Y30829530D01*
X31787142Y30768242D01*
X31630075Y30737000D01*
X31469925Y30737000D01*
X31312858Y30768242D01*
X31164898Y30829530D01*
X31031742Y30918502D01*
X30918502Y31031742D01*
X30893562Y31069068D01*
X30829529Y31164900D01*
X30815646Y31198417D01*
X30768242Y31312858D01*
X30737000Y31469925D01*
X30737000Y31630075D01*
X30768242Y31787142D01*
X30829530Y31935102D01*
X30918502Y32068258D01*
X31031742Y32181498D01*
X31164898Y32270470D01*
X31312858Y32331758D01*
X31469925Y32363000D01*
X31630075Y32363000D01*
X31787142Y32331758D01*
X31787142Y32331758D01*
G37*
G36*
X40187142Y32331758D02*
X40335102Y32270470D01*
X40468258Y32181498D01*
X40581498Y32068258D01*
X40670470Y31935102D01*
X40731758Y31787142D01*
X40763000Y31630075D01*
X40763000Y31469925D01*
X40731758Y31312858D01*
X40684354Y31198417D01*
X40670471Y31164900D01*
X40606439Y31069068D01*
X40581498Y31031742D01*
X40468258Y30918502D01*
X40335102Y30829530D01*
X40187142Y30768242D01*
X40030075Y30737000D01*
X39869925Y30737000D01*
X39712858Y30768242D01*
X39564898Y30829530D01*
X39431742Y30918502D01*
X39318502Y31031742D01*
X39293562Y31069068D01*
X39229529Y31164900D01*
X39215646Y31198417D01*
X39168242Y31312858D01*
X39137000Y31469925D01*
X39137000Y31630075D01*
X39168242Y31787142D01*
X39229530Y31935102D01*
X39318502Y32068258D01*
X39431742Y32181498D01*
X39564898Y32270470D01*
X39712858Y32331758D01*
X39869925Y32363000D01*
X40030075Y32363000D01*
X40187142Y32331758D01*
X40187142Y32331758D01*
G37*
G36*
X2806414Y33010121D02*
X2806416Y33010120D01*
X2806417Y33010120D01*
X2997594Y32930932D01*
X3169651Y32815967D01*
X3315967Y32669651D01*
X3315969Y32669648D01*
X3430932Y32497594D01*
X3486683Y32363000D01*
X3510121Y32306414D01*
X3550490Y32103466D01*
X3550490Y31896534D01*
X3510121Y31693586D01*
X3430932Y31502406D01*
X3315967Y31330349D01*
X3169651Y31184033D01*
X3169648Y31184031D01*
X2997594Y31069068D01*
X2806417Y30989880D01*
X2806416Y30989880D01*
X2806414Y30989879D01*
X2603466Y30949510D01*
X2396534Y30949510D01*
X2193586Y30989879D01*
X2193584Y30989880D01*
X2193583Y30989880D01*
X2002406Y31069068D01*
X1830352Y31184031D01*
X1830349Y31184033D01*
X1684033Y31330349D01*
X1569068Y31502406D01*
X1489879Y31693586D01*
X1449510Y31896534D01*
X1449510Y32103466D01*
X1489879Y32306414D01*
X1513318Y32363000D01*
X1569068Y32497594D01*
X1684031Y32669648D01*
X1684033Y32669651D01*
X1830349Y32815967D01*
X2002406Y32930932D01*
X2193583Y33010120D01*
X2193584Y33010120D01*
X2193586Y33010121D01*
X2396534Y33050490D01*
X2603466Y33050490D01*
X2806414Y33010121D01*
X2806414Y33010121D01*
G37*
G36*
X5806414Y33010121D02*
X5806416Y33010120D01*
X5806417Y33010120D01*
X5997594Y32930932D01*
X6169651Y32815967D01*
X6315967Y32669651D01*
X6315969Y32669648D01*
X6430932Y32497594D01*
X6486683Y32363000D01*
X6510121Y32306414D01*
X6550490Y32103466D01*
X6550490Y31896534D01*
X6510121Y31693586D01*
X6430932Y31502406D01*
X6315967Y31330349D01*
X6169651Y31184033D01*
X6169648Y31184031D01*
X5997594Y31069068D01*
X5806417Y30989880D01*
X5806416Y30989880D01*
X5806414Y30989879D01*
X5603466Y30949510D01*
X5396534Y30949510D01*
X5193586Y30989879D01*
X5193584Y30989880D01*
X5193583Y30989880D01*
X5002406Y31069068D01*
X4830352Y31184031D01*
X4830349Y31184033D01*
X4684033Y31330349D01*
X4569068Y31502406D01*
X4489879Y31693586D01*
X4449510Y31896534D01*
X4449510Y32103466D01*
X4489879Y32306414D01*
X4513318Y32363000D01*
X4569068Y32497594D01*
X4684031Y32669648D01*
X4684033Y32669651D01*
X4830349Y32815967D01*
X5002406Y32930932D01*
X5193583Y33010120D01*
X5193584Y33010120D01*
X5193586Y33010121D01*
X5396534Y33050490D01*
X5603466Y33050490D01*
X5806414Y33010121D01*
X5806414Y33010121D01*
G37*
M02*
