%TF.GenerationSoftware,KiCad,Pcbnew,5.1.2-f72e74a~84~ubuntu18.04.1*%
%TF.CreationDate,2019-05-18T14:46:29+02:00*%
%TF.ProjectId,rgbww-micro-board,72676277-772d-46d6-9963-726f2d626f61,rev?*%
%TF.SameCoordinates,PXb903480PY55d4a80*%
%TF.FileFunction,Copper,L2,Bot*%
%TF.FilePolarity,Positive*%
%FSLAX46Y46*%
G04 Gerber Fmt 4.6, Leading zero omitted, Abs format (unit mm)*
G04 Created by KiCad (PCBNEW 5.1.2-f72e74a~84~ubuntu18.04.1) date 2019-05-18 14:46:29*
%MOMM*%
%LPD*%
G04 APERTURE LIST*
%ADD10C,0.200000*%
%ADD11C,1.998980*%
%ADD12C,1.524000*%
%ADD13R,2.000000X2.000000*%
%ADD14C,2.000000*%
%ADD15C,0.100000*%
%ADD16C,1.150000*%
%ADD17C,0.800000*%
%ADD18C,0.400000*%
%ADD19C,0.250000*%
%ADD20C,0.254000*%
G04 APERTURE END LIST*
D10*
X44500000Y33750000D02*
X0Y33750000D01*
X44500000Y0D02*
X44500000Y33750000D01*
X0Y0D02*
X44500000Y0D01*
X0Y33750000D02*
X0Y0D01*
D11*
X27300000Y10200000D03*
X26300000Y29100000D03*
X26200000Y31800000D03*
D12*
X42450000Y13050000D03*
X39950000Y13050000D03*
X31550000Y13050000D03*
X29050000Y13050000D03*
X42450000Y31550000D03*
X39950000Y31550000D03*
X31550000Y31550000D03*
X29050000Y31550000D03*
D11*
X19250000Y2000000D03*
X14000000Y30000000D03*
X10500000Y30000000D03*
X12750000Y2000000D03*
X42250000Y27250000D03*
X39250000Y27250000D03*
X5120000Y31670000D03*
X2600000Y29120000D03*
X5120000Y29110000D03*
X22900000Y30000000D03*
X2600000Y31680000D03*
X32250000Y27250000D03*
X29250000Y27250000D03*
X42250000Y16750000D03*
X40250000Y9250000D03*
X43250000Y9250000D03*
X37250000Y9250000D03*
X39250000Y16750000D03*
X16000000Y2000000D03*
D13*
X24500000Y2500000D03*
D14*
X28000000Y2500000D03*
D15*
G36*
X25224505Y13073796D02*
G01*
X25248773Y13070196D01*
X25272572Y13064235D01*
X25295671Y13055970D01*
X25317850Y13045480D01*
X25338893Y13032868D01*
X25358599Y13018253D01*
X25376777Y13001777D01*
X25393253Y12983599D01*
X25407868Y12963893D01*
X25420480Y12942850D01*
X25430970Y12920671D01*
X25439235Y12897572D01*
X25445196Y12873773D01*
X25448796Y12849505D01*
X25450000Y12825001D01*
X25450000Y12174999D01*
X25448796Y12150495D01*
X25445196Y12126227D01*
X25439235Y12102428D01*
X25430970Y12079329D01*
X25420480Y12057150D01*
X25407868Y12036107D01*
X25393253Y12016401D01*
X25376777Y11998223D01*
X25358599Y11981747D01*
X25338893Y11967132D01*
X25317850Y11954520D01*
X25295671Y11944030D01*
X25272572Y11935765D01*
X25248773Y11929804D01*
X25224505Y11926204D01*
X25200001Y11925000D01*
X24299999Y11925000D01*
X24275495Y11926204D01*
X24251227Y11929804D01*
X24227428Y11935765D01*
X24204329Y11944030D01*
X24182150Y11954520D01*
X24161107Y11967132D01*
X24141401Y11981747D01*
X24123223Y11998223D01*
X24106747Y12016401D01*
X24092132Y12036107D01*
X24079520Y12057150D01*
X24069030Y12079329D01*
X24060765Y12102428D01*
X24054804Y12126227D01*
X24051204Y12150495D01*
X24050000Y12174999D01*
X24050000Y12825001D01*
X24051204Y12849505D01*
X24054804Y12873773D01*
X24060765Y12897572D01*
X24069030Y12920671D01*
X24079520Y12942850D01*
X24092132Y12963893D01*
X24106747Y12983599D01*
X24123223Y13001777D01*
X24141401Y13018253D01*
X24161107Y13032868D01*
X24182150Y13045480D01*
X24204329Y13055970D01*
X24227428Y13064235D01*
X24251227Y13070196D01*
X24275495Y13073796D01*
X24299999Y13075000D01*
X25200001Y13075000D01*
X25224505Y13073796D01*
X25224505Y13073796D01*
G37*
D16*
X24750000Y12500000D03*
D15*
G36*
X25224505Y15123796D02*
G01*
X25248773Y15120196D01*
X25272572Y15114235D01*
X25295671Y15105970D01*
X25317850Y15095480D01*
X25338893Y15082868D01*
X25358599Y15068253D01*
X25376777Y15051777D01*
X25393253Y15033599D01*
X25407868Y15013893D01*
X25420480Y14992850D01*
X25430970Y14970671D01*
X25439235Y14947572D01*
X25445196Y14923773D01*
X25448796Y14899505D01*
X25450000Y14875001D01*
X25450000Y14224999D01*
X25448796Y14200495D01*
X25445196Y14176227D01*
X25439235Y14152428D01*
X25430970Y14129329D01*
X25420480Y14107150D01*
X25407868Y14086107D01*
X25393253Y14066401D01*
X25376777Y14048223D01*
X25358599Y14031747D01*
X25338893Y14017132D01*
X25317850Y14004520D01*
X25295671Y13994030D01*
X25272572Y13985765D01*
X25248773Y13979804D01*
X25224505Y13976204D01*
X25200001Y13975000D01*
X24299999Y13975000D01*
X24275495Y13976204D01*
X24251227Y13979804D01*
X24227428Y13985765D01*
X24204329Y13994030D01*
X24182150Y14004520D01*
X24161107Y14017132D01*
X24141401Y14031747D01*
X24123223Y14048223D01*
X24106747Y14066401D01*
X24092132Y14086107D01*
X24079520Y14107150D01*
X24069030Y14129329D01*
X24060765Y14152428D01*
X24054804Y14176227D01*
X24051204Y14200495D01*
X24050000Y14224999D01*
X24050000Y14875001D01*
X24051204Y14899505D01*
X24054804Y14923773D01*
X24060765Y14947572D01*
X24069030Y14970671D01*
X24079520Y14992850D01*
X24092132Y15013893D01*
X24106747Y15033599D01*
X24123223Y15051777D01*
X24141401Y15068253D01*
X24161107Y15082868D01*
X24182150Y15095480D01*
X24204329Y15105970D01*
X24227428Y15114235D01*
X24251227Y15120196D01*
X24275495Y15123796D01*
X24299999Y15125000D01*
X25200001Y15125000D01*
X25224505Y15123796D01*
X25224505Y15123796D01*
G37*
D16*
X24750000Y14550000D03*
D14*
X35000000Y2250000D03*
D13*
X38500000Y2250000D03*
D15*
G36*
X8474505Y8623796D02*
G01*
X8498773Y8620196D01*
X8522572Y8614235D01*
X8545671Y8605970D01*
X8567850Y8595480D01*
X8588893Y8582868D01*
X8608599Y8568253D01*
X8626777Y8551777D01*
X8643253Y8533599D01*
X8657868Y8513893D01*
X8670480Y8492850D01*
X8680970Y8470671D01*
X8689235Y8447572D01*
X8695196Y8423773D01*
X8698796Y8399505D01*
X8700000Y8375001D01*
X8700000Y7724999D01*
X8698796Y7700495D01*
X8695196Y7676227D01*
X8689235Y7652428D01*
X8680970Y7629329D01*
X8670480Y7607150D01*
X8657868Y7586107D01*
X8643253Y7566401D01*
X8626777Y7548223D01*
X8608599Y7531747D01*
X8588893Y7517132D01*
X8567850Y7504520D01*
X8545671Y7494030D01*
X8522572Y7485765D01*
X8498773Y7479804D01*
X8474505Y7476204D01*
X8450001Y7475000D01*
X7549999Y7475000D01*
X7525495Y7476204D01*
X7501227Y7479804D01*
X7477428Y7485765D01*
X7454329Y7494030D01*
X7432150Y7504520D01*
X7411107Y7517132D01*
X7391401Y7531747D01*
X7373223Y7548223D01*
X7356747Y7566401D01*
X7342132Y7586107D01*
X7329520Y7607150D01*
X7319030Y7629329D01*
X7310765Y7652428D01*
X7304804Y7676227D01*
X7301204Y7700495D01*
X7300000Y7724999D01*
X7300000Y8375001D01*
X7301204Y8399505D01*
X7304804Y8423773D01*
X7310765Y8447572D01*
X7319030Y8470671D01*
X7329520Y8492850D01*
X7342132Y8513893D01*
X7356747Y8533599D01*
X7373223Y8551777D01*
X7391401Y8568253D01*
X7411107Y8582868D01*
X7432150Y8595480D01*
X7454329Y8605970D01*
X7477428Y8614235D01*
X7501227Y8620196D01*
X7525495Y8623796D01*
X7549999Y8625000D01*
X8450001Y8625000D01*
X8474505Y8623796D01*
X8474505Y8623796D01*
G37*
D16*
X8000000Y8050000D03*
D15*
G36*
X8474505Y6573796D02*
G01*
X8498773Y6570196D01*
X8522572Y6564235D01*
X8545671Y6555970D01*
X8567850Y6545480D01*
X8588893Y6532868D01*
X8608599Y6518253D01*
X8626777Y6501777D01*
X8643253Y6483599D01*
X8657868Y6463893D01*
X8670480Y6442850D01*
X8680970Y6420671D01*
X8689235Y6397572D01*
X8695196Y6373773D01*
X8698796Y6349505D01*
X8700000Y6325001D01*
X8700000Y5674999D01*
X8698796Y5650495D01*
X8695196Y5626227D01*
X8689235Y5602428D01*
X8680970Y5579329D01*
X8670480Y5557150D01*
X8657868Y5536107D01*
X8643253Y5516401D01*
X8626777Y5498223D01*
X8608599Y5481747D01*
X8588893Y5467132D01*
X8567850Y5454520D01*
X8545671Y5444030D01*
X8522572Y5435765D01*
X8498773Y5429804D01*
X8474505Y5426204D01*
X8450001Y5425000D01*
X7549999Y5425000D01*
X7525495Y5426204D01*
X7501227Y5429804D01*
X7477428Y5435765D01*
X7454329Y5444030D01*
X7432150Y5454520D01*
X7411107Y5467132D01*
X7391401Y5481747D01*
X7373223Y5498223D01*
X7356747Y5516401D01*
X7342132Y5536107D01*
X7329520Y5557150D01*
X7319030Y5579329D01*
X7310765Y5602428D01*
X7304804Y5626227D01*
X7301204Y5650495D01*
X7300000Y5674999D01*
X7300000Y6325001D01*
X7301204Y6349505D01*
X7304804Y6373773D01*
X7310765Y6397572D01*
X7319030Y6420671D01*
X7329520Y6442850D01*
X7342132Y6463893D01*
X7356747Y6483599D01*
X7373223Y6501777D01*
X7391401Y6518253D01*
X7411107Y6532868D01*
X7432150Y6545480D01*
X7454329Y6555970D01*
X7477428Y6564235D01*
X7501227Y6570196D01*
X7525495Y6573796D01*
X7549999Y6575000D01*
X8450001Y6575000D01*
X8474505Y6573796D01*
X8474505Y6573796D01*
G37*
D16*
X8000000Y6000000D03*
D15*
G36*
X12474505Y6523796D02*
G01*
X12498773Y6520196D01*
X12522572Y6514235D01*
X12545671Y6505970D01*
X12567850Y6495480D01*
X12588893Y6482868D01*
X12608599Y6468253D01*
X12626777Y6451777D01*
X12643253Y6433599D01*
X12657868Y6413893D01*
X12670480Y6392850D01*
X12680970Y6370671D01*
X12689235Y6347572D01*
X12695196Y6323773D01*
X12698796Y6299505D01*
X12700000Y6275001D01*
X12700000Y5624999D01*
X12698796Y5600495D01*
X12695196Y5576227D01*
X12689235Y5552428D01*
X12680970Y5529329D01*
X12670480Y5507150D01*
X12657868Y5486107D01*
X12643253Y5466401D01*
X12626777Y5448223D01*
X12608599Y5431747D01*
X12588893Y5417132D01*
X12567850Y5404520D01*
X12545671Y5394030D01*
X12522572Y5385765D01*
X12498773Y5379804D01*
X12474505Y5376204D01*
X12450001Y5375000D01*
X11549999Y5375000D01*
X11525495Y5376204D01*
X11501227Y5379804D01*
X11477428Y5385765D01*
X11454329Y5394030D01*
X11432150Y5404520D01*
X11411107Y5417132D01*
X11391401Y5431747D01*
X11373223Y5448223D01*
X11356747Y5466401D01*
X11342132Y5486107D01*
X11329520Y5507150D01*
X11319030Y5529329D01*
X11310765Y5552428D01*
X11304804Y5576227D01*
X11301204Y5600495D01*
X11300000Y5624999D01*
X11300000Y6275001D01*
X11301204Y6299505D01*
X11304804Y6323773D01*
X11310765Y6347572D01*
X11319030Y6370671D01*
X11329520Y6392850D01*
X11342132Y6413893D01*
X11356747Y6433599D01*
X11373223Y6451777D01*
X11391401Y6468253D01*
X11411107Y6482868D01*
X11432150Y6495480D01*
X11454329Y6505970D01*
X11477428Y6514235D01*
X11501227Y6520196D01*
X11525495Y6523796D01*
X11549999Y6525000D01*
X12450001Y6525000D01*
X12474505Y6523796D01*
X12474505Y6523796D01*
G37*
D16*
X12000000Y5950000D03*
D15*
G36*
X12474505Y8573796D02*
G01*
X12498773Y8570196D01*
X12522572Y8564235D01*
X12545671Y8555970D01*
X12567850Y8545480D01*
X12588893Y8532868D01*
X12608599Y8518253D01*
X12626777Y8501777D01*
X12643253Y8483599D01*
X12657868Y8463893D01*
X12670480Y8442850D01*
X12680970Y8420671D01*
X12689235Y8397572D01*
X12695196Y8373773D01*
X12698796Y8349505D01*
X12700000Y8325001D01*
X12700000Y7674999D01*
X12698796Y7650495D01*
X12695196Y7626227D01*
X12689235Y7602428D01*
X12680970Y7579329D01*
X12670480Y7557150D01*
X12657868Y7536107D01*
X12643253Y7516401D01*
X12626777Y7498223D01*
X12608599Y7481747D01*
X12588893Y7467132D01*
X12567850Y7454520D01*
X12545671Y7444030D01*
X12522572Y7435765D01*
X12498773Y7429804D01*
X12474505Y7426204D01*
X12450001Y7425000D01*
X11549999Y7425000D01*
X11525495Y7426204D01*
X11501227Y7429804D01*
X11477428Y7435765D01*
X11454329Y7444030D01*
X11432150Y7454520D01*
X11411107Y7467132D01*
X11391401Y7481747D01*
X11373223Y7498223D01*
X11356747Y7516401D01*
X11342132Y7536107D01*
X11329520Y7557150D01*
X11319030Y7579329D01*
X11310765Y7602428D01*
X11304804Y7626227D01*
X11301204Y7650495D01*
X11300000Y7674999D01*
X11300000Y8325001D01*
X11301204Y8349505D01*
X11304804Y8373773D01*
X11310765Y8397572D01*
X11319030Y8420671D01*
X11329520Y8442850D01*
X11342132Y8463893D01*
X11356747Y8483599D01*
X11373223Y8501777D01*
X11391401Y8518253D01*
X11411107Y8532868D01*
X11432150Y8545480D01*
X11454329Y8555970D01*
X11477428Y8564235D01*
X11501227Y8570196D01*
X11525495Y8573796D01*
X11549999Y8575000D01*
X12450001Y8575000D01*
X12474505Y8573796D01*
X12474505Y8573796D01*
G37*
D16*
X12000000Y8000000D03*
D15*
G36*
X17974505Y21123796D02*
G01*
X17998773Y21120196D01*
X18022572Y21114235D01*
X18045671Y21105970D01*
X18067850Y21095480D01*
X18088893Y21082868D01*
X18108599Y21068253D01*
X18126777Y21051777D01*
X18143253Y21033599D01*
X18157868Y21013893D01*
X18170480Y20992850D01*
X18180970Y20970671D01*
X18189235Y20947572D01*
X18195196Y20923773D01*
X18198796Y20899505D01*
X18200000Y20875001D01*
X18200000Y20224999D01*
X18198796Y20200495D01*
X18195196Y20176227D01*
X18189235Y20152428D01*
X18180970Y20129329D01*
X18170480Y20107150D01*
X18157868Y20086107D01*
X18143253Y20066401D01*
X18126777Y20048223D01*
X18108599Y20031747D01*
X18088893Y20017132D01*
X18067850Y20004520D01*
X18045671Y19994030D01*
X18022572Y19985765D01*
X17998773Y19979804D01*
X17974505Y19976204D01*
X17950001Y19975000D01*
X17049999Y19975000D01*
X17025495Y19976204D01*
X17001227Y19979804D01*
X16977428Y19985765D01*
X16954329Y19994030D01*
X16932150Y20004520D01*
X16911107Y20017132D01*
X16891401Y20031747D01*
X16873223Y20048223D01*
X16856747Y20066401D01*
X16842132Y20086107D01*
X16829520Y20107150D01*
X16819030Y20129329D01*
X16810765Y20152428D01*
X16804804Y20176227D01*
X16801204Y20200495D01*
X16800000Y20224999D01*
X16800000Y20875001D01*
X16801204Y20899505D01*
X16804804Y20923773D01*
X16810765Y20947572D01*
X16819030Y20970671D01*
X16829520Y20992850D01*
X16842132Y21013893D01*
X16856747Y21033599D01*
X16873223Y21051777D01*
X16891401Y21068253D01*
X16911107Y21082868D01*
X16932150Y21095480D01*
X16954329Y21105970D01*
X16977428Y21114235D01*
X17001227Y21120196D01*
X17025495Y21123796D01*
X17049999Y21125000D01*
X17950001Y21125000D01*
X17974505Y21123796D01*
X17974505Y21123796D01*
G37*
D16*
X17500000Y20550000D03*
D15*
G36*
X17974505Y19073796D02*
G01*
X17998773Y19070196D01*
X18022572Y19064235D01*
X18045671Y19055970D01*
X18067850Y19045480D01*
X18088893Y19032868D01*
X18108599Y19018253D01*
X18126777Y19001777D01*
X18143253Y18983599D01*
X18157868Y18963893D01*
X18170480Y18942850D01*
X18180970Y18920671D01*
X18189235Y18897572D01*
X18195196Y18873773D01*
X18198796Y18849505D01*
X18200000Y18825001D01*
X18200000Y18174999D01*
X18198796Y18150495D01*
X18195196Y18126227D01*
X18189235Y18102428D01*
X18180970Y18079329D01*
X18170480Y18057150D01*
X18157868Y18036107D01*
X18143253Y18016401D01*
X18126777Y17998223D01*
X18108599Y17981747D01*
X18088893Y17967132D01*
X18067850Y17954520D01*
X18045671Y17944030D01*
X18022572Y17935765D01*
X17998773Y17929804D01*
X17974505Y17926204D01*
X17950001Y17925000D01*
X17049999Y17925000D01*
X17025495Y17926204D01*
X17001227Y17929804D01*
X16977428Y17935765D01*
X16954329Y17944030D01*
X16932150Y17954520D01*
X16911107Y17967132D01*
X16891401Y17981747D01*
X16873223Y17998223D01*
X16856747Y18016401D01*
X16842132Y18036107D01*
X16829520Y18057150D01*
X16819030Y18079329D01*
X16810765Y18102428D01*
X16804804Y18126227D01*
X16801204Y18150495D01*
X16800000Y18174999D01*
X16800000Y18825001D01*
X16801204Y18849505D01*
X16804804Y18873773D01*
X16810765Y18897572D01*
X16819030Y18920671D01*
X16829520Y18942850D01*
X16842132Y18963893D01*
X16856747Y18983599D01*
X16873223Y19001777D01*
X16891401Y19018253D01*
X16911107Y19032868D01*
X16932150Y19045480D01*
X16954329Y19055970D01*
X16977428Y19064235D01*
X17001227Y19070196D01*
X17025495Y19073796D01*
X17049999Y19075000D01*
X17950001Y19075000D01*
X17974505Y19073796D01*
X17974505Y19073796D01*
G37*
D16*
X17500000Y18500000D03*
D15*
G36*
X15974505Y15123796D02*
G01*
X15998773Y15120196D01*
X16022572Y15114235D01*
X16045671Y15105970D01*
X16067850Y15095480D01*
X16088893Y15082868D01*
X16108599Y15068253D01*
X16126777Y15051777D01*
X16143253Y15033599D01*
X16157868Y15013893D01*
X16170480Y14992850D01*
X16180970Y14970671D01*
X16189235Y14947572D01*
X16195196Y14923773D01*
X16198796Y14899505D01*
X16200000Y14875001D01*
X16200000Y14224999D01*
X16198796Y14200495D01*
X16195196Y14176227D01*
X16189235Y14152428D01*
X16180970Y14129329D01*
X16170480Y14107150D01*
X16157868Y14086107D01*
X16143253Y14066401D01*
X16126777Y14048223D01*
X16108599Y14031747D01*
X16088893Y14017132D01*
X16067850Y14004520D01*
X16045671Y13994030D01*
X16022572Y13985765D01*
X15998773Y13979804D01*
X15974505Y13976204D01*
X15950001Y13975000D01*
X15049999Y13975000D01*
X15025495Y13976204D01*
X15001227Y13979804D01*
X14977428Y13985765D01*
X14954329Y13994030D01*
X14932150Y14004520D01*
X14911107Y14017132D01*
X14891401Y14031747D01*
X14873223Y14048223D01*
X14856747Y14066401D01*
X14842132Y14086107D01*
X14829520Y14107150D01*
X14819030Y14129329D01*
X14810765Y14152428D01*
X14804804Y14176227D01*
X14801204Y14200495D01*
X14800000Y14224999D01*
X14800000Y14875001D01*
X14801204Y14899505D01*
X14804804Y14923773D01*
X14810765Y14947572D01*
X14819030Y14970671D01*
X14829520Y14992850D01*
X14842132Y15013893D01*
X14856747Y15033599D01*
X14873223Y15051777D01*
X14891401Y15068253D01*
X14911107Y15082868D01*
X14932150Y15095480D01*
X14954329Y15105970D01*
X14977428Y15114235D01*
X15001227Y15120196D01*
X15025495Y15123796D01*
X15049999Y15125000D01*
X15950001Y15125000D01*
X15974505Y15123796D01*
X15974505Y15123796D01*
G37*
D16*
X15500000Y14550000D03*
D15*
G36*
X15974505Y13073796D02*
G01*
X15998773Y13070196D01*
X16022572Y13064235D01*
X16045671Y13055970D01*
X16067850Y13045480D01*
X16088893Y13032868D01*
X16108599Y13018253D01*
X16126777Y13001777D01*
X16143253Y12983599D01*
X16157868Y12963893D01*
X16170480Y12942850D01*
X16180970Y12920671D01*
X16189235Y12897572D01*
X16195196Y12873773D01*
X16198796Y12849505D01*
X16200000Y12825001D01*
X16200000Y12174999D01*
X16198796Y12150495D01*
X16195196Y12126227D01*
X16189235Y12102428D01*
X16180970Y12079329D01*
X16170480Y12057150D01*
X16157868Y12036107D01*
X16143253Y12016401D01*
X16126777Y11998223D01*
X16108599Y11981747D01*
X16088893Y11967132D01*
X16067850Y11954520D01*
X16045671Y11944030D01*
X16022572Y11935765D01*
X15998773Y11929804D01*
X15974505Y11926204D01*
X15950001Y11925000D01*
X15049999Y11925000D01*
X15025495Y11926204D01*
X15001227Y11929804D01*
X14977428Y11935765D01*
X14954329Y11944030D01*
X14932150Y11954520D01*
X14911107Y11967132D01*
X14891401Y11981747D01*
X14873223Y11998223D01*
X14856747Y12016401D01*
X14842132Y12036107D01*
X14829520Y12057150D01*
X14819030Y12079329D01*
X14810765Y12102428D01*
X14804804Y12126227D01*
X14801204Y12150495D01*
X14800000Y12174999D01*
X14800000Y12825001D01*
X14801204Y12849505D01*
X14804804Y12873773D01*
X14810765Y12897572D01*
X14819030Y12920671D01*
X14829520Y12942850D01*
X14842132Y12963893D01*
X14856747Y12983599D01*
X14873223Y13001777D01*
X14891401Y13018253D01*
X14911107Y13032868D01*
X14932150Y13045480D01*
X14954329Y13055970D01*
X14977428Y13064235D01*
X15001227Y13070196D01*
X15025495Y13073796D01*
X15049999Y13075000D01*
X15950001Y13075000D01*
X15974505Y13073796D01*
X15974505Y13073796D01*
G37*
D16*
X15500000Y12500000D03*
D15*
G36*
X18974505Y24523796D02*
G01*
X18998773Y24520196D01*
X19022572Y24514235D01*
X19045671Y24505970D01*
X19067850Y24495480D01*
X19088893Y24482868D01*
X19108599Y24468253D01*
X19126777Y24451777D01*
X19143253Y24433599D01*
X19157868Y24413893D01*
X19170480Y24392850D01*
X19180970Y24370671D01*
X19189235Y24347572D01*
X19195196Y24323773D01*
X19198796Y24299505D01*
X19200000Y24275001D01*
X19200000Y23624999D01*
X19198796Y23600495D01*
X19195196Y23576227D01*
X19189235Y23552428D01*
X19180970Y23529329D01*
X19170480Y23507150D01*
X19157868Y23486107D01*
X19143253Y23466401D01*
X19126777Y23448223D01*
X19108599Y23431747D01*
X19088893Y23417132D01*
X19067850Y23404520D01*
X19045671Y23394030D01*
X19022572Y23385765D01*
X18998773Y23379804D01*
X18974505Y23376204D01*
X18950001Y23375000D01*
X18049999Y23375000D01*
X18025495Y23376204D01*
X18001227Y23379804D01*
X17977428Y23385765D01*
X17954329Y23394030D01*
X17932150Y23404520D01*
X17911107Y23417132D01*
X17891401Y23431747D01*
X17873223Y23448223D01*
X17856747Y23466401D01*
X17842132Y23486107D01*
X17829520Y23507150D01*
X17819030Y23529329D01*
X17810765Y23552428D01*
X17804804Y23576227D01*
X17801204Y23600495D01*
X17800000Y23624999D01*
X17800000Y24275001D01*
X17801204Y24299505D01*
X17804804Y24323773D01*
X17810765Y24347572D01*
X17819030Y24370671D01*
X17829520Y24392850D01*
X17842132Y24413893D01*
X17856747Y24433599D01*
X17873223Y24451777D01*
X17891401Y24468253D01*
X17911107Y24482868D01*
X17932150Y24495480D01*
X17954329Y24505970D01*
X17977428Y24514235D01*
X18001227Y24520196D01*
X18025495Y24523796D01*
X18049999Y24525000D01*
X18950001Y24525000D01*
X18974505Y24523796D01*
X18974505Y24523796D01*
G37*
D16*
X18500000Y23950000D03*
D15*
G36*
X18974505Y26573796D02*
G01*
X18998773Y26570196D01*
X19022572Y26564235D01*
X19045671Y26555970D01*
X19067850Y26545480D01*
X19088893Y26532868D01*
X19108599Y26518253D01*
X19126777Y26501777D01*
X19143253Y26483599D01*
X19157868Y26463893D01*
X19170480Y26442850D01*
X19180970Y26420671D01*
X19189235Y26397572D01*
X19195196Y26373773D01*
X19198796Y26349505D01*
X19200000Y26325001D01*
X19200000Y25674999D01*
X19198796Y25650495D01*
X19195196Y25626227D01*
X19189235Y25602428D01*
X19180970Y25579329D01*
X19170480Y25557150D01*
X19157868Y25536107D01*
X19143253Y25516401D01*
X19126777Y25498223D01*
X19108599Y25481747D01*
X19088893Y25467132D01*
X19067850Y25454520D01*
X19045671Y25444030D01*
X19022572Y25435765D01*
X18998773Y25429804D01*
X18974505Y25426204D01*
X18950001Y25425000D01*
X18049999Y25425000D01*
X18025495Y25426204D01*
X18001227Y25429804D01*
X17977428Y25435765D01*
X17954329Y25444030D01*
X17932150Y25454520D01*
X17911107Y25467132D01*
X17891401Y25481747D01*
X17873223Y25498223D01*
X17856747Y25516401D01*
X17842132Y25536107D01*
X17829520Y25557150D01*
X17819030Y25579329D01*
X17810765Y25602428D01*
X17804804Y25626227D01*
X17801204Y25650495D01*
X17800000Y25674999D01*
X17800000Y26325001D01*
X17801204Y26349505D01*
X17804804Y26373773D01*
X17810765Y26397572D01*
X17819030Y26420671D01*
X17829520Y26442850D01*
X17842132Y26463893D01*
X17856747Y26483599D01*
X17873223Y26501777D01*
X17891401Y26518253D01*
X17911107Y26532868D01*
X17932150Y26545480D01*
X17954329Y26555970D01*
X17977428Y26564235D01*
X18001227Y26570196D01*
X18025495Y26573796D01*
X18049999Y26575000D01*
X18950001Y26575000D01*
X18974505Y26573796D01*
X18974505Y26573796D01*
G37*
D16*
X18500000Y26000000D03*
D15*
G36*
X21974505Y13073796D02*
G01*
X21998773Y13070196D01*
X22022572Y13064235D01*
X22045671Y13055970D01*
X22067850Y13045480D01*
X22088893Y13032868D01*
X22108599Y13018253D01*
X22126777Y13001777D01*
X22143253Y12983599D01*
X22157868Y12963893D01*
X22170480Y12942850D01*
X22180970Y12920671D01*
X22189235Y12897572D01*
X22195196Y12873773D01*
X22198796Y12849505D01*
X22200000Y12825001D01*
X22200000Y12174999D01*
X22198796Y12150495D01*
X22195196Y12126227D01*
X22189235Y12102428D01*
X22180970Y12079329D01*
X22170480Y12057150D01*
X22157868Y12036107D01*
X22143253Y12016401D01*
X22126777Y11998223D01*
X22108599Y11981747D01*
X22088893Y11967132D01*
X22067850Y11954520D01*
X22045671Y11944030D01*
X22022572Y11935765D01*
X21998773Y11929804D01*
X21974505Y11926204D01*
X21950001Y11925000D01*
X21049999Y11925000D01*
X21025495Y11926204D01*
X21001227Y11929804D01*
X20977428Y11935765D01*
X20954329Y11944030D01*
X20932150Y11954520D01*
X20911107Y11967132D01*
X20891401Y11981747D01*
X20873223Y11998223D01*
X20856747Y12016401D01*
X20842132Y12036107D01*
X20829520Y12057150D01*
X20819030Y12079329D01*
X20810765Y12102428D01*
X20804804Y12126227D01*
X20801204Y12150495D01*
X20800000Y12174999D01*
X20800000Y12825001D01*
X20801204Y12849505D01*
X20804804Y12873773D01*
X20810765Y12897572D01*
X20819030Y12920671D01*
X20829520Y12942850D01*
X20842132Y12963893D01*
X20856747Y12983599D01*
X20873223Y13001777D01*
X20891401Y13018253D01*
X20911107Y13032868D01*
X20932150Y13045480D01*
X20954329Y13055970D01*
X20977428Y13064235D01*
X21001227Y13070196D01*
X21025495Y13073796D01*
X21049999Y13075000D01*
X21950001Y13075000D01*
X21974505Y13073796D01*
X21974505Y13073796D01*
G37*
D16*
X21500000Y12500000D03*
D15*
G36*
X21974505Y15123796D02*
G01*
X21998773Y15120196D01*
X22022572Y15114235D01*
X22045671Y15105970D01*
X22067850Y15095480D01*
X22088893Y15082868D01*
X22108599Y15068253D01*
X22126777Y15051777D01*
X22143253Y15033599D01*
X22157868Y15013893D01*
X22170480Y14992850D01*
X22180970Y14970671D01*
X22189235Y14947572D01*
X22195196Y14923773D01*
X22198796Y14899505D01*
X22200000Y14875001D01*
X22200000Y14224999D01*
X22198796Y14200495D01*
X22195196Y14176227D01*
X22189235Y14152428D01*
X22180970Y14129329D01*
X22170480Y14107150D01*
X22157868Y14086107D01*
X22143253Y14066401D01*
X22126777Y14048223D01*
X22108599Y14031747D01*
X22088893Y14017132D01*
X22067850Y14004520D01*
X22045671Y13994030D01*
X22022572Y13985765D01*
X21998773Y13979804D01*
X21974505Y13976204D01*
X21950001Y13975000D01*
X21049999Y13975000D01*
X21025495Y13976204D01*
X21001227Y13979804D01*
X20977428Y13985765D01*
X20954329Y13994030D01*
X20932150Y14004520D01*
X20911107Y14017132D01*
X20891401Y14031747D01*
X20873223Y14048223D01*
X20856747Y14066401D01*
X20842132Y14086107D01*
X20829520Y14107150D01*
X20819030Y14129329D01*
X20810765Y14152428D01*
X20804804Y14176227D01*
X20801204Y14200495D01*
X20800000Y14224999D01*
X20800000Y14875001D01*
X20801204Y14899505D01*
X20804804Y14923773D01*
X20810765Y14947572D01*
X20819030Y14970671D01*
X20829520Y14992850D01*
X20842132Y15013893D01*
X20856747Y15033599D01*
X20873223Y15051777D01*
X20891401Y15068253D01*
X20911107Y15082868D01*
X20932150Y15095480D01*
X20954329Y15105970D01*
X20977428Y15114235D01*
X21001227Y15120196D01*
X21025495Y15123796D01*
X21049999Y15125000D01*
X21950001Y15125000D01*
X21974505Y15123796D01*
X21974505Y15123796D01*
G37*
D16*
X21500000Y14550000D03*
D15*
G36*
X18974505Y13073796D02*
G01*
X18998773Y13070196D01*
X19022572Y13064235D01*
X19045671Y13055970D01*
X19067850Y13045480D01*
X19088893Y13032868D01*
X19108599Y13018253D01*
X19126777Y13001777D01*
X19143253Y12983599D01*
X19157868Y12963893D01*
X19170480Y12942850D01*
X19180970Y12920671D01*
X19189235Y12897572D01*
X19195196Y12873773D01*
X19198796Y12849505D01*
X19200000Y12825001D01*
X19200000Y12174999D01*
X19198796Y12150495D01*
X19195196Y12126227D01*
X19189235Y12102428D01*
X19180970Y12079329D01*
X19170480Y12057150D01*
X19157868Y12036107D01*
X19143253Y12016401D01*
X19126777Y11998223D01*
X19108599Y11981747D01*
X19088893Y11967132D01*
X19067850Y11954520D01*
X19045671Y11944030D01*
X19022572Y11935765D01*
X18998773Y11929804D01*
X18974505Y11926204D01*
X18950001Y11925000D01*
X18049999Y11925000D01*
X18025495Y11926204D01*
X18001227Y11929804D01*
X17977428Y11935765D01*
X17954329Y11944030D01*
X17932150Y11954520D01*
X17911107Y11967132D01*
X17891401Y11981747D01*
X17873223Y11998223D01*
X17856747Y12016401D01*
X17842132Y12036107D01*
X17829520Y12057150D01*
X17819030Y12079329D01*
X17810765Y12102428D01*
X17804804Y12126227D01*
X17801204Y12150495D01*
X17800000Y12174999D01*
X17800000Y12825001D01*
X17801204Y12849505D01*
X17804804Y12873773D01*
X17810765Y12897572D01*
X17819030Y12920671D01*
X17829520Y12942850D01*
X17842132Y12963893D01*
X17856747Y12983599D01*
X17873223Y13001777D01*
X17891401Y13018253D01*
X17911107Y13032868D01*
X17932150Y13045480D01*
X17954329Y13055970D01*
X17977428Y13064235D01*
X18001227Y13070196D01*
X18025495Y13073796D01*
X18049999Y13075000D01*
X18950001Y13075000D01*
X18974505Y13073796D01*
X18974505Y13073796D01*
G37*
D16*
X18500000Y12500000D03*
D15*
G36*
X18974505Y15123796D02*
G01*
X18998773Y15120196D01*
X19022572Y15114235D01*
X19045671Y15105970D01*
X19067850Y15095480D01*
X19088893Y15082868D01*
X19108599Y15068253D01*
X19126777Y15051777D01*
X19143253Y15033599D01*
X19157868Y15013893D01*
X19170480Y14992850D01*
X19180970Y14970671D01*
X19189235Y14947572D01*
X19195196Y14923773D01*
X19198796Y14899505D01*
X19200000Y14875001D01*
X19200000Y14224999D01*
X19198796Y14200495D01*
X19195196Y14176227D01*
X19189235Y14152428D01*
X19180970Y14129329D01*
X19170480Y14107150D01*
X19157868Y14086107D01*
X19143253Y14066401D01*
X19126777Y14048223D01*
X19108599Y14031747D01*
X19088893Y14017132D01*
X19067850Y14004520D01*
X19045671Y13994030D01*
X19022572Y13985765D01*
X18998773Y13979804D01*
X18974505Y13976204D01*
X18950001Y13975000D01*
X18049999Y13975000D01*
X18025495Y13976204D01*
X18001227Y13979804D01*
X17977428Y13985765D01*
X17954329Y13994030D01*
X17932150Y14004520D01*
X17911107Y14017132D01*
X17891401Y14031747D01*
X17873223Y14048223D01*
X17856747Y14066401D01*
X17842132Y14086107D01*
X17829520Y14107150D01*
X17819030Y14129329D01*
X17810765Y14152428D01*
X17804804Y14176227D01*
X17801204Y14200495D01*
X17800000Y14224999D01*
X17800000Y14875001D01*
X17801204Y14899505D01*
X17804804Y14923773D01*
X17810765Y14947572D01*
X17819030Y14970671D01*
X17829520Y14992850D01*
X17842132Y15013893D01*
X17856747Y15033599D01*
X17873223Y15051777D01*
X17891401Y15068253D01*
X17911107Y15082868D01*
X17932150Y15095480D01*
X17954329Y15105970D01*
X17977428Y15114235D01*
X18001227Y15120196D01*
X18025495Y15123796D01*
X18049999Y15125000D01*
X18950001Y15125000D01*
X18974505Y15123796D01*
X18974505Y15123796D01*
G37*
D16*
X18500000Y14550000D03*
D15*
G36*
X11474505Y21098796D02*
G01*
X11498773Y21095196D01*
X11522572Y21089235D01*
X11545671Y21080970D01*
X11567850Y21070480D01*
X11588893Y21057868D01*
X11608599Y21043253D01*
X11626777Y21026777D01*
X11643253Y21008599D01*
X11657868Y20988893D01*
X11670480Y20967850D01*
X11680970Y20945671D01*
X11689235Y20922572D01*
X11695196Y20898773D01*
X11698796Y20874505D01*
X11700000Y20850001D01*
X11700000Y20199999D01*
X11698796Y20175495D01*
X11695196Y20151227D01*
X11689235Y20127428D01*
X11680970Y20104329D01*
X11670480Y20082150D01*
X11657868Y20061107D01*
X11643253Y20041401D01*
X11626777Y20023223D01*
X11608599Y20006747D01*
X11588893Y19992132D01*
X11567850Y19979520D01*
X11545671Y19969030D01*
X11522572Y19960765D01*
X11498773Y19954804D01*
X11474505Y19951204D01*
X11450001Y19950000D01*
X10549999Y19950000D01*
X10525495Y19951204D01*
X10501227Y19954804D01*
X10477428Y19960765D01*
X10454329Y19969030D01*
X10432150Y19979520D01*
X10411107Y19992132D01*
X10391401Y20006747D01*
X10373223Y20023223D01*
X10356747Y20041401D01*
X10342132Y20061107D01*
X10329520Y20082150D01*
X10319030Y20104329D01*
X10310765Y20127428D01*
X10304804Y20151227D01*
X10301204Y20175495D01*
X10300000Y20199999D01*
X10300000Y20850001D01*
X10301204Y20874505D01*
X10304804Y20898773D01*
X10310765Y20922572D01*
X10319030Y20945671D01*
X10329520Y20967850D01*
X10342132Y20988893D01*
X10356747Y21008599D01*
X10373223Y21026777D01*
X10391401Y21043253D01*
X10411107Y21057868D01*
X10432150Y21070480D01*
X10454329Y21080970D01*
X10477428Y21089235D01*
X10501227Y21095196D01*
X10525495Y21098796D01*
X10549999Y21100000D01*
X11450001Y21100000D01*
X11474505Y21098796D01*
X11474505Y21098796D01*
G37*
D16*
X11000000Y20525000D03*
D15*
G36*
X11474505Y19048796D02*
G01*
X11498773Y19045196D01*
X11522572Y19039235D01*
X11545671Y19030970D01*
X11567850Y19020480D01*
X11588893Y19007868D01*
X11608599Y18993253D01*
X11626777Y18976777D01*
X11643253Y18958599D01*
X11657868Y18938893D01*
X11670480Y18917850D01*
X11680970Y18895671D01*
X11689235Y18872572D01*
X11695196Y18848773D01*
X11698796Y18824505D01*
X11700000Y18800001D01*
X11700000Y18149999D01*
X11698796Y18125495D01*
X11695196Y18101227D01*
X11689235Y18077428D01*
X11680970Y18054329D01*
X11670480Y18032150D01*
X11657868Y18011107D01*
X11643253Y17991401D01*
X11626777Y17973223D01*
X11608599Y17956747D01*
X11588893Y17942132D01*
X11567850Y17929520D01*
X11545671Y17919030D01*
X11522572Y17910765D01*
X11498773Y17904804D01*
X11474505Y17901204D01*
X11450001Y17900000D01*
X10549999Y17900000D01*
X10525495Y17901204D01*
X10501227Y17904804D01*
X10477428Y17910765D01*
X10454329Y17919030D01*
X10432150Y17929520D01*
X10411107Y17942132D01*
X10391401Y17956747D01*
X10373223Y17973223D01*
X10356747Y17991401D01*
X10342132Y18011107D01*
X10329520Y18032150D01*
X10319030Y18054329D01*
X10310765Y18077428D01*
X10304804Y18101227D01*
X10301204Y18125495D01*
X10300000Y18149999D01*
X10300000Y18800001D01*
X10301204Y18824505D01*
X10304804Y18848773D01*
X10310765Y18872572D01*
X10319030Y18895671D01*
X10329520Y18917850D01*
X10342132Y18938893D01*
X10356747Y18958599D01*
X10373223Y18976777D01*
X10391401Y18993253D01*
X10411107Y19007868D01*
X10432150Y19020480D01*
X10454329Y19030970D01*
X10477428Y19039235D01*
X10501227Y19045196D01*
X10525495Y19048796D01*
X10549999Y19050000D01*
X11450001Y19050000D01*
X11474505Y19048796D01*
X11474505Y19048796D01*
G37*
D16*
X11000000Y18475000D03*
D15*
G36*
X14754505Y19073796D02*
G01*
X14778773Y19070196D01*
X14802572Y19064235D01*
X14825671Y19055970D01*
X14847850Y19045480D01*
X14868893Y19032868D01*
X14888599Y19018253D01*
X14906777Y19001777D01*
X14923253Y18983599D01*
X14937868Y18963893D01*
X14950480Y18942850D01*
X14960970Y18920671D01*
X14969235Y18897572D01*
X14975196Y18873773D01*
X14978796Y18849505D01*
X14980000Y18825001D01*
X14980000Y18174999D01*
X14978796Y18150495D01*
X14975196Y18126227D01*
X14969235Y18102428D01*
X14960970Y18079329D01*
X14950480Y18057150D01*
X14937868Y18036107D01*
X14923253Y18016401D01*
X14906777Y17998223D01*
X14888599Y17981747D01*
X14868893Y17967132D01*
X14847850Y17954520D01*
X14825671Y17944030D01*
X14802572Y17935765D01*
X14778773Y17929804D01*
X14754505Y17926204D01*
X14730001Y17925000D01*
X13829999Y17925000D01*
X13805495Y17926204D01*
X13781227Y17929804D01*
X13757428Y17935765D01*
X13734329Y17944030D01*
X13712150Y17954520D01*
X13691107Y17967132D01*
X13671401Y17981747D01*
X13653223Y17998223D01*
X13636747Y18016401D01*
X13622132Y18036107D01*
X13609520Y18057150D01*
X13599030Y18079329D01*
X13590765Y18102428D01*
X13584804Y18126227D01*
X13581204Y18150495D01*
X13580000Y18174999D01*
X13580000Y18825001D01*
X13581204Y18849505D01*
X13584804Y18873773D01*
X13590765Y18897572D01*
X13599030Y18920671D01*
X13609520Y18942850D01*
X13622132Y18963893D01*
X13636747Y18983599D01*
X13653223Y19001777D01*
X13671401Y19018253D01*
X13691107Y19032868D01*
X13712150Y19045480D01*
X13734329Y19055970D01*
X13757428Y19064235D01*
X13781227Y19070196D01*
X13805495Y19073796D01*
X13829999Y19075000D01*
X14730001Y19075000D01*
X14754505Y19073796D01*
X14754505Y19073796D01*
G37*
D16*
X14280000Y18500000D03*
D15*
G36*
X14754505Y21123796D02*
G01*
X14778773Y21120196D01*
X14802572Y21114235D01*
X14825671Y21105970D01*
X14847850Y21095480D01*
X14868893Y21082868D01*
X14888599Y21068253D01*
X14906777Y21051777D01*
X14923253Y21033599D01*
X14937868Y21013893D01*
X14950480Y20992850D01*
X14960970Y20970671D01*
X14969235Y20947572D01*
X14975196Y20923773D01*
X14978796Y20899505D01*
X14980000Y20875001D01*
X14980000Y20224999D01*
X14978796Y20200495D01*
X14975196Y20176227D01*
X14969235Y20152428D01*
X14960970Y20129329D01*
X14950480Y20107150D01*
X14937868Y20086107D01*
X14923253Y20066401D01*
X14906777Y20048223D01*
X14888599Y20031747D01*
X14868893Y20017132D01*
X14847850Y20004520D01*
X14825671Y19994030D01*
X14802572Y19985765D01*
X14778773Y19979804D01*
X14754505Y19976204D01*
X14730001Y19975000D01*
X13829999Y19975000D01*
X13805495Y19976204D01*
X13781227Y19979804D01*
X13757428Y19985765D01*
X13734329Y19994030D01*
X13712150Y20004520D01*
X13691107Y20017132D01*
X13671401Y20031747D01*
X13653223Y20048223D01*
X13636747Y20066401D01*
X13622132Y20086107D01*
X13609520Y20107150D01*
X13599030Y20129329D01*
X13590765Y20152428D01*
X13584804Y20176227D01*
X13581204Y20200495D01*
X13580000Y20224999D01*
X13580000Y20875001D01*
X13581204Y20899505D01*
X13584804Y20923773D01*
X13590765Y20947572D01*
X13599030Y20970671D01*
X13609520Y20992850D01*
X13622132Y21013893D01*
X13636747Y21033599D01*
X13653223Y21051777D01*
X13671401Y21068253D01*
X13691107Y21082868D01*
X13712150Y21095480D01*
X13734329Y21105970D01*
X13757428Y21114235D01*
X13781227Y21120196D01*
X13805495Y21123796D01*
X13829999Y21125000D01*
X14730001Y21125000D01*
X14754505Y21123796D01*
X14754505Y21123796D01*
G37*
D16*
X14280000Y20550000D03*
D15*
G36*
X15974505Y8573796D02*
G01*
X15998773Y8570196D01*
X16022572Y8564235D01*
X16045671Y8555970D01*
X16067850Y8545480D01*
X16088893Y8532868D01*
X16108599Y8518253D01*
X16126777Y8501777D01*
X16143253Y8483599D01*
X16157868Y8463893D01*
X16170480Y8442850D01*
X16180970Y8420671D01*
X16189235Y8397572D01*
X16195196Y8373773D01*
X16198796Y8349505D01*
X16200000Y8325001D01*
X16200000Y7674999D01*
X16198796Y7650495D01*
X16195196Y7626227D01*
X16189235Y7602428D01*
X16180970Y7579329D01*
X16170480Y7557150D01*
X16157868Y7536107D01*
X16143253Y7516401D01*
X16126777Y7498223D01*
X16108599Y7481747D01*
X16088893Y7467132D01*
X16067850Y7454520D01*
X16045671Y7444030D01*
X16022572Y7435765D01*
X15998773Y7429804D01*
X15974505Y7426204D01*
X15950001Y7425000D01*
X15049999Y7425000D01*
X15025495Y7426204D01*
X15001227Y7429804D01*
X14977428Y7435765D01*
X14954329Y7444030D01*
X14932150Y7454520D01*
X14911107Y7467132D01*
X14891401Y7481747D01*
X14873223Y7498223D01*
X14856747Y7516401D01*
X14842132Y7536107D01*
X14829520Y7557150D01*
X14819030Y7579329D01*
X14810765Y7602428D01*
X14804804Y7626227D01*
X14801204Y7650495D01*
X14800000Y7674999D01*
X14800000Y8325001D01*
X14801204Y8349505D01*
X14804804Y8373773D01*
X14810765Y8397572D01*
X14819030Y8420671D01*
X14829520Y8442850D01*
X14842132Y8463893D01*
X14856747Y8483599D01*
X14873223Y8501777D01*
X14891401Y8518253D01*
X14911107Y8532868D01*
X14932150Y8545480D01*
X14954329Y8555970D01*
X14977428Y8564235D01*
X15001227Y8570196D01*
X15025495Y8573796D01*
X15049999Y8575000D01*
X15950001Y8575000D01*
X15974505Y8573796D01*
X15974505Y8573796D01*
G37*
D16*
X15500000Y8000000D03*
D15*
G36*
X15974505Y6523796D02*
G01*
X15998773Y6520196D01*
X16022572Y6514235D01*
X16045671Y6505970D01*
X16067850Y6495480D01*
X16088893Y6482868D01*
X16108599Y6468253D01*
X16126777Y6451777D01*
X16143253Y6433599D01*
X16157868Y6413893D01*
X16170480Y6392850D01*
X16180970Y6370671D01*
X16189235Y6347572D01*
X16195196Y6323773D01*
X16198796Y6299505D01*
X16200000Y6275001D01*
X16200000Y5624999D01*
X16198796Y5600495D01*
X16195196Y5576227D01*
X16189235Y5552428D01*
X16180970Y5529329D01*
X16170480Y5507150D01*
X16157868Y5486107D01*
X16143253Y5466401D01*
X16126777Y5448223D01*
X16108599Y5431747D01*
X16088893Y5417132D01*
X16067850Y5404520D01*
X16045671Y5394030D01*
X16022572Y5385765D01*
X15998773Y5379804D01*
X15974505Y5376204D01*
X15950001Y5375000D01*
X15049999Y5375000D01*
X15025495Y5376204D01*
X15001227Y5379804D01*
X14977428Y5385765D01*
X14954329Y5394030D01*
X14932150Y5404520D01*
X14911107Y5417132D01*
X14891401Y5431747D01*
X14873223Y5448223D01*
X14856747Y5466401D01*
X14842132Y5486107D01*
X14829520Y5507150D01*
X14819030Y5529329D01*
X14810765Y5552428D01*
X14804804Y5576227D01*
X14801204Y5600495D01*
X14800000Y5624999D01*
X14800000Y6275001D01*
X14801204Y6299505D01*
X14804804Y6323773D01*
X14810765Y6347572D01*
X14819030Y6370671D01*
X14829520Y6392850D01*
X14842132Y6413893D01*
X14856747Y6433599D01*
X14873223Y6451777D01*
X14891401Y6468253D01*
X14911107Y6482868D01*
X14932150Y6495480D01*
X14954329Y6505970D01*
X14977428Y6514235D01*
X15001227Y6520196D01*
X15025495Y6523796D01*
X15049999Y6525000D01*
X15950001Y6525000D01*
X15974505Y6523796D01*
X15974505Y6523796D01*
G37*
D16*
X15500000Y5950000D03*
D17*
X10220000Y38080000D03*
X10220000Y38080000D03*
X10220000Y38080000D03*
X10220000Y38080000D03*
X10220000Y38080000D03*
X10220000Y38080000D03*
X10220000Y38080000D03*
X10220000Y38080000D03*
X10220000Y38080000D03*
X24250000Y8000000D03*
X9500000Y13750000D03*
X11250000Y13750000D03*
X13000000Y13750000D03*
X13000000Y15500000D03*
X11250000Y15500000D03*
X9500000Y15500000D03*
X20750000Y17000000D03*
X20750000Y19000000D03*
X26000000Y24000000D03*
X26000000Y22000000D03*
X26000000Y26000000D03*
X21750000Y20250000D03*
X21750000Y18000000D03*
X25750000Y16000000D03*
X15750000Y27750000D03*
X12500000Y27750000D03*
X8500000Y32250000D03*
X12250000Y32250000D03*
X16250000Y32250000D03*
X21100000Y27900000D03*
X21500000Y32250000D03*
X2500000Y5500000D03*
X2500000Y3250000D03*
X9250000Y1750000D03*
X9250000Y1750000D03*
X9250000Y1750000D03*
X10500000Y4000000D03*
X8000000Y11000000D03*
X13750000Y11250000D03*
X12250000Y11250000D03*
X20000000Y21500000D03*
X18750000Y22000000D03*
X14250000Y21750000D03*
X12250000Y21750000D03*
X18500000Y10750000D03*
X20250000Y11000000D03*
X16250000Y11000000D03*
D18*
X24750000Y12500000D02*
X24750000Y8500000D01*
X24750000Y8500000D02*
X24250000Y8000000D01*
X11950000Y6000000D02*
X12000000Y5950000D01*
X8000000Y6000000D02*
X11950000Y6000000D01*
X12000000Y5950000D02*
X15500000Y5950000D01*
X22200000Y5950000D02*
X24250000Y8000000D01*
X15500000Y5950000D02*
X22200000Y5950000D01*
X26250000Y12500000D02*
X24750000Y12500000D01*
X26750000Y13000000D02*
X26250000Y12500000D01*
X18500000Y26000000D02*
X21500000Y26000000D01*
X24250000Y23250000D02*
X24250000Y19250000D01*
X24250000Y19250000D02*
X26750000Y16750000D01*
X21500000Y26000000D02*
X24250000Y23250000D01*
X26750000Y16750000D02*
X26750000Y13000000D01*
X8000000Y30960000D02*
X7290000Y31670000D01*
X7290000Y31670000D02*
X5120000Y31670000D01*
X8000000Y27750000D02*
X8000000Y30960000D01*
X18500000Y26000000D02*
X9750000Y26000000D01*
X9750000Y26000000D02*
X8000000Y27750000D01*
D19*
X14255000Y18475000D02*
X14280000Y18500000D01*
X11000000Y18475000D02*
X14255000Y18475000D01*
X15080000Y18500000D02*
X17500000Y18500000D01*
X14280000Y18500000D02*
X15080000Y18500000D01*
X15500000Y17280000D02*
X14280000Y18500000D01*
X15500000Y14550000D02*
X15500000Y17280000D01*
X18500000Y17500000D02*
X17500000Y18500000D01*
X18500000Y14550000D02*
X18500000Y17500000D01*
X21500000Y14550000D02*
X18500000Y14550000D01*
X17700000Y14550000D02*
X15500000Y14550000D01*
X18500000Y14550000D02*
X17700000Y14550000D01*
X24750000Y14550000D02*
X21500000Y14550000D01*
X8000000Y11000000D02*
X8000000Y8050000D01*
X15500000Y8000000D02*
X15500000Y9500000D01*
X15500000Y9500000D02*
X13750000Y11250000D01*
X12000000Y8000000D02*
X12000000Y11000000D01*
X12000000Y11000000D02*
X12250000Y11250000D01*
X17500000Y20550000D02*
X19050000Y20550000D01*
X19050000Y20550000D02*
X20000000Y21500000D01*
X18500000Y22250000D02*
X18750000Y22000000D01*
X18500000Y23950000D02*
X18500000Y22250000D01*
X14280000Y20550000D02*
X14280000Y21720000D01*
X14280000Y21720000D02*
X14250000Y21750000D01*
X11000000Y20525000D02*
X11025000Y20525000D01*
X11025000Y20525000D02*
X12250000Y21750000D01*
X18500000Y10750000D02*
X18500000Y12500000D01*
X21500000Y12500000D02*
X21500000Y12250000D01*
X21500000Y12250000D02*
X20250000Y11000000D01*
X15500000Y12500000D02*
X15500000Y11750000D01*
X15500000Y11750000D02*
X16250000Y11000000D01*
D20*
G36*
X25244555Y32935050D02*
G01*
X26200000Y31979605D01*
X27155445Y32935050D01*
X27126500Y33015000D01*
X43765001Y33015000D01*
X43765001Y32025843D01*
X43688005Y32211727D01*
X43627000Y32303027D01*
X43627000Y32500000D01*
X43624560Y32524776D01*
X43617333Y32548601D01*
X43605597Y32570557D01*
X43589803Y32589803D01*
X43570557Y32605597D01*
X43548601Y32617333D01*
X43524776Y32624560D01*
X43500000Y32627000D01*
X43348655Y32627000D01*
X43340535Y32635120D01*
X43111727Y32788005D01*
X42857490Y32893314D01*
X42587592Y32947000D01*
X42312408Y32947000D01*
X42042510Y32893314D01*
X41788273Y32788005D01*
X41559465Y32635120D01*
X41551345Y32627000D01*
X40848655Y32627000D01*
X40840535Y32635120D01*
X40611727Y32788005D01*
X40357490Y32893314D01*
X40087592Y32947000D01*
X39812408Y32947000D01*
X39542510Y32893314D01*
X39288273Y32788005D01*
X39059465Y32635120D01*
X39051345Y32627000D01*
X38000000Y32627000D01*
X37975224Y32624560D01*
X37951399Y32617333D01*
X37929443Y32605597D01*
X37910197Y32589803D01*
X37894403Y32570557D01*
X37882667Y32548601D01*
X37875440Y32524776D01*
X37873000Y32500000D01*
X37873000Y28131180D01*
X37801533Y28024222D01*
X37678322Y27726763D01*
X37615510Y27410983D01*
X37615510Y27089017D01*
X37678322Y26773237D01*
X37801533Y26475778D01*
X37873000Y26368820D01*
X37873000Y26000000D01*
X37875440Y25975224D01*
X37882667Y25951399D01*
X37894403Y25929443D01*
X37910197Y25910197D01*
X37929443Y25894403D01*
X37951399Y25882667D01*
X37975224Y25875440D01*
X38000000Y25873000D01*
X38368820Y25873000D01*
X38475778Y25801533D01*
X38773237Y25678322D01*
X39089017Y25615510D01*
X39410983Y25615510D01*
X39726763Y25678322D01*
X40024222Y25801533D01*
X40131180Y25873000D01*
X41368820Y25873000D01*
X41475778Y25801533D01*
X41773237Y25678322D01*
X42089017Y25615510D01*
X42410983Y25615510D01*
X42726763Y25678322D01*
X43024222Y25801533D01*
X43131180Y25873000D01*
X43500000Y25873000D01*
X43524776Y25875440D01*
X43548601Y25882667D01*
X43570557Y25894403D01*
X43589803Y25910197D01*
X43605597Y25929443D01*
X43617333Y25951399D01*
X43624560Y25975224D01*
X43627000Y26000000D01*
X43627000Y26368820D01*
X43698467Y26475778D01*
X43765001Y26636405D01*
X43765001Y18377000D01*
X42448638Y18377000D01*
X42410983Y18384490D01*
X42089017Y18384490D01*
X42051362Y18377000D01*
X39448638Y18377000D01*
X39410983Y18384490D01*
X39089017Y18384490D01*
X39051362Y18377000D01*
X37750000Y18377000D01*
X37725224Y18374560D01*
X37701399Y18367333D01*
X37679443Y18355597D01*
X37660197Y18339803D01*
X37644403Y18320557D01*
X37632667Y18298601D01*
X37625440Y18274776D01*
X37623000Y18250000D01*
X37623000Y16948638D01*
X37615510Y16910983D01*
X37615510Y16589017D01*
X37623000Y16551362D01*
X37623000Y10877000D01*
X37448638Y10877000D01*
X37410983Y10884490D01*
X37089017Y10884490D01*
X37051362Y10877000D01*
X35750000Y10877000D01*
X35725224Y10874560D01*
X35701399Y10867333D01*
X35679443Y10855597D01*
X35660197Y10839803D01*
X35644403Y10820557D01*
X35632667Y10798601D01*
X35625440Y10774776D01*
X35623000Y10750000D01*
X35623000Y9448638D01*
X35615510Y9410983D01*
X35615510Y9089017D01*
X35623000Y9051362D01*
X35623000Y7750000D01*
X35625440Y7725224D01*
X35632667Y7701399D01*
X35644403Y7679443D01*
X35660197Y7660197D01*
X35679443Y7644403D01*
X35701399Y7632667D01*
X35725224Y7625440D01*
X35750000Y7623000D01*
X37051362Y7623000D01*
X37089017Y7615510D01*
X37410983Y7615510D01*
X37448638Y7623000D01*
X40051362Y7623000D01*
X40089017Y7615510D01*
X40410983Y7615510D01*
X40448638Y7623000D01*
X43051362Y7623000D01*
X43089017Y7615510D01*
X43410983Y7615510D01*
X43448638Y7623000D01*
X43765000Y7623000D01*
X43765000Y735000D01*
X39873426Y735000D01*
X39951185Y798815D01*
X40030537Y895506D01*
X40089502Y1005820D01*
X40125812Y1125518D01*
X40138072Y1250000D01*
X40138072Y3250000D01*
X40125812Y3374482D01*
X40089502Y3494180D01*
X40030537Y3604494D01*
X39951185Y3701185D01*
X39854494Y3780537D01*
X39744180Y3839502D01*
X39624482Y3875812D01*
X39500000Y3888072D01*
X37500000Y3888072D01*
X37375518Y3875812D01*
X37255820Y3839502D01*
X37145506Y3780537D01*
X37048815Y3701185D01*
X36969463Y3604494D01*
X36910498Y3494180D01*
X36874188Y3374482D01*
X36861928Y3250000D01*
X36861928Y1250000D01*
X36874188Y1125518D01*
X36910498Y1005820D01*
X36969463Y895506D01*
X37048815Y798815D01*
X37126574Y735000D01*
X35621814Y735000D01*
X35686088Y757205D01*
X35860044Y850186D01*
X35955808Y1114587D01*
X35000000Y2070395D01*
X34044192Y1114587D01*
X34139956Y850186D01*
X34376734Y735000D01*
X20296519Y735000D01*
X20519592Y958073D01*
X20698467Y1225778D01*
X20821678Y1523237D01*
X20884490Y1839017D01*
X20884490Y2160983D01*
X20821678Y2476763D01*
X20698467Y2774222D01*
X20519592Y3041927D01*
X20291927Y3269592D01*
X20024222Y3448467D01*
X19899810Y3500000D01*
X22861928Y3500000D01*
X22861928Y1500000D01*
X22874188Y1375518D01*
X22910498Y1255820D01*
X22969463Y1145506D01*
X23048815Y1048815D01*
X23145506Y969463D01*
X23255820Y910498D01*
X23375518Y874188D01*
X23500000Y861928D01*
X25500000Y861928D01*
X25624482Y874188D01*
X25744180Y910498D01*
X25854494Y969463D01*
X25951185Y1048815D01*
X26030537Y1145506D01*
X26089502Y1255820D01*
X26122496Y1364587D01*
X27044192Y1364587D01*
X27139956Y1100186D01*
X27429571Y959296D01*
X27741108Y877616D01*
X28062595Y858282D01*
X28381675Y902039D01*
X28686088Y1007205D01*
X28860044Y1100186D01*
X28955808Y1364587D01*
X28000000Y2320395D01*
X27044192Y1364587D01*
X26122496Y1364587D01*
X26125812Y1375518D01*
X26138072Y1500000D01*
X26138072Y2437405D01*
X26358282Y2437405D01*
X26402039Y2118325D01*
X26507205Y1813912D01*
X26600186Y1639956D01*
X26864587Y1544192D01*
X27820395Y2500000D01*
X28179605Y2500000D01*
X29135413Y1544192D01*
X29399814Y1639956D01*
X29540704Y1929571D01*
X29608303Y2187405D01*
X33358282Y2187405D01*
X33402039Y1868325D01*
X33507205Y1563912D01*
X33600186Y1389956D01*
X33864587Y1294192D01*
X34820395Y2250000D01*
X35179605Y2250000D01*
X36135413Y1294192D01*
X36399814Y1389956D01*
X36540704Y1679571D01*
X36622384Y1991108D01*
X36641718Y2312595D01*
X36597961Y2631675D01*
X36492795Y2936088D01*
X36399814Y3110044D01*
X36135413Y3205808D01*
X35179605Y2250000D01*
X34820395Y2250000D01*
X33864587Y3205808D01*
X33600186Y3110044D01*
X33459296Y2820429D01*
X33377616Y2508892D01*
X33358282Y2187405D01*
X29608303Y2187405D01*
X29622384Y2241108D01*
X29641718Y2562595D01*
X29597961Y2881675D01*
X29492795Y3186088D01*
X29399814Y3360044D01*
X29329772Y3385413D01*
X34044192Y3385413D01*
X35000000Y2429605D01*
X35955808Y3385413D01*
X35860044Y3649814D01*
X35570429Y3790704D01*
X35258892Y3872384D01*
X34937405Y3891718D01*
X34618325Y3847961D01*
X34313912Y3742795D01*
X34139956Y3649814D01*
X34044192Y3385413D01*
X29329772Y3385413D01*
X29135413Y3455808D01*
X28179605Y2500000D01*
X27820395Y2500000D01*
X26864587Y3455808D01*
X26600186Y3360044D01*
X26459296Y3070429D01*
X26377616Y2758892D01*
X26358282Y2437405D01*
X26138072Y2437405D01*
X26138072Y3500000D01*
X26125812Y3624482D01*
X26122497Y3635413D01*
X27044192Y3635413D01*
X28000000Y2679605D01*
X28955808Y3635413D01*
X28860044Y3899814D01*
X28570429Y4040704D01*
X28258892Y4122384D01*
X27937405Y4141718D01*
X27618325Y4097961D01*
X27313912Y3992795D01*
X27139956Y3899814D01*
X27044192Y3635413D01*
X26122497Y3635413D01*
X26089502Y3744180D01*
X26030537Y3854494D01*
X25951185Y3951185D01*
X25854494Y4030537D01*
X25744180Y4089502D01*
X25624482Y4125812D01*
X25500000Y4138072D01*
X23500000Y4138072D01*
X23375518Y4125812D01*
X23255820Y4089502D01*
X23145506Y4030537D01*
X23048815Y3951185D01*
X22969463Y3854494D01*
X22910498Y3744180D01*
X22874188Y3624482D01*
X22861928Y3500000D01*
X19899810Y3500000D01*
X19726763Y3571678D01*
X19410983Y3634490D01*
X19089017Y3634490D01*
X18773237Y3571678D01*
X18475778Y3448467D01*
X18208073Y3269592D01*
X17980408Y3041927D01*
X17801533Y2774222D01*
X17678322Y2476763D01*
X17625000Y2208693D01*
X17571678Y2476763D01*
X17448467Y2774222D01*
X17269592Y3041927D01*
X17041927Y3269592D01*
X16774222Y3448467D01*
X16476763Y3571678D01*
X16160983Y3634490D01*
X15839017Y3634490D01*
X15523237Y3571678D01*
X15225778Y3448467D01*
X14958073Y3269592D01*
X14730408Y3041927D01*
X14551533Y2774222D01*
X14428322Y2476763D01*
X14375000Y2208693D01*
X14321678Y2476763D01*
X14198467Y2774222D01*
X14019592Y3041927D01*
X13791927Y3269592D01*
X13524222Y3448467D01*
X13226763Y3571678D01*
X12910983Y3634490D01*
X12589017Y3634490D01*
X12273237Y3571678D01*
X11975778Y3448467D01*
X11708073Y3269592D01*
X11480408Y3041927D01*
X11301533Y2774222D01*
X11178322Y2476763D01*
X11115510Y2160983D01*
X11115510Y1839017D01*
X11178322Y1523237D01*
X11301533Y1225778D01*
X11480408Y958073D01*
X11703481Y735000D01*
X735000Y735000D01*
X735000Y8155762D01*
X6661928Y8353327D01*
X6661928Y7724999D01*
X6678992Y7551745D01*
X6729528Y7385149D01*
X6811595Y7231613D01*
X6922038Y7097038D01*
X7009816Y7025000D01*
X6922038Y6952962D01*
X6811595Y6818387D01*
X6729528Y6664851D01*
X6678992Y6498255D01*
X6661928Y6325001D01*
X6661928Y5674999D01*
X6678992Y5501745D01*
X6729528Y5335149D01*
X6811595Y5181613D01*
X6922038Y5047038D01*
X7056613Y4936595D01*
X7210149Y4854528D01*
X7376745Y4803992D01*
X7549999Y4786928D01*
X8450001Y4786928D01*
X8623255Y4803992D01*
X8789851Y4854528D01*
X8943387Y4936595D01*
X9077962Y5047038D01*
X9174771Y5165000D01*
X10793749Y5165000D01*
X10811595Y5131613D01*
X10922038Y4997038D01*
X11056613Y4886595D01*
X11210149Y4804528D01*
X11376745Y4753992D01*
X11549999Y4736928D01*
X12450001Y4736928D01*
X12623255Y4753992D01*
X12789851Y4804528D01*
X12943387Y4886595D01*
X13077962Y4997038D01*
X13174771Y5115000D01*
X14325229Y5115000D01*
X14422038Y4997038D01*
X14556613Y4886595D01*
X14710149Y4804528D01*
X14876745Y4753992D01*
X15049999Y4736928D01*
X15950001Y4736928D01*
X16123255Y4753992D01*
X16289851Y4804528D01*
X16443387Y4886595D01*
X16577962Y4997038D01*
X16674771Y5115000D01*
X22158982Y5115000D01*
X22200000Y5110960D01*
X22241018Y5115000D01*
X22241019Y5115000D01*
X22363689Y5127082D01*
X22521087Y5174828D01*
X22666146Y5252364D01*
X22793291Y5356709D01*
X22819446Y5388579D01*
X24406776Y6975908D01*
X24551898Y7004774D01*
X24740256Y7082795D01*
X24909774Y7196063D01*
X25053937Y7340226D01*
X25167205Y7509744D01*
X25245226Y7698102D01*
X25274092Y7843225D01*
X25311426Y7880558D01*
X25343291Y7906709D01*
X25447636Y8033854D01*
X25525172Y8178913D01*
X25572918Y8336311D01*
X25585000Y8458981D01*
X25585000Y8458982D01*
X25589040Y8500000D01*
X25585000Y8541018D01*
X25585000Y9064950D01*
X26344555Y9064950D01*
X26440258Y8800601D01*
X26729787Y8659762D01*
X27041229Y8578115D01*
X27362615Y8558795D01*
X27681595Y8602546D01*
X27985911Y8707686D01*
X28159742Y8800601D01*
X28255445Y9064950D01*
X27300000Y10020395D01*
X26344555Y9064950D01*
X25585000Y9064950D01*
X25585000Y10137385D01*
X25658795Y10137385D01*
X25702546Y9818405D01*
X25807686Y9514089D01*
X25900601Y9340258D01*
X26164950Y9244555D01*
X27120395Y10200000D01*
X27479605Y10200000D01*
X28435050Y9244555D01*
X28699399Y9340258D01*
X28840238Y9629787D01*
X28921885Y9941229D01*
X28941205Y10262615D01*
X28897454Y10581595D01*
X28792314Y10885911D01*
X28699399Y11059742D01*
X28435050Y11155445D01*
X27479605Y10200000D01*
X27120395Y10200000D01*
X26164950Y11155445D01*
X25900601Y11059742D01*
X25759762Y10770213D01*
X25678115Y10458771D01*
X25658795Y10137385D01*
X25585000Y10137385D01*
X25585000Y11335050D01*
X26344555Y11335050D01*
X27300000Y10379605D01*
X28255445Y11335050D01*
X28159742Y11599399D01*
X27870213Y11740238D01*
X27558771Y11821885D01*
X27237385Y11841205D01*
X26918405Y11797454D01*
X26614089Y11692314D01*
X26440258Y11599399D01*
X26344555Y11335050D01*
X25585000Y11335050D01*
X25585000Y11378661D01*
X25693387Y11436595D01*
X25827962Y11547038D01*
X25924771Y11665000D01*
X26208982Y11665000D01*
X26250000Y11660960D01*
X26291018Y11665000D01*
X26291019Y11665000D01*
X26413689Y11677082D01*
X26571087Y11724828D01*
X26716146Y11802364D01*
X26843291Y11906709D01*
X26869445Y11938578D01*
X27015302Y12084435D01*
X28264040Y12084435D01*
X28331020Y11844344D01*
X28580048Y11727244D01*
X28847135Y11660977D01*
X29122017Y11648090D01*
X29394133Y11689078D01*
X29653023Y11782364D01*
X29768980Y11844344D01*
X29835960Y12084435D01*
X30764040Y12084435D01*
X30831020Y11844344D01*
X31080048Y11727244D01*
X31347135Y11660977D01*
X31622017Y11648090D01*
X31894133Y11689078D01*
X32153023Y11782364D01*
X32268980Y11844344D01*
X32335960Y12084435D01*
X31550000Y12870395D01*
X30764040Y12084435D01*
X29835960Y12084435D01*
X29050000Y12870395D01*
X28264040Y12084435D01*
X27015302Y12084435D01*
X27311426Y12380558D01*
X27343291Y12406709D01*
X27447636Y12533854D01*
X27525172Y12678913D01*
X27572918Y12836311D01*
X27585000Y12958981D01*
X27585000Y12958982D01*
X27586871Y12977983D01*
X27648090Y12977983D01*
X27689078Y12705867D01*
X27782364Y12446977D01*
X27844344Y12331020D01*
X28084435Y12264040D01*
X28870395Y13050000D01*
X29229605Y13050000D01*
X30015565Y12264040D01*
X30255656Y12331020D01*
X30297163Y12419290D01*
X30344344Y12331020D01*
X30584435Y12264040D01*
X31370395Y13050000D01*
X31729605Y13050000D01*
X32515565Y12264040D01*
X32755656Y12331020D01*
X32872756Y12580048D01*
X32939023Y12847135D01*
X32951910Y13122017D01*
X32910922Y13394133D01*
X32817636Y13653023D01*
X32755656Y13768980D01*
X32515565Y13835960D01*
X31729605Y13050000D01*
X31370395Y13050000D01*
X30584435Y13835960D01*
X30344344Y13768980D01*
X30302837Y13680710D01*
X30255656Y13768980D01*
X30015565Y13835960D01*
X29229605Y13050000D01*
X28870395Y13050000D01*
X28084435Y13835960D01*
X27844344Y13768980D01*
X27727244Y13519952D01*
X27660977Y13252865D01*
X27648090Y12977983D01*
X27586871Y12977983D01*
X27589040Y13000000D01*
X27585000Y13041018D01*
X27585000Y14015565D01*
X28264040Y14015565D01*
X29050000Y13229605D01*
X29835960Y14015565D01*
X30764040Y14015565D01*
X31550000Y13229605D01*
X32335960Y14015565D01*
X32268980Y14255656D01*
X32019952Y14372756D01*
X31752865Y14439023D01*
X31477983Y14451910D01*
X31205867Y14410922D01*
X30946977Y14317636D01*
X30831020Y14255656D01*
X30764040Y14015565D01*
X29835960Y14015565D01*
X29768980Y14255656D01*
X29519952Y14372756D01*
X29252865Y14439023D01*
X28977983Y14451910D01*
X28705867Y14410922D01*
X28446977Y14317636D01*
X28331020Y14255656D01*
X28264040Y14015565D01*
X27585000Y14015565D01*
X27585000Y16708982D01*
X27589040Y16750000D01*
X27572918Y16913689D01*
X27525172Y17071087D01*
X27447636Y17216146D01*
X27369439Y17311430D01*
X27369437Y17311432D01*
X27343291Y17343291D01*
X27311433Y17369436D01*
X25085000Y19595867D01*
X25085000Y23208993D01*
X25089039Y23250001D01*
X25085000Y23291009D01*
X25085000Y23291019D01*
X25072918Y23413689D01*
X25025172Y23571087D01*
X24947636Y23716146D01*
X24843291Y23843291D01*
X24811428Y23869440D01*
X22565918Y26114950D01*
X28294555Y26114950D01*
X28390258Y25850601D01*
X28679787Y25709762D01*
X28991229Y25628115D01*
X29312615Y25608795D01*
X29631595Y25652546D01*
X29935911Y25757686D01*
X30109742Y25850601D01*
X30205445Y26114950D01*
X31294555Y26114950D01*
X31390258Y25850601D01*
X31679787Y25709762D01*
X31991229Y25628115D01*
X32312615Y25608795D01*
X32631595Y25652546D01*
X32935911Y25757686D01*
X33109742Y25850601D01*
X33205445Y26114950D01*
X32250000Y27070395D01*
X31294555Y26114950D01*
X30205445Y26114950D01*
X29250000Y27070395D01*
X28294555Y26114950D01*
X22565918Y26114950D01*
X22119446Y26561421D01*
X22093291Y26593291D01*
X21966146Y26697636D01*
X21821087Y26775172D01*
X21663689Y26822918D01*
X21541019Y26835000D01*
X21541018Y26835000D01*
X21500000Y26839040D01*
X21458982Y26835000D01*
X19674771Y26835000D01*
X19577962Y26952962D01*
X19443387Y27063405D01*
X19289851Y27145472D01*
X19151682Y27187385D01*
X27608795Y27187385D01*
X27652546Y26868405D01*
X27757686Y26564089D01*
X27850601Y26390258D01*
X28114950Y26294555D01*
X29070395Y27250000D01*
X29429605Y27250000D01*
X30385050Y26294555D01*
X30649399Y26390258D01*
X30747832Y26592611D01*
X30757686Y26564089D01*
X30850601Y26390258D01*
X31114950Y26294555D01*
X32070395Y27250000D01*
X32429605Y27250000D01*
X33385050Y26294555D01*
X33649399Y26390258D01*
X33790238Y26679787D01*
X33871885Y26991229D01*
X33891205Y27312615D01*
X33847454Y27631595D01*
X33742314Y27935911D01*
X33649399Y28109742D01*
X33385050Y28205445D01*
X32429605Y27250000D01*
X32070395Y27250000D01*
X31114950Y28205445D01*
X30850601Y28109742D01*
X30752168Y27907389D01*
X30742314Y27935911D01*
X30649399Y28109742D01*
X30385050Y28205445D01*
X29429605Y27250000D01*
X29070395Y27250000D01*
X28114950Y28205445D01*
X27850601Y28109742D01*
X27709762Y27820213D01*
X27628115Y27508771D01*
X27608795Y27187385D01*
X19151682Y27187385D01*
X19123255Y27196008D01*
X18950001Y27213072D01*
X18049999Y27213072D01*
X17876745Y27196008D01*
X17710149Y27145472D01*
X17556613Y27063405D01*
X17422038Y26952962D01*
X17325229Y26835000D01*
X10095869Y26835000D01*
X8965918Y27964950D01*
X25344555Y27964950D01*
X25440258Y27700601D01*
X25729787Y27559762D01*
X26041229Y27478115D01*
X26362615Y27458795D01*
X26681595Y27502546D01*
X26985911Y27607686D01*
X27159742Y27700601D01*
X27255445Y27964950D01*
X26300000Y28920395D01*
X25344555Y27964950D01*
X8965918Y27964950D01*
X8835000Y28095867D01*
X8835000Y30160983D01*
X8865510Y30160983D01*
X8865510Y29839017D01*
X8928322Y29523237D01*
X9051533Y29225778D01*
X9230408Y28958073D01*
X9458073Y28730408D01*
X9725778Y28551533D01*
X10023237Y28428322D01*
X10339017Y28365510D01*
X10660983Y28365510D01*
X10976763Y28428322D01*
X11274222Y28551533D01*
X11541927Y28730408D01*
X11769592Y28958073D01*
X11948467Y29225778D01*
X12071678Y29523237D01*
X12134490Y29839017D01*
X12134490Y30160983D01*
X12365510Y30160983D01*
X12365510Y29839017D01*
X12428322Y29523237D01*
X12551533Y29225778D01*
X12730408Y28958073D01*
X12958073Y28730408D01*
X13225778Y28551533D01*
X13523237Y28428322D01*
X13839017Y28365510D01*
X14160983Y28365510D01*
X14476763Y28428322D01*
X14774222Y28551533D01*
X15041927Y28730408D01*
X15269592Y28958073D01*
X15448467Y29225778D01*
X15571678Y29523237D01*
X15634490Y29839017D01*
X15634490Y30160983D01*
X21265510Y30160983D01*
X21265510Y29839017D01*
X21328322Y29523237D01*
X21451533Y29225778D01*
X21630408Y28958073D01*
X21858073Y28730408D01*
X22125778Y28551533D01*
X22423237Y28428322D01*
X22739017Y28365510D01*
X23060983Y28365510D01*
X23376763Y28428322D01*
X23674222Y28551533D01*
X23941927Y28730408D01*
X24169592Y28958073D01*
X24222586Y29037385D01*
X24658795Y29037385D01*
X24702546Y28718405D01*
X24807686Y28414089D01*
X24900601Y28240258D01*
X25164950Y28144555D01*
X26120395Y29100000D01*
X26479605Y29100000D01*
X27435050Y28144555D01*
X27699399Y28240258D01*
X27769831Y28385050D01*
X28294555Y28385050D01*
X29250000Y27429605D01*
X30205445Y28385050D01*
X31294555Y28385050D01*
X32250000Y27429605D01*
X33205445Y28385050D01*
X33109742Y28649399D01*
X32820213Y28790238D01*
X32508771Y28871885D01*
X32187385Y28891205D01*
X31868405Y28847454D01*
X31564089Y28742314D01*
X31390258Y28649399D01*
X31294555Y28385050D01*
X30205445Y28385050D01*
X30109742Y28649399D01*
X29820213Y28790238D01*
X29508771Y28871885D01*
X29187385Y28891205D01*
X28868405Y28847454D01*
X28564089Y28742314D01*
X28390258Y28649399D01*
X28294555Y28385050D01*
X27769831Y28385050D01*
X27840238Y28529787D01*
X27921885Y28841229D01*
X27941205Y29162615D01*
X27897454Y29481595D01*
X27792314Y29785911D01*
X27699399Y29959742D01*
X27435050Y30055445D01*
X26479605Y29100000D01*
X26120395Y29100000D01*
X25164950Y30055445D01*
X24900601Y29959742D01*
X24759762Y29670213D01*
X24678115Y29358771D01*
X24658795Y29037385D01*
X24222586Y29037385D01*
X24348467Y29225778D01*
X24471678Y29523237D01*
X24534490Y29839017D01*
X24534490Y30160983D01*
X24471678Y30476763D01*
X24393729Y30664950D01*
X25244555Y30664950D01*
X25340258Y30400601D01*
X25394872Y30374034D01*
X25344555Y30235050D01*
X26300000Y29279605D01*
X27255445Y30235050D01*
X27159742Y30499399D01*
X27105128Y30525966D01*
X27126295Y30584435D01*
X28264040Y30584435D01*
X28331020Y30344344D01*
X28580048Y30227244D01*
X28847135Y30160977D01*
X29122017Y30148090D01*
X29394133Y30189078D01*
X29653023Y30282364D01*
X29768980Y30344344D01*
X29835960Y30584435D01*
X30764040Y30584435D01*
X30831020Y30344344D01*
X31080048Y30227244D01*
X31347135Y30160977D01*
X31622017Y30148090D01*
X31894133Y30189078D01*
X32153023Y30282364D01*
X32268980Y30344344D01*
X32335960Y30584435D01*
X31550000Y31370395D01*
X30764040Y30584435D01*
X29835960Y30584435D01*
X29050000Y31370395D01*
X28264040Y30584435D01*
X27126295Y30584435D01*
X27155445Y30664950D01*
X26200000Y31620395D01*
X25244555Y30664950D01*
X24393729Y30664950D01*
X24348467Y30774222D01*
X24169592Y31041927D01*
X23941927Y31269592D01*
X23674222Y31448467D01*
X23376763Y31571678D01*
X23060983Y31634490D01*
X22739017Y31634490D01*
X22423237Y31571678D01*
X22125778Y31448467D01*
X21858073Y31269592D01*
X21630408Y31041927D01*
X21451533Y30774222D01*
X21328322Y30476763D01*
X21265510Y30160983D01*
X15634490Y30160983D01*
X15571678Y30476763D01*
X15448467Y30774222D01*
X15269592Y31041927D01*
X15041927Y31269592D01*
X14774222Y31448467D01*
X14476763Y31571678D01*
X14160983Y31634490D01*
X13839017Y31634490D01*
X13523237Y31571678D01*
X13225778Y31448467D01*
X12958073Y31269592D01*
X12730408Y31041927D01*
X12551533Y30774222D01*
X12428322Y30476763D01*
X12365510Y30160983D01*
X12134490Y30160983D01*
X12071678Y30476763D01*
X11948467Y30774222D01*
X11769592Y31041927D01*
X11541927Y31269592D01*
X11274222Y31448467D01*
X10976763Y31571678D01*
X10660983Y31634490D01*
X10339017Y31634490D01*
X10023237Y31571678D01*
X9725778Y31448467D01*
X9458073Y31269592D01*
X9230408Y31041927D01*
X9051533Y30774222D01*
X8928322Y30476763D01*
X8865510Y30160983D01*
X8835000Y30160983D01*
X8835000Y30918982D01*
X8839040Y30960000D01*
X8824287Y31109787D01*
X8822918Y31123689D01*
X8775172Y31281087D01*
X8697636Y31426146D01*
X8636702Y31500395D01*
X8619439Y31521430D01*
X8619437Y31521432D01*
X8593291Y31553291D01*
X8561431Y31579437D01*
X8403483Y31737385D01*
X24558795Y31737385D01*
X24602546Y31418405D01*
X24707686Y31114089D01*
X24800601Y30940258D01*
X25064950Y30844555D01*
X26020395Y31800000D01*
X26379605Y31800000D01*
X27335050Y30844555D01*
X27599399Y30940258D01*
X27705897Y31159191D01*
X27782364Y30946977D01*
X27844344Y30831020D01*
X28084435Y30764040D01*
X28870395Y31550000D01*
X29229605Y31550000D01*
X30015565Y30764040D01*
X30255656Y30831020D01*
X30297163Y30919290D01*
X30344344Y30831020D01*
X30584435Y30764040D01*
X31370395Y31550000D01*
X31729605Y31550000D01*
X32515565Y30764040D01*
X32755656Y30831020D01*
X32872756Y31080048D01*
X32939023Y31347135D01*
X32951910Y31622017D01*
X32910922Y31894133D01*
X32817636Y32153023D01*
X32755656Y32268980D01*
X32515565Y32335960D01*
X31729605Y31550000D01*
X31370395Y31550000D01*
X30584435Y32335960D01*
X30344344Y32268980D01*
X30302837Y32180710D01*
X30255656Y32268980D01*
X30015565Y32335960D01*
X29229605Y31550000D01*
X28870395Y31550000D01*
X28084435Y32335960D01*
X27844344Y32268980D01*
X27798764Y32172047D01*
X27797454Y32181595D01*
X27692314Y32485911D01*
X27676464Y32515565D01*
X28264040Y32515565D01*
X29050000Y31729605D01*
X29835960Y32515565D01*
X30764040Y32515565D01*
X31550000Y31729605D01*
X32335960Y32515565D01*
X32268980Y32755656D01*
X32019952Y32872756D01*
X31752865Y32939023D01*
X31477983Y32951910D01*
X31205867Y32910922D01*
X30946977Y32817636D01*
X30831020Y32755656D01*
X30764040Y32515565D01*
X29835960Y32515565D01*
X29768980Y32755656D01*
X29519952Y32872756D01*
X29252865Y32939023D01*
X28977983Y32951910D01*
X28705867Y32910922D01*
X28446977Y32817636D01*
X28331020Y32755656D01*
X28264040Y32515565D01*
X27676464Y32515565D01*
X27599399Y32659742D01*
X27335050Y32755445D01*
X26379605Y31800000D01*
X26020395Y31800000D01*
X25064950Y32755445D01*
X24800601Y32659742D01*
X24659762Y32370213D01*
X24578115Y32058771D01*
X24558795Y31737385D01*
X8403483Y31737385D01*
X7909445Y32231422D01*
X7883291Y32263291D01*
X7756146Y32367636D01*
X7611087Y32445172D01*
X7453689Y32492918D01*
X7331019Y32505000D01*
X7331018Y32505000D01*
X7290000Y32509040D01*
X7248982Y32505000D01*
X6527856Y32505000D01*
X6389592Y32711927D01*
X6161927Y32939592D01*
X6049071Y33015000D01*
X25273500Y33015000D01*
X25244555Y32935050D01*
X25244555Y32935050D01*
G37*
X25244555Y32935050D02*
X26200000Y31979605D01*
X27155445Y32935050D01*
X27126500Y33015000D01*
X43765001Y33015000D01*
X43765001Y32025843D01*
X43688005Y32211727D01*
X43627000Y32303027D01*
X43627000Y32500000D01*
X43624560Y32524776D01*
X43617333Y32548601D01*
X43605597Y32570557D01*
X43589803Y32589803D01*
X43570557Y32605597D01*
X43548601Y32617333D01*
X43524776Y32624560D01*
X43500000Y32627000D01*
X43348655Y32627000D01*
X43340535Y32635120D01*
X43111727Y32788005D01*
X42857490Y32893314D01*
X42587592Y32947000D01*
X42312408Y32947000D01*
X42042510Y32893314D01*
X41788273Y32788005D01*
X41559465Y32635120D01*
X41551345Y32627000D01*
X40848655Y32627000D01*
X40840535Y32635120D01*
X40611727Y32788005D01*
X40357490Y32893314D01*
X40087592Y32947000D01*
X39812408Y32947000D01*
X39542510Y32893314D01*
X39288273Y32788005D01*
X39059465Y32635120D01*
X39051345Y32627000D01*
X38000000Y32627000D01*
X37975224Y32624560D01*
X37951399Y32617333D01*
X37929443Y32605597D01*
X37910197Y32589803D01*
X37894403Y32570557D01*
X37882667Y32548601D01*
X37875440Y32524776D01*
X37873000Y32500000D01*
X37873000Y28131180D01*
X37801533Y28024222D01*
X37678322Y27726763D01*
X37615510Y27410983D01*
X37615510Y27089017D01*
X37678322Y26773237D01*
X37801533Y26475778D01*
X37873000Y26368820D01*
X37873000Y26000000D01*
X37875440Y25975224D01*
X37882667Y25951399D01*
X37894403Y25929443D01*
X37910197Y25910197D01*
X37929443Y25894403D01*
X37951399Y25882667D01*
X37975224Y25875440D01*
X38000000Y25873000D01*
X38368820Y25873000D01*
X38475778Y25801533D01*
X38773237Y25678322D01*
X39089017Y25615510D01*
X39410983Y25615510D01*
X39726763Y25678322D01*
X40024222Y25801533D01*
X40131180Y25873000D01*
X41368820Y25873000D01*
X41475778Y25801533D01*
X41773237Y25678322D01*
X42089017Y25615510D01*
X42410983Y25615510D01*
X42726763Y25678322D01*
X43024222Y25801533D01*
X43131180Y25873000D01*
X43500000Y25873000D01*
X43524776Y25875440D01*
X43548601Y25882667D01*
X43570557Y25894403D01*
X43589803Y25910197D01*
X43605597Y25929443D01*
X43617333Y25951399D01*
X43624560Y25975224D01*
X43627000Y26000000D01*
X43627000Y26368820D01*
X43698467Y26475778D01*
X43765001Y26636405D01*
X43765001Y18377000D01*
X42448638Y18377000D01*
X42410983Y18384490D01*
X42089017Y18384490D01*
X42051362Y18377000D01*
X39448638Y18377000D01*
X39410983Y18384490D01*
X39089017Y18384490D01*
X39051362Y18377000D01*
X37750000Y18377000D01*
X37725224Y18374560D01*
X37701399Y18367333D01*
X37679443Y18355597D01*
X37660197Y18339803D01*
X37644403Y18320557D01*
X37632667Y18298601D01*
X37625440Y18274776D01*
X37623000Y18250000D01*
X37623000Y16948638D01*
X37615510Y16910983D01*
X37615510Y16589017D01*
X37623000Y16551362D01*
X37623000Y10877000D01*
X37448638Y10877000D01*
X37410983Y10884490D01*
X37089017Y10884490D01*
X37051362Y10877000D01*
X35750000Y10877000D01*
X35725224Y10874560D01*
X35701399Y10867333D01*
X35679443Y10855597D01*
X35660197Y10839803D01*
X35644403Y10820557D01*
X35632667Y10798601D01*
X35625440Y10774776D01*
X35623000Y10750000D01*
X35623000Y9448638D01*
X35615510Y9410983D01*
X35615510Y9089017D01*
X35623000Y9051362D01*
X35623000Y7750000D01*
X35625440Y7725224D01*
X35632667Y7701399D01*
X35644403Y7679443D01*
X35660197Y7660197D01*
X35679443Y7644403D01*
X35701399Y7632667D01*
X35725224Y7625440D01*
X35750000Y7623000D01*
X37051362Y7623000D01*
X37089017Y7615510D01*
X37410983Y7615510D01*
X37448638Y7623000D01*
X40051362Y7623000D01*
X40089017Y7615510D01*
X40410983Y7615510D01*
X40448638Y7623000D01*
X43051362Y7623000D01*
X43089017Y7615510D01*
X43410983Y7615510D01*
X43448638Y7623000D01*
X43765000Y7623000D01*
X43765000Y735000D01*
X39873426Y735000D01*
X39951185Y798815D01*
X40030537Y895506D01*
X40089502Y1005820D01*
X40125812Y1125518D01*
X40138072Y1250000D01*
X40138072Y3250000D01*
X40125812Y3374482D01*
X40089502Y3494180D01*
X40030537Y3604494D01*
X39951185Y3701185D01*
X39854494Y3780537D01*
X39744180Y3839502D01*
X39624482Y3875812D01*
X39500000Y3888072D01*
X37500000Y3888072D01*
X37375518Y3875812D01*
X37255820Y3839502D01*
X37145506Y3780537D01*
X37048815Y3701185D01*
X36969463Y3604494D01*
X36910498Y3494180D01*
X36874188Y3374482D01*
X36861928Y3250000D01*
X36861928Y1250000D01*
X36874188Y1125518D01*
X36910498Y1005820D01*
X36969463Y895506D01*
X37048815Y798815D01*
X37126574Y735000D01*
X35621814Y735000D01*
X35686088Y757205D01*
X35860044Y850186D01*
X35955808Y1114587D01*
X35000000Y2070395D01*
X34044192Y1114587D01*
X34139956Y850186D01*
X34376734Y735000D01*
X20296519Y735000D01*
X20519592Y958073D01*
X20698467Y1225778D01*
X20821678Y1523237D01*
X20884490Y1839017D01*
X20884490Y2160983D01*
X20821678Y2476763D01*
X20698467Y2774222D01*
X20519592Y3041927D01*
X20291927Y3269592D01*
X20024222Y3448467D01*
X19899810Y3500000D01*
X22861928Y3500000D01*
X22861928Y1500000D01*
X22874188Y1375518D01*
X22910498Y1255820D01*
X22969463Y1145506D01*
X23048815Y1048815D01*
X23145506Y969463D01*
X23255820Y910498D01*
X23375518Y874188D01*
X23500000Y861928D01*
X25500000Y861928D01*
X25624482Y874188D01*
X25744180Y910498D01*
X25854494Y969463D01*
X25951185Y1048815D01*
X26030537Y1145506D01*
X26089502Y1255820D01*
X26122496Y1364587D01*
X27044192Y1364587D01*
X27139956Y1100186D01*
X27429571Y959296D01*
X27741108Y877616D01*
X28062595Y858282D01*
X28381675Y902039D01*
X28686088Y1007205D01*
X28860044Y1100186D01*
X28955808Y1364587D01*
X28000000Y2320395D01*
X27044192Y1364587D01*
X26122496Y1364587D01*
X26125812Y1375518D01*
X26138072Y1500000D01*
X26138072Y2437405D01*
X26358282Y2437405D01*
X26402039Y2118325D01*
X26507205Y1813912D01*
X26600186Y1639956D01*
X26864587Y1544192D01*
X27820395Y2500000D01*
X28179605Y2500000D01*
X29135413Y1544192D01*
X29399814Y1639956D01*
X29540704Y1929571D01*
X29608303Y2187405D01*
X33358282Y2187405D01*
X33402039Y1868325D01*
X33507205Y1563912D01*
X33600186Y1389956D01*
X33864587Y1294192D01*
X34820395Y2250000D01*
X35179605Y2250000D01*
X36135413Y1294192D01*
X36399814Y1389956D01*
X36540704Y1679571D01*
X36622384Y1991108D01*
X36641718Y2312595D01*
X36597961Y2631675D01*
X36492795Y2936088D01*
X36399814Y3110044D01*
X36135413Y3205808D01*
X35179605Y2250000D01*
X34820395Y2250000D01*
X33864587Y3205808D01*
X33600186Y3110044D01*
X33459296Y2820429D01*
X33377616Y2508892D01*
X33358282Y2187405D01*
X29608303Y2187405D01*
X29622384Y2241108D01*
X29641718Y2562595D01*
X29597961Y2881675D01*
X29492795Y3186088D01*
X29399814Y3360044D01*
X29329772Y3385413D01*
X34044192Y3385413D01*
X35000000Y2429605D01*
X35955808Y3385413D01*
X35860044Y3649814D01*
X35570429Y3790704D01*
X35258892Y3872384D01*
X34937405Y3891718D01*
X34618325Y3847961D01*
X34313912Y3742795D01*
X34139956Y3649814D01*
X34044192Y3385413D01*
X29329772Y3385413D01*
X29135413Y3455808D01*
X28179605Y2500000D01*
X27820395Y2500000D01*
X26864587Y3455808D01*
X26600186Y3360044D01*
X26459296Y3070429D01*
X26377616Y2758892D01*
X26358282Y2437405D01*
X26138072Y2437405D01*
X26138072Y3500000D01*
X26125812Y3624482D01*
X26122497Y3635413D01*
X27044192Y3635413D01*
X28000000Y2679605D01*
X28955808Y3635413D01*
X28860044Y3899814D01*
X28570429Y4040704D01*
X28258892Y4122384D01*
X27937405Y4141718D01*
X27618325Y4097961D01*
X27313912Y3992795D01*
X27139956Y3899814D01*
X27044192Y3635413D01*
X26122497Y3635413D01*
X26089502Y3744180D01*
X26030537Y3854494D01*
X25951185Y3951185D01*
X25854494Y4030537D01*
X25744180Y4089502D01*
X25624482Y4125812D01*
X25500000Y4138072D01*
X23500000Y4138072D01*
X23375518Y4125812D01*
X23255820Y4089502D01*
X23145506Y4030537D01*
X23048815Y3951185D01*
X22969463Y3854494D01*
X22910498Y3744180D01*
X22874188Y3624482D01*
X22861928Y3500000D01*
X19899810Y3500000D01*
X19726763Y3571678D01*
X19410983Y3634490D01*
X19089017Y3634490D01*
X18773237Y3571678D01*
X18475778Y3448467D01*
X18208073Y3269592D01*
X17980408Y3041927D01*
X17801533Y2774222D01*
X17678322Y2476763D01*
X17625000Y2208693D01*
X17571678Y2476763D01*
X17448467Y2774222D01*
X17269592Y3041927D01*
X17041927Y3269592D01*
X16774222Y3448467D01*
X16476763Y3571678D01*
X16160983Y3634490D01*
X15839017Y3634490D01*
X15523237Y3571678D01*
X15225778Y3448467D01*
X14958073Y3269592D01*
X14730408Y3041927D01*
X14551533Y2774222D01*
X14428322Y2476763D01*
X14375000Y2208693D01*
X14321678Y2476763D01*
X14198467Y2774222D01*
X14019592Y3041927D01*
X13791927Y3269592D01*
X13524222Y3448467D01*
X13226763Y3571678D01*
X12910983Y3634490D01*
X12589017Y3634490D01*
X12273237Y3571678D01*
X11975778Y3448467D01*
X11708073Y3269592D01*
X11480408Y3041927D01*
X11301533Y2774222D01*
X11178322Y2476763D01*
X11115510Y2160983D01*
X11115510Y1839017D01*
X11178322Y1523237D01*
X11301533Y1225778D01*
X11480408Y958073D01*
X11703481Y735000D01*
X735000Y735000D01*
X735000Y8155762D01*
X6661928Y8353327D01*
X6661928Y7724999D01*
X6678992Y7551745D01*
X6729528Y7385149D01*
X6811595Y7231613D01*
X6922038Y7097038D01*
X7009816Y7025000D01*
X6922038Y6952962D01*
X6811595Y6818387D01*
X6729528Y6664851D01*
X6678992Y6498255D01*
X6661928Y6325001D01*
X6661928Y5674999D01*
X6678992Y5501745D01*
X6729528Y5335149D01*
X6811595Y5181613D01*
X6922038Y5047038D01*
X7056613Y4936595D01*
X7210149Y4854528D01*
X7376745Y4803992D01*
X7549999Y4786928D01*
X8450001Y4786928D01*
X8623255Y4803992D01*
X8789851Y4854528D01*
X8943387Y4936595D01*
X9077962Y5047038D01*
X9174771Y5165000D01*
X10793749Y5165000D01*
X10811595Y5131613D01*
X10922038Y4997038D01*
X11056613Y4886595D01*
X11210149Y4804528D01*
X11376745Y4753992D01*
X11549999Y4736928D01*
X12450001Y4736928D01*
X12623255Y4753992D01*
X12789851Y4804528D01*
X12943387Y4886595D01*
X13077962Y4997038D01*
X13174771Y5115000D01*
X14325229Y5115000D01*
X14422038Y4997038D01*
X14556613Y4886595D01*
X14710149Y4804528D01*
X14876745Y4753992D01*
X15049999Y4736928D01*
X15950001Y4736928D01*
X16123255Y4753992D01*
X16289851Y4804528D01*
X16443387Y4886595D01*
X16577962Y4997038D01*
X16674771Y5115000D01*
X22158982Y5115000D01*
X22200000Y5110960D01*
X22241018Y5115000D01*
X22241019Y5115000D01*
X22363689Y5127082D01*
X22521087Y5174828D01*
X22666146Y5252364D01*
X22793291Y5356709D01*
X22819446Y5388579D01*
X24406776Y6975908D01*
X24551898Y7004774D01*
X24740256Y7082795D01*
X24909774Y7196063D01*
X25053937Y7340226D01*
X25167205Y7509744D01*
X25245226Y7698102D01*
X25274092Y7843225D01*
X25311426Y7880558D01*
X25343291Y7906709D01*
X25447636Y8033854D01*
X25525172Y8178913D01*
X25572918Y8336311D01*
X25585000Y8458981D01*
X25585000Y8458982D01*
X25589040Y8500000D01*
X25585000Y8541018D01*
X25585000Y9064950D01*
X26344555Y9064950D01*
X26440258Y8800601D01*
X26729787Y8659762D01*
X27041229Y8578115D01*
X27362615Y8558795D01*
X27681595Y8602546D01*
X27985911Y8707686D01*
X28159742Y8800601D01*
X28255445Y9064950D01*
X27300000Y10020395D01*
X26344555Y9064950D01*
X25585000Y9064950D01*
X25585000Y10137385D01*
X25658795Y10137385D01*
X25702546Y9818405D01*
X25807686Y9514089D01*
X25900601Y9340258D01*
X26164950Y9244555D01*
X27120395Y10200000D01*
X27479605Y10200000D01*
X28435050Y9244555D01*
X28699399Y9340258D01*
X28840238Y9629787D01*
X28921885Y9941229D01*
X28941205Y10262615D01*
X28897454Y10581595D01*
X28792314Y10885911D01*
X28699399Y11059742D01*
X28435050Y11155445D01*
X27479605Y10200000D01*
X27120395Y10200000D01*
X26164950Y11155445D01*
X25900601Y11059742D01*
X25759762Y10770213D01*
X25678115Y10458771D01*
X25658795Y10137385D01*
X25585000Y10137385D01*
X25585000Y11335050D01*
X26344555Y11335050D01*
X27300000Y10379605D01*
X28255445Y11335050D01*
X28159742Y11599399D01*
X27870213Y11740238D01*
X27558771Y11821885D01*
X27237385Y11841205D01*
X26918405Y11797454D01*
X26614089Y11692314D01*
X26440258Y11599399D01*
X26344555Y11335050D01*
X25585000Y11335050D01*
X25585000Y11378661D01*
X25693387Y11436595D01*
X25827962Y11547038D01*
X25924771Y11665000D01*
X26208982Y11665000D01*
X26250000Y11660960D01*
X26291018Y11665000D01*
X26291019Y11665000D01*
X26413689Y11677082D01*
X26571087Y11724828D01*
X26716146Y11802364D01*
X26843291Y11906709D01*
X26869445Y11938578D01*
X27015302Y12084435D01*
X28264040Y12084435D01*
X28331020Y11844344D01*
X28580048Y11727244D01*
X28847135Y11660977D01*
X29122017Y11648090D01*
X29394133Y11689078D01*
X29653023Y11782364D01*
X29768980Y11844344D01*
X29835960Y12084435D01*
X30764040Y12084435D01*
X30831020Y11844344D01*
X31080048Y11727244D01*
X31347135Y11660977D01*
X31622017Y11648090D01*
X31894133Y11689078D01*
X32153023Y11782364D01*
X32268980Y11844344D01*
X32335960Y12084435D01*
X31550000Y12870395D01*
X30764040Y12084435D01*
X29835960Y12084435D01*
X29050000Y12870395D01*
X28264040Y12084435D01*
X27015302Y12084435D01*
X27311426Y12380558D01*
X27343291Y12406709D01*
X27447636Y12533854D01*
X27525172Y12678913D01*
X27572918Y12836311D01*
X27585000Y12958981D01*
X27585000Y12958982D01*
X27586871Y12977983D01*
X27648090Y12977983D01*
X27689078Y12705867D01*
X27782364Y12446977D01*
X27844344Y12331020D01*
X28084435Y12264040D01*
X28870395Y13050000D01*
X29229605Y13050000D01*
X30015565Y12264040D01*
X30255656Y12331020D01*
X30297163Y12419290D01*
X30344344Y12331020D01*
X30584435Y12264040D01*
X31370395Y13050000D01*
X31729605Y13050000D01*
X32515565Y12264040D01*
X32755656Y12331020D01*
X32872756Y12580048D01*
X32939023Y12847135D01*
X32951910Y13122017D01*
X32910922Y13394133D01*
X32817636Y13653023D01*
X32755656Y13768980D01*
X32515565Y13835960D01*
X31729605Y13050000D01*
X31370395Y13050000D01*
X30584435Y13835960D01*
X30344344Y13768980D01*
X30302837Y13680710D01*
X30255656Y13768980D01*
X30015565Y13835960D01*
X29229605Y13050000D01*
X28870395Y13050000D01*
X28084435Y13835960D01*
X27844344Y13768980D01*
X27727244Y13519952D01*
X27660977Y13252865D01*
X27648090Y12977983D01*
X27586871Y12977983D01*
X27589040Y13000000D01*
X27585000Y13041018D01*
X27585000Y14015565D01*
X28264040Y14015565D01*
X29050000Y13229605D01*
X29835960Y14015565D01*
X30764040Y14015565D01*
X31550000Y13229605D01*
X32335960Y14015565D01*
X32268980Y14255656D01*
X32019952Y14372756D01*
X31752865Y14439023D01*
X31477983Y14451910D01*
X31205867Y14410922D01*
X30946977Y14317636D01*
X30831020Y14255656D01*
X30764040Y14015565D01*
X29835960Y14015565D01*
X29768980Y14255656D01*
X29519952Y14372756D01*
X29252865Y14439023D01*
X28977983Y14451910D01*
X28705867Y14410922D01*
X28446977Y14317636D01*
X28331020Y14255656D01*
X28264040Y14015565D01*
X27585000Y14015565D01*
X27585000Y16708982D01*
X27589040Y16750000D01*
X27572918Y16913689D01*
X27525172Y17071087D01*
X27447636Y17216146D01*
X27369439Y17311430D01*
X27369437Y17311432D01*
X27343291Y17343291D01*
X27311433Y17369436D01*
X25085000Y19595867D01*
X25085000Y23208993D01*
X25089039Y23250001D01*
X25085000Y23291009D01*
X25085000Y23291019D01*
X25072918Y23413689D01*
X25025172Y23571087D01*
X24947636Y23716146D01*
X24843291Y23843291D01*
X24811428Y23869440D01*
X22565918Y26114950D01*
X28294555Y26114950D01*
X28390258Y25850601D01*
X28679787Y25709762D01*
X28991229Y25628115D01*
X29312615Y25608795D01*
X29631595Y25652546D01*
X29935911Y25757686D01*
X30109742Y25850601D01*
X30205445Y26114950D01*
X31294555Y26114950D01*
X31390258Y25850601D01*
X31679787Y25709762D01*
X31991229Y25628115D01*
X32312615Y25608795D01*
X32631595Y25652546D01*
X32935911Y25757686D01*
X33109742Y25850601D01*
X33205445Y26114950D01*
X32250000Y27070395D01*
X31294555Y26114950D01*
X30205445Y26114950D01*
X29250000Y27070395D01*
X28294555Y26114950D01*
X22565918Y26114950D01*
X22119446Y26561421D01*
X22093291Y26593291D01*
X21966146Y26697636D01*
X21821087Y26775172D01*
X21663689Y26822918D01*
X21541019Y26835000D01*
X21541018Y26835000D01*
X21500000Y26839040D01*
X21458982Y26835000D01*
X19674771Y26835000D01*
X19577962Y26952962D01*
X19443387Y27063405D01*
X19289851Y27145472D01*
X19151682Y27187385D01*
X27608795Y27187385D01*
X27652546Y26868405D01*
X27757686Y26564089D01*
X27850601Y26390258D01*
X28114950Y26294555D01*
X29070395Y27250000D01*
X29429605Y27250000D01*
X30385050Y26294555D01*
X30649399Y26390258D01*
X30747832Y26592611D01*
X30757686Y26564089D01*
X30850601Y26390258D01*
X31114950Y26294555D01*
X32070395Y27250000D01*
X32429605Y27250000D01*
X33385050Y26294555D01*
X33649399Y26390258D01*
X33790238Y26679787D01*
X33871885Y26991229D01*
X33891205Y27312615D01*
X33847454Y27631595D01*
X33742314Y27935911D01*
X33649399Y28109742D01*
X33385050Y28205445D01*
X32429605Y27250000D01*
X32070395Y27250000D01*
X31114950Y28205445D01*
X30850601Y28109742D01*
X30752168Y27907389D01*
X30742314Y27935911D01*
X30649399Y28109742D01*
X30385050Y28205445D01*
X29429605Y27250000D01*
X29070395Y27250000D01*
X28114950Y28205445D01*
X27850601Y28109742D01*
X27709762Y27820213D01*
X27628115Y27508771D01*
X27608795Y27187385D01*
X19151682Y27187385D01*
X19123255Y27196008D01*
X18950001Y27213072D01*
X18049999Y27213072D01*
X17876745Y27196008D01*
X17710149Y27145472D01*
X17556613Y27063405D01*
X17422038Y26952962D01*
X17325229Y26835000D01*
X10095869Y26835000D01*
X8965918Y27964950D01*
X25344555Y27964950D01*
X25440258Y27700601D01*
X25729787Y27559762D01*
X26041229Y27478115D01*
X26362615Y27458795D01*
X26681595Y27502546D01*
X26985911Y27607686D01*
X27159742Y27700601D01*
X27255445Y27964950D01*
X26300000Y28920395D01*
X25344555Y27964950D01*
X8965918Y27964950D01*
X8835000Y28095867D01*
X8835000Y30160983D01*
X8865510Y30160983D01*
X8865510Y29839017D01*
X8928322Y29523237D01*
X9051533Y29225778D01*
X9230408Y28958073D01*
X9458073Y28730408D01*
X9725778Y28551533D01*
X10023237Y28428322D01*
X10339017Y28365510D01*
X10660983Y28365510D01*
X10976763Y28428322D01*
X11274222Y28551533D01*
X11541927Y28730408D01*
X11769592Y28958073D01*
X11948467Y29225778D01*
X12071678Y29523237D01*
X12134490Y29839017D01*
X12134490Y30160983D01*
X12365510Y30160983D01*
X12365510Y29839017D01*
X12428322Y29523237D01*
X12551533Y29225778D01*
X12730408Y28958073D01*
X12958073Y28730408D01*
X13225778Y28551533D01*
X13523237Y28428322D01*
X13839017Y28365510D01*
X14160983Y28365510D01*
X14476763Y28428322D01*
X14774222Y28551533D01*
X15041927Y28730408D01*
X15269592Y28958073D01*
X15448467Y29225778D01*
X15571678Y29523237D01*
X15634490Y29839017D01*
X15634490Y30160983D01*
X21265510Y30160983D01*
X21265510Y29839017D01*
X21328322Y29523237D01*
X21451533Y29225778D01*
X21630408Y28958073D01*
X21858073Y28730408D01*
X22125778Y28551533D01*
X22423237Y28428322D01*
X22739017Y28365510D01*
X23060983Y28365510D01*
X23376763Y28428322D01*
X23674222Y28551533D01*
X23941927Y28730408D01*
X24169592Y28958073D01*
X24222586Y29037385D01*
X24658795Y29037385D01*
X24702546Y28718405D01*
X24807686Y28414089D01*
X24900601Y28240258D01*
X25164950Y28144555D01*
X26120395Y29100000D01*
X26479605Y29100000D01*
X27435050Y28144555D01*
X27699399Y28240258D01*
X27769831Y28385050D01*
X28294555Y28385050D01*
X29250000Y27429605D01*
X30205445Y28385050D01*
X31294555Y28385050D01*
X32250000Y27429605D01*
X33205445Y28385050D01*
X33109742Y28649399D01*
X32820213Y28790238D01*
X32508771Y28871885D01*
X32187385Y28891205D01*
X31868405Y28847454D01*
X31564089Y28742314D01*
X31390258Y28649399D01*
X31294555Y28385050D01*
X30205445Y28385050D01*
X30109742Y28649399D01*
X29820213Y28790238D01*
X29508771Y28871885D01*
X29187385Y28891205D01*
X28868405Y28847454D01*
X28564089Y28742314D01*
X28390258Y28649399D01*
X28294555Y28385050D01*
X27769831Y28385050D01*
X27840238Y28529787D01*
X27921885Y28841229D01*
X27941205Y29162615D01*
X27897454Y29481595D01*
X27792314Y29785911D01*
X27699399Y29959742D01*
X27435050Y30055445D01*
X26479605Y29100000D01*
X26120395Y29100000D01*
X25164950Y30055445D01*
X24900601Y29959742D01*
X24759762Y29670213D01*
X24678115Y29358771D01*
X24658795Y29037385D01*
X24222586Y29037385D01*
X24348467Y29225778D01*
X24471678Y29523237D01*
X24534490Y29839017D01*
X24534490Y30160983D01*
X24471678Y30476763D01*
X24393729Y30664950D01*
X25244555Y30664950D01*
X25340258Y30400601D01*
X25394872Y30374034D01*
X25344555Y30235050D01*
X26300000Y29279605D01*
X27255445Y30235050D01*
X27159742Y30499399D01*
X27105128Y30525966D01*
X27126295Y30584435D01*
X28264040Y30584435D01*
X28331020Y30344344D01*
X28580048Y30227244D01*
X28847135Y30160977D01*
X29122017Y30148090D01*
X29394133Y30189078D01*
X29653023Y30282364D01*
X29768980Y30344344D01*
X29835960Y30584435D01*
X30764040Y30584435D01*
X30831020Y30344344D01*
X31080048Y30227244D01*
X31347135Y30160977D01*
X31622017Y30148090D01*
X31894133Y30189078D01*
X32153023Y30282364D01*
X32268980Y30344344D01*
X32335960Y30584435D01*
X31550000Y31370395D01*
X30764040Y30584435D01*
X29835960Y30584435D01*
X29050000Y31370395D01*
X28264040Y30584435D01*
X27126295Y30584435D01*
X27155445Y30664950D01*
X26200000Y31620395D01*
X25244555Y30664950D01*
X24393729Y30664950D01*
X24348467Y30774222D01*
X24169592Y31041927D01*
X23941927Y31269592D01*
X23674222Y31448467D01*
X23376763Y31571678D01*
X23060983Y31634490D01*
X22739017Y31634490D01*
X22423237Y31571678D01*
X22125778Y31448467D01*
X21858073Y31269592D01*
X21630408Y31041927D01*
X21451533Y30774222D01*
X21328322Y30476763D01*
X21265510Y30160983D01*
X15634490Y30160983D01*
X15571678Y30476763D01*
X15448467Y30774222D01*
X15269592Y31041927D01*
X15041927Y31269592D01*
X14774222Y31448467D01*
X14476763Y31571678D01*
X14160983Y31634490D01*
X13839017Y31634490D01*
X13523237Y31571678D01*
X13225778Y31448467D01*
X12958073Y31269592D01*
X12730408Y31041927D01*
X12551533Y30774222D01*
X12428322Y30476763D01*
X12365510Y30160983D01*
X12134490Y30160983D01*
X12071678Y30476763D01*
X11948467Y30774222D01*
X11769592Y31041927D01*
X11541927Y31269592D01*
X11274222Y31448467D01*
X10976763Y31571678D01*
X10660983Y31634490D01*
X10339017Y31634490D01*
X10023237Y31571678D01*
X9725778Y31448467D01*
X9458073Y31269592D01*
X9230408Y31041927D01*
X9051533Y30774222D01*
X8928322Y30476763D01*
X8865510Y30160983D01*
X8835000Y30160983D01*
X8835000Y30918982D01*
X8839040Y30960000D01*
X8824287Y31109787D01*
X8822918Y31123689D01*
X8775172Y31281087D01*
X8697636Y31426146D01*
X8636702Y31500395D01*
X8619439Y31521430D01*
X8619437Y31521432D01*
X8593291Y31553291D01*
X8561431Y31579437D01*
X8403483Y31737385D01*
X24558795Y31737385D01*
X24602546Y31418405D01*
X24707686Y31114089D01*
X24800601Y30940258D01*
X25064950Y30844555D01*
X26020395Y31800000D01*
X26379605Y31800000D01*
X27335050Y30844555D01*
X27599399Y30940258D01*
X27705897Y31159191D01*
X27782364Y30946977D01*
X27844344Y30831020D01*
X28084435Y30764040D01*
X28870395Y31550000D01*
X29229605Y31550000D01*
X30015565Y30764040D01*
X30255656Y30831020D01*
X30297163Y30919290D01*
X30344344Y30831020D01*
X30584435Y30764040D01*
X31370395Y31550000D01*
X31729605Y31550000D01*
X32515565Y30764040D01*
X32755656Y30831020D01*
X32872756Y31080048D01*
X32939023Y31347135D01*
X32951910Y31622017D01*
X32910922Y31894133D01*
X32817636Y32153023D01*
X32755656Y32268980D01*
X32515565Y32335960D01*
X31729605Y31550000D01*
X31370395Y31550000D01*
X30584435Y32335960D01*
X30344344Y32268980D01*
X30302837Y32180710D01*
X30255656Y32268980D01*
X30015565Y32335960D01*
X29229605Y31550000D01*
X28870395Y31550000D01*
X28084435Y32335960D01*
X27844344Y32268980D01*
X27798764Y32172047D01*
X27797454Y32181595D01*
X27692314Y32485911D01*
X27676464Y32515565D01*
X28264040Y32515565D01*
X29050000Y31729605D01*
X29835960Y32515565D01*
X30764040Y32515565D01*
X31550000Y31729605D01*
X32335960Y32515565D01*
X32268980Y32755656D01*
X32019952Y32872756D01*
X31752865Y32939023D01*
X31477983Y32951910D01*
X31205867Y32910922D01*
X30946977Y32817636D01*
X30831020Y32755656D01*
X30764040Y32515565D01*
X29835960Y32515565D01*
X29768980Y32755656D01*
X29519952Y32872756D01*
X29252865Y32939023D01*
X28977983Y32951910D01*
X28705867Y32910922D01*
X28446977Y32817636D01*
X28331020Y32755656D01*
X28264040Y32515565D01*
X27676464Y32515565D01*
X27599399Y32659742D01*
X27335050Y32755445D01*
X26379605Y31800000D01*
X26020395Y31800000D01*
X25064950Y32755445D01*
X24800601Y32659742D01*
X24659762Y32370213D01*
X24578115Y32058771D01*
X24558795Y31737385D01*
X8403483Y31737385D01*
X7909445Y32231422D01*
X7883291Y32263291D01*
X7756146Y32367636D01*
X7611087Y32445172D01*
X7453689Y32492918D01*
X7331019Y32505000D01*
X7331018Y32505000D01*
X7290000Y32509040D01*
X7248982Y32505000D01*
X6527856Y32505000D01*
X6389592Y32711927D01*
X6161927Y32939592D01*
X6049071Y33015000D01*
X25273500Y33015000D01*
X25244555Y32935050D01*
G36*
X1644555Y32815050D02*
G01*
X2600000Y31859605D01*
X3555445Y32815050D01*
X3483057Y33015000D01*
X4190929Y33015000D01*
X4078073Y32939592D01*
X3850408Y32711927D01*
X3786789Y32616714D01*
X3735050Y32635445D01*
X2779605Y31680000D01*
X3735050Y30724555D01*
X3776028Y30739390D01*
X3850408Y30628073D01*
X4078073Y30400408D01*
X4093650Y30390000D01*
X4078073Y30379592D01*
X3865000Y30166519D01*
X3641927Y30389592D01*
X3527001Y30466383D01*
X3555445Y30544950D01*
X2600000Y31500395D01*
X1644555Y30544950D01*
X1672999Y30466383D01*
X1558073Y30389592D01*
X1330408Y30161927D01*
X1151533Y29894222D01*
X1028322Y29596763D01*
X965510Y29280983D01*
X965510Y28959017D01*
X1028322Y28643237D01*
X1151533Y28345778D01*
X1330408Y28078073D01*
X1558073Y27850408D01*
X1825778Y27671533D01*
X2123237Y27548322D01*
X2439017Y27485510D01*
X2760983Y27485510D01*
X3076763Y27548322D01*
X3374222Y27671533D01*
X3641927Y27850408D01*
X3855000Y28063481D01*
X4078073Y27840408D01*
X4345778Y27661533D01*
X4643237Y27538322D01*
X4959017Y27475510D01*
X5280983Y27475510D01*
X5596763Y27538322D01*
X5894222Y27661533D01*
X6161927Y27840408D01*
X6389592Y28068073D01*
X6568467Y28335778D01*
X6691678Y28633237D01*
X6754490Y28949017D01*
X6754490Y29270983D01*
X6691678Y29586763D01*
X6568467Y29884222D01*
X6389592Y30151927D01*
X6161927Y30379592D01*
X6146350Y30390000D01*
X6161927Y30400408D01*
X6389592Y30628073D01*
X6527856Y30835000D01*
X6944132Y30835000D01*
X7165001Y30614131D01*
X7165000Y27791019D01*
X7160960Y27750000D01*
X7165000Y27708982D01*
X7177082Y27586312D01*
X7224828Y27428914D01*
X7302364Y27283855D01*
X7406709Y27156709D01*
X7438579Y27130554D01*
X9130563Y25438568D01*
X9156709Y25406709D01*
X9283854Y25302364D01*
X9428913Y25224828D01*
X9586311Y25177082D01*
X9708981Y25165000D01*
X9708982Y25165000D01*
X9750000Y25160960D01*
X9791018Y25165000D01*
X17325229Y25165000D01*
X17422038Y25047038D01*
X17509816Y24975000D01*
X17422038Y24902962D01*
X17311595Y24768387D01*
X17229528Y24614851D01*
X17178992Y24448255D01*
X17161928Y24275001D01*
X17161928Y23624999D01*
X17178992Y23451745D01*
X17229528Y23285149D01*
X17311595Y23131613D01*
X17422038Y22997038D01*
X17556613Y22886595D01*
X17710149Y22804528D01*
X17740001Y22795473D01*
X17740001Y22287332D01*
X17736324Y22250000D01*
X17739015Y22222674D01*
X17715000Y22101939D01*
X17715000Y21898061D01*
X17741851Y21763072D01*
X17049999Y21763072D01*
X16876745Y21746008D01*
X16710149Y21695472D01*
X16556613Y21613405D01*
X16422038Y21502962D01*
X16311595Y21368387D01*
X16229528Y21214851D01*
X16178992Y21048255D01*
X16161928Y20875001D01*
X16161928Y20224999D01*
X16178992Y20051745D01*
X16229528Y19885149D01*
X16311595Y19731613D01*
X16422038Y19597038D01*
X16428594Y19591658D01*
X16348815Y19526185D01*
X16269463Y19429494D01*
X16210498Y19319180D01*
X16174188Y19199482D01*
X16161928Y19075000D01*
X16165000Y18785750D01*
X16323750Y18627000D01*
X17373000Y18627000D01*
X17373000Y18647000D01*
X17627000Y18647000D01*
X17627000Y18627000D01*
X18676250Y18627000D01*
X18835000Y18785750D01*
X18838072Y19075000D01*
X18825812Y19199482D01*
X18789502Y19319180D01*
X18730537Y19429494D01*
X18651185Y19526185D01*
X18571406Y19591658D01*
X18577962Y19597038D01*
X18688405Y19731613D01*
X18719614Y19790000D01*
X19012678Y19790000D01*
X19050000Y19786324D01*
X19087322Y19790000D01*
X19087333Y19790000D01*
X19198986Y19800997D01*
X19342247Y19844454D01*
X19474276Y19915026D01*
X19590001Y20009999D01*
X19613804Y20039002D01*
X20039801Y20465000D01*
X20101939Y20465000D01*
X20301898Y20504774D01*
X20490256Y20582795D01*
X20659774Y20696063D01*
X20803937Y20840226D01*
X20917205Y21009744D01*
X20995226Y21198102D01*
X21035000Y21398061D01*
X21035000Y21601939D01*
X20995226Y21801898D01*
X20917205Y21990256D01*
X20803937Y22159774D01*
X20659774Y22303937D01*
X20490256Y22417205D01*
X20301898Y22495226D01*
X20101939Y22535000D01*
X19898061Y22535000D01*
X19698102Y22495226D01*
X19669973Y22483574D01*
X19667205Y22490256D01*
X19553937Y22659774D01*
X19409774Y22803937D01*
X19355985Y22839878D01*
X19443387Y22886595D01*
X19577962Y22997038D01*
X19688405Y23131613D01*
X19770472Y23285149D01*
X19821008Y23451745D01*
X19838072Y23624999D01*
X19838072Y24275001D01*
X19821008Y24448255D01*
X19770472Y24614851D01*
X19688405Y24768387D01*
X19577962Y24902962D01*
X19490184Y24975000D01*
X19577962Y25047038D01*
X19674771Y25165000D01*
X21154133Y25165000D01*
X23415000Y22904132D01*
X23415001Y19291028D01*
X23410960Y19250000D01*
X23427082Y19086312D01*
X23474828Y18928914D01*
X23552364Y18783855D01*
X23552365Y18783854D01*
X23656710Y18656709D01*
X23688574Y18630559D01*
X25915000Y16404131D01*
X25915000Y15559351D01*
X25901185Y15576185D01*
X25804494Y15655537D01*
X25694180Y15714502D01*
X25574482Y15750812D01*
X25450000Y15763072D01*
X25035750Y15760000D01*
X24877000Y15601250D01*
X24877000Y14677000D01*
X24897000Y14677000D01*
X24897000Y14423000D01*
X24877000Y14423000D01*
X24877000Y14403000D01*
X24623000Y14403000D01*
X24623000Y14423000D01*
X23573750Y14423000D01*
X23415000Y14264250D01*
X23411928Y13975000D01*
X23424188Y13850518D01*
X23460498Y13730820D01*
X23519463Y13620506D01*
X23598815Y13523815D01*
X23678594Y13458342D01*
X23672038Y13452962D01*
X23561595Y13318387D01*
X23479528Y13164851D01*
X23428992Y12998255D01*
X23411928Y12825001D01*
X23411928Y12174999D01*
X23428992Y12001745D01*
X23479528Y11835149D01*
X23561595Y11681613D01*
X23672038Y11547038D01*
X23806613Y11436595D01*
X23915000Y11378661D01*
X23915001Y8981515D01*
X23759744Y8917205D01*
X23590226Y8803937D01*
X23446063Y8659774D01*
X23332795Y8490256D01*
X23254774Y8301898D01*
X23225908Y8156776D01*
X21854133Y6785000D01*
X16674771Y6785000D01*
X16577962Y6902962D01*
X16490184Y6975000D01*
X16577962Y7047038D01*
X16688405Y7181613D01*
X16770472Y7335149D01*
X16821008Y7501745D01*
X16838072Y7674999D01*
X16838072Y8325001D01*
X16821008Y8498255D01*
X16770472Y8664851D01*
X16688405Y8818387D01*
X16577962Y8952962D01*
X16443387Y9063405D01*
X16289851Y9145472D01*
X16260000Y9154527D01*
X16260000Y9462675D01*
X16263676Y9500000D01*
X16260000Y9537325D01*
X16260000Y9537333D01*
X16249003Y9648986D01*
X16205546Y9792247D01*
X16134974Y9924276D01*
X16092479Y9976056D01*
X16148061Y9965000D01*
X16351939Y9965000D01*
X16551898Y10004774D01*
X16740256Y10082795D01*
X16909774Y10196063D01*
X17053937Y10340226D01*
X17167205Y10509744D01*
X17245226Y10698102D01*
X17285000Y10898061D01*
X17285000Y11101939D01*
X17245226Y11301898D01*
X17167205Y11490256D01*
X17053937Y11659774D01*
X16909774Y11803937D01*
X16786076Y11886589D01*
X16821008Y12001745D01*
X16838072Y12174999D01*
X16838072Y12825001D01*
X16821008Y12998255D01*
X16770472Y13164851D01*
X16688405Y13318387D01*
X16577962Y13452962D01*
X16571406Y13458342D01*
X16651185Y13523815D01*
X16730537Y13620506D01*
X16789502Y13730820D01*
X16825812Y13850518D01*
X16838072Y13975000D01*
X17161928Y13975000D01*
X17174188Y13850518D01*
X17210498Y13730820D01*
X17269463Y13620506D01*
X17348815Y13523815D01*
X17428594Y13458342D01*
X17422038Y13452962D01*
X17311595Y13318387D01*
X17229528Y13164851D01*
X17178992Y12998255D01*
X17161928Y12825001D01*
X17161928Y12174999D01*
X17178992Y12001745D01*
X17229528Y11835149D01*
X17311595Y11681613D01*
X17422038Y11547038D01*
X17556613Y11436595D01*
X17672570Y11374614D01*
X17582795Y11240256D01*
X17504774Y11051898D01*
X17465000Y10851939D01*
X17465000Y10648061D01*
X17504774Y10448102D01*
X17582795Y10259744D01*
X17696063Y10090226D01*
X17840226Y9946063D01*
X18009744Y9832795D01*
X18198102Y9754774D01*
X18398061Y9715000D01*
X18601939Y9715000D01*
X18801898Y9754774D01*
X18990256Y9832795D01*
X19159774Y9946063D01*
X19303937Y10090226D01*
X19417205Y10259744D01*
X19449230Y10337059D01*
X19590226Y10196063D01*
X19759744Y10082795D01*
X19948102Y10004774D01*
X20148061Y9965000D01*
X20351939Y9965000D01*
X20551898Y10004774D01*
X20740256Y10082795D01*
X20909774Y10196063D01*
X21053937Y10340226D01*
X21167205Y10509744D01*
X21245226Y10698102D01*
X21285000Y10898061D01*
X21285000Y10960199D01*
X21611730Y11286928D01*
X21950001Y11286928D01*
X22123255Y11303992D01*
X22289851Y11354528D01*
X22443387Y11436595D01*
X22577962Y11547038D01*
X22688405Y11681613D01*
X22770472Y11835149D01*
X22821008Y12001745D01*
X22838072Y12174999D01*
X22838072Y12825001D01*
X22821008Y12998255D01*
X22770472Y13164851D01*
X22688405Y13318387D01*
X22577962Y13452962D01*
X22571406Y13458342D01*
X22651185Y13523815D01*
X22730537Y13620506D01*
X22789502Y13730820D01*
X22825812Y13850518D01*
X22838072Y13975000D01*
X22835000Y14264250D01*
X22676250Y14423000D01*
X21627000Y14423000D01*
X21627000Y14403000D01*
X21373000Y14403000D01*
X21373000Y14423000D01*
X20323750Y14423000D01*
X20165000Y14264250D01*
X20161928Y13975000D01*
X20174188Y13850518D01*
X20210498Y13730820D01*
X20269463Y13620506D01*
X20348815Y13523815D01*
X20428594Y13458342D01*
X20422038Y13452962D01*
X20311595Y13318387D01*
X20229528Y13164851D01*
X20178992Y12998255D01*
X20161928Y12825001D01*
X20161928Y12174999D01*
X20175717Y12035000D01*
X20148061Y12035000D01*
X19948102Y11995226D01*
X19800482Y11934079D01*
X19821008Y12001745D01*
X19838072Y12174999D01*
X19838072Y12825001D01*
X19821008Y12998255D01*
X19770472Y13164851D01*
X19688405Y13318387D01*
X19577962Y13452962D01*
X19571406Y13458342D01*
X19651185Y13523815D01*
X19730537Y13620506D01*
X19789502Y13730820D01*
X19825812Y13850518D01*
X19838072Y13975000D01*
X19835000Y14264250D01*
X19676250Y14423000D01*
X18627000Y14423000D01*
X18627000Y14403000D01*
X18373000Y14403000D01*
X18373000Y14423000D01*
X17323750Y14423000D01*
X17165000Y14264250D01*
X17161928Y13975000D01*
X16838072Y13975000D01*
X16835000Y14264250D01*
X16676250Y14423000D01*
X15627000Y14423000D01*
X15627000Y14403000D01*
X15373000Y14403000D01*
X15373000Y14423000D01*
X14323750Y14423000D01*
X14165000Y14264250D01*
X14161928Y13975000D01*
X14174188Y13850518D01*
X14210498Y13730820D01*
X14269463Y13620506D01*
X14348815Y13523815D01*
X14428594Y13458342D01*
X14422038Y13452962D01*
X14311595Y13318387D01*
X14229528Y13164851D01*
X14178992Y12998255D01*
X14161928Y12825001D01*
X14161928Y12199650D01*
X14051898Y12245226D01*
X13851939Y12285000D01*
X13648061Y12285000D01*
X13448102Y12245226D01*
X13259744Y12167205D01*
X13090226Y12053937D01*
X13000000Y11963711D01*
X12909774Y12053937D01*
X12740256Y12167205D01*
X12551898Y12245226D01*
X12351939Y12285000D01*
X12148061Y12285000D01*
X11948102Y12245226D01*
X11759744Y12167205D01*
X11590226Y12053937D01*
X11446063Y11909774D01*
X11332795Y11740256D01*
X11254774Y11551898D01*
X11215000Y11351939D01*
X11215000Y11148061D01*
X11239015Y11027326D01*
X11236324Y11000000D01*
X11240001Y10962668D01*
X11240000Y9154527D01*
X11210149Y9145472D01*
X11056613Y9063405D01*
X10922038Y8952962D01*
X10811595Y8818387D01*
X10729528Y8664851D01*
X10678992Y8498255D01*
X10661928Y8325001D01*
X10661928Y7674999D01*
X10678992Y7501745D01*
X10729528Y7335149D01*
X10811595Y7181613D01*
X10922038Y7047038D01*
X11009816Y6975000D01*
X10922038Y6902962D01*
X10866263Y6835000D01*
X9174771Y6835000D01*
X9077962Y6952962D01*
X8990184Y7025000D01*
X9077962Y7097038D01*
X9188405Y7231613D01*
X9270472Y7385149D01*
X9321008Y7551745D01*
X9338072Y7724999D01*
X9338072Y8375001D01*
X9321008Y8548255D01*
X9270472Y8714851D01*
X9188405Y8868387D01*
X9077962Y9002962D01*
X8943387Y9113405D01*
X8789851Y9195472D01*
X8760000Y9204527D01*
X8760000Y10296289D01*
X8803937Y10340226D01*
X8917205Y10509744D01*
X8995226Y10698102D01*
X9035000Y10898061D01*
X9035000Y11101939D01*
X8995226Y11301898D01*
X8917205Y11490256D01*
X8803937Y11659774D01*
X8659774Y11803937D01*
X8490256Y11917205D01*
X8301898Y11995226D01*
X8101939Y12035000D01*
X7898061Y12035000D01*
X7698102Y11995226D01*
X7509744Y11917205D01*
X7377000Y11828509D01*
X7377000Y15125000D01*
X14161928Y15125000D01*
X14165000Y14835750D01*
X14323750Y14677000D01*
X15373000Y14677000D01*
X15373000Y15601250D01*
X15627000Y15601250D01*
X15627000Y14677000D01*
X16676250Y14677000D01*
X16835000Y14835750D01*
X16838072Y15125000D01*
X17161928Y15125000D01*
X17165000Y14835750D01*
X17323750Y14677000D01*
X18373000Y14677000D01*
X18373000Y15601250D01*
X18627000Y15601250D01*
X18627000Y14677000D01*
X19676250Y14677000D01*
X19835000Y14835750D01*
X19838072Y15125000D01*
X20161928Y15125000D01*
X20165000Y14835750D01*
X20323750Y14677000D01*
X21373000Y14677000D01*
X21373000Y15601250D01*
X21627000Y15601250D01*
X21627000Y14677000D01*
X22676250Y14677000D01*
X22835000Y14835750D01*
X22838072Y15125000D01*
X23411928Y15125000D01*
X23415000Y14835750D01*
X23573750Y14677000D01*
X24623000Y14677000D01*
X24623000Y15601250D01*
X24464250Y15760000D01*
X24050000Y15763072D01*
X23925518Y15750812D01*
X23805820Y15714502D01*
X23695506Y15655537D01*
X23598815Y15576185D01*
X23519463Y15479494D01*
X23460498Y15369180D01*
X23424188Y15249482D01*
X23411928Y15125000D01*
X22838072Y15125000D01*
X22825812Y15249482D01*
X22789502Y15369180D01*
X22730537Y15479494D01*
X22651185Y15576185D01*
X22554494Y15655537D01*
X22444180Y15714502D01*
X22324482Y15750812D01*
X22200000Y15763072D01*
X21785750Y15760000D01*
X21627000Y15601250D01*
X21373000Y15601250D01*
X21214250Y15760000D01*
X20800000Y15763072D01*
X20675518Y15750812D01*
X20555820Y15714502D01*
X20445506Y15655537D01*
X20348815Y15576185D01*
X20269463Y15479494D01*
X20210498Y15369180D01*
X20174188Y15249482D01*
X20161928Y15125000D01*
X19838072Y15125000D01*
X19825812Y15249482D01*
X19789502Y15369180D01*
X19730537Y15479494D01*
X19651185Y15576185D01*
X19554494Y15655537D01*
X19444180Y15714502D01*
X19324482Y15750812D01*
X19200000Y15763072D01*
X18785750Y15760000D01*
X18627000Y15601250D01*
X18373000Y15601250D01*
X18214250Y15760000D01*
X17800000Y15763072D01*
X17675518Y15750812D01*
X17555820Y15714502D01*
X17445506Y15655537D01*
X17348815Y15576185D01*
X17269463Y15479494D01*
X17210498Y15369180D01*
X17174188Y15249482D01*
X17161928Y15125000D01*
X16838072Y15125000D01*
X16825812Y15249482D01*
X16789502Y15369180D01*
X16730537Y15479494D01*
X16651185Y15576185D01*
X16554494Y15655537D01*
X16444180Y15714502D01*
X16324482Y15750812D01*
X16200000Y15763072D01*
X15785750Y15760000D01*
X15627000Y15601250D01*
X15373000Y15601250D01*
X15214250Y15760000D01*
X14800000Y15763072D01*
X14675518Y15750812D01*
X14555820Y15714502D01*
X14445506Y15655537D01*
X14348815Y15576185D01*
X14269463Y15479494D01*
X14210498Y15369180D01*
X14174188Y15249482D01*
X14161928Y15125000D01*
X7377000Y15125000D01*
X7377000Y17900000D01*
X9661928Y17900000D01*
X9674188Y17775518D01*
X9710498Y17655820D01*
X9769463Y17545506D01*
X9848815Y17448815D01*
X9945506Y17369463D01*
X10055820Y17310498D01*
X10175518Y17274188D01*
X10300000Y17261928D01*
X10714250Y17265000D01*
X10873000Y17423750D01*
X10873000Y18348000D01*
X11127000Y18348000D01*
X11127000Y17423750D01*
X11285750Y17265000D01*
X11700000Y17261928D01*
X11824482Y17274188D01*
X11944180Y17310498D01*
X12054494Y17369463D01*
X12151185Y17448815D01*
X12230537Y17545506D01*
X12289502Y17655820D01*
X12325812Y17775518D01*
X12338072Y17900000D01*
X12337807Y17925000D01*
X12941928Y17925000D01*
X12954188Y17800518D01*
X12990498Y17680820D01*
X13049463Y17570506D01*
X13128815Y17473815D01*
X13225506Y17394463D01*
X13335820Y17335498D01*
X13455518Y17299188D01*
X13580000Y17286928D01*
X13994250Y17290000D01*
X14153000Y17448750D01*
X14153000Y18373000D01*
X14407000Y18373000D01*
X14407000Y17448750D01*
X14565750Y17290000D01*
X14980000Y17286928D01*
X15104482Y17299188D01*
X15224180Y17335498D01*
X15334494Y17394463D01*
X15431185Y17473815D01*
X15510537Y17570506D01*
X15569502Y17680820D01*
X15605812Y17800518D01*
X15618072Y17925000D01*
X16161928Y17925000D01*
X16174188Y17800518D01*
X16210498Y17680820D01*
X16269463Y17570506D01*
X16348815Y17473815D01*
X16445506Y17394463D01*
X16555820Y17335498D01*
X16675518Y17299188D01*
X16800000Y17286928D01*
X17214250Y17290000D01*
X17373000Y17448750D01*
X17373000Y18373000D01*
X17627000Y18373000D01*
X17627000Y17448750D01*
X17785750Y17290000D01*
X18200000Y17286928D01*
X18324482Y17299188D01*
X18444180Y17335498D01*
X18554494Y17394463D01*
X18651185Y17473815D01*
X18730537Y17570506D01*
X18789502Y17680820D01*
X18825812Y17800518D01*
X18838072Y17925000D01*
X18835000Y18214250D01*
X18676250Y18373000D01*
X17627000Y18373000D01*
X17373000Y18373000D01*
X16323750Y18373000D01*
X16165000Y18214250D01*
X16161928Y17925000D01*
X15618072Y17925000D01*
X15615000Y18214250D01*
X15456250Y18373000D01*
X14407000Y18373000D01*
X14153000Y18373000D01*
X13103750Y18373000D01*
X12945000Y18214250D01*
X12941928Y17925000D01*
X12337807Y17925000D01*
X12335000Y18189250D01*
X12176250Y18348000D01*
X11127000Y18348000D01*
X10873000Y18348000D01*
X9823750Y18348000D01*
X9665000Y18189250D01*
X9661928Y17900000D01*
X7377000Y17900000D01*
X7377000Y20850001D01*
X9661928Y20850001D01*
X9661928Y20199999D01*
X9678992Y20026745D01*
X9729528Y19860149D01*
X9811595Y19706613D01*
X9922038Y19572038D01*
X9928594Y19566658D01*
X9848815Y19501185D01*
X9769463Y19404494D01*
X9710498Y19294180D01*
X9674188Y19174482D01*
X9661928Y19050000D01*
X9665000Y18760750D01*
X9823750Y18602000D01*
X10873000Y18602000D01*
X10873000Y18622000D01*
X11127000Y18622000D01*
X11127000Y18602000D01*
X12176250Y18602000D01*
X12335000Y18760750D01*
X12338072Y19050000D01*
X12325812Y19174482D01*
X12289502Y19294180D01*
X12230537Y19404494D01*
X12151185Y19501185D01*
X12071406Y19566658D01*
X12077962Y19572038D01*
X12188405Y19706613D01*
X12270472Y19860149D01*
X12321008Y20026745D01*
X12338072Y20199999D01*
X12338072Y20715000D01*
X12351939Y20715000D01*
X12551898Y20754774D01*
X12740256Y20832795D01*
X12909774Y20946063D01*
X12953205Y20989494D01*
X12941928Y20875001D01*
X12941928Y20224999D01*
X12958992Y20051745D01*
X13009528Y19885149D01*
X13091595Y19731613D01*
X13202038Y19597038D01*
X13208594Y19591658D01*
X13128815Y19526185D01*
X13049463Y19429494D01*
X12990498Y19319180D01*
X12954188Y19199482D01*
X12941928Y19075000D01*
X12945000Y18785750D01*
X13103750Y18627000D01*
X14153000Y18627000D01*
X14153000Y18647000D01*
X14407000Y18647000D01*
X14407000Y18627000D01*
X15456250Y18627000D01*
X15615000Y18785750D01*
X15618072Y19075000D01*
X15605812Y19199482D01*
X15569502Y19319180D01*
X15510537Y19429494D01*
X15431185Y19526185D01*
X15351406Y19591658D01*
X15357962Y19597038D01*
X15468405Y19731613D01*
X15550472Y19885149D01*
X15601008Y20051745D01*
X15618072Y20224999D01*
X15618072Y20875001D01*
X15601008Y21048255D01*
X15550472Y21214851D01*
X15468405Y21368387D01*
X15357962Y21502962D01*
X15270428Y21574800D01*
X15285000Y21648061D01*
X15285000Y21851939D01*
X15245226Y22051898D01*
X15167205Y22240256D01*
X15053937Y22409774D01*
X14909774Y22553937D01*
X14740256Y22667205D01*
X14551898Y22745226D01*
X14351939Y22785000D01*
X14148061Y22785000D01*
X13948102Y22745226D01*
X13759744Y22667205D01*
X13590226Y22553937D01*
X13446063Y22409774D01*
X13332795Y22240256D01*
X13254774Y22051898D01*
X13250000Y22027897D01*
X13245226Y22051898D01*
X13167205Y22240256D01*
X13053937Y22409774D01*
X12909774Y22553937D01*
X12740256Y22667205D01*
X12551898Y22745226D01*
X12351939Y22785000D01*
X12148061Y22785000D01*
X11948102Y22745226D01*
X11759744Y22667205D01*
X11590226Y22553937D01*
X11446063Y22409774D01*
X11332795Y22240256D01*
X11254774Y22051898D01*
X11215000Y21851939D01*
X11215000Y21789802D01*
X11163270Y21738072D01*
X10549999Y21738072D01*
X10376745Y21721008D01*
X10210149Y21670472D01*
X10056613Y21588405D01*
X9922038Y21477962D01*
X9811595Y21343387D01*
X9729528Y21189851D01*
X9678992Y21023255D01*
X9661928Y20850001D01*
X7377000Y20850001D01*
X7377000Y24250000D01*
X7374560Y24274776D01*
X7367333Y24298601D01*
X7355597Y24320557D01*
X7339803Y24339803D01*
X7320557Y24355597D01*
X7298601Y24367333D01*
X7274776Y24374560D01*
X7250000Y24377000D01*
X735000Y24377000D01*
X735000Y31617385D01*
X958795Y31617385D01*
X1002546Y31298405D01*
X1107686Y30994089D01*
X1200601Y30820258D01*
X1464950Y30724555D01*
X2420395Y31680000D01*
X1464950Y32635445D01*
X1200601Y32539742D01*
X1059762Y32250213D01*
X978115Y31938771D01*
X958795Y31617385D01*
X735000Y31617385D01*
X735000Y33015000D01*
X1716943Y33015000D01*
X1644555Y32815050D01*
X1644555Y32815050D01*
G37*
X1644555Y32815050D02*
X2600000Y31859605D01*
X3555445Y32815050D01*
X3483057Y33015000D01*
X4190929Y33015000D01*
X4078073Y32939592D01*
X3850408Y32711927D01*
X3786789Y32616714D01*
X3735050Y32635445D01*
X2779605Y31680000D01*
X3735050Y30724555D01*
X3776028Y30739390D01*
X3850408Y30628073D01*
X4078073Y30400408D01*
X4093650Y30390000D01*
X4078073Y30379592D01*
X3865000Y30166519D01*
X3641927Y30389592D01*
X3527001Y30466383D01*
X3555445Y30544950D01*
X2600000Y31500395D01*
X1644555Y30544950D01*
X1672999Y30466383D01*
X1558073Y30389592D01*
X1330408Y30161927D01*
X1151533Y29894222D01*
X1028322Y29596763D01*
X965510Y29280983D01*
X965510Y28959017D01*
X1028322Y28643237D01*
X1151533Y28345778D01*
X1330408Y28078073D01*
X1558073Y27850408D01*
X1825778Y27671533D01*
X2123237Y27548322D01*
X2439017Y27485510D01*
X2760983Y27485510D01*
X3076763Y27548322D01*
X3374222Y27671533D01*
X3641927Y27850408D01*
X3855000Y28063481D01*
X4078073Y27840408D01*
X4345778Y27661533D01*
X4643237Y27538322D01*
X4959017Y27475510D01*
X5280983Y27475510D01*
X5596763Y27538322D01*
X5894222Y27661533D01*
X6161927Y27840408D01*
X6389592Y28068073D01*
X6568467Y28335778D01*
X6691678Y28633237D01*
X6754490Y28949017D01*
X6754490Y29270983D01*
X6691678Y29586763D01*
X6568467Y29884222D01*
X6389592Y30151927D01*
X6161927Y30379592D01*
X6146350Y30390000D01*
X6161927Y30400408D01*
X6389592Y30628073D01*
X6527856Y30835000D01*
X6944132Y30835000D01*
X7165001Y30614131D01*
X7165000Y27791019D01*
X7160960Y27750000D01*
X7165000Y27708982D01*
X7177082Y27586312D01*
X7224828Y27428914D01*
X7302364Y27283855D01*
X7406709Y27156709D01*
X7438579Y27130554D01*
X9130563Y25438568D01*
X9156709Y25406709D01*
X9283854Y25302364D01*
X9428913Y25224828D01*
X9586311Y25177082D01*
X9708981Y25165000D01*
X9708982Y25165000D01*
X9750000Y25160960D01*
X9791018Y25165000D01*
X17325229Y25165000D01*
X17422038Y25047038D01*
X17509816Y24975000D01*
X17422038Y24902962D01*
X17311595Y24768387D01*
X17229528Y24614851D01*
X17178992Y24448255D01*
X17161928Y24275001D01*
X17161928Y23624999D01*
X17178992Y23451745D01*
X17229528Y23285149D01*
X17311595Y23131613D01*
X17422038Y22997038D01*
X17556613Y22886595D01*
X17710149Y22804528D01*
X17740001Y22795473D01*
X17740001Y22287332D01*
X17736324Y22250000D01*
X17739015Y22222674D01*
X17715000Y22101939D01*
X17715000Y21898061D01*
X17741851Y21763072D01*
X17049999Y21763072D01*
X16876745Y21746008D01*
X16710149Y21695472D01*
X16556613Y21613405D01*
X16422038Y21502962D01*
X16311595Y21368387D01*
X16229528Y21214851D01*
X16178992Y21048255D01*
X16161928Y20875001D01*
X16161928Y20224999D01*
X16178992Y20051745D01*
X16229528Y19885149D01*
X16311595Y19731613D01*
X16422038Y19597038D01*
X16428594Y19591658D01*
X16348815Y19526185D01*
X16269463Y19429494D01*
X16210498Y19319180D01*
X16174188Y19199482D01*
X16161928Y19075000D01*
X16165000Y18785750D01*
X16323750Y18627000D01*
X17373000Y18627000D01*
X17373000Y18647000D01*
X17627000Y18647000D01*
X17627000Y18627000D01*
X18676250Y18627000D01*
X18835000Y18785750D01*
X18838072Y19075000D01*
X18825812Y19199482D01*
X18789502Y19319180D01*
X18730537Y19429494D01*
X18651185Y19526185D01*
X18571406Y19591658D01*
X18577962Y19597038D01*
X18688405Y19731613D01*
X18719614Y19790000D01*
X19012678Y19790000D01*
X19050000Y19786324D01*
X19087322Y19790000D01*
X19087333Y19790000D01*
X19198986Y19800997D01*
X19342247Y19844454D01*
X19474276Y19915026D01*
X19590001Y20009999D01*
X19613804Y20039002D01*
X20039801Y20465000D01*
X20101939Y20465000D01*
X20301898Y20504774D01*
X20490256Y20582795D01*
X20659774Y20696063D01*
X20803937Y20840226D01*
X20917205Y21009744D01*
X20995226Y21198102D01*
X21035000Y21398061D01*
X21035000Y21601939D01*
X20995226Y21801898D01*
X20917205Y21990256D01*
X20803937Y22159774D01*
X20659774Y22303937D01*
X20490256Y22417205D01*
X20301898Y22495226D01*
X20101939Y22535000D01*
X19898061Y22535000D01*
X19698102Y22495226D01*
X19669973Y22483574D01*
X19667205Y22490256D01*
X19553937Y22659774D01*
X19409774Y22803937D01*
X19355985Y22839878D01*
X19443387Y22886595D01*
X19577962Y22997038D01*
X19688405Y23131613D01*
X19770472Y23285149D01*
X19821008Y23451745D01*
X19838072Y23624999D01*
X19838072Y24275001D01*
X19821008Y24448255D01*
X19770472Y24614851D01*
X19688405Y24768387D01*
X19577962Y24902962D01*
X19490184Y24975000D01*
X19577962Y25047038D01*
X19674771Y25165000D01*
X21154133Y25165000D01*
X23415000Y22904132D01*
X23415001Y19291028D01*
X23410960Y19250000D01*
X23427082Y19086312D01*
X23474828Y18928914D01*
X23552364Y18783855D01*
X23552365Y18783854D01*
X23656710Y18656709D01*
X23688574Y18630559D01*
X25915000Y16404131D01*
X25915000Y15559351D01*
X25901185Y15576185D01*
X25804494Y15655537D01*
X25694180Y15714502D01*
X25574482Y15750812D01*
X25450000Y15763072D01*
X25035750Y15760000D01*
X24877000Y15601250D01*
X24877000Y14677000D01*
X24897000Y14677000D01*
X24897000Y14423000D01*
X24877000Y14423000D01*
X24877000Y14403000D01*
X24623000Y14403000D01*
X24623000Y14423000D01*
X23573750Y14423000D01*
X23415000Y14264250D01*
X23411928Y13975000D01*
X23424188Y13850518D01*
X23460498Y13730820D01*
X23519463Y13620506D01*
X23598815Y13523815D01*
X23678594Y13458342D01*
X23672038Y13452962D01*
X23561595Y13318387D01*
X23479528Y13164851D01*
X23428992Y12998255D01*
X23411928Y12825001D01*
X23411928Y12174999D01*
X23428992Y12001745D01*
X23479528Y11835149D01*
X23561595Y11681613D01*
X23672038Y11547038D01*
X23806613Y11436595D01*
X23915000Y11378661D01*
X23915001Y8981515D01*
X23759744Y8917205D01*
X23590226Y8803937D01*
X23446063Y8659774D01*
X23332795Y8490256D01*
X23254774Y8301898D01*
X23225908Y8156776D01*
X21854133Y6785000D01*
X16674771Y6785000D01*
X16577962Y6902962D01*
X16490184Y6975000D01*
X16577962Y7047038D01*
X16688405Y7181613D01*
X16770472Y7335149D01*
X16821008Y7501745D01*
X16838072Y7674999D01*
X16838072Y8325001D01*
X16821008Y8498255D01*
X16770472Y8664851D01*
X16688405Y8818387D01*
X16577962Y8952962D01*
X16443387Y9063405D01*
X16289851Y9145472D01*
X16260000Y9154527D01*
X16260000Y9462675D01*
X16263676Y9500000D01*
X16260000Y9537325D01*
X16260000Y9537333D01*
X16249003Y9648986D01*
X16205546Y9792247D01*
X16134974Y9924276D01*
X16092479Y9976056D01*
X16148061Y9965000D01*
X16351939Y9965000D01*
X16551898Y10004774D01*
X16740256Y10082795D01*
X16909774Y10196063D01*
X17053937Y10340226D01*
X17167205Y10509744D01*
X17245226Y10698102D01*
X17285000Y10898061D01*
X17285000Y11101939D01*
X17245226Y11301898D01*
X17167205Y11490256D01*
X17053937Y11659774D01*
X16909774Y11803937D01*
X16786076Y11886589D01*
X16821008Y12001745D01*
X16838072Y12174999D01*
X16838072Y12825001D01*
X16821008Y12998255D01*
X16770472Y13164851D01*
X16688405Y13318387D01*
X16577962Y13452962D01*
X16571406Y13458342D01*
X16651185Y13523815D01*
X16730537Y13620506D01*
X16789502Y13730820D01*
X16825812Y13850518D01*
X16838072Y13975000D01*
X17161928Y13975000D01*
X17174188Y13850518D01*
X17210498Y13730820D01*
X17269463Y13620506D01*
X17348815Y13523815D01*
X17428594Y13458342D01*
X17422038Y13452962D01*
X17311595Y13318387D01*
X17229528Y13164851D01*
X17178992Y12998255D01*
X17161928Y12825001D01*
X17161928Y12174999D01*
X17178992Y12001745D01*
X17229528Y11835149D01*
X17311595Y11681613D01*
X17422038Y11547038D01*
X17556613Y11436595D01*
X17672570Y11374614D01*
X17582795Y11240256D01*
X17504774Y11051898D01*
X17465000Y10851939D01*
X17465000Y10648061D01*
X17504774Y10448102D01*
X17582795Y10259744D01*
X17696063Y10090226D01*
X17840226Y9946063D01*
X18009744Y9832795D01*
X18198102Y9754774D01*
X18398061Y9715000D01*
X18601939Y9715000D01*
X18801898Y9754774D01*
X18990256Y9832795D01*
X19159774Y9946063D01*
X19303937Y10090226D01*
X19417205Y10259744D01*
X19449230Y10337059D01*
X19590226Y10196063D01*
X19759744Y10082795D01*
X19948102Y10004774D01*
X20148061Y9965000D01*
X20351939Y9965000D01*
X20551898Y10004774D01*
X20740256Y10082795D01*
X20909774Y10196063D01*
X21053937Y10340226D01*
X21167205Y10509744D01*
X21245226Y10698102D01*
X21285000Y10898061D01*
X21285000Y10960199D01*
X21611730Y11286928D01*
X21950001Y11286928D01*
X22123255Y11303992D01*
X22289851Y11354528D01*
X22443387Y11436595D01*
X22577962Y11547038D01*
X22688405Y11681613D01*
X22770472Y11835149D01*
X22821008Y12001745D01*
X22838072Y12174999D01*
X22838072Y12825001D01*
X22821008Y12998255D01*
X22770472Y13164851D01*
X22688405Y13318387D01*
X22577962Y13452962D01*
X22571406Y13458342D01*
X22651185Y13523815D01*
X22730537Y13620506D01*
X22789502Y13730820D01*
X22825812Y13850518D01*
X22838072Y13975000D01*
X22835000Y14264250D01*
X22676250Y14423000D01*
X21627000Y14423000D01*
X21627000Y14403000D01*
X21373000Y14403000D01*
X21373000Y14423000D01*
X20323750Y14423000D01*
X20165000Y14264250D01*
X20161928Y13975000D01*
X20174188Y13850518D01*
X20210498Y13730820D01*
X20269463Y13620506D01*
X20348815Y13523815D01*
X20428594Y13458342D01*
X20422038Y13452962D01*
X20311595Y13318387D01*
X20229528Y13164851D01*
X20178992Y12998255D01*
X20161928Y12825001D01*
X20161928Y12174999D01*
X20175717Y12035000D01*
X20148061Y12035000D01*
X19948102Y11995226D01*
X19800482Y11934079D01*
X19821008Y12001745D01*
X19838072Y12174999D01*
X19838072Y12825001D01*
X19821008Y12998255D01*
X19770472Y13164851D01*
X19688405Y13318387D01*
X19577962Y13452962D01*
X19571406Y13458342D01*
X19651185Y13523815D01*
X19730537Y13620506D01*
X19789502Y13730820D01*
X19825812Y13850518D01*
X19838072Y13975000D01*
X19835000Y14264250D01*
X19676250Y14423000D01*
X18627000Y14423000D01*
X18627000Y14403000D01*
X18373000Y14403000D01*
X18373000Y14423000D01*
X17323750Y14423000D01*
X17165000Y14264250D01*
X17161928Y13975000D01*
X16838072Y13975000D01*
X16835000Y14264250D01*
X16676250Y14423000D01*
X15627000Y14423000D01*
X15627000Y14403000D01*
X15373000Y14403000D01*
X15373000Y14423000D01*
X14323750Y14423000D01*
X14165000Y14264250D01*
X14161928Y13975000D01*
X14174188Y13850518D01*
X14210498Y13730820D01*
X14269463Y13620506D01*
X14348815Y13523815D01*
X14428594Y13458342D01*
X14422038Y13452962D01*
X14311595Y13318387D01*
X14229528Y13164851D01*
X14178992Y12998255D01*
X14161928Y12825001D01*
X14161928Y12199650D01*
X14051898Y12245226D01*
X13851939Y12285000D01*
X13648061Y12285000D01*
X13448102Y12245226D01*
X13259744Y12167205D01*
X13090226Y12053937D01*
X13000000Y11963711D01*
X12909774Y12053937D01*
X12740256Y12167205D01*
X12551898Y12245226D01*
X12351939Y12285000D01*
X12148061Y12285000D01*
X11948102Y12245226D01*
X11759744Y12167205D01*
X11590226Y12053937D01*
X11446063Y11909774D01*
X11332795Y11740256D01*
X11254774Y11551898D01*
X11215000Y11351939D01*
X11215000Y11148061D01*
X11239015Y11027326D01*
X11236324Y11000000D01*
X11240001Y10962668D01*
X11240000Y9154527D01*
X11210149Y9145472D01*
X11056613Y9063405D01*
X10922038Y8952962D01*
X10811595Y8818387D01*
X10729528Y8664851D01*
X10678992Y8498255D01*
X10661928Y8325001D01*
X10661928Y7674999D01*
X10678992Y7501745D01*
X10729528Y7335149D01*
X10811595Y7181613D01*
X10922038Y7047038D01*
X11009816Y6975000D01*
X10922038Y6902962D01*
X10866263Y6835000D01*
X9174771Y6835000D01*
X9077962Y6952962D01*
X8990184Y7025000D01*
X9077962Y7097038D01*
X9188405Y7231613D01*
X9270472Y7385149D01*
X9321008Y7551745D01*
X9338072Y7724999D01*
X9338072Y8375001D01*
X9321008Y8548255D01*
X9270472Y8714851D01*
X9188405Y8868387D01*
X9077962Y9002962D01*
X8943387Y9113405D01*
X8789851Y9195472D01*
X8760000Y9204527D01*
X8760000Y10296289D01*
X8803937Y10340226D01*
X8917205Y10509744D01*
X8995226Y10698102D01*
X9035000Y10898061D01*
X9035000Y11101939D01*
X8995226Y11301898D01*
X8917205Y11490256D01*
X8803937Y11659774D01*
X8659774Y11803937D01*
X8490256Y11917205D01*
X8301898Y11995226D01*
X8101939Y12035000D01*
X7898061Y12035000D01*
X7698102Y11995226D01*
X7509744Y11917205D01*
X7377000Y11828509D01*
X7377000Y15125000D01*
X14161928Y15125000D01*
X14165000Y14835750D01*
X14323750Y14677000D01*
X15373000Y14677000D01*
X15373000Y15601250D01*
X15627000Y15601250D01*
X15627000Y14677000D01*
X16676250Y14677000D01*
X16835000Y14835750D01*
X16838072Y15125000D01*
X17161928Y15125000D01*
X17165000Y14835750D01*
X17323750Y14677000D01*
X18373000Y14677000D01*
X18373000Y15601250D01*
X18627000Y15601250D01*
X18627000Y14677000D01*
X19676250Y14677000D01*
X19835000Y14835750D01*
X19838072Y15125000D01*
X20161928Y15125000D01*
X20165000Y14835750D01*
X20323750Y14677000D01*
X21373000Y14677000D01*
X21373000Y15601250D01*
X21627000Y15601250D01*
X21627000Y14677000D01*
X22676250Y14677000D01*
X22835000Y14835750D01*
X22838072Y15125000D01*
X23411928Y15125000D01*
X23415000Y14835750D01*
X23573750Y14677000D01*
X24623000Y14677000D01*
X24623000Y15601250D01*
X24464250Y15760000D01*
X24050000Y15763072D01*
X23925518Y15750812D01*
X23805820Y15714502D01*
X23695506Y15655537D01*
X23598815Y15576185D01*
X23519463Y15479494D01*
X23460498Y15369180D01*
X23424188Y15249482D01*
X23411928Y15125000D01*
X22838072Y15125000D01*
X22825812Y15249482D01*
X22789502Y15369180D01*
X22730537Y15479494D01*
X22651185Y15576185D01*
X22554494Y15655537D01*
X22444180Y15714502D01*
X22324482Y15750812D01*
X22200000Y15763072D01*
X21785750Y15760000D01*
X21627000Y15601250D01*
X21373000Y15601250D01*
X21214250Y15760000D01*
X20800000Y15763072D01*
X20675518Y15750812D01*
X20555820Y15714502D01*
X20445506Y15655537D01*
X20348815Y15576185D01*
X20269463Y15479494D01*
X20210498Y15369180D01*
X20174188Y15249482D01*
X20161928Y15125000D01*
X19838072Y15125000D01*
X19825812Y15249482D01*
X19789502Y15369180D01*
X19730537Y15479494D01*
X19651185Y15576185D01*
X19554494Y15655537D01*
X19444180Y15714502D01*
X19324482Y15750812D01*
X19200000Y15763072D01*
X18785750Y15760000D01*
X18627000Y15601250D01*
X18373000Y15601250D01*
X18214250Y15760000D01*
X17800000Y15763072D01*
X17675518Y15750812D01*
X17555820Y15714502D01*
X17445506Y15655537D01*
X17348815Y15576185D01*
X17269463Y15479494D01*
X17210498Y15369180D01*
X17174188Y15249482D01*
X17161928Y15125000D01*
X16838072Y15125000D01*
X16825812Y15249482D01*
X16789502Y15369180D01*
X16730537Y15479494D01*
X16651185Y15576185D01*
X16554494Y15655537D01*
X16444180Y15714502D01*
X16324482Y15750812D01*
X16200000Y15763072D01*
X15785750Y15760000D01*
X15627000Y15601250D01*
X15373000Y15601250D01*
X15214250Y15760000D01*
X14800000Y15763072D01*
X14675518Y15750812D01*
X14555820Y15714502D01*
X14445506Y15655537D01*
X14348815Y15576185D01*
X14269463Y15479494D01*
X14210498Y15369180D01*
X14174188Y15249482D01*
X14161928Y15125000D01*
X7377000Y15125000D01*
X7377000Y17900000D01*
X9661928Y17900000D01*
X9674188Y17775518D01*
X9710498Y17655820D01*
X9769463Y17545506D01*
X9848815Y17448815D01*
X9945506Y17369463D01*
X10055820Y17310498D01*
X10175518Y17274188D01*
X10300000Y17261928D01*
X10714250Y17265000D01*
X10873000Y17423750D01*
X10873000Y18348000D01*
X11127000Y18348000D01*
X11127000Y17423750D01*
X11285750Y17265000D01*
X11700000Y17261928D01*
X11824482Y17274188D01*
X11944180Y17310498D01*
X12054494Y17369463D01*
X12151185Y17448815D01*
X12230537Y17545506D01*
X12289502Y17655820D01*
X12325812Y17775518D01*
X12338072Y17900000D01*
X12337807Y17925000D01*
X12941928Y17925000D01*
X12954188Y17800518D01*
X12990498Y17680820D01*
X13049463Y17570506D01*
X13128815Y17473815D01*
X13225506Y17394463D01*
X13335820Y17335498D01*
X13455518Y17299188D01*
X13580000Y17286928D01*
X13994250Y17290000D01*
X14153000Y17448750D01*
X14153000Y18373000D01*
X14407000Y18373000D01*
X14407000Y17448750D01*
X14565750Y17290000D01*
X14980000Y17286928D01*
X15104482Y17299188D01*
X15224180Y17335498D01*
X15334494Y17394463D01*
X15431185Y17473815D01*
X15510537Y17570506D01*
X15569502Y17680820D01*
X15605812Y17800518D01*
X15618072Y17925000D01*
X16161928Y17925000D01*
X16174188Y17800518D01*
X16210498Y17680820D01*
X16269463Y17570506D01*
X16348815Y17473815D01*
X16445506Y17394463D01*
X16555820Y17335498D01*
X16675518Y17299188D01*
X16800000Y17286928D01*
X17214250Y17290000D01*
X17373000Y17448750D01*
X17373000Y18373000D01*
X17627000Y18373000D01*
X17627000Y17448750D01*
X17785750Y17290000D01*
X18200000Y17286928D01*
X18324482Y17299188D01*
X18444180Y17335498D01*
X18554494Y17394463D01*
X18651185Y17473815D01*
X18730537Y17570506D01*
X18789502Y17680820D01*
X18825812Y17800518D01*
X18838072Y17925000D01*
X18835000Y18214250D01*
X18676250Y18373000D01*
X17627000Y18373000D01*
X17373000Y18373000D01*
X16323750Y18373000D01*
X16165000Y18214250D01*
X16161928Y17925000D01*
X15618072Y17925000D01*
X15615000Y18214250D01*
X15456250Y18373000D01*
X14407000Y18373000D01*
X14153000Y18373000D01*
X13103750Y18373000D01*
X12945000Y18214250D01*
X12941928Y17925000D01*
X12337807Y17925000D01*
X12335000Y18189250D01*
X12176250Y18348000D01*
X11127000Y18348000D01*
X10873000Y18348000D01*
X9823750Y18348000D01*
X9665000Y18189250D01*
X9661928Y17900000D01*
X7377000Y17900000D01*
X7377000Y20850001D01*
X9661928Y20850001D01*
X9661928Y20199999D01*
X9678992Y20026745D01*
X9729528Y19860149D01*
X9811595Y19706613D01*
X9922038Y19572038D01*
X9928594Y19566658D01*
X9848815Y19501185D01*
X9769463Y19404494D01*
X9710498Y19294180D01*
X9674188Y19174482D01*
X9661928Y19050000D01*
X9665000Y18760750D01*
X9823750Y18602000D01*
X10873000Y18602000D01*
X10873000Y18622000D01*
X11127000Y18622000D01*
X11127000Y18602000D01*
X12176250Y18602000D01*
X12335000Y18760750D01*
X12338072Y19050000D01*
X12325812Y19174482D01*
X12289502Y19294180D01*
X12230537Y19404494D01*
X12151185Y19501185D01*
X12071406Y19566658D01*
X12077962Y19572038D01*
X12188405Y19706613D01*
X12270472Y19860149D01*
X12321008Y20026745D01*
X12338072Y20199999D01*
X12338072Y20715000D01*
X12351939Y20715000D01*
X12551898Y20754774D01*
X12740256Y20832795D01*
X12909774Y20946063D01*
X12953205Y20989494D01*
X12941928Y20875001D01*
X12941928Y20224999D01*
X12958992Y20051745D01*
X13009528Y19885149D01*
X13091595Y19731613D01*
X13202038Y19597038D01*
X13208594Y19591658D01*
X13128815Y19526185D01*
X13049463Y19429494D01*
X12990498Y19319180D01*
X12954188Y19199482D01*
X12941928Y19075000D01*
X12945000Y18785750D01*
X13103750Y18627000D01*
X14153000Y18627000D01*
X14153000Y18647000D01*
X14407000Y18647000D01*
X14407000Y18627000D01*
X15456250Y18627000D01*
X15615000Y18785750D01*
X15618072Y19075000D01*
X15605812Y19199482D01*
X15569502Y19319180D01*
X15510537Y19429494D01*
X15431185Y19526185D01*
X15351406Y19591658D01*
X15357962Y19597038D01*
X15468405Y19731613D01*
X15550472Y19885149D01*
X15601008Y20051745D01*
X15618072Y20224999D01*
X15618072Y20875001D01*
X15601008Y21048255D01*
X15550472Y21214851D01*
X15468405Y21368387D01*
X15357962Y21502962D01*
X15270428Y21574800D01*
X15285000Y21648061D01*
X15285000Y21851939D01*
X15245226Y22051898D01*
X15167205Y22240256D01*
X15053937Y22409774D01*
X14909774Y22553937D01*
X14740256Y22667205D01*
X14551898Y22745226D01*
X14351939Y22785000D01*
X14148061Y22785000D01*
X13948102Y22745226D01*
X13759744Y22667205D01*
X13590226Y22553937D01*
X13446063Y22409774D01*
X13332795Y22240256D01*
X13254774Y22051898D01*
X13250000Y22027897D01*
X13245226Y22051898D01*
X13167205Y22240256D01*
X13053937Y22409774D01*
X12909774Y22553937D01*
X12740256Y22667205D01*
X12551898Y22745226D01*
X12351939Y22785000D01*
X12148061Y22785000D01*
X11948102Y22745226D01*
X11759744Y22667205D01*
X11590226Y22553937D01*
X11446063Y22409774D01*
X11332795Y22240256D01*
X11254774Y22051898D01*
X11215000Y21851939D01*
X11215000Y21789802D01*
X11163270Y21738072D01*
X10549999Y21738072D01*
X10376745Y21721008D01*
X10210149Y21670472D01*
X10056613Y21588405D01*
X9922038Y21477962D01*
X9811595Y21343387D01*
X9729528Y21189851D01*
X9678992Y21023255D01*
X9661928Y20850001D01*
X7377000Y20850001D01*
X7377000Y24250000D01*
X7374560Y24274776D01*
X7367333Y24298601D01*
X7355597Y24320557D01*
X7339803Y24339803D01*
X7320557Y24355597D01*
X7298601Y24367333D01*
X7274776Y24374560D01*
X7250000Y24377000D01*
X735000Y24377000D01*
X735000Y31617385D01*
X958795Y31617385D01*
X1002546Y31298405D01*
X1107686Y30994089D01*
X1200601Y30820258D01*
X1464950Y30724555D01*
X2420395Y31680000D01*
X1464950Y32635445D01*
X1200601Y32539742D01*
X1059762Y32250213D01*
X978115Y31938771D01*
X958795Y31617385D01*
X735000Y31617385D01*
X735000Y33015000D01*
X1716943Y33015000D01*
X1644555Y32815050D01*
M02*
