%TF.GenerationSoftware,KiCad,Pcbnew,5.1.2-f72e74a~84~ubuntu18.04.1*%
%TF.CreationDate,2019-05-18T14:46:29+02:00*%
%TF.ProjectId,rgbww-micro-board,72676277-772d-46d6-9963-726f2d626f61,rev?*%
%TF.SameCoordinates,PXb903480PY55d4a80*%
%TF.FileFunction,Copper,L1,Top*%
%TF.FilePolarity,Positive*%
%FSLAX46Y46*%
G04 Gerber Fmt 4.6, Leading zero omitted, Abs format (unit mm)*
G04 Created by KiCad (PCBNEW 5.1.2-f72e74a~84~ubuntu18.04.1) date 2019-05-18 14:46:29*
%MOMM*%
%LPD*%
G04 APERTURE LIST*
%ADD10C,0.200000*%
%ADD11C,1.998980*%
%ADD12R,1.000000X2.500000*%
%ADD13R,1.800000X1.000000*%
%ADD14C,1.524000*%
%ADD15R,2.000000X2.000000*%
%ADD16C,2.000000*%
%ADD17R,1.000000X1.500000*%
%ADD18R,1.500000X1.000000*%
%ADD19C,0.800000*%
%ADD20C,0.400000*%
%ADD21C,0.250000*%
%ADD22C,0.700000*%
%ADD23C,0.254000*%
G04 APERTURE END LIST*
D10*
X44500000Y33750000D02*
X0Y33750000D01*
X44500000Y0D02*
X44500000Y33750000D01*
X0Y0D02*
X44500000Y0D01*
X0Y33750000D02*
X0Y0D01*
D11*
X27300000Y10200000D03*
X26300000Y29100000D03*
X26200000Y31800000D03*
D12*
X8240000Y8740000D03*
X10240000Y8740000D03*
X12240000Y8740000D03*
X14240000Y8740000D03*
X16240000Y8740000D03*
X18240000Y8740000D03*
X20240000Y8740000D03*
X22240000Y8740000D03*
D13*
X23740000Y11340000D03*
X23740000Y13340000D03*
X23740000Y15340000D03*
X23740000Y17340000D03*
X23740000Y19340000D03*
X23740000Y21340000D03*
D12*
X22240000Y23940000D03*
X20240000Y23940000D03*
X18240000Y23940000D03*
X16240000Y23940000D03*
X14240000Y23940000D03*
X12240000Y23940000D03*
X10240000Y23940000D03*
X8240000Y23940000D03*
D14*
X42450000Y13050000D03*
X39950000Y13050000D03*
X31550000Y13050000D03*
X29050000Y13050000D03*
X42450000Y31550000D03*
X39950000Y31550000D03*
X31550000Y31550000D03*
X29050000Y31550000D03*
D11*
X19250000Y2000000D03*
X14000000Y30000000D03*
X10500000Y30000000D03*
X12750000Y2000000D03*
X42250000Y27250000D03*
X39250000Y27250000D03*
X5120000Y31670000D03*
X2600000Y29120000D03*
X5120000Y29110000D03*
X22900000Y30000000D03*
X2600000Y31680000D03*
X32250000Y27250000D03*
X29250000Y27250000D03*
X42250000Y16750000D03*
X40250000Y9250000D03*
X43250000Y9250000D03*
X37250000Y9250000D03*
X39250000Y16750000D03*
X16000000Y2000000D03*
D15*
X24500000Y2500000D03*
D16*
X28000000Y2500000D03*
X35000000Y2250000D03*
D15*
X38500000Y2250000D03*
D17*
X4350000Y5000000D03*
X5650000Y5000000D03*
D18*
X19500000Y29350000D03*
X19500000Y30650000D03*
D17*
X5650000Y2000000D03*
X4350000Y2000000D03*
D19*
X10220000Y38080000D03*
X10220000Y38080000D03*
X10220000Y38080000D03*
X10220000Y38080000D03*
X10220000Y38080000D03*
X10220000Y38080000D03*
X10220000Y38080000D03*
X10220000Y38080000D03*
X10220000Y38080000D03*
X24250000Y8000000D03*
X9500000Y13750000D03*
X11250000Y13750000D03*
X13000000Y13750000D03*
X13000000Y15500000D03*
X11250000Y15500000D03*
X9500000Y15500000D03*
X20750000Y17000000D03*
X20750000Y19000000D03*
X26000000Y24000000D03*
X26000000Y22000000D03*
X26000000Y26000000D03*
X21750000Y20250000D03*
X21750000Y18000000D03*
X25750000Y16000000D03*
X15750000Y27750000D03*
X12500000Y27750000D03*
X8500000Y32250000D03*
X12250000Y32250000D03*
X16250000Y32250000D03*
X21100000Y27900000D03*
X21500000Y32250000D03*
X2500000Y5500000D03*
X2500000Y3250000D03*
X9250000Y1750000D03*
X9250000Y1750000D03*
X9250000Y1750000D03*
X10500000Y4000000D03*
X8000000Y11000000D03*
X13750000Y11250000D03*
X12250000Y11250000D03*
X20000000Y21500000D03*
X18750000Y22000000D03*
X14250000Y21750000D03*
X12250000Y21750000D03*
X18500000Y10750000D03*
X20250000Y11000000D03*
X16250000Y11000000D03*
D20*
X22240000Y6160000D02*
X22240000Y8740000D01*
X24500000Y2500000D02*
X24500000Y3900000D01*
X24500000Y3900000D02*
X22240000Y6160000D01*
X22980000Y8000000D02*
X22240000Y8740000D01*
X24250000Y8000000D02*
X22980000Y8000000D01*
X24500000Y3900000D02*
X29850000Y9250000D01*
X29850000Y9250000D02*
X31500000Y9250000D01*
X31500000Y9250000D02*
X35500000Y13250000D01*
X35500000Y23500000D02*
X39250000Y27250000D01*
X35500000Y13250000D02*
X35500000Y23500000D01*
X39250000Y27250000D02*
X42250000Y27250000D01*
X42250000Y31350000D02*
X42450000Y31550000D01*
X42250000Y27250000D02*
X42250000Y31350000D01*
X42450000Y31550000D02*
X39950000Y31550000D01*
X39950000Y27950000D02*
X39250000Y27250000D01*
X39950000Y31550000D02*
X39950000Y27950000D01*
D21*
X4350000Y2000000D02*
X4350000Y5000000D01*
X22240000Y25440000D02*
X22240000Y23940000D01*
X22240000Y25860000D02*
X22240000Y25440000D01*
X19500000Y28600000D02*
X22240000Y25860000D01*
X19500000Y29350000D02*
X19500000Y28600000D01*
X30127630Y31550000D02*
X31550000Y31550000D01*
X29050000Y31550000D02*
X30127630Y31550000D01*
X31550000Y27950000D02*
X32250000Y27250000D01*
X31550000Y31550000D02*
X31550000Y27950000D01*
X30836508Y27250000D02*
X29250000Y27250000D01*
X32250000Y27250000D02*
X30836508Y27250000D01*
X29250000Y31350000D02*
X29050000Y31550000D01*
X29250000Y27250000D02*
X29250000Y31350000D01*
X32250000Y27250000D02*
X32250000Y14500000D01*
X32311999Y14438001D02*
X32311999Y13811999D01*
X32311999Y13811999D02*
X31550000Y13050000D01*
X32250000Y14500000D02*
X32311999Y14438001D01*
X29050000Y27050000D02*
X29250000Y27250000D01*
X29050000Y13050000D02*
X29050000Y27050000D01*
X22240000Y24690000D02*
X22240000Y23940000D01*
X24800000Y27250000D02*
X22240000Y24690000D01*
X29250000Y27250000D02*
X24800000Y27250000D01*
X34750000Y2500000D02*
X35000000Y2250000D01*
X28000000Y2500000D02*
X34750000Y2500000D01*
X30788001Y12288001D02*
X31550000Y13050000D01*
X29811999Y12288001D02*
X30788001Y12288001D01*
X29050000Y13050000D02*
X29811999Y12288001D01*
X4350000Y2000000D02*
X4350000Y650000D01*
X4350000Y650000D02*
X4500000Y500000D01*
X26000000Y500000D02*
X28000000Y2500000D01*
X4500000Y500000D02*
X26000000Y500000D01*
X26450000Y31550000D02*
X26200000Y31800000D01*
X29050000Y31550000D02*
X26450000Y31550000D01*
D22*
X38500000Y8000000D02*
X37250000Y9250000D01*
X38500000Y2250000D02*
X38500000Y8000000D01*
X38500000Y7500000D02*
X40250000Y9250000D01*
X38500000Y2250000D02*
X38500000Y7500000D01*
X42450000Y13050000D02*
X39950000Y13050000D01*
X42250000Y16750000D02*
X39250000Y16750000D01*
X42450000Y13050000D02*
X42450000Y16550000D01*
X42450000Y16550000D02*
X42250000Y16750000D01*
X39950000Y16050000D02*
X39250000Y16750000D01*
X39950000Y13050000D02*
X39950000Y16050000D01*
X39950000Y13050000D02*
X39950000Y9550000D01*
X39950000Y9550000D02*
X40250000Y9250000D01*
X42450000Y13050000D02*
X42450000Y10050000D01*
X42450000Y10050000D02*
X43250000Y9250000D01*
X40250000Y9250000D02*
X43250000Y9250000D01*
X37250000Y9250000D02*
X40250000Y9250000D01*
D21*
X8240000Y23940000D02*
X8240000Y25440000D01*
X7680000Y26000000D02*
X3000000Y26000000D01*
X8240000Y25440000D02*
X7680000Y26000000D01*
X2600000Y26400000D02*
X2600000Y29120000D01*
X3000000Y26000000D02*
X2600000Y26400000D01*
X5120000Y27480000D02*
X5120000Y29110000D01*
X5600000Y27000000D02*
X5120000Y27480000D01*
X10240000Y23940000D02*
X10240000Y25440000D01*
X8680000Y27000000D02*
X5600000Y27000000D01*
X10240000Y25440000D02*
X8680000Y27000000D01*
X16240000Y25440000D02*
X17000000Y26200000D01*
X16240000Y23940000D02*
X16240000Y25440000D01*
X17000000Y26200000D02*
X17000000Y30000000D01*
X17650000Y30650000D02*
X19500000Y30650000D01*
X17000000Y30000000D02*
X17650000Y30650000D01*
X22850000Y30650000D02*
X23500000Y30000000D01*
X19500000Y30650000D02*
X22850000Y30650000D01*
X8240000Y7240000D02*
X8240000Y8740000D01*
X8240000Y6840000D02*
X8240000Y7240000D01*
X6400000Y5000000D02*
X8240000Y6840000D01*
X5650000Y5000000D02*
X6400000Y5000000D01*
X8240000Y8740000D02*
X8240000Y10760000D01*
X8240000Y10760000D02*
X8000000Y11000000D01*
X6400000Y2000000D02*
X10150000Y5750000D01*
X5650000Y2000000D02*
X6400000Y2000000D01*
X10150000Y5750000D02*
X14000000Y5750000D01*
X14240000Y5990000D02*
X14240000Y8740000D01*
X14000000Y5750000D02*
X14240000Y5990000D01*
X14240000Y10760000D02*
X14240000Y8740000D01*
X13750000Y11250000D02*
X14240000Y10760000D01*
X12250000Y8750000D02*
X12240000Y8740000D01*
X12250000Y11250000D02*
X12250000Y8750000D01*
X20000000Y23700000D02*
X20240000Y23940000D01*
X20000000Y21500000D02*
X20000000Y23700000D01*
X18240000Y23940000D02*
X18240000Y22510000D01*
X18240000Y22510000D02*
X18750000Y22000000D01*
X14240000Y29760000D02*
X14000000Y30000000D01*
X14240000Y23940000D02*
X14240000Y29760000D01*
X14250000Y23930000D02*
X14240000Y23940000D01*
X14250000Y21750000D02*
X14250000Y23930000D01*
X12240000Y23940000D02*
X12240000Y25760000D01*
X12240000Y25760000D02*
X10500000Y27500000D01*
X10500000Y27500000D02*
X10500000Y30000000D01*
X12250000Y23930000D02*
X12240000Y23940000D01*
X12250000Y21750000D02*
X12250000Y23930000D01*
X16000000Y3413492D02*
X16836508Y4250000D01*
X16000000Y2000000D02*
X16000000Y3413492D01*
X16836508Y4250000D02*
X17750000Y4250000D01*
X18240000Y4740000D02*
X18240000Y8740000D01*
X17750000Y4250000D02*
X18240000Y4740000D01*
X18240000Y8740000D02*
X18240000Y10490000D01*
X18240000Y10490000D02*
X18500000Y10750000D01*
X20249489Y2999489D02*
X20249489Y3000511D01*
X19250000Y2000000D02*
X20249489Y2999489D01*
X20240000Y3010000D02*
X20240000Y8740000D01*
X20249489Y3000511D02*
X20240000Y3010000D01*
X20250000Y8750000D02*
X20240000Y8740000D01*
X20250000Y11000000D02*
X20250000Y8750000D01*
X12750000Y4500000D02*
X12750000Y2000000D01*
X13000000Y4750000D02*
X12750000Y4500000D01*
X15500000Y4750000D02*
X13000000Y4750000D01*
X16240000Y8740000D02*
X16240000Y5490000D01*
X16240000Y5490000D02*
X15500000Y4750000D01*
X16250000Y8750000D02*
X16240000Y8740000D01*
X16250000Y11000000D02*
X16250000Y8750000D01*
D23*
G36*
X12115026Y4924276D02*
G01*
X12055974Y4813799D01*
X12044454Y4792246D01*
X12000997Y4648985D01*
X11990000Y4537332D01*
X11990000Y4537322D01*
X11986324Y4500000D01*
X11990000Y4462677D01*
X11990000Y3454358D01*
X11975778Y3448467D01*
X11708073Y3269592D01*
X11480408Y3041927D01*
X11301533Y2774222D01*
X11178322Y2476763D01*
X11115510Y2160983D01*
X11115510Y1839017D01*
X11178322Y1523237D01*
X11301533Y1225778D01*
X11480408Y958073D01*
X11703481Y735000D01*
X6523426Y735000D01*
X6601185Y798815D01*
X6680537Y895506D01*
X6739502Y1005820D01*
X6775812Y1125518D01*
X6788072Y1250000D01*
X6788072Y1345674D01*
X6824276Y1365026D01*
X6940001Y1459999D01*
X6963804Y1489003D01*
X10464802Y4990000D01*
X12168965Y4990000D01*
X12115026Y4924276D01*
X12115026Y4924276D01*
G37*
X12115026Y4924276D02*
X12055974Y4813799D01*
X12044454Y4792246D01*
X12000997Y4648985D01*
X11990000Y4537332D01*
X11990000Y4537322D01*
X11986324Y4500000D01*
X11990000Y4462677D01*
X11990000Y3454358D01*
X11975778Y3448467D01*
X11708073Y3269592D01*
X11480408Y3041927D01*
X11301533Y2774222D01*
X11178322Y2476763D01*
X11115510Y2160983D01*
X11115510Y1839017D01*
X11178322Y1523237D01*
X11301533Y1225778D01*
X11480408Y958073D01*
X11703481Y735000D01*
X6523426Y735000D01*
X6601185Y798815D01*
X6680537Y895506D01*
X6739502Y1005820D01*
X6775812Y1125518D01*
X6788072Y1250000D01*
X6788072Y1345674D01*
X6824276Y1365026D01*
X6940001Y1459999D01*
X6963804Y1489003D01*
X10464802Y4990000D01*
X12168965Y4990000D01*
X12115026Y4924276D01*
G36*
X4515750Y735000D02*
G01*
X4477002Y735000D01*
X4477002Y773748D01*
X4515750Y735000D01*
X4515750Y735000D01*
G37*
X4515750Y735000D02*
X4477002Y735000D01*
X4477002Y773748D01*
X4515750Y735000D01*
G36*
X7101928Y7490000D02*
G01*
X7114188Y7365518D01*
X7150498Y7245820D01*
X7209463Y7135506D01*
X7288815Y7038815D01*
X7330117Y7004919D01*
X6560101Y6234902D01*
X6504494Y6280537D01*
X6394180Y6339502D01*
X6274482Y6375812D01*
X6150000Y6388072D01*
X5150000Y6388072D01*
X5025518Y6375812D01*
X5000000Y6368071D01*
X4974482Y6375812D01*
X4850000Y6388072D01*
X4635750Y6385000D01*
X4477000Y6226250D01*
X4477000Y5127000D01*
X4497000Y5127000D01*
X4497000Y4873000D01*
X4477000Y4873000D01*
X4477000Y3773750D01*
X4635750Y3615000D01*
X4850000Y3611928D01*
X4974482Y3624188D01*
X5000000Y3631929D01*
X5025518Y3624188D01*
X5150000Y3611928D01*
X6150000Y3611928D01*
X6274482Y3624188D01*
X6394180Y3660498D01*
X6504494Y3719463D01*
X6601185Y3798815D01*
X6680537Y3895506D01*
X6739502Y4005820D01*
X6775812Y4125518D01*
X6788072Y4250000D01*
X6788072Y4345674D01*
X6824276Y4365026D01*
X6940001Y4459999D01*
X6963804Y4489003D01*
X8751004Y6276202D01*
X8780001Y6299999D01*
X8812420Y6339502D01*
X8874974Y6415723D01*
X8945546Y6547753D01*
X8962919Y6605026D01*
X8989003Y6691014D01*
X9000000Y6802667D01*
X9000000Y6802677D01*
X9003676Y6840000D01*
X9000000Y6877323D01*
X9000000Y6908954D01*
X9094494Y6959463D01*
X9191185Y7038815D01*
X9240000Y7098296D01*
X9288815Y7038815D01*
X9385506Y6959463D01*
X9495820Y6900498D01*
X9615518Y6864188D01*
X9740000Y6851928D01*
X10740000Y6851928D01*
X10864482Y6864188D01*
X10984180Y6900498D01*
X11094494Y6959463D01*
X11191185Y7038815D01*
X11240000Y7098296D01*
X11288815Y7038815D01*
X11385506Y6959463D01*
X11495820Y6900498D01*
X11615518Y6864188D01*
X11740000Y6851928D01*
X12740000Y6851928D01*
X12864482Y6864188D01*
X12984180Y6900498D01*
X13094494Y6959463D01*
X13191185Y7038815D01*
X13240000Y7098296D01*
X13288815Y7038815D01*
X13385506Y6959463D01*
X13480000Y6908954D01*
X13480000Y6510000D01*
X10187323Y6510000D01*
X10150000Y6513676D01*
X10112677Y6510000D01*
X10112667Y6510000D01*
X10001014Y6499003D01*
X9857753Y6455546D01*
X9725724Y6384974D01*
X9609999Y6290001D01*
X9586201Y6261003D01*
X6560101Y3234902D01*
X6504494Y3280537D01*
X6394180Y3339502D01*
X6274482Y3375812D01*
X6150000Y3388072D01*
X5150000Y3388072D01*
X5025518Y3375812D01*
X5000000Y3368071D01*
X4974482Y3375812D01*
X4850000Y3388072D01*
X4635750Y3385000D01*
X4477000Y3226250D01*
X4477000Y2127000D01*
X4497000Y2127000D01*
X4497000Y1873000D01*
X4477000Y1873000D01*
X4477000Y1853000D01*
X4223000Y1853000D01*
X4223000Y1873000D01*
X3373750Y1873000D01*
X3215000Y1714250D01*
X3211928Y1250000D01*
X3224188Y1125518D01*
X3260498Y1005820D01*
X3319463Y895506D01*
X3398815Y798815D01*
X3476574Y735000D01*
X735000Y735000D01*
X735000Y2750000D01*
X3211928Y2750000D01*
X3215000Y2285750D01*
X3373750Y2127000D01*
X4223000Y2127000D01*
X4223000Y3226250D01*
X4064250Y3385000D01*
X3850000Y3388072D01*
X3725518Y3375812D01*
X3605820Y3339502D01*
X3495506Y3280537D01*
X3398815Y3201185D01*
X3319463Y3104494D01*
X3260498Y2994180D01*
X3224188Y2874482D01*
X3211928Y2750000D01*
X735000Y2750000D01*
X735000Y4250000D01*
X3211928Y4250000D01*
X3224188Y4125518D01*
X3260498Y4005820D01*
X3319463Y3895506D01*
X3398815Y3798815D01*
X3495506Y3719463D01*
X3605820Y3660498D01*
X3725518Y3624188D01*
X3850000Y3611928D01*
X4064250Y3615000D01*
X4223000Y3773750D01*
X4223000Y4873000D01*
X3373750Y4873000D01*
X3215000Y4714250D01*
X3211928Y4250000D01*
X735000Y4250000D01*
X735000Y5750000D01*
X3211928Y5750000D01*
X3215000Y5285750D01*
X3373750Y5127000D01*
X4223000Y5127000D01*
X4223000Y6226250D01*
X4064250Y6385000D01*
X3850000Y6388072D01*
X3725518Y6375812D01*
X3605820Y6339502D01*
X3495506Y6280537D01*
X3398815Y6201185D01*
X3319463Y6104494D01*
X3260498Y5994180D01*
X3224188Y5874482D01*
X3211928Y5750000D01*
X735000Y5750000D01*
X735000Y8155762D01*
X7101928Y8367993D01*
X7101928Y7490000D01*
X7101928Y7490000D01*
G37*
X7101928Y7490000D02*
X7114188Y7365518D01*
X7150498Y7245820D01*
X7209463Y7135506D01*
X7288815Y7038815D01*
X7330117Y7004919D01*
X6560101Y6234902D01*
X6504494Y6280537D01*
X6394180Y6339502D01*
X6274482Y6375812D01*
X6150000Y6388072D01*
X5150000Y6388072D01*
X5025518Y6375812D01*
X5000000Y6368071D01*
X4974482Y6375812D01*
X4850000Y6388072D01*
X4635750Y6385000D01*
X4477000Y6226250D01*
X4477000Y5127000D01*
X4497000Y5127000D01*
X4497000Y4873000D01*
X4477000Y4873000D01*
X4477000Y3773750D01*
X4635750Y3615000D01*
X4850000Y3611928D01*
X4974482Y3624188D01*
X5000000Y3631929D01*
X5025518Y3624188D01*
X5150000Y3611928D01*
X6150000Y3611928D01*
X6274482Y3624188D01*
X6394180Y3660498D01*
X6504494Y3719463D01*
X6601185Y3798815D01*
X6680537Y3895506D01*
X6739502Y4005820D01*
X6775812Y4125518D01*
X6788072Y4250000D01*
X6788072Y4345674D01*
X6824276Y4365026D01*
X6940001Y4459999D01*
X6963804Y4489003D01*
X8751004Y6276202D01*
X8780001Y6299999D01*
X8812420Y6339502D01*
X8874974Y6415723D01*
X8945546Y6547753D01*
X8962919Y6605026D01*
X8989003Y6691014D01*
X9000000Y6802667D01*
X9000000Y6802677D01*
X9003676Y6840000D01*
X9000000Y6877323D01*
X9000000Y6908954D01*
X9094494Y6959463D01*
X9191185Y7038815D01*
X9240000Y7098296D01*
X9288815Y7038815D01*
X9385506Y6959463D01*
X9495820Y6900498D01*
X9615518Y6864188D01*
X9740000Y6851928D01*
X10740000Y6851928D01*
X10864482Y6864188D01*
X10984180Y6900498D01*
X11094494Y6959463D01*
X11191185Y7038815D01*
X11240000Y7098296D01*
X11288815Y7038815D01*
X11385506Y6959463D01*
X11495820Y6900498D01*
X11615518Y6864188D01*
X11740000Y6851928D01*
X12740000Y6851928D01*
X12864482Y6864188D01*
X12984180Y6900498D01*
X13094494Y6959463D01*
X13191185Y7038815D01*
X13240000Y7098296D01*
X13288815Y7038815D01*
X13385506Y6959463D01*
X13480000Y6908954D01*
X13480000Y6510000D01*
X10187323Y6510000D01*
X10150000Y6513676D01*
X10112677Y6510000D01*
X10112667Y6510000D01*
X10001014Y6499003D01*
X9857753Y6455546D01*
X9725724Y6384974D01*
X9609999Y6290001D01*
X9586201Y6261003D01*
X6560101Y3234902D01*
X6504494Y3280537D01*
X6394180Y3339502D01*
X6274482Y3375812D01*
X6150000Y3388072D01*
X5150000Y3388072D01*
X5025518Y3375812D01*
X5000000Y3368071D01*
X4974482Y3375812D01*
X4850000Y3388072D01*
X4635750Y3385000D01*
X4477000Y3226250D01*
X4477000Y2127000D01*
X4497000Y2127000D01*
X4497000Y1873000D01*
X4477000Y1873000D01*
X4477000Y1853000D01*
X4223000Y1853000D01*
X4223000Y1873000D01*
X3373750Y1873000D01*
X3215000Y1714250D01*
X3211928Y1250000D01*
X3224188Y1125518D01*
X3260498Y1005820D01*
X3319463Y895506D01*
X3398815Y798815D01*
X3476574Y735000D01*
X735000Y735000D01*
X735000Y2750000D01*
X3211928Y2750000D01*
X3215000Y2285750D01*
X3373750Y2127000D01*
X4223000Y2127000D01*
X4223000Y3226250D01*
X4064250Y3385000D01*
X3850000Y3388072D01*
X3725518Y3375812D01*
X3605820Y3339502D01*
X3495506Y3280537D01*
X3398815Y3201185D01*
X3319463Y3104494D01*
X3260498Y2994180D01*
X3224188Y2874482D01*
X3211928Y2750000D01*
X735000Y2750000D01*
X735000Y4250000D01*
X3211928Y4250000D01*
X3224188Y4125518D01*
X3260498Y4005820D01*
X3319463Y3895506D01*
X3398815Y3798815D01*
X3495506Y3719463D01*
X3605820Y3660498D01*
X3725518Y3624188D01*
X3850000Y3611928D01*
X4064250Y3615000D01*
X4223000Y3773750D01*
X4223000Y4873000D01*
X3373750Y4873000D01*
X3215000Y4714250D01*
X3211928Y4250000D01*
X735000Y4250000D01*
X735000Y5750000D01*
X3211928Y5750000D01*
X3215000Y5285750D01*
X3373750Y5127000D01*
X4223000Y5127000D01*
X4223000Y6226250D01*
X4064250Y6385000D01*
X3850000Y6388072D01*
X3725518Y6375812D01*
X3605820Y6339502D01*
X3495506Y6280537D01*
X3398815Y6201185D01*
X3319463Y6104494D01*
X3260498Y5994180D01*
X3224188Y5874482D01*
X3211928Y5750000D01*
X735000Y5750000D01*
X735000Y8155762D01*
X7101928Y8367993D01*
X7101928Y7490000D01*
G36*
X4222998Y735000D02*
G01*
X4184250Y735000D01*
X4222998Y773748D01*
X4222998Y735000D01*
X4222998Y735000D01*
G37*
X4222998Y735000D02*
X4184250Y735000D01*
X4222998Y773748D01*
X4222998Y735000D01*
G36*
X43765001Y18377000D02*
G01*
X42448638Y18377000D01*
X42410983Y18384490D01*
X42089017Y18384490D01*
X42051362Y18377000D01*
X39448638Y18377000D01*
X39410983Y18384490D01*
X39089017Y18384490D01*
X39051362Y18377000D01*
X37750000Y18377000D01*
X37725224Y18374560D01*
X37701399Y18367333D01*
X37679443Y18355597D01*
X37660197Y18339803D01*
X37644403Y18320557D01*
X37632667Y18298601D01*
X37625440Y18274776D01*
X37623000Y18250000D01*
X37623000Y16948638D01*
X37615510Y16910983D01*
X37615510Y16589017D01*
X37623000Y16551362D01*
X37623000Y10877000D01*
X37448638Y10877000D01*
X37410983Y10884490D01*
X37089017Y10884490D01*
X37051362Y10877000D01*
X35750000Y10877000D01*
X35725224Y10874560D01*
X35701399Y10867333D01*
X35679443Y10855597D01*
X35660197Y10839803D01*
X35644403Y10820557D01*
X35632667Y10798601D01*
X35625440Y10774776D01*
X35623000Y10750000D01*
X35623000Y9448638D01*
X35615510Y9410983D01*
X35615510Y9089017D01*
X35623000Y9051362D01*
X35623000Y7750000D01*
X35625440Y7725224D01*
X35632667Y7701399D01*
X35644403Y7679443D01*
X35660197Y7660197D01*
X35679443Y7644403D01*
X35701399Y7632667D01*
X35725224Y7625440D01*
X35750000Y7623000D01*
X37051362Y7623000D01*
X37089017Y7615510D01*
X37410983Y7615510D01*
X37448638Y7623000D01*
X37483999Y7623000D01*
X37515001Y7591998D01*
X37515001Y7548389D01*
X37510235Y7500000D01*
X37515001Y7451611D01*
X37515000Y3888072D01*
X37500000Y3888072D01*
X37375518Y3875812D01*
X37255820Y3839502D01*
X37145506Y3780537D01*
X37048815Y3701185D01*
X36969463Y3604494D01*
X36910498Y3494180D01*
X36874188Y3374482D01*
X36861928Y3250000D01*
X36861928Y1250000D01*
X36874188Y1125518D01*
X36910498Y1005820D01*
X36969463Y895506D01*
X37048815Y798815D01*
X37126574Y735000D01*
X35621814Y735000D01*
X35686088Y757205D01*
X35860044Y850186D01*
X35955808Y1114587D01*
X35000000Y2070395D01*
X34044192Y1114587D01*
X34139956Y850186D01*
X34376734Y735000D01*
X20296519Y735000D01*
X20519592Y958073D01*
X20698467Y1225778D01*
X20821678Y1523237D01*
X20884490Y1839017D01*
X20884490Y2160983D01*
X20821678Y2476763D01*
X20815637Y2491348D01*
X20830035Y2508892D01*
X20884463Y2575212D01*
X20955035Y2707242D01*
X20968005Y2750000D01*
X20998492Y2850503D01*
X21009489Y2962156D01*
X21009489Y2962166D01*
X21013165Y2999489D01*
X21013115Y3000001D01*
X21013165Y3000512D01*
X21009489Y3037834D01*
X21009489Y3037843D01*
X21000000Y3134185D01*
X21000000Y6908954D01*
X21094494Y6959463D01*
X21191185Y7038815D01*
X21240000Y7098296D01*
X21288815Y7038815D01*
X21385506Y6959463D01*
X21405000Y6949043D01*
X21405000Y6201019D01*
X21400960Y6160000D01*
X21405000Y6118982D01*
X21417082Y5996312D01*
X21464828Y5838914D01*
X21542364Y5693855D01*
X21646709Y5566709D01*
X21678579Y5540554D01*
X23173586Y4045546D01*
X23145506Y4030537D01*
X23048815Y3951185D01*
X22969463Y3854494D01*
X22910498Y3744180D01*
X22874188Y3624482D01*
X22861928Y3500000D01*
X22861928Y1500000D01*
X22874188Y1375518D01*
X22910498Y1255820D01*
X22969463Y1145506D01*
X23048815Y1048815D01*
X23145506Y969463D01*
X23255820Y910498D01*
X23375518Y874188D01*
X23500000Y861928D01*
X25500000Y861928D01*
X25624482Y874188D01*
X25744180Y910498D01*
X25854494Y969463D01*
X25951185Y1048815D01*
X26030537Y1145506D01*
X26089502Y1255820D01*
X26122496Y1364587D01*
X27044192Y1364587D01*
X27139956Y1100186D01*
X27429571Y959296D01*
X27741108Y877616D01*
X28062595Y858282D01*
X28381675Y902039D01*
X28686088Y1007205D01*
X28860044Y1100186D01*
X28955808Y1364587D01*
X28000000Y2320395D01*
X27044192Y1364587D01*
X26122496Y1364587D01*
X26125812Y1375518D01*
X26138072Y1500000D01*
X26138072Y2437405D01*
X26358282Y2437405D01*
X26402039Y2118325D01*
X26507205Y1813912D01*
X26600186Y1639956D01*
X26864587Y1544192D01*
X27820395Y2500000D01*
X28179605Y2500000D01*
X29135413Y1544192D01*
X29399814Y1639956D01*
X29540704Y1929571D01*
X29608303Y2187405D01*
X33358282Y2187405D01*
X33402039Y1868325D01*
X33507205Y1563912D01*
X33600186Y1389956D01*
X33864587Y1294192D01*
X34820395Y2250000D01*
X35179605Y2250000D01*
X36135413Y1294192D01*
X36399814Y1389956D01*
X36540704Y1679571D01*
X36622384Y1991108D01*
X36641718Y2312595D01*
X36597961Y2631675D01*
X36492795Y2936088D01*
X36399814Y3110044D01*
X36135413Y3205808D01*
X35179605Y2250000D01*
X34820395Y2250000D01*
X33864587Y3205808D01*
X33600186Y3110044D01*
X33459296Y2820429D01*
X33377616Y2508892D01*
X33358282Y2187405D01*
X29608303Y2187405D01*
X29622384Y2241108D01*
X29641718Y2562595D01*
X29597961Y2881675D01*
X29492795Y3186088D01*
X29399814Y3360044D01*
X29329772Y3385413D01*
X34044192Y3385413D01*
X35000000Y2429605D01*
X35955808Y3385413D01*
X35860044Y3649814D01*
X35570429Y3790704D01*
X35258892Y3872384D01*
X34937405Y3891718D01*
X34618325Y3847961D01*
X34313912Y3742795D01*
X34139956Y3649814D01*
X34044192Y3385413D01*
X29329772Y3385413D01*
X29135413Y3455808D01*
X28179605Y2500000D01*
X27820395Y2500000D01*
X26864587Y3455808D01*
X26600186Y3360044D01*
X26459296Y3070429D01*
X26377616Y2758892D01*
X26358282Y2437405D01*
X26138072Y2437405D01*
X26138072Y3500000D01*
X26125812Y3624482D01*
X26122497Y3635413D01*
X27044192Y3635413D01*
X28000000Y2679605D01*
X28955808Y3635413D01*
X28860044Y3899814D01*
X28570429Y4040704D01*
X28258892Y4122384D01*
X27937405Y4141718D01*
X27618325Y4097961D01*
X27313912Y3992795D01*
X27139956Y3899814D01*
X27044192Y3635413D01*
X26122497Y3635413D01*
X26089502Y3744180D01*
X26030537Y3854494D01*
X25951185Y3951185D01*
X25854494Y4030537D01*
X25826414Y4045546D01*
X30195869Y8415000D01*
X31458982Y8415000D01*
X31500000Y8410960D01*
X31541018Y8415000D01*
X31541019Y8415000D01*
X31663689Y8427082D01*
X31821087Y8474828D01*
X31966146Y8552364D01*
X32093291Y8656709D01*
X32119446Y8688579D01*
X36061428Y12630560D01*
X36093291Y12656709D01*
X36197636Y12783854D01*
X36275172Y12928913D01*
X36322918Y13086311D01*
X36335000Y13208981D01*
X36335000Y13208983D01*
X36339040Y13249999D01*
X36335000Y13291015D01*
X36335000Y23154133D01*
X38844930Y25664062D01*
X39089017Y25615510D01*
X39410983Y25615510D01*
X39726763Y25678322D01*
X40024222Y25801533D01*
X40131180Y25873000D01*
X41368820Y25873000D01*
X41475778Y25801533D01*
X41773237Y25678322D01*
X42089017Y25615510D01*
X42410983Y25615510D01*
X42726763Y25678322D01*
X43024222Y25801533D01*
X43131180Y25873000D01*
X43500000Y25873000D01*
X43524776Y25875440D01*
X43548601Y25882667D01*
X43570557Y25894403D01*
X43589803Y25910197D01*
X43605597Y25929443D01*
X43617333Y25951399D01*
X43624560Y25975224D01*
X43627000Y26000000D01*
X43627000Y26368820D01*
X43698467Y26475778D01*
X43765001Y26636405D01*
X43765001Y18377000D01*
X43765001Y18377000D01*
G37*
X43765001Y18377000D02*
X42448638Y18377000D01*
X42410983Y18384490D01*
X42089017Y18384490D01*
X42051362Y18377000D01*
X39448638Y18377000D01*
X39410983Y18384490D01*
X39089017Y18384490D01*
X39051362Y18377000D01*
X37750000Y18377000D01*
X37725224Y18374560D01*
X37701399Y18367333D01*
X37679443Y18355597D01*
X37660197Y18339803D01*
X37644403Y18320557D01*
X37632667Y18298601D01*
X37625440Y18274776D01*
X37623000Y18250000D01*
X37623000Y16948638D01*
X37615510Y16910983D01*
X37615510Y16589017D01*
X37623000Y16551362D01*
X37623000Y10877000D01*
X37448638Y10877000D01*
X37410983Y10884490D01*
X37089017Y10884490D01*
X37051362Y10877000D01*
X35750000Y10877000D01*
X35725224Y10874560D01*
X35701399Y10867333D01*
X35679443Y10855597D01*
X35660197Y10839803D01*
X35644403Y10820557D01*
X35632667Y10798601D01*
X35625440Y10774776D01*
X35623000Y10750000D01*
X35623000Y9448638D01*
X35615510Y9410983D01*
X35615510Y9089017D01*
X35623000Y9051362D01*
X35623000Y7750000D01*
X35625440Y7725224D01*
X35632667Y7701399D01*
X35644403Y7679443D01*
X35660197Y7660197D01*
X35679443Y7644403D01*
X35701399Y7632667D01*
X35725224Y7625440D01*
X35750000Y7623000D01*
X37051362Y7623000D01*
X37089017Y7615510D01*
X37410983Y7615510D01*
X37448638Y7623000D01*
X37483999Y7623000D01*
X37515001Y7591998D01*
X37515001Y7548389D01*
X37510235Y7500000D01*
X37515001Y7451611D01*
X37515000Y3888072D01*
X37500000Y3888072D01*
X37375518Y3875812D01*
X37255820Y3839502D01*
X37145506Y3780537D01*
X37048815Y3701185D01*
X36969463Y3604494D01*
X36910498Y3494180D01*
X36874188Y3374482D01*
X36861928Y3250000D01*
X36861928Y1250000D01*
X36874188Y1125518D01*
X36910498Y1005820D01*
X36969463Y895506D01*
X37048815Y798815D01*
X37126574Y735000D01*
X35621814Y735000D01*
X35686088Y757205D01*
X35860044Y850186D01*
X35955808Y1114587D01*
X35000000Y2070395D01*
X34044192Y1114587D01*
X34139956Y850186D01*
X34376734Y735000D01*
X20296519Y735000D01*
X20519592Y958073D01*
X20698467Y1225778D01*
X20821678Y1523237D01*
X20884490Y1839017D01*
X20884490Y2160983D01*
X20821678Y2476763D01*
X20815637Y2491348D01*
X20830035Y2508892D01*
X20884463Y2575212D01*
X20955035Y2707242D01*
X20968005Y2750000D01*
X20998492Y2850503D01*
X21009489Y2962156D01*
X21009489Y2962166D01*
X21013165Y2999489D01*
X21013115Y3000001D01*
X21013165Y3000512D01*
X21009489Y3037834D01*
X21009489Y3037843D01*
X21000000Y3134185D01*
X21000000Y6908954D01*
X21094494Y6959463D01*
X21191185Y7038815D01*
X21240000Y7098296D01*
X21288815Y7038815D01*
X21385506Y6959463D01*
X21405000Y6949043D01*
X21405000Y6201019D01*
X21400960Y6160000D01*
X21405000Y6118982D01*
X21417082Y5996312D01*
X21464828Y5838914D01*
X21542364Y5693855D01*
X21646709Y5566709D01*
X21678579Y5540554D01*
X23173586Y4045546D01*
X23145506Y4030537D01*
X23048815Y3951185D01*
X22969463Y3854494D01*
X22910498Y3744180D01*
X22874188Y3624482D01*
X22861928Y3500000D01*
X22861928Y1500000D01*
X22874188Y1375518D01*
X22910498Y1255820D01*
X22969463Y1145506D01*
X23048815Y1048815D01*
X23145506Y969463D01*
X23255820Y910498D01*
X23375518Y874188D01*
X23500000Y861928D01*
X25500000Y861928D01*
X25624482Y874188D01*
X25744180Y910498D01*
X25854494Y969463D01*
X25951185Y1048815D01*
X26030537Y1145506D01*
X26089502Y1255820D01*
X26122496Y1364587D01*
X27044192Y1364587D01*
X27139956Y1100186D01*
X27429571Y959296D01*
X27741108Y877616D01*
X28062595Y858282D01*
X28381675Y902039D01*
X28686088Y1007205D01*
X28860044Y1100186D01*
X28955808Y1364587D01*
X28000000Y2320395D01*
X27044192Y1364587D01*
X26122496Y1364587D01*
X26125812Y1375518D01*
X26138072Y1500000D01*
X26138072Y2437405D01*
X26358282Y2437405D01*
X26402039Y2118325D01*
X26507205Y1813912D01*
X26600186Y1639956D01*
X26864587Y1544192D01*
X27820395Y2500000D01*
X28179605Y2500000D01*
X29135413Y1544192D01*
X29399814Y1639956D01*
X29540704Y1929571D01*
X29608303Y2187405D01*
X33358282Y2187405D01*
X33402039Y1868325D01*
X33507205Y1563912D01*
X33600186Y1389956D01*
X33864587Y1294192D01*
X34820395Y2250000D01*
X35179605Y2250000D01*
X36135413Y1294192D01*
X36399814Y1389956D01*
X36540704Y1679571D01*
X36622384Y1991108D01*
X36641718Y2312595D01*
X36597961Y2631675D01*
X36492795Y2936088D01*
X36399814Y3110044D01*
X36135413Y3205808D01*
X35179605Y2250000D01*
X34820395Y2250000D01*
X33864587Y3205808D01*
X33600186Y3110044D01*
X33459296Y2820429D01*
X33377616Y2508892D01*
X33358282Y2187405D01*
X29608303Y2187405D01*
X29622384Y2241108D01*
X29641718Y2562595D01*
X29597961Y2881675D01*
X29492795Y3186088D01*
X29399814Y3360044D01*
X29329772Y3385413D01*
X34044192Y3385413D01*
X35000000Y2429605D01*
X35955808Y3385413D01*
X35860044Y3649814D01*
X35570429Y3790704D01*
X35258892Y3872384D01*
X34937405Y3891718D01*
X34618325Y3847961D01*
X34313912Y3742795D01*
X34139956Y3649814D01*
X34044192Y3385413D01*
X29329772Y3385413D01*
X29135413Y3455808D01*
X28179605Y2500000D01*
X27820395Y2500000D01*
X26864587Y3455808D01*
X26600186Y3360044D01*
X26459296Y3070429D01*
X26377616Y2758892D01*
X26358282Y2437405D01*
X26138072Y2437405D01*
X26138072Y3500000D01*
X26125812Y3624482D01*
X26122497Y3635413D01*
X27044192Y3635413D01*
X28000000Y2679605D01*
X28955808Y3635413D01*
X28860044Y3899814D01*
X28570429Y4040704D01*
X28258892Y4122384D01*
X27937405Y4141718D01*
X27618325Y4097961D01*
X27313912Y3992795D01*
X27139956Y3899814D01*
X27044192Y3635413D01*
X26122497Y3635413D01*
X26089502Y3744180D01*
X26030537Y3854494D01*
X25951185Y3951185D01*
X25854494Y4030537D01*
X25826414Y4045546D01*
X30195869Y8415000D01*
X31458982Y8415000D01*
X31500000Y8410960D01*
X31541018Y8415000D01*
X31541019Y8415000D01*
X31663689Y8427082D01*
X31821087Y8474828D01*
X31966146Y8552364D01*
X32093291Y8656709D01*
X32119446Y8688579D01*
X36061428Y12630560D01*
X36093291Y12656709D01*
X36197636Y12783854D01*
X36275172Y12928913D01*
X36322918Y13086311D01*
X36335000Y13208981D01*
X36335000Y13208983D01*
X36339040Y13249999D01*
X36335000Y13291015D01*
X36335000Y23154133D01*
X38844930Y25664062D01*
X39089017Y25615510D01*
X39410983Y25615510D01*
X39726763Y25678322D01*
X40024222Y25801533D01*
X40131180Y25873000D01*
X41368820Y25873000D01*
X41475778Y25801533D01*
X41773237Y25678322D01*
X42089017Y25615510D01*
X42410983Y25615510D01*
X42726763Y25678322D01*
X43024222Y25801533D01*
X43131180Y25873000D01*
X43500000Y25873000D01*
X43524776Y25875440D01*
X43548601Y25882667D01*
X43570557Y25894403D01*
X43589803Y25910197D01*
X43605597Y25929443D01*
X43617333Y25951399D01*
X43624560Y25975224D01*
X43627000Y26000000D01*
X43627000Y26368820D01*
X43698467Y26475778D01*
X43765001Y26636405D01*
X43765001Y18377000D01*
G36*
X25244555Y32935050D02*
G01*
X26200000Y31979605D01*
X27155445Y32935050D01*
X27126500Y33015000D01*
X43765001Y33015000D01*
X43765001Y32025843D01*
X43688005Y32211727D01*
X43627000Y32303027D01*
X43627000Y32500000D01*
X43624560Y32524776D01*
X43617333Y32548601D01*
X43605597Y32570557D01*
X43589803Y32589803D01*
X43570557Y32605597D01*
X43548601Y32617333D01*
X43524776Y32624560D01*
X43500000Y32627000D01*
X43348655Y32627000D01*
X43340535Y32635120D01*
X43111727Y32788005D01*
X42857490Y32893314D01*
X42587592Y32947000D01*
X42312408Y32947000D01*
X42042510Y32893314D01*
X41788273Y32788005D01*
X41559465Y32635120D01*
X41551345Y32627000D01*
X40848655Y32627000D01*
X40840535Y32635120D01*
X40611727Y32788005D01*
X40357490Y32893314D01*
X40087592Y32947000D01*
X39812408Y32947000D01*
X39542510Y32893314D01*
X39288273Y32788005D01*
X39059465Y32635120D01*
X39051345Y32627000D01*
X38000000Y32627000D01*
X37975224Y32624560D01*
X37951399Y32617333D01*
X37929443Y32605597D01*
X37910197Y32589803D01*
X37894403Y32570557D01*
X37882667Y32548601D01*
X37875440Y32524776D01*
X37873000Y32500000D01*
X37873000Y28131180D01*
X37801533Y28024222D01*
X37678322Y27726763D01*
X37615510Y27410983D01*
X37615510Y27089017D01*
X37664062Y26844930D01*
X34938574Y24119441D01*
X34906710Y24093291D01*
X34880562Y24061429D01*
X34802364Y23966145D01*
X34724828Y23821086D01*
X34677082Y23663688D01*
X34660960Y23500000D01*
X34665001Y23458971D01*
X34665000Y13595868D01*
X31154133Y10085000D01*
X29891018Y10085000D01*
X29850000Y10089040D01*
X29808982Y10085000D01*
X29808981Y10085000D01*
X29686311Y10072918D01*
X29528913Y10025172D01*
X29383854Y9947636D01*
X29256709Y9843291D01*
X29230563Y9811432D01*
X28549370Y9130238D01*
X28435052Y9244556D01*
X28699399Y9340258D01*
X28840238Y9629787D01*
X28921885Y9941229D01*
X28941205Y10262615D01*
X28897454Y10581595D01*
X28792314Y10885911D01*
X28699399Y11059742D01*
X28435050Y11155445D01*
X27479605Y10200000D01*
X27493748Y10185857D01*
X27314143Y10006252D01*
X27300000Y10020395D01*
X26344555Y9064950D01*
X26440258Y8800601D01*
X26729787Y8659762D01*
X27041229Y8578115D01*
X27362615Y8558795D01*
X27681595Y8602546D01*
X27985911Y8707686D01*
X28159742Y8800601D01*
X28255444Y9064948D01*
X28369762Y8950630D01*
X24500001Y5080868D01*
X23075000Y6505867D01*
X23075000Y6949043D01*
X23094494Y6959463D01*
X23191185Y7038815D01*
X23270537Y7135506D01*
X23286302Y7165000D01*
X23636715Y7165000D01*
X23759744Y7082795D01*
X23948102Y7004774D01*
X24148061Y6965000D01*
X24351939Y6965000D01*
X24551898Y7004774D01*
X24740256Y7082795D01*
X24909774Y7196063D01*
X25053937Y7340226D01*
X25167205Y7509744D01*
X25245226Y7698102D01*
X25285000Y7898061D01*
X25285000Y8101939D01*
X25245226Y8301898D01*
X25167205Y8490256D01*
X25053937Y8659774D01*
X24909774Y8803937D01*
X24740256Y8917205D01*
X24551898Y8995226D01*
X24351939Y9035000D01*
X24148061Y9035000D01*
X23948102Y8995226D01*
X23759744Y8917205D01*
X23636715Y8835000D01*
X23378072Y8835000D01*
X23378072Y9990000D01*
X23365812Y10114482D01*
X23358865Y10137385D01*
X25658795Y10137385D01*
X25702546Y9818405D01*
X25807686Y9514089D01*
X25900601Y9340258D01*
X26164950Y9244555D01*
X27120395Y10200000D01*
X26164950Y11155445D01*
X25900601Y11059742D01*
X25759762Y10770213D01*
X25678115Y10458771D01*
X25658795Y10137385D01*
X23358865Y10137385D01*
X23339286Y10201928D01*
X24640000Y10201928D01*
X24764482Y10214188D01*
X24884180Y10250498D01*
X24994494Y10309463D01*
X25091185Y10388815D01*
X25170537Y10485506D01*
X25229502Y10595820D01*
X25265812Y10715518D01*
X25278072Y10840000D01*
X25278072Y11335050D01*
X26344555Y11335050D01*
X27300000Y10379605D01*
X28255445Y11335050D01*
X28159742Y11599399D01*
X27870213Y11740238D01*
X27558771Y11821885D01*
X27237385Y11841205D01*
X26918405Y11797454D01*
X26614089Y11692314D01*
X26440258Y11599399D01*
X26344555Y11335050D01*
X25278072Y11335050D01*
X25278072Y11840000D01*
X25265812Y11964482D01*
X25229502Y12084180D01*
X25229366Y12084435D01*
X28264040Y12084435D01*
X28331020Y11844344D01*
X28580048Y11727244D01*
X28847135Y11660977D01*
X29122017Y11648090D01*
X29394133Y11689078D01*
X29653023Y11782364D01*
X29768980Y11844344D01*
X29835960Y12084435D01*
X30764040Y12084435D01*
X30831020Y11844344D01*
X31080048Y11727244D01*
X31347135Y11660977D01*
X31622017Y11648090D01*
X31894133Y11689078D01*
X32153023Y11782364D01*
X32268980Y11844344D01*
X32335960Y12084435D01*
X31550000Y12870395D01*
X30764040Y12084435D01*
X29835960Y12084435D01*
X29050000Y12870395D01*
X28264040Y12084435D01*
X25229366Y12084435D01*
X25170537Y12194494D01*
X25091185Y12291185D01*
X25031704Y12340000D01*
X25091185Y12388815D01*
X25170537Y12485506D01*
X25229502Y12595820D01*
X25265812Y12715518D01*
X25278072Y12840000D01*
X25278072Y12977983D01*
X27648090Y12977983D01*
X27689078Y12705867D01*
X27782364Y12446977D01*
X27844344Y12331020D01*
X28084435Y12264040D01*
X28870395Y13050000D01*
X29229605Y13050000D01*
X30015565Y12264040D01*
X30255656Y12331020D01*
X30297163Y12419290D01*
X30344344Y12331020D01*
X30584435Y12264040D01*
X31370395Y13050000D01*
X31729605Y13050000D01*
X32515565Y12264040D01*
X32755656Y12331020D01*
X32872756Y12580048D01*
X32939023Y12847135D01*
X32951910Y13122017D01*
X32910922Y13394133D01*
X32817636Y13653023D01*
X32755656Y13768980D01*
X32515565Y13835960D01*
X31729605Y13050000D01*
X31370395Y13050000D01*
X30584435Y13835960D01*
X30344344Y13768980D01*
X30302837Y13680710D01*
X30255656Y13768980D01*
X30015565Y13835960D01*
X29229605Y13050000D01*
X28870395Y13050000D01*
X28084435Y13835960D01*
X27844344Y13768980D01*
X27727244Y13519952D01*
X27660977Y13252865D01*
X27648090Y12977983D01*
X25278072Y12977983D01*
X25278072Y13840000D01*
X25265812Y13964482D01*
X25250317Y14015565D01*
X28264040Y14015565D01*
X29050000Y13229605D01*
X29835960Y14015565D01*
X30764040Y14015565D01*
X31550000Y13229605D01*
X32335960Y14015565D01*
X32268980Y14255656D01*
X32019952Y14372756D01*
X31752865Y14439023D01*
X31477983Y14451910D01*
X31205867Y14410922D01*
X30946977Y14317636D01*
X30831020Y14255656D01*
X30764040Y14015565D01*
X29835960Y14015565D01*
X29768980Y14255656D01*
X29519952Y14372756D01*
X29252865Y14439023D01*
X28977983Y14451910D01*
X28705867Y14410922D01*
X28446977Y14317636D01*
X28331020Y14255656D01*
X28264040Y14015565D01*
X25250317Y14015565D01*
X25229502Y14084180D01*
X25170537Y14194494D01*
X25091185Y14291185D01*
X25031704Y14340000D01*
X25091185Y14388815D01*
X25170537Y14485506D01*
X25229502Y14595820D01*
X25265812Y14715518D01*
X25278072Y14840000D01*
X25278072Y15840000D01*
X25265812Y15964482D01*
X25229502Y16084180D01*
X25170537Y16194494D01*
X25091185Y16291185D01*
X25031704Y16340000D01*
X25091185Y16388815D01*
X25170537Y16485506D01*
X25229502Y16595820D01*
X25265812Y16715518D01*
X25278072Y16840000D01*
X25278072Y17840000D01*
X25265812Y17964482D01*
X25229502Y18084180D01*
X25170537Y18194494D01*
X25091185Y18291185D01*
X25031704Y18340000D01*
X25091185Y18388815D01*
X25170537Y18485506D01*
X25229502Y18595820D01*
X25265812Y18715518D01*
X25278072Y18840000D01*
X25278072Y19840000D01*
X25265812Y19964482D01*
X25229502Y20084180D01*
X25170537Y20194494D01*
X25091185Y20291185D01*
X25031704Y20340000D01*
X25091185Y20388815D01*
X25170537Y20485506D01*
X25229502Y20595820D01*
X25265812Y20715518D01*
X25278072Y20840000D01*
X25278072Y21840000D01*
X25265812Y21964482D01*
X25229502Y22084180D01*
X25170537Y22194494D01*
X25091185Y22291185D01*
X24994494Y22370537D01*
X24884180Y22429502D01*
X24764482Y22465812D01*
X24640000Y22478072D01*
X23339286Y22478072D01*
X23365812Y22565518D01*
X23378072Y22690000D01*
X23375000Y23654250D01*
X23216250Y23813000D01*
X22367000Y23813000D01*
X22367000Y22264603D01*
X22309463Y22194494D01*
X22250498Y22084180D01*
X22214188Y21964482D01*
X22201928Y21840000D01*
X22201928Y20840000D01*
X22214188Y20715518D01*
X22250498Y20595820D01*
X22309463Y20485506D01*
X22388815Y20388815D01*
X22448296Y20340000D01*
X22388815Y20291185D01*
X22309463Y20194494D01*
X22250498Y20084180D01*
X22214188Y19964482D01*
X22201928Y19840000D01*
X22201928Y18840000D01*
X22214188Y18715518D01*
X22250498Y18595820D01*
X22309463Y18485506D01*
X22388815Y18388815D01*
X22448296Y18340000D01*
X22388815Y18291185D01*
X22309463Y18194494D01*
X22250498Y18084180D01*
X22214188Y17964482D01*
X22201928Y17840000D01*
X22201928Y16840000D01*
X22214188Y16715518D01*
X22250498Y16595820D01*
X22309463Y16485506D01*
X22388815Y16388815D01*
X22448296Y16340000D01*
X22388815Y16291185D01*
X22309463Y16194494D01*
X22250498Y16084180D01*
X22214188Y15964482D01*
X22201928Y15840000D01*
X22201928Y14840000D01*
X22214188Y14715518D01*
X22250498Y14595820D01*
X22309463Y14485506D01*
X22388815Y14388815D01*
X22448296Y14340000D01*
X22388815Y14291185D01*
X22309463Y14194494D01*
X22250498Y14084180D01*
X22214188Y13964482D01*
X22201928Y13840000D01*
X22201928Y12840000D01*
X22214188Y12715518D01*
X22250498Y12595820D01*
X22309463Y12485506D01*
X22388815Y12388815D01*
X22448296Y12340000D01*
X22388815Y12291185D01*
X22309463Y12194494D01*
X22250498Y12084180D01*
X22214188Y11964482D01*
X22201928Y11840000D01*
X22201928Y10840000D01*
X22214188Y10715518D01*
X22240714Y10628072D01*
X21740000Y10628072D01*
X21615518Y10615812D01*
X21495820Y10579502D01*
X21385506Y10520537D01*
X21288815Y10441185D01*
X21240000Y10381704D01*
X21191185Y10441185D01*
X21146112Y10478176D01*
X21167205Y10509744D01*
X21245226Y10698102D01*
X21285000Y10898061D01*
X21285000Y11101939D01*
X21245226Y11301898D01*
X21167205Y11490256D01*
X21053937Y11659774D01*
X20909774Y11803937D01*
X20740256Y11917205D01*
X20551898Y11995226D01*
X20351939Y12035000D01*
X20148061Y12035000D01*
X19948102Y11995226D01*
X19759744Y11917205D01*
X19590226Y11803937D01*
X19446063Y11659774D01*
X19332795Y11490256D01*
X19300770Y11412941D01*
X19159774Y11553937D01*
X18990256Y11667205D01*
X18801898Y11745226D01*
X18601939Y11785000D01*
X18398061Y11785000D01*
X18198102Y11745226D01*
X18009744Y11667205D01*
X17840226Y11553937D01*
X17696063Y11409774D01*
X17582795Y11240256D01*
X17504774Y11051898D01*
X17465000Y10851939D01*
X17465000Y10648061D01*
X17480288Y10571200D01*
X17385506Y10520537D01*
X17288815Y10441185D01*
X17240000Y10381704D01*
X17191185Y10441185D01*
X17146112Y10478176D01*
X17167205Y10509744D01*
X17245226Y10698102D01*
X17285000Y10898061D01*
X17285000Y11101939D01*
X17245226Y11301898D01*
X17167205Y11490256D01*
X17053937Y11659774D01*
X16909774Y11803937D01*
X16740256Y11917205D01*
X16551898Y11995226D01*
X16351939Y12035000D01*
X16148061Y12035000D01*
X15948102Y11995226D01*
X15759744Y11917205D01*
X15590226Y11803937D01*
X15446063Y11659774D01*
X15332795Y11490256D01*
X15254774Y11301898D01*
X15215000Y11101939D01*
X15215000Y10898061D01*
X15254774Y10698102D01*
X15332795Y10509744D01*
X15346805Y10488776D01*
X15288815Y10441185D01*
X15240000Y10381704D01*
X15191185Y10441185D01*
X15094494Y10520537D01*
X15000000Y10571046D01*
X15000000Y10722675D01*
X15003676Y10760000D01*
X15000000Y10797325D01*
X15000000Y10797333D01*
X14989003Y10908986D01*
X14945546Y11052247D01*
X14874974Y11184276D01*
X14785000Y11293910D01*
X14785000Y11351939D01*
X14745226Y11551898D01*
X14667205Y11740256D01*
X14553937Y11909774D01*
X14409774Y12053937D01*
X14240256Y12167205D01*
X14051898Y12245226D01*
X13851939Y12285000D01*
X13648061Y12285000D01*
X13448102Y12245226D01*
X13259744Y12167205D01*
X13090226Y12053937D01*
X13000000Y11963711D01*
X12909774Y12053937D01*
X12740256Y12167205D01*
X12551898Y12245226D01*
X12351939Y12285000D01*
X12148061Y12285000D01*
X11948102Y12245226D01*
X11759744Y12167205D01*
X11590226Y12053937D01*
X11446063Y11909774D01*
X11332795Y11740256D01*
X11254774Y11551898D01*
X11215000Y11351939D01*
X11215000Y11148061D01*
X11254774Y10948102D01*
X11332795Y10759744D01*
X11446063Y10590226D01*
X11470383Y10565906D01*
X11385506Y10520537D01*
X11288815Y10441185D01*
X11240000Y10381704D01*
X11191185Y10441185D01*
X11094494Y10520537D01*
X10984180Y10579502D01*
X10864482Y10615812D01*
X10740000Y10628072D01*
X9740000Y10628072D01*
X9615518Y10615812D01*
X9495820Y10579502D01*
X9385506Y10520537D01*
X9288815Y10441185D01*
X9240000Y10381704D01*
X9191185Y10441185D01*
X9094494Y10520537D01*
X9000000Y10571046D01*
X9000000Y10722103D01*
X9035000Y10898061D01*
X9035000Y11101939D01*
X8995226Y11301898D01*
X8917205Y11490256D01*
X8803937Y11659774D01*
X8659774Y11803937D01*
X8490256Y11917205D01*
X8301898Y11995226D01*
X8101939Y12035000D01*
X7898061Y12035000D01*
X7698102Y11995226D01*
X7509744Y11917205D01*
X7377000Y11828509D01*
X7377000Y22166444D01*
X7385506Y22159463D01*
X7495820Y22100498D01*
X7615518Y22064188D01*
X7740000Y22051928D01*
X8740000Y22051928D01*
X8864482Y22064188D01*
X8984180Y22100498D01*
X9094494Y22159463D01*
X9191185Y22238815D01*
X9240000Y22298296D01*
X9288815Y22238815D01*
X9385506Y22159463D01*
X9495820Y22100498D01*
X9615518Y22064188D01*
X9740000Y22051928D01*
X10740000Y22051928D01*
X10864482Y22064188D01*
X10984180Y22100498D01*
X11094494Y22159463D01*
X11191185Y22238815D01*
X11240000Y22298296D01*
X11288815Y22238815D01*
X11321192Y22212244D01*
X11254774Y22051898D01*
X11215000Y21851939D01*
X11215000Y21648061D01*
X11254774Y21448102D01*
X11332795Y21259744D01*
X11446063Y21090226D01*
X11590226Y20946063D01*
X11759744Y20832795D01*
X11948102Y20754774D01*
X12148061Y20715000D01*
X12351939Y20715000D01*
X12551898Y20754774D01*
X12740256Y20832795D01*
X12909774Y20946063D01*
X13053937Y21090226D01*
X13167205Y21259744D01*
X13245226Y21448102D01*
X13250000Y21472103D01*
X13254774Y21448102D01*
X13332795Y21259744D01*
X13446063Y21090226D01*
X13590226Y20946063D01*
X13759744Y20832795D01*
X13948102Y20754774D01*
X14148061Y20715000D01*
X14351939Y20715000D01*
X14551898Y20754774D01*
X14740256Y20832795D01*
X14909774Y20946063D01*
X15053937Y21090226D01*
X15167205Y21259744D01*
X15245226Y21448102D01*
X15285000Y21648061D01*
X15285000Y21851939D01*
X15245226Y22051898D01*
X15173734Y22224493D01*
X15191185Y22238815D01*
X15240000Y22298296D01*
X15288815Y22238815D01*
X15385506Y22159463D01*
X15495820Y22100498D01*
X15615518Y22064188D01*
X15740000Y22051928D01*
X16740000Y22051928D01*
X16864482Y22064188D01*
X16984180Y22100498D01*
X17094494Y22159463D01*
X17191185Y22238815D01*
X17240000Y22298296D01*
X17288815Y22238815D01*
X17385506Y22159463D01*
X17495820Y22100498D01*
X17615518Y22064188D01*
X17623332Y22063418D01*
X17632787Y22051898D01*
X17700000Y21969999D01*
X17715000Y21957689D01*
X17715000Y21898061D01*
X17754774Y21698102D01*
X17832795Y21509744D01*
X17946063Y21340226D01*
X18090226Y21196063D01*
X18259744Y21082795D01*
X18448102Y21004774D01*
X18648061Y20965000D01*
X18851939Y20965000D01*
X19051898Y21004774D01*
X19080027Y21016426D01*
X19082795Y21009744D01*
X19196063Y20840226D01*
X19340226Y20696063D01*
X19509744Y20582795D01*
X19698102Y20504774D01*
X19898061Y20465000D01*
X20101939Y20465000D01*
X20301898Y20504774D01*
X20490256Y20582795D01*
X20659774Y20696063D01*
X20803937Y20840226D01*
X20917205Y21009744D01*
X20995226Y21198102D01*
X21035000Y21398061D01*
X21035000Y21601939D01*
X20995226Y21801898D01*
X20917205Y21990256D01*
X20867245Y22065026D01*
X20984180Y22100498D01*
X21094494Y22159463D01*
X21191185Y22238815D01*
X21240000Y22298296D01*
X21288815Y22238815D01*
X21385506Y22159463D01*
X21495820Y22100498D01*
X21615518Y22064188D01*
X21740000Y22051928D01*
X21954250Y22055000D01*
X22113000Y22213750D01*
X22113000Y23813000D01*
X22093000Y23813000D01*
X22093000Y24067000D01*
X22113000Y24067000D01*
X22113000Y25666250D01*
X22367000Y25666250D01*
X22367000Y24067000D01*
X23216250Y24067000D01*
X23375000Y24225750D01*
X23378072Y25190000D01*
X23365812Y25314482D01*
X23329502Y25434180D01*
X23270537Y25544494D01*
X23191185Y25641185D01*
X23094494Y25720537D01*
X22984180Y25779502D01*
X22864482Y25815812D01*
X22740000Y25828072D01*
X22525750Y25825000D01*
X22367000Y25666250D01*
X22113000Y25666250D01*
X21954250Y25825000D01*
X21740000Y25828072D01*
X21615518Y25815812D01*
X21495820Y25779502D01*
X21385506Y25720537D01*
X21288815Y25641185D01*
X21240000Y25581704D01*
X21191185Y25641185D01*
X21094494Y25720537D01*
X20984180Y25779502D01*
X20864482Y25815812D01*
X20740000Y25828072D01*
X19740000Y25828072D01*
X19615518Y25815812D01*
X19495820Y25779502D01*
X19385506Y25720537D01*
X19288815Y25641185D01*
X19240000Y25581704D01*
X19191185Y25641185D01*
X19094494Y25720537D01*
X18984180Y25779502D01*
X18864482Y25815812D01*
X18740000Y25828072D01*
X17740000Y25828072D01*
X17658674Y25820062D01*
X17705546Y25907753D01*
X17749003Y26051014D01*
X17755300Y26114950D01*
X28294555Y26114950D01*
X28390258Y25850601D01*
X28679787Y25709762D01*
X28991229Y25628115D01*
X29312615Y25608795D01*
X29631595Y25652546D01*
X29935911Y25757686D01*
X30109742Y25850601D01*
X30205445Y26114950D01*
X31294555Y26114950D01*
X31390258Y25850601D01*
X31679787Y25709762D01*
X31991229Y25628115D01*
X32312615Y25608795D01*
X32631595Y25652546D01*
X32935911Y25757686D01*
X33109742Y25850601D01*
X33205445Y26114950D01*
X32250000Y27070395D01*
X31294555Y26114950D01*
X30205445Y26114950D01*
X29250000Y27070395D01*
X28294555Y26114950D01*
X17755300Y26114950D01*
X17760000Y26162667D01*
X17760000Y26162676D01*
X17763676Y26199999D01*
X17760000Y26237322D01*
X17760000Y27187385D01*
X27608795Y27187385D01*
X27652546Y26868405D01*
X27757686Y26564089D01*
X27850601Y26390258D01*
X28114950Y26294555D01*
X29070395Y27250000D01*
X29429605Y27250000D01*
X30385050Y26294555D01*
X30649399Y26390258D01*
X30747832Y26592611D01*
X30757686Y26564089D01*
X30850601Y26390258D01*
X31114950Y26294555D01*
X32070395Y27250000D01*
X32429605Y27250000D01*
X33385050Y26294555D01*
X33649399Y26390258D01*
X33790238Y26679787D01*
X33871885Y26991229D01*
X33891205Y27312615D01*
X33847454Y27631595D01*
X33742314Y27935911D01*
X33649399Y28109742D01*
X33385050Y28205445D01*
X32429605Y27250000D01*
X32070395Y27250000D01*
X31114950Y28205445D01*
X30850601Y28109742D01*
X30752168Y27907389D01*
X30742314Y27935911D01*
X30649399Y28109742D01*
X30385050Y28205445D01*
X29429605Y27250000D01*
X29070395Y27250000D01*
X28114950Y28205445D01*
X27850601Y28109742D01*
X27709762Y27820213D01*
X27628115Y27508771D01*
X27608795Y27187385D01*
X17760000Y27187385D01*
X17760000Y27964950D01*
X25344555Y27964950D01*
X25440258Y27700601D01*
X25729787Y27559762D01*
X26041229Y27478115D01*
X26362615Y27458795D01*
X26681595Y27502546D01*
X26985911Y27607686D01*
X27159742Y27700601D01*
X27255445Y27964950D01*
X26300000Y28920395D01*
X25344555Y27964950D01*
X17760000Y27964950D01*
X17760000Y28850000D01*
X18111928Y28850000D01*
X18124188Y28725518D01*
X18160498Y28605820D01*
X18219463Y28495506D01*
X18298815Y28398815D01*
X18395506Y28319463D01*
X18505820Y28260498D01*
X18625518Y28224188D01*
X18750000Y28211928D01*
X19214250Y28215000D01*
X19373000Y28373750D01*
X19373000Y29223000D01*
X19627000Y29223000D01*
X19627000Y28373750D01*
X19785750Y28215000D01*
X20250000Y28211928D01*
X20374482Y28224188D01*
X20494180Y28260498D01*
X20604494Y28319463D01*
X20701185Y28398815D01*
X20780537Y28495506D01*
X20839502Y28605820D01*
X20875812Y28725518D01*
X20888072Y28850000D01*
X20885000Y29064250D01*
X20726250Y29223000D01*
X19627000Y29223000D01*
X19373000Y29223000D01*
X18273750Y29223000D01*
X18115000Y29064250D01*
X18111928Y28850000D01*
X17760000Y28850000D01*
X17760000Y29685199D01*
X17964802Y29890000D01*
X18115868Y29890000D01*
X18111928Y29850000D01*
X18115000Y29635750D01*
X18273750Y29477000D01*
X19373000Y29477000D01*
X19373000Y29497000D01*
X19627000Y29497000D01*
X19627000Y29477000D01*
X20726250Y29477000D01*
X20885000Y29635750D01*
X20888072Y29850000D01*
X20884132Y29890000D01*
X21265510Y29890000D01*
X21265510Y29839017D01*
X21328322Y29523237D01*
X21451533Y29225778D01*
X21630408Y28958073D01*
X21858073Y28730408D01*
X22125778Y28551533D01*
X22423237Y28428322D01*
X22739017Y28365510D01*
X23060983Y28365510D01*
X23376763Y28428322D01*
X23674222Y28551533D01*
X23941927Y28730408D01*
X24169592Y28958073D01*
X24222586Y29037385D01*
X24658795Y29037385D01*
X24702546Y28718405D01*
X24807686Y28414089D01*
X24900601Y28240258D01*
X25164950Y28144555D01*
X26120395Y29100000D01*
X26479605Y29100000D01*
X27435050Y28144555D01*
X27699399Y28240258D01*
X27769831Y28385050D01*
X28294555Y28385050D01*
X29250000Y27429605D01*
X30205445Y28385050D01*
X31294555Y28385050D01*
X32250000Y27429605D01*
X33205445Y28385050D01*
X33109742Y28649399D01*
X32820213Y28790238D01*
X32508771Y28871885D01*
X32187385Y28891205D01*
X31868405Y28847454D01*
X31564089Y28742314D01*
X31390258Y28649399D01*
X31294555Y28385050D01*
X30205445Y28385050D01*
X30109742Y28649399D01*
X29820213Y28790238D01*
X29508771Y28871885D01*
X29187385Y28891205D01*
X28868405Y28847454D01*
X28564089Y28742314D01*
X28390258Y28649399D01*
X28294555Y28385050D01*
X27769831Y28385050D01*
X27840238Y28529787D01*
X27921885Y28841229D01*
X27941205Y29162615D01*
X27897454Y29481595D01*
X27792314Y29785911D01*
X27699399Y29959742D01*
X27435050Y30055445D01*
X26479605Y29100000D01*
X26120395Y29100000D01*
X25164950Y30055445D01*
X24900601Y29959742D01*
X24759762Y29670213D01*
X24678115Y29358771D01*
X24658795Y29037385D01*
X24222586Y29037385D01*
X24348467Y29225778D01*
X24471678Y29523237D01*
X24534490Y29839017D01*
X24534490Y30160983D01*
X24471678Y30476763D01*
X24393729Y30664950D01*
X25244555Y30664950D01*
X25340258Y30400601D01*
X25394872Y30374034D01*
X25344555Y30235050D01*
X26300000Y29279605D01*
X27255445Y30235050D01*
X27159742Y30499399D01*
X27105128Y30525966D01*
X27126295Y30584435D01*
X28264040Y30584435D01*
X28331020Y30344344D01*
X28580048Y30227244D01*
X28847135Y30160977D01*
X29122017Y30148090D01*
X29394133Y30189078D01*
X29653023Y30282364D01*
X29768980Y30344344D01*
X29835960Y30584435D01*
X30764040Y30584435D01*
X30831020Y30344344D01*
X31080048Y30227244D01*
X31347135Y30160977D01*
X31622017Y30148090D01*
X31894133Y30189078D01*
X32153023Y30282364D01*
X32268980Y30344344D01*
X32335960Y30584435D01*
X31550000Y31370395D01*
X30764040Y30584435D01*
X29835960Y30584435D01*
X29050000Y31370395D01*
X28264040Y30584435D01*
X27126295Y30584435D01*
X27155445Y30664950D01*
X26200000Y31620395D01*
X25244555Y30664950D01*
X24393729Y30664950D01*
X24348467Y30774222D01*
X24169592Y31041927D01*
X23941927Y31269592D01*
X23674222Y31448467D01*
X23376763Y31571678D01*
X23060983Y31634490D01*
X22739017Y31634490D01*
X22423237Y31571678D01*
X22125778Y31448467D01*
X22068208Y31410000D01*
X20831046Y31410000D01*
X20780537Y31504494D01*
X20701185Y31601185D01*
X20604494Y31680537D01*
X20498141Y31737385D01*
X24558795Y31737385D01*
X24602546Y31418405D01*
X24707686Y31114089D01*
X24800601Y30940258D01*
X25064950Y30844555D01*
X26020395Y31800000D01*
X26379605Y31800000D01*
X27335050Y30844555D01*
X27599399Y30940258D01*
X27705897Y31159191D01*
X27782364Y30946977D01*
X27844344Y30831020D01*
X28084435Y30764040D01*
X28870395Y31550000D01*
X29229605Y31550000D01*
X30015565Y30764040D01*
X30255656Y30831020D01*
X30297163Y30919290D01*
X30344344Y30831020D01*
X30584435Y30764040D01*
X31370395Y31550000D01*
X31729605Y31550000D01*
X32515565Y30764040D01*
X32755656Y30831020D01*
X32872756Y31080048D01*
X32939023Y31347135D01*
X32951910Y31622017D01*
X32910922Y31894133D01*
X32817636Y32153023D01*
X32755656Y32268980D01*
X32515565Y32335960D01*
X31729605Y31550000D01*
X31370395Y31550000D01*
X30584435Y32335960D01*
X30344344Y32268980D01*
X30302837Y32180710D01*
X30255656Y32268980D01*
X30015565Y32335960D01*
X29229605Y31550000D01*
X28870395Y31550000D01*
X28084435Y32335960D01*
X27844344Y32268980D01*
X27798764Y32172047D01*
X27797454Y32181595D01*
X27692314Y32485911D01*
X27676464Y32515565D01*
X28264040Y32515565D01*
X29050000Y31729605D01*
X29835960Y32515565D01*
X30764040Y32515565D01*
X31550000Y31729605D01*
X32335960Y32515565D01*
X32268980Y32755656D01*
X32019952Y32872756D01*
X31752865Y32939023D01*
X31477983Y32951910D01*
X31205867Y32910922D01*
X30946977Y32817636D01*
X30831020Y32755656D01*
X30764040Y32515565D01*
X29835960Y32515565D01*
X29768980Y32755656D01*
X29519952Y32872756D01*
X29252865Y32939023D01*
X28977983Y32951910D01*
X28705867Y32910922D01*
X28446977Y32817636D01*
X28331020Y32755656D01*
X28264040Y32515565D01*
X27676464Y32515565D01*
X27599399Y32659742D01*
X27335050Y32755445D01*
X26379605Y31800000D01*
X26020395Y31800000D01*
X25064950Y32755445D01*
X24800601Y32659742D01*
X24659762Y32370213D01*
X24578115Y32058771D01*
X24558795Y31737385D01*
X20498141Y31737385D01*
X20494180Y31739502D01*
X20374482Y31775812D01*
X20250000Y31788072D01*
X18750000Y31788072D01*
X18625518Y31775812D01*
X18505820Y31739502D01*
X18395506Y31680537D01*
X18298815Y31601185D01*
X18219463Y31504494D01*
X18168954Y31410000D01*
X17687323Y31410000D01*
X17650000Y31413676D01*
X17612677Y31410000D01*
X17612667Y31410000D01*
X17501014Y31399003D01*
X17357753Y31355546D01*
X17225724Y31284974D01*
X17109999Y31190001D01*
X17086200Y31161002D01*
X16488998Y30563799D01*
X16460000Y30540001D01*
X16436202Y30511003D01*
X16436201Y30511002D01*
X16365026Y30424276D01*
X16294454Y30292246D01*
X16268501Y30206686D01*
X16253974Y30158795D01*
X16250998Y30148985D01*
X16236324Y30000000D01*
X16240001Y29962668D01*
X16240000Y26514802D01*
X15728998Y26003799D01*
X15700000Y25980001D01*
X15676202Y25951003D01*
X15676201Y25951002D01*
X15605026Y25864276D01*
X15572078Y25802635D01*
X15495820Y25779502D01*
X15385506Y25720537D01*
X15288815Y25641185D01*
X15240000Y25581704D01*
X15191185Y25641185D01*
X15094494Y25720537D01*
X15000000Y25771046D01*
X15000000Y28702393D01*
X15041927Y28730408D01*
X15269592Y28958073D01*
X15448467Y29225778D01*
X15571678Y29523237D01*
X15634490Y29839017D01*
X15634490Y30160983D01*
X15571678Y30476763D01*
X15448467Y30774222D01*
X15269592Y31041927D01*
X15041927Y31269592D01*
X14774222Y31448467D01*
X14476763Y31571678D01*
X14160983Y31634490D01*
X13839017Y31634490D01*
X13523237Y31571678D01*
X13225778Y31448467D01*
X12958073Y31269592D01*
X12730408Y31041927D01*
X12551533Y30774222D01*
X12428322Y30476763D01*
X12365510Y30160983D01*
X12365510Y29839017D01*
X12428322Y29523237D01*
X12551533Y29225778D01*
X12730408Y28958073D01*
X12958073Y28730408D01*
X13225778Y28551533D01*
X13480001Y28446231D01*
X13480000Y25771046D01*
X13385506Y25720537D01*
X13288815Y25641185D01*
X13240000Y25581704D01*
X13191185Y25641185D01*
X13094494Y25720537D01*
X13002733Y25769585D01*
X12989003Y25908986D01*
X12945546Y26052247D01*
X12874974Y26184276D01*
X12829243Y26240000D01*
X12780001Y26300001D01*
X12751003Y26323799D01*
X11260000Y27814801D01*
X11260000Y28545642D01*
X11274222Y28551533D01*
X11541927Y28730408D01*
X11769592Y28958073D01*
X11948467Y29225778D01*
X12071678Y29523237D01*
X12134490Y29839017D01*
X12134490Y30160983D01*
X12071678Y30476763D01*
X11948467Y30774222D01*
X11769592Y31041927D01*
X11541927Y31269592D01*
X11274222Y31448467D01*
X10976763Y31571678D01*
X10660983Y31634490D01*
X10339017Y31634490D01*
X10023237Y31571678D01*
X9725778Y31448467D01*
X9458073Y31269592D01*
X9230408Y31041927D01*
X9051533Y30774222D01*
X8928322Y30476763D01*
X8865510Y30160983D01*
X8865510Y29839017D01*
X8928322Y29523237D01*
X9051533Y29225778D01*
X9230408Y28958073D01*
X9458073Y28730408D01*
X9725778Y28551533D01*
X9740000Y28545642D01*
X9740000Y27537323D01*
X9736324Y27500000D01*
X9740000Y27462678D01*
X9740000Y27462668D01*
X9750997Y27351015D01*
X9794082Y27208981D01*
X9794454Y27207754D01*
X9865026Y27075724D01*
X9881439Y27055725D01*
X9959999Y26959999D01*
X9989003Y26936196D01*
X11286651Y25638548D01*
X11240000Y25581704D01*
X11191185Y25641185D01*
X11094494Y25720537D01*
X10984180Y25779502D01*
X10907923Y25802634D01*
X10874974Y25864277D01*
X10803799Y25951003D01*
X10780001Y25980001D01*
X10751003Y26003799D01*
X9243804Y27510997D01*
X9220001Y27540001D01*
X9104276Y27634974D01*
X8972247Y27705546D01*
X8828986Y27749003D01*
X8717333Y27760000D01*
X8717322Y27760000D01*
X8680000Y27763676D01*
X8642678Y27760000D01*
X6041588Y27760000D01*
X6161927Y27840408D01*
X6389592Y28068073D01*
X6568467Y28335778D01*
X6691678Y28633237D01*
X6754490Y28949017D01*
X6754490Y29270983D01*
X6691678Y29586763D01*
X6568467Y29884222D01*
X6389592Y30151927D01*
X6161927Y30379592D01*
X6146350Y30390000D01*
X6161927Y30400408D01*
X6389592Y30628073D01*
X6568467Y30895778D01*
X6691678Y31193237D01*
X6754490Y31509017D01*
X6754490Y31830983D01*
X6691678Y32146763D01*
X6568467Y32444222D01*
X6389592Y32711927D01*
X6161927Y32939592D01*
X6049071Y33015000D01*
X25273500Y33015000D01*
X25244555Y32935050D01*
X25244555Y32935050D01*
G37*
X25244555Y32935050D02*
X26200000Y31979605D01*
X27155445Y32935050D01*
X27126500Y33015000D01*
X43765001Y33015000D01*
X43765001Y32025843D01*
X43688005Y32211727D01*
X43627000Y32303027D01*
X43627000Y32500000D01*
X43624560Y32524776D01*
X43617333Y32548601D01*
X43605597Y32570557D01*
X43589803Y32589803D01*
X43570557Y32605597D01*
X43548601Y32617333D01*
X43524776Y32624560D01*
X43500000Y32627000D01*
X43348655Y32627000D01*
X43340535Y32635120D01*
X43111727Y32788005D01*
X42857490Y32893314D01*
X42587592Y32947000D01*
X42312408Y32947000D01*
X42042510Y32893314D01*
X41788273Y32788005D01*
X41559465Y32635120D01*
X41551345Y32627000D01*
X40848655Y32627000D01*
X40840535Y32635120D01*
X40611727Y32788005D01*
X40357490Y32893314D01*
X40087592Y32947000D01*
X39812408Y32947000D01*
X39542510Y32893314D01*
X39288273Y32788005D01*
X39059465Y32635120D01*
X39051345Y32627000D01*
X38000000Y32627000D01*
X37975224Y32624560D01*
X37951399Y32617333D01*
X37929443Y32605597D01*
X37910197Y32589803D01*
X37894403Y32570557D01*
X37882667Y32548601D01*
X37875440Y32524776D01*
X37873000Y32500000D01*
X37873000Y28131180D01*
X37801533Y28024222D01*
X37678322Y27726763D01*
X37615510Y27410983D01*
X37615510Y27089017D01*
X37664062Y26844930D01*
X34938574Y24119441D01*
X34906710Y24093291D01*
X34880562Y24061429D01*
X34802364Y23966145D01*
X34724828Y23821086D01*
X34677082Y23663688D01*
X34660960Y23500000D01*
X34665001Y23458971D01*
X34665000Y13595868D01*
X31154133Y10085000D01*
X29891018Y10085000D01*
X29850000Y10089040D01*
X29808982Y10085000D01*
X29808981Y10085000D01*
X29686311Y10072918D01*
X29528913Y10025172D01*
X29383854Y9947636D01*
X29256709Y9843291D01*
X29230563Y9811432D01*
X28549370Y9130238D01*
X28435052Y9244556D01*
X28699399Y9340258D01*
X28840238Y9629787D01*
X28921885Y9941229D01*
X28941205Y10262615D01*
X28897454Y10581595D01*
X28792314Y10885911D01*
X28699399Y11059742D01*
X28435050Y11155445D01*
X27479605Y10200000D01*
X27493748Y10185857D01*
X27314143Y10006252D01*
X27300000Y10020395D01*
X26344555Y9064950D01*
X26440258Y8800601D01*
X26729787Y8659762D01*
X27041229Y8578115D01*
X27362615Y8558795D01*
X27681595Y8602546D01*
X27985911Y8707686D01*
X28159742Y8800601D01*
X28255444Y9064948D01*
X28369762Y8950630D01*
X24500001Y5080868D01*
X23075000Y6505867D01*
X23075000Y6949043D01*
X23094494Y6959463D01*
X23191185Y7038815D01*
X23270537Y7135506D01*
X23286302Y7165000D01*
X23636715Y7165000D01*
X23759744Y7082795D01*
X23948102Y7004774D01*
X24148061Y6965000D01*
X24351939Y6965000D01*
X24551898Y7004774D01*
X24740256Y7082795D01*
X24909774Y7196063D01*
X25053937Y7340226D01*
X25167205Y7509744D01*
X25245226Y7698102D01*
X25285000Y7898061D01*
X25285000Y8101939D01*
X25245226Y8301898D01*
X25167205Y8490256D01*
X25053937Y8659774D01*
X24909774Y8803937D01*
X24740256Y8917205D01*
X24551898Y8995226D01*
X24351939Y9035000D01*
X24148061Y9035000D01*
X23948102Y8995226D01*
X23759744Y8917205D01*
X23636715Y8835000D01*
X23378072Y8835000D01*
X23378072Y9990000D01*
X23365812Y10114482D01*
X23358865Y10137385D01*
X25658795Y10137385D01*
X25702546Y9818405D01*
X25807686Y9514089D01*
X25900601Y9340258D01*
X26164950Y9244555D01*
X27120395Y10200000D01*
X26164950Y11155445D01*
X25900601Y11059742D01*
X25759762Y10770213D01*
X25678115Y10458771D01*
X25658795Y10137385D01*
X23358865Y10137385D01*
X23339286Y10201928D01*
X24640000Y10201928D01*
X24764482Y10214188D01*
X24884180Y10250498D01*
X24994494Y10309463D01*
X25091185Y10388815D01*
X25170537Y10485506D01*
X25229502Y10595820D01*
X25265812Y10715518D01*
X25278072Y10840000D01*
X25278072Y11335050D01*
X26344555Y11335050D01*
X27300000Y10379605D01*
X28255445Y11335050D01*
X28159742Y11599399D01*
X27870213Y11740238D01*
X27558771Y11821885D01*
X27237385Y11841205D01*
X26918405Y11797454D01*
X26614089Y11692314D01*
X26440258Y11599399D01*
X26344555Y11335050D01*
X25278072Y11335050D01*
X25278072Y11840000D01*
X25265812Y11964482D01*
X25229502Y12084180D01*
X25229366Y12084435D01*
X28264040Y12084435D01*
X28331020Y11844344D01*
X28580048Y11727244D01*
X28847135Y11660977D01*
X29122017Y11648090D01*
X29394133Y11689078D01*
X29653023Y11782364D01*
X29768980Y11844344D01*
X29835960Y12084435D01*
X30764040Y12084435D01*
X30831020Y11844344D01*
X31080048Y11727244D01*
X31347135Y11660977D01*
X31622017Y11648090D01*
X31894133Y11689078D01*
X32153023Y11782364D01*
X32268980Y11844344D01*
X32335960Y12084435D01*
X31550000Y12870395D01*
X30764040Y12084435D01*
X29835960Y12084435D01*
X29050000Y12870395D01*
X28264040Y12084435D01*
X25229366Y12084435D01*
X25170537Y12194494D01*
X25091185Y12291185D01*
X25031704Y12340000D01*
X25091185Y12388815D01*
X25170537Y12485506D01*
X25229502Y12595820D01*
X25265812Y12715518D01*
X25278072Y12840000D01*
X25278072Y12977983D01*
X27648090Y12977983D01*
X27689078Y12705867D01*
X27782364Y12446977D01*
X27844344Y12331020D01*
X28084435Y12264040D01*
X28870395Y13050000D01*
X29229605Y13050000D01*
X30015565Y12264040D01*
X30255656Y12331020D01*
X30297163Y12419290D01*
X30344344Y12331020D01*
X30584435Y12264040D01*
X31370395Y13050000D01*
X31729605Y13050000D01*
X32515565Y12264040D01*
X32755656Y12331020D01*
X32872756Y12580048D01*
X32939023Y12847135D01*
X32951910Y13122017D01*
X32910922Y13394133D01*
X32817636Y13653023D01*
X32755656Y13768980D01*
X32515565Y13835960D01*
X31729605Y13050000D01*
X31370395Y13050000D01*
X30584435Y13835960D01*
X30344344Y13768980D01*
X30302837Y13680710D01*
X30255656Y13768980D01*
X30015565Y13835960D01*
X29229605Y13050000D01*
X28870395Y13050000D01*
X28084435Y13835960D01*
X27844344Y13768980D01*
X27727244Y13519952D01*
X27660977Y13252865D01*
X27648090Y12977983D01*
X25278072Y12977983D01*
X25278072Y13840000D01*
X25265812Y13964482D01*
X25250317Y14015565D01*
X28264040Y14015565D01*
X29050000Y13229605D01*
X29835960Y14015565D01*
X30764040Y14015565D01*
X31550000Y13229605D01*
X32335960Y14015565D01*
X32268980Y14255656D01*
X32019952Y14372756D01*
X31752865Y14439023D01*
X31477983Y14451910D01*
X31205867Y14410922D01*
X30946977Y14317636D01*
X30831020Y14255656D01*
X30764040Y14015565D01*
X29835960Y14015565D01*
X29768980Y14255656D01*
X29519952Y14372756D01*
X29252865Y14439023D01*
X28977983Y14451910D01*
X28705867Y14410922D01*
X28446977Y14317636D01*
X28331020Y14255656D01*
X28264040Y14015565D01*
X25250317Y14015565D01*
X25229502Y14084180D01*
X25170537Y14194494D01*
X25091185Y14291185D01*
X25031704Y14340000D01*
X25091185Y14388815D01*
X25170537Y14485506D01*
X25229502Y14595820D01*
X25265812Y14715518D01*
X25278072Y14840000D01*
X25278072Y15840000D01*
X25265812Y15964482D01*
X25229502Y16084180D01*
X25170537Y16194494D01*
X25091185Y16291185D01*
X25031704Y16340000D01*
X25091185Y16388815D01*
X25170537Y16485506D01*
X25229502Y16595820D01*
X25265812Y16715518D01*
X25278072Y16840000D01*
X25278072Y17840000D01*
X25265812Y17964482D01*
X25229502Y18084180D01*
X25170537Y18194494D01*
X25091185Y18291185D01*
X25031704Y18340000D01*
X25091185Y18388815D01*
X25170537Y18485506D01*
X25229502Y18595820D01*
X25265812Y18715518D01*
X25278072Y18840000D01*
X25278072Y19840000D01*
X25265812Y19964482D01*
X25229502Y20084180D01*
X25170537Y20194494D01*
X25091185Y20291185D01*
X25031704Y20340000D01*
X25091185Y20388815D01*
X25170537Y20485506D01*
X25229502Y20595820D01*
X25265812Y20715518D01*
X25278072Y20840000D01*
X25278072Y21840000D01*
X25265812Y21964482D01*
X25229502Y22084180D01*
X25170537Y22194494D01*
X25091185Y22291185D01*
X24994494Y22370537D01*
X24884180Y22429502D01*
X24764482Y22465812D01*
X24640000Y22478072D01*
X23339286Y22478072D01*
X23365812Y22565518D01*
X23378072Y22690000D01*
X23375000Y23654250D01*
X23216250Y23813000D01*
X22367000Y23813000D01*
X22367000Y22264603D01*
X22309463Y22194494D01*
X22250498Y22084180D01*
X22214188Y21964482D01*
X22201928Y21840000D01*
X22201928Y20840000D01*
X22214188Y20715518D01*
X22250498Y20595820D01*
X22309463Y20485506D01*
X22388815Y20388815D01*
X22448296Y20340000D01*
X22388815Y20291185D01*
X22309463Y20194494D01*
X22250498Y20084180D01*
X22214188Y19964482D01*
X22201928Y19840000D01*
X22201928Y18840000D01*
X22214188Y18715518D01*
X22250498Y18595820D01*
X22309463Y18485506D01*
X22388815Y18388815D01*
X22448296Y18340000D01*
X22388815Y18291185D01*
X22309463Y18194494D01*
X22250498Y18084180D01*
X22214188Y17964482D01*
X22201928Y17840000D01*
X22201928Y16840000D01*
X22214188Y16715518D01*
X22250498Y16595820D01*
X22309463Y16485506D01*
X22388815Y16388815D01*
X22448296Y16340000D01*
X22388815Y16291185D01*
X22309463Y16194494D01*
X22250498Y16084180D01*
X22214188Y15964482D01*
X22201928Y15840000D01*
X22201928Y14840000D01*
X22214188Y14715518D01*
X22250498Y14595820D01*
X22309463Y14485506D01*
X22388815Y14388815D01*
X22448296Y14340000D01*
X22388815Y14291185D01*
X22309463Y14194494D01*
X22250498Y14084180D01*
X22214188Y13964482D01*
X22201928Y13840000D01*
X22201928Y12840000D01*
X22214188Y12715518D01*
X22250498Y12595820D01*
X22309463Y12485506D01*
X22388815Y12388815D01*
X22448296Y12340000D01*
X22388815Y12291185D01*
X22309463Y12194494D01*
X22250498Y12084180D01*
X22214188Y11964482D01*
X22201928Y11840000D01*
X22201928Y10840000D01*
X22214188Y10715518D01*
X22240714Y10628072D01*
X21740000Y10628072D01*
X21615518Y10615812D01*
X21495820Y10579502D01*
X21385506Y10520537D01*
X21288815Y10441185D01*
X21240000Y10381704D01*
X21191185Y10441185D01*
X21146112Y10478176D01*
X21167205Y10509744D01*
X21245226Y10698102D01*
X21285000Y10898061D01*
X21285000Y11101939D01*
X21245226Y11301898D01*
X21167205Y11490256D01*
X21053937Y11659774D01*
X20909774Y11803937D01*
X20740256Y11917205D01*
X20551898Y11995226D01*
X20351939Y12035000D01*
X20148061Y12035000D01*
X19948102Y11995226D01*
X19759744Y11917205D01*
X19590226Y11803937D01*
X19446063Y11659774D01*
X19332795Y11490256D01*
X19300770Y11412941D01*
X19159774Y11553937D01*
X18990256Y11667205D01*
X18801898Y11745226D01*
X18601939Y11785000D01*
X18398061Y11785000D01*
X18198102Y11745226D01*
X18009744Y11667205D01*
X17840226Y11553937D01*
X17696063Y11409774D01*
X17582795Y11240256D01*
X17504774Y11051898D01*
X17465000Y10851939D01*
X17465000Y10648061D01*
X17480288Y10571200D01*
X17385506Y10520537D01*
X17288815Y10441185D01*
X17240000Y10381704D01*
X17191185Y10441185D01*
X17146112Y10478176D01*
X17167205Y10509744D01*
X17245226Y10698102D01*
X17285000Y10898061D01*
X17285000Y11101939D01*
X17245226Y11301898D01*
X17167205Y11490256D01*
X17053937Y11659774D01*
X16909774Y11803937D01*
X16740256Y11917205D01*
X16551898Y11995226D01*
X16351939Y12035000D01*
X16148061Y12035000D01*
X15948102Y11995226D01*
X15759744Y11917205D01*
X15590226Y11803937D01*
X15446063Y11659774D01*
X15332795Y11490256D01*
X15254774Y11301898D01*
X15215000Y11101939D01*
X15215000Y10898061D01*
X15254774Y10698102D01*
X15332795Y10509744D01*
X15346805Y10488776D01*
X15288815Y10441185D01*
X15240000Y10381704D01*
X15191185Y10441185D01*
X15094494Y10520537D01*
X15000000Y10571046D01*
X15000000Y10722675D01*
X15003676Y10760000D01*
X15000000Y10797325D01*
X15000000Y10797333D01*
X14989003Y10908986D01*
X14945546Y11052247D01*
X14874974Y11184276D01*
X14785000Y11293910D01*
X14785000Y11351939D01*
X14745226Y11551898D01*
X14667205Y11740256D01*
X14553937Y11909774D01*
X14409774Y12053937D01*
X14240256Y12167205D01*
X14051898Y12245226D01*
X13851939Y12285000D01*
X13648061Y12285000D01*
X13448102Y12245226D01*
X13259744Y12167205D01*
X13090226Y12053937D01*
X13000000Y11963711D01*
X12909774Y12053937D01*
X12740256Y12167205D01*
X12551898Y12245226D01*
X12351939Y12285000D01*
X12148061Y12285000D01*
X11948102Y12245226D01*
X11759744Y12167205D01*
X11590226Y12053937D01*
X11446063Y11909774D01*
X11332795Y11740256D01*
X11254774Y11551898D01*
X11215000Y11351939D01*
X11215000Y11148061D01*
X11254774Y10948102D01*
X11332795Y10759744D01*
X11446063Y10590226D01*
X11470383Y10565906D01*
X11385506Y10520537D01*
X11288815Y10441185D01*
X11240000Y10381704D01*
X11191185Y10441185D01*
X11094494Y10520537D01*
X10984180Y10579502D01*
X10864482Y10615812D01*
X10740000Y10628072D01*
X9740000Y10628072D01*
X9615518Y10615812D01*
X9495820Y10579502D01*
X9385506Y10520537D01*
X9288815Y10441185D01*
X9240000Y10381704D01*
X9191185Y10441185D01*
X9094494Y10520537D01*
X9000000Y10571046D01*
X9000000Y10722103D01*
X9035000Y10898061D01*
X9035000Y11101939D01*
X8995226Y11301898D01*
X8917205Y11490256D01*
X8803937Y11659774D01*
X8659774Y11803937D01*
X8490256Y11917205D01*
X8301898Y11995226D01*
X8101939Y12035000D01*
X7898061Y12035000D01*
X7698102Y11995226D01*
X7509744Y11917205D01*
X7377000Y11828509D01*
X7377000Y22166444D01*
X7385506Y22159463D01*
X7495820Y22100498D01*
X7615518Y22064188D01*
X7740000Y22051928D01*
X8740000Y22051928D01*
X8864482Y22064188D01*
X8984180Y22100498D01*
X9094494Y22159463D01*
X9191185Y22238815D01*
X9240000Y22298296D01*
X9288815Y22238815D01*
X9385506Y22159463D01*
X9495820Y22100498D01*
X9615518Y22064188D01*
X9740000Y22051928D01*
X10740000Y22051928D01*
X10864482Y22064188D01*
X10984180Y22100498D01*
X11094494Y22159463D01*
X11191185Y22238815D01*
X11240000Y22298296D01*
X11288815Y22238815D01*
X11321192Y22212244D01*
X11254774Y22051898D01*
X11215000Y21851939D01*
X11215000Y21648061D01*
X11254774Y21448102D01*
X11332795Y21259744D01*
X11446063Y21090226D01*
X11590226Y20946063D01*
X11759744Y20832795D01*
X11948102Y20754774D01*
X12148061Y20715000D01*
X12351939Y20715000D01*
X12551898Y20754774D01*
X12740256Y20832795D01*
X12909774Y20946063D01*
X13053937Y21090226D01*
X13167205Y21259744D01*
X13245226Y21448102D01*
X13250000Y21472103D01*
X13254774Y21448102D01*
X13332795Y21259744D01*
X13446063Y21090226D01*
X13590226Y20946063D01*
X13759744Y20832795D01*
X13948102Y20754774D01*
X14148061Y20715000D01*
X14351939Y20715000D01*
X14551898Y20754774D01*
X14740256Y20832795D01*
X14909774Y20946063D01*
X15053937Y21090226D01*
X15167205Y21259744D01*
X15245226Y21448102D01*
X15285000Y21648061D01*
X15285000Y21851939D01*
X15245226Y22051898D01*
X15173734Y22224493D01*
X15191185Y22238815D01*
X15240000Y22298296D01*
X15288815Y22238815D01*
X15385506Y22159463D01*
X15495820Y22100498D01*
X15615518Y22064188D01*
X15740000Y22051928D01*
X16740000Y22051928D01*
X16864482Y22064188D01*
X16984180Y22100498D01*
X17094494Y22159463D01*
X17191185Y22238815D01*
X17240000Y22298296D01*
X17288815Y22238815D01*
X17385506Y22159463D01*
X17495820Y22100498D01*
X17615518Y22064188D01*
X17623332Y22063418D01*
X17632787Y22051898D01*
X17700000Y21969999D01*
X17715000Y21957689D01*
X17715000Y21898061D01*
X17754774Y21698102D01*
X17832795Y21509744D01*
X17946063Y21340226D01*
X18090226Y21196063D01*
X18259744Y21082795D01*
X18448102Y21004774D01*
X18648061Y20965000D01*
X18851939Y20965000D01*
X19051898Y21004774D01*
X19080027Y21016426D01*
X19082795Y21009744D01*
X19196063Y20840226D01*
X19340226Y20696063D01*
X19509744Y20582795D01*
X19698102Y20504774D01*
X19898061Y20465000D01*
X20101939Y20465000D01*
X20301898Y20504774D01*
X20490256Y20582795D01*
X20659774Y20696063D01*
X20803937Y20840226D01*
X20917205Y21009744D01*
X20995226Y21198102D01*
X21035000Y21398061D01*
X21035000Y21601939D01*
X20995226Y21801898D01*
X20917205Y21990256D01*
X20867245Y22065026D01*
X20984180Y22100498D01*
X21094494Y22159463D01*
X21191185Y22238815D01*
X21240000Y22298296D01*
X21288815Y22238815D01*
X21385506Y22159463D01*
X21495820Y22100498D01*
X21615518Y22064188D01*
X21740000Y22051928D01*
X21954250Y22055000D01*
X22113000Y22213750D01*
X22113000Y23813000D01*
X22093000Y23813000D01*
X22093000Y24067000D01*
X22113000Y24067000D01*
X22113000Y25666250D01*
X22367000Y25666250D01*
X22367000Y24067000D01*
X23216250Y24067000D01*
X23375000Y24225750D01*
X23378072Y25190000D01*
X23365812Y25314482D01*
X23329502Y25434180D01*
X23270537Y25544494D01*
X23191185Y25641185D01*
X23094494Y25720537D01*
X22984180Y25779502D01*
X22864482Y25815812D01*
X22740000Y25828072D01*
X22525750Y25825000D01*
X22367000Y25666250D01*
X22113000Y25666250D01*
X21954250Y25825000D01*
X21740000Y25828072D01*
X21615518Y25815812D01*
X21495820Y25779502D01*
X21385506Y25720537D01*
X21288815Y25641185D01*
X21240000Y25581704D01*
X21191185Y25641185D01*
X21094494Y25720537D01*
X20984180Y25779502D01*
X20864482Y25815812D01*
X20740000Y25828072D01*
X19740000Y25828072D01*
X19615518Y25815812D01*
X19495820Y25779502D01*
X19385506Y25720537D01*
X19288815Y25641185D01*
X19240000Y25581704D01*
X19191185Y25641185D01*
X19094494Y25720537D01*
X18984180Y25779502D01*
X18864482Y25815812D01*
X18740000Y25828072D01*
X17740000Y25828072D01*
X17658674Y25820062D01*
X17705546Y25907753D01*
X17749003Y26051014D01*
X17755300Y26114950D01*
X28294555Y26114950D01*
X28390258Y25850601D01*
X28679787Y25709762D01*
X28991229Y25628115D01*
X29312615Y25608795D01*
X29631595Y25652546D01*
X29935911Y25757686D01*
X30109742Y25850601D01*
X30205445Y26114950D01*
X31294555Y26114950D01*
X31390258Y25850601D01*
X31679787Y25709762D01*
X31991229Y25628115D01*
X32312615Y25608795D01*
X32631595Y25652546D01*
X32935911Y25757686D01*
X33109742Y25850601D01*
X33205445Y26114950D01*
X32250000Y27070395D01*
X31294555Y26114950D01*
X30205445Y26114950D01*
X29250000Y27070395D01*
X28294555Y26114950D01*
X17755300Y26114950D01*
X17760000Y26162667D01*
X17760000Y26162676D01*
X17763676Y26199999D01*
X17760000Y26237322D01*
X17760000Y27187385D01*
X27608795Y27187385D01*
X27652546Y26868405D01*
X27757686Y26564089D01*
X27850601Y26390258D01*
X28114950Y26294555D01*
X29070395Y27250000D01*
X29429605Y27250000D01*
X30385050Y26294555D01*
X30649399Y26390258D01*
X30747832Y26592611D01*
X30757686Y26564089D01*
X30850601Y26390258D01*
X31114950Y26294555D01*
X32070395Y27250000D01*
X32429605Y27250000D01*
X33385050Y26294555D01*
X33649399Y26390258D01*
X33790238Y26679787D01*
X33871885Y26991229D01*
X33891205Y27312615D01*
X33847454Y27631595D01*
X33742314Y27935911D01*
X33649399Y28109742D01*
X33385050Y28205445D01*
X32429605Y27250000D01*
X32070395Y27250000D01*
X31114950Y28205445D01*
X30850601Y28109742D01*
X30752168Y27907389D01*
X30742314Y27935911D01*
X30649399Y28109742D01*
X30385050Y28205445D01*
X29429605Y27250000D01*
X29070395Y27250000D01*
X28114950Y28205445D01*
X27850601Y28109742D01*
X27709762Y27820213D01*
X27628115Y27508771D01*
X27608795Y27187385D01*
X17760000Y27187385D01*
X17760000Y27964950D01*
X25344555Y27964950D01*
X25440258Y27700601D01*
X25729787Y27559762D01*
X26041229Y27478115D01*
X26362615Y27458795D01*
X26681595Y27502546D01*
X26985911Y27607686D01*
X27159742Y27700601D01*
X27255445Y27964950D01*
X26300000Y28920395D01*
X25344555Y27964950D01*
X17760000Y27964950D01*
X17760000Y28850000D01*
X18111928Y28850000D01*
X18124188Y28725518D01*
X18160498Y28605820D01*
X18219463Y28495506D01*
X18298815Y28398815D01*
X18395506Y28319463D01*
X18505820Y28260498D01*
X18625518Y28224188D01*
X18750000Y28211928D01*
X19214250Y28215000D01*
X19373000Y28373750D01*
X19373000Y29223000D01*
X19627000Y29223000D01*
X19627000Y28373750D01*
X19785750Y28215000D01*
X20250000Y28211928D01*
X20374482Y28224188D01*
X20494180Y28260498D01*
X20604494Y28319463D01*
X20701185Y28398815D01*
X20780537Y28495506D01*
X20839502Y28605820D01*
X20875812Y28725518D01*
X20888072Y28850000D01*
X20885000Y29064250D01*
X20726250Y29223000D01*
X19627000Y29223000D01*
X19373000Y29223000D01*
X18273750Y29223000D01*
X18115000Y29064250D01*
X18111928Y28850000D01*
X17760000Y28850000D01*
X17760000Y29685199D01*
X17964802Y29890000D01*
X18115868Y29890000D01*
X18111928Y29850000D01*
X18115000Y29635750D01*
X18273750Y29477000D01*
X19373000Y29477000D01*
X19373000Y29497000D01*
X19627000Y29497000D01*
X19627000Y29477000D01*
X20726250Y29477000D01*
X20885000Y29635750D01*
X20888072Y29850000D01*
X20884132Y29890000D01*
X21265510Y29890000D01*
X21265510Y29839017D01*
X21328322Y29523237D01*
X21451533Y29225778D01*
X21630408Y28958073D01*
X21858073Y28730408D01*
X22125778Y28551533D01*
X22423237Y28428322D01*
X22739017Y28365510D01*
X23060983Y28365510D01*
X23376763Y28428322D01*
X23674222Y28551533D01*
X23941927Y28730408D01*
X24169592Y28958073D01*
X24222586Y29037385D01*
X24658795Y29037385D01*
X24702546Y28718405D01*
X24807686Y28414089D01*
X24900601Y28240258D01*
X25164950Y28144555D01*
X26120395Y29100000D01*
X26479605Y29100000D01*
X27435050Y28144555D01*
X27699399Y28240258D01*
X27769831Y28385050D01*
X28294555Y28385050D01*
X29250000Y27429605D01*
X30205445Y28385050D01*
X31294555Y28385050D01*
X32250000Y27429605D01*
X33205445Y28385050D01*
X33109742Y28649399D01*
X32820213Y28790238D01*
X32508771Y28871885D01*
X32187385Y28891205D01*
X31868405Y28847454D01*
X31564089Y28742314D01*
X31390258Y28649399D01*
X31294555Y28385050D01*
X30205445Y28385050D01*
X30109742Y28649399D01*
X29820213Y28790238D01*
X29508771Y28871885D01*
X29187385Y28891205D01*
X28868405Y28847454D01*
X28564089Y28742314D01*
X28390258Y28649399D01*
X28294555Y28385050D01*
X27769831Y28385050D01*
X27840238Y28529787D01*
X27921885Y28841229D01*
X27941205Y29162615D01*
X27897454Y29481595D01*
X27792314Y29785911D01*
X27699399Y29959742D01*
X27435050Y30055445D01*
X26479605Y29100000D01*
X26120395Y29100000D01*
X25164950Y30055445D01*
X24900601Y29959742D01*
X24759762Y29670213D01*
X24678115Y29358771D01*
X24658795Y29037385D01*
X24222586Y29037385D01*
X24348467Y29225778D01*
X24471678Y29523237D01*
X24534490Y29839017D01*
X24534490Y30160983D01*
X24471678Y30476763D01*
X24393729Y30664950D01*
X25244555Y30664950D01*
X25340258Y30400601D01*
X25394872Y30374034D01*
X25344555Y30235050D01*
X26300000Y29279605D01*
X27255445Y30235050D01*
X27159742Y30499399D01*
X27105128Y30525966D01*
X27126295Y30584435D01*
X28264040Y30584435D01*
X28331020Y30344344D01*
X28580048Y30227244D01*
X28847135Y30160977D01*
X29122017Y30148090D01*
X29394133Y30189078D01*
X29653023Y30282364D01*
X29768980Y30344344D01*
X29835960Y30584435D01*
X30764040Y30584435D01*
X30831020Y30344344D01*
X31080048Y30227244D01*
X31347135Y30160977D01*
X31622017Y30148090D01*
X31894133Y30189078D01*
X32153023Y30282364D01*
X32268980Y30344344D01*
X32335960Y30584435D01*
X31550000Y31370395D01*
X30764040Y30584435D01*
X29835960Y30584435D01*
X29050000Y31370395D01*
X28264040Y30584435D01*
X27126295Y30584435D01*
X27155445Y30664950D01*
X26200000Y31620395D01*
X25244555Y30664950D01*
X24393729Y30664950D01*
X24348467Y30774222D01*
X24169592Y31041927D01*
X23941927Y31269592D01*
X23674222Y31448467D01*
X23376763Y31571678D01*
X23060983Y31634490D01*
X22739017Y31634490D01*
X22423237Y31571678D01*
X22125778Y31448467D01*
X22068208Y31410000D01*
X20831046Y31410000D01*
X20780537Y31504494D01*
X20701185Y31601185D01*
X20604494Y31680537D01*
X20498141Y31737385D01*
X24558795Y31737385D01*
X24602546Y31418405D01*
X24707686Y31114089D01*
X24800601Y30940258D01*
X25064950Y30844555D01*
X26020395Y31800000D01*
X26379605Y31800000D01*
X27335050Y30844555D01*
X27599399Y30940258D01*
X27705897Y31159191D01*
X27782364Y30946977D01*
X27844344Y30831020D01*
X28084435Y30764040D01*
X28870395Y31550000D01*
X29229605Y31550000D01*
X30015565Y30764040D01*
X30255656Y30831020D01*
X30297163Y30919290D01*
X30344344Y30831020D01*
X30584435Y30764040D01*
X31370395Y31550000D01*
X31729605Y31550000D01*
X32515565Y30764040D01*
X32755656Y30831020D01*
X32872756Y31080048D01*
X32939023Y31347135D01*
X32951910Y31622017D01*
X32910922Y31894133D01*
X32817636Y32153023D01*
X32755656Y32268980D01*
X32515565Y32335960D01*
X31729605Y31550000D01*
X31370395Y31550000D01*
X30584435Y32335960D01*
X30344344Y32268980D01*
X30302837Y32180710D01*
X30255656Y32268980D01*
X30015565Y32335960D01*
X29229605Y31550000D01*
X28870395Y31550000D01*
X28084435Y32335960D01*
X27844344Y32268980D01*
X27798764Y32172047D01*
X27797454Y32181595D01*
X27692314Y32485911D01*
X27676464Y32515565D01*
X28264040Y32515565D01*
X29050000Y31729605D01*
X29835960Y32515565D01*
X30764040Y32515565D01*
X31550000Y31729605D01*
X32335960Y32515565D01*
X32268980Y32755656D01*
X32019952Y32872756D01*
X31752865Y32939023D01*
X31477983Y32951910D01*
X31205867Y32910922D01*
X30946977Y32817636D01*
X30831020Y32755656D01*
X30764040Y32515565D01*
X29835960Y32515565D01*
X29768980Y32755656D01*
X29519952Y32872756D01*
X29252865Y32939023D01*
X28977983Y32951910D01*
X28705867Y32910922D01*
X28446977Y32817636D01*
X28331020Y32755656D01*
X28264040Y32515565D01*
X27676464Y32515565D01*
X27599399Y32659742D01*
X27335050Y32755445D01*
X26379605Y31800000D01*
X26020395Y31800000D01*
X25064950Y32755445D01*
X24800601Y32659742D01*
X24659762Y32370213D01*
X24578115Y32058771D01*
X24558795Y31737385D01*
X20498141Y31737385D01*
X20494180Y31739502D01*
X20374482Y31775812D01*
X20250000Y31788072D01*
X18750000Y31788072D01*
X18625518Y31775812D01*
X18505820Y31739502D01*
X18395506Y31680537D01*
X18298815Y31601185D01*
X18219463Y31504494D01*
X18168954Y31410000D01*
X17687323Y31410000D01*
X17650000Y31413676D01*
X17612677Y31410000D01*
X17612667Y31410000D01*
X17501014Y31399003D01*
X17357753Y31355546D01*
X17225724Y31284974D01*
X17109999Y31190001D01*
X17086200Y31161002D01*
X16488998Y30563799D01*
X16460000Y30540001D01*
X16436202Y30511003D01*
X16436201Y30511002D01*
X16365026Y30424276D01*
X16294454Y30292246D01*
X16268501Y30206686D01*
X16253974Y30158795D01*
X16250998Y30148985D01*
X16236324Y30000000D01*
X16240001Y29962668D01*
X16240000Y26514802D01*
X15728998Y26003799D01*
X15700000Y25980001D01*
X15676202Y25951003D01*
X15676201Y25951002D01*
X15605026Y25864276D01*
X15572078Y25802635D01*
X15495820Y25779502D01*
X15385506Y25720537D01*
X15288815Y25641185D01*
X15240000Y25581704D01*
X15191185Y25641185D01*
X15094494Y25720537D01*
X15000000Y25771046D01*
X15000000Y28702393D01*
X15041927Y28730408D01*
X15269592Y28958073D01*
X15448467Y29225778D01*
X15571678Y29523237D01*
X15634490Y29839017D01*
X15634490Y30160983D01*
X15571678Y30476763D01*
X15448467Y30774222D01*
X15269592Y31041927D01*
X15041927Y31269592D01*
X14774222Y31448467D01*
X14476763Y31571678D01*
X14160983Y31634490D01*
X13839017Y31634490D01*
X13523237Y31571678D01*
X13225778Y31448467D01*
X12958073Y31269592D01*
X12730408Y31041927D01*
X12551533Y30774222D01*
X12428322Y30476763D01*
X12365510Y30160983D01*
X12365510Y29839017D01*
X12428322Y29523237D01*
X12551533Y29225778D01*
X12730408Y28958073D01*
X12958073Y28730408D01*
X13225778Y28551533D01*
X13480001Y28446231D01*
X13480000Y25771046D01*
X13385506Y25720537D01*
X13288815Y25641185D01*
X13240000Y25581704D01*
X13191185Y25641185D01*
X13094494Y25720537D01*
X13002733Y25769585D01*
X12989003Y25908986D01*
X12945546Y26052247D01*
X12874974Y26184276D01*
X12829243Y26240000D01*
X12780001Y26300001D01*
X12751003Y26323799D01*
X11260000Y27814801D01*
X11260000Y28545642D01*
X11274222Y28551533D01*
X11541927Y28730408D01*
X11769592Y28958073D01*
X11948467Y29225778D01*
X12071678Y29523237D01*
X12134490Y29839017D01*
X12134490Y30160983D01*
X12071678Y30476763D01*
X11948467Y30774222D01*
X11769592Y31041927D01*
X11541927Y31269592D01*
X11274222Y31448467D01*
X10976763Y31571678D01*
X10660983Y31634490D01*
X10339017Y31634490D01*
X10023237Y31571678D01*
X9725778Y31448467D01*
X9458073Y31269592D01*
X9230408Y31041927D01*
X9051533Y30774222D01*
X8928322Y30476763D01*
X8865510Y30160983D01*
X8865510Y29839017D01*
X8928322Y29523237D01*
X9051533Y29225778D01*
X9230408Y28958073D01*
X9458073Y28730408D01*
X9725778Y28551533D01*
X9740000Y28545642D01*
X9740000Y27537323D01*
X9736324Y27500000D01*
X9740000Y27462678D01*
X9740000Y27462668D01*
X9750997Y27351015D01*
X9794082Y27208981D01*
X9794454Y27207754D01*
X9865026Y27075724D01*
X9881439Y27055725D01*
X9959999Y26959999D01*
X9989003Y26936196D01*
X11286651Y25638548D01*
X11240000Y25581704D01*
X11191185Y25641185D01*
X11094494Y25720537D01*
X10984180Y25779502D01*
X10907923Y25802634D01*
X10874974Y25864277D01*
X10803799Y25951003D01*
X10780001Y25980001D01*
X10751003Y26003799D01*
X9243804Y27510997D01*
X9220001Y27540001D01*
X9104276Y27634974D01*
X8972247Y27705546D01*
X8828986Y27749003D01*
X8717333Y27760000D01*
X8717322Y27760000D01*
X8680000Y27763676D01*
X8642678Y27760000D01*
X6041588Y27760000D01*
X6161927Y27840408D01*
X6389592Y28068073D01*
X6568467Y28335778D01*
X6691678Y28633237D01*
X6754490Y28949017D01*
X6754490Y29270983D01*
X6691678Y29586763D01*
X6568467Y29884222D01*
X6389592Y30151927D01*
X6161927Y30379592D01*
X6146350Y30390000D01*
X6161927Y30400408D01*
X6389592Y30628073D01*
X6568467Y30895778D01*
X6691678Y31193237D01*
X6754490Y31509017D01*
X6754490Y31830983D01*
X6691678Y32146763D01*
X6568467Y32444222D01*
X6389592Y32711927D01*
X6161927Y32939592D01*
X6049071Y33015000D01*
X25273500Y33015000D01*
X25244555Y32935050D01*
G36*
X1644555Y32815050D02*
G01*
X2600000Y31859605D01*
X3555445Y32815050D01*
X3483057Y33015000D01*
X4190929Y33015000D01*
X4078073Y32939592D01*
X3850408Y32711927D01*
X3786789Y32616714D01*
X3735050Y32635445D01*
X2779605Y31680000D01*
X3735050Y30724555D01*
X3776028Y30739390D01*
X3850408Y30628073D01*
X4078073Y30400408D01*
X4093650Y30390000D01*
X4078073Y30379592D01*
X3865000Y30166519D01*
X3641927Y30389592D01*
X3527001Y30466383D01*
X3555445Y30544950D01*
X2600000Y31500395D01*
X1644555Y30544950D01*
X1672999Y30466383D01*
X1558073Y30389592D01*
X1330408Y30161927D01*
X1151533Y29894222D01*
X1028322Y29596763D01*
X965510Y29280983D01*
X965510Y28959017D01*
X1028322Y28643237D01*
X1151533Y28345778D01*
X1330408Y28078073D01*
X1558073Y27850408D01*
X1825778Y27671533D01*
X1840000Y27665642D01*
X1840000Y26437323D01*
X1836324Y26400000D01*
X1840000Y26362678D01*
X1840000Y26362668D01*
X1850997Y26251015D01*
X1881947Y26148986D01*
X1894454Y26107754D01*
X1965026Y25975724D01*
X1985315Y25951002D01*
X2059999Y25859999D01*
X2089002Y25836197D01*
X2436200Y25488998D01*
X2459999Y25459999D01*
X2575724Y25365026D01*
X2707753Y25294454D01*
X2851014Y25250997D01*
X2962667Y25240000D01*
X2962676Y25240000D01*
X2999999Y25236324D01*
X3037322Y25240000D01*
X7106852Y25240000D01*
X7101928Y25190000D01*
X7101928Y24377000D01*
X735000Y24377000D01*
X735000Y31617385D01*
X958795Y31617385D01*
X1002546Y31298405D01*
X1107686Y30994089D01*
X1200601Y30820258D01*
X1464950Y30724555D01*
X2420395Y31680000D01*
X1464950Y32635445D01*
X1200601Y32539742D01*
X1059762Y32250213D01*
X978115Y31938771D01*
X958795Y31617385D01*
X735000Y31617385D01*
X735000Y33015000D01*
X1716943Y33015000D01*
X1644555Y32815050D01*
X1644555Y32815050D01*
G37*
X1644555Y32815050D02*
X2600000Y31859605D01*
X3555445Y32815050D01*
X3483057Y33015000D01*
X4190929Y33015000D01*
X4078073Y32939592D01*
X3850408Y32711927D01*
X3786789Y32616714D01*
X3735050Y32635445D01*
X2779605Y31680000D01*
X3735050Y30724555D01*
X3776028Y30739390D01*
X3850408Y30628073D01*
X4078073Y30400408D01*
X4093650Y30390000D01*
X4078073Y30379592D01*
X3865000Y30166519D01*
X3641927Y30389592D01*
X3527001Y30466383D01*
X3555445Y30544950D01*
X2600000Y31500395D01*
X1644555Y30544950D01*
X1672999Y30466383D01*
X1558073Y30389592D01*
X1330408Y30161927D01*
X1151533Y29894222D01*
X1028322Y29596763D01*
X965510Y29280983D01*
X965510Y28959017D01*
X1028322Y28643237D01*
X1151533Y28345778D01*
X1330408Y28078073D01*
X1558073Y27850408D01*
X1825778Y27671533D01*
X1840000Y27665642D01*
X1840000Y26437323D01*
X1836324Y26400000D01*
X1840000Y26362678D01*
X1840000Y26362668D01*
X1850997Y26251015D01*
X1881947Y26148986D01*
X1894454Y26107754D01*
X1965026Y25975724D01*
X1985315Y25951002D01*
X2059999Y25859999D01*
X2089002Y25836197D01*
X2436200Y25488998D01*
X2459999Y25459999D01*
X2575724Y25365026D01*
X2707753Y25294454D01*
X2851014Y25250997D01*
X2962667Y25240000D01*
X2962676Y25240000D01*
X2999999Y25236324D01*
X3037322Y25240000D01*
X7106852Y25240000D01*
X7101928Y25190000D01*
X7101928Y24377000D01*
X735000Y24377000D01*
X735000Y31617385D01*
X958795Y31617385D01*
X1002546Y31298405D01*
X1107686Y30994089D01*
X1200601Y30820258D01*
X1464950Y30724555D01*
X2420395Y31680000D01*
X1464950Y32635445D01*
X1200601Y32539742D01*
X1059762Y32250213D01*
X978115Y31938771D01*
X958795Y31617385D01*
X735000Y31617385D01*
X735000Y33015000D01*
X1716943Y33015000D01*
X1644555Y32815050D01*
M02*
