%TF.GenerationSoftware,KiCad,Pcbnew,5.0.1*%
%TF.CreationDate,2019-02-20T12:32:28+01:00*%
%TF.ProjectId,rgbww-micro-board,72676277772D6D6963726F2D626F6172,rev?*%
%TF.SameCoordinates,PXb903480PY55d4a80*%
%TF.FileFunction,Legend,Bot*%
%TF.FilePolarity,Positive*%
%FSLAX46Y46*%
G04 Gerber Fmt 4.6, Leading zero omitted, Abs format (unit mm)*
G04 Created by KiCad (PCBNEW 5.0.1) date Mi 20 Feb 2019 12:32:28 CET*
%MOMM*%
%LPD*%
G01*
G04 APERTURE LIST*
%ADD10C,0.250000*%
%ADD11C,0.200000*%
%ADD12C,0.010000*%
%ADD13C,0.120000*%
%ADD14C,0.150000*%
G04 APERTURE END LIST*
D10*
X34535714Y25666667D02*
X35345238Y25666667D01*
X35440476Y25714286D01*
X35488095Y25761905D01*
X35535714Y25857143D01*
X35535714Y26000000D01*
X35488095Y26095239D01*
X35154761Y25666667D02*
X35202380Y25761905D01*
X35202380Y25952381D01*
X35154761Y26047620D01*
X35107142Y26095239D01*
X35011904Y26142858D01*
X34726190Y26142858D01*
X34630952Y26095239D01*
X34583333Y26047620D01*
X34535714Y25952381D01*
X34535714Y25761905D01*
X34583333Y25666667D01*
X35202380Y25190477D02*
X34535714Y25190477D01*
X34202380Y25190477D02*
X34250000Y25238096D01*
X34297619Y25190477D01*
X34250000Y25142858D01*
X34202380Y25190477D01*
X34297619Y25190477D01*
X34535714Y24857143D02*
X34535714Y24476191D01*
X34202380Y24714286D02*
X35059523Y24714286D01*
X35154761Y24666667D01*
X35202380Y24571429D01*
X35202380Y24476191D01*
X35202380Y24142858D02*
X34202380Y24142858D01*
X35202380Y23714286D02*
X34678571Y23714286D01*
X34583333Y23761905D01*
X34535714Y23857143D01*
X34535714Y24000000D01*
X34583333Y24095239D01*
X34630952Y24142858D01*
X34535714Y22809524D02*
X35202380Y22809524D01*
X34535714Y23238096D02*
X35059523Y23238096D01*
X35154761Y23190477D01*
X35202380Y23095239D01*
X35202380Y22952381D01*
X35154761Y22857143D01*
X35107142Y22809524D01*
X35202380Y22333334D02*
X34202380Y22333334D01*
X34583333Y22333334D02*
X34535714Y22238096D01*
X34535714Y22047620D01*
X34583333Y21952381D01*
X34630952Y21904762D01*
X34726190Y21857143D01*
X35011904Y21857143D01*
X35107142Y21904762D01*
X35154761Y21952381D01*
X35202380Y22047620D01*
X35202380Y22238096D01*
X35154761Y22333334D01*
X35107142Y21428572D02*
X35154761Y21380953D01*
X35202380Y21428572D01*
X35154761Y21476191D01*
X35107142Y21428572D01*
X35202380Y21428572D01*
X35154761Y20523810D02*
X35202380Y20619048D01*
X35202380Y20809524D01*
X35154761Y20904762D01*
X35107142Y20952381D01*
X35011904Y21000000D01*
X34726190Y21000000D01*
X34630952Y20952381D01*
X34583333Y20904762D01*
X34535714Y20809524D01*
X34535714Y20619048D01*
X34583333Y20523810D01*
X35202380Y19952381D02*
X35154761Y20047620D01*
X35107142Y20095239D01*
X35011904Y20142858D01*
X34726190Y20142858D01*
X34630952Y20095239D01*
X34583333Y20047620D01*
X34535714Y19952381D01*
X34535714Y19809524D01*
X34583333Y19714286D01*
X34630952Y19666667D01*
X34726190Y19619048D01*
X35011904Y19619048D01*
X35107142Y19666667D01*
X35154761Y19714286D01*
X35202380Y19809524D01*
X35202380Y19952381D01*
X35202380Y19190477D02*
X34535714Y19190477D01*
X34630952Y19190477D02*
X34583333Y19142858D01*
X34535714Y19047620D01*
X34535714Y18904762D01*
X34583333Y18809524D01*
X34678571Y18761905D01*
X35202380Y18761905D01*
X34678571Y18761905D02*
X34583333Y18714286D01*
X34535714Y18619048D01*
X34535714Y18476191D01*
X34583333Y18380953D01*
X34678571Y18333334D01*
X35202380Y18333334D01*
X34154761Y17142858D02*
X35440476Y18000000D01*
X35202380Y16809524D02*
X34535714Y16809524D01*
X34630952Y16809524D02*
X34583333Y16761905D01*
X34535714Y16666667D01*
X34535714Y16523810D01*
X34583333Y16428572D01*
X34678571Y16380953D01*
X35202380Y16380953D01*
X34678571Y16380953D02*
X34583333Y16333334D01*
X34535714Y16238096D01*
X34535714Y16095239D01*
X34583333Y16000000D01*
X34678571Y15952381D01*
X35202380Y15952381D01*
X35202380Y15476191D02*
X34535714Y15476191D01*
X34202380Y15476191D02*
X34250000Y15523810D01*
X34297619Y15476191D01*
X34250000Y15428572D01*
X34202380Y15476191D01*
X34297619Y15476191D01*
X35154761Y14571429D02*
X35202380Y14666667D01*
X35202380Y14857143D01*
X35154761Y14952381D01*
X35107142Y15000000D01*
X35011904Y15047620D01*
X34726190Y15047620D01*
X34630952Y15000000D01*
X34583333Y14952381D01*
X34535714Y14857143D01*
X34535714Y14666667D01*
X34583333Y14571429D01*
X35202380Y14142858D02*
X34202380Y14142858D01*
X35202380Y13714286D02*
X34678571Y13714286D01*
X34583333Y13761905D01*
X34535714Y13857143D01*
X34535714Y14000000D01*
X34583333Y14095239D01*
X34630952Y14142858D01*
X34535714Y13333334D02*
X34535714Y12809524D01*
X35202380Y13333334D01*
X35202380Y12809524D01*
D11*
X44500000Y33750000D02*
X0Y33750000D01*
X44500000Y0D02*
X44500000Y33750000D01*
X0Y0D02*
X44500000Y0D01*
X0Y33750000D02*
X0Y0D01*
D12*
G36*
X30419918Y22150256D02*
X30447568Y22094799D01*
X30498480Y22045852D01*
X30517338Y22032371D01*
X30542015Y22017686D01*
X30568816Y22008158D01*
X30604587Y22002707D01*
X30656169Y22000253D01*
X30724267Y21999714D01*
X30817588Y22002148D01*
X30887657Y22010606D01*
X30939931Y22026826D01*
X30979869Y22052546D01*
X31012929Y22089503D01*
X31014886Y22092218D01*
X31034908Y22128640D01*
X31044815Y22172498D01*
X31047257Y22228276D01*
X31047257Y22318952D01*
X31135283Y22318990D01*
X31184308Y22319834D01*
X31213065Y22324976D01*
X31230311Y22338413D01*
X31244808Y22364142D01*
X31247769Y22370321D01*
X31261648Y22399236D01*
X31270414Y22421624D01*
X31271171Y22438271D01*
X31261023Y22449964D01*
X31237073Y22457490D01*
X31196426Y22461634D01*
X31136186Y22463185D01*
X31053455Y22462929D01*
X30945339Y22461651D01*
X30913000Y22461252D01*
X30801524Y22459815D01*
X30728603Y22458528D01*
X30728603Y22319029D01*
X30790499Y22318245D01*
X30830997Y22314760D01*
X30857708Y22306876D01*
X30878244Y22292895D01*
X30888260Y22283403D01*
X30917567Y22244596D01*
X30919952Y22210237D01*
X30895750Y22174784D01*
X30894857Y22173886D01*
X30876153Y22159461D01*
X30850732Y22150687D01*
X30811584Y22146261D01*
X30751697Y22144882D01*
X30738430Y22144857D01*
X30655901Y22148188D01*
X30598691Y22159031D01*
X30563766Y22178660D01*
X30548094Y22208350D01*
X30546514Y22225509D01*
X30553926Y22266234D01*
X30578330Y22294168D01*
X30622980Y22310983D01*
X30691130Y22318350D01*
X30728603Y22319029D01*
X30728603Y22458528D01*
X30715245Y22458292D01*
X30650333Y22456323D01*
X30602958Y22453550D01*
X30569290Y22449612D01*
X30545498Y22444151D01*
X30527753Y22436808D01*
X30512224Y22427223D01*
X30506381Y22423113D01*
X30451185Y22368595D01*
X30419890Y22299664D01*
X30411165Y22219928D01*
X30419918Y22150256D01*
X30419918Y22150256D01*
G37*
X30419918Y22150256D02*
X30447568Y22094799D01*
X30498480Y22045852D01*
X30517338Y22032371D01*
X30542015Y22017686D01*
X30568816Y22008158D01*
X30604587Y22002707D01*
X30656169Y22000253D01*
X30724267Y21999714D01*
X30817588Y22002148D01*
X30887657Y22010606D01*
X30939931Y22026826D01*
X30979869Y22052546D01*
X31012929Y22089503D01*
X31014886Y22092218D01*
X31034908Y22128640D01*
X31044815Y22172498D01*
X31047257Y22228276D01*
X31047257Y22318952D01*
X31135283Y22318990D01*
X31184308Y22319834D01*
X31213065Y22324976D01*
X31230311Y22338413D01*
X31244808Y22364142D01*
X31247769Y22370321D01*
X31261648Y22399236D01*
X31270414Y22421624D01*
X31271171Y22438271D01*
X31261023Y22449964D01*
X31237073Y22457490D01*
X31196426Y22461634D01*
X31136186Y22463185D01*
X31053455Y22462929D01*
X30945339Y22461651D01*
X30913000Y22461252D01*
X30801524Y22459815D01*
X30728603Y22458528D01*
X30728603Y22319029D01*
X30790499Y22318245D01*
X30830997Y22314760D01*
X30857708Y22306876D01*
X30878244Y22292895D01*
X30888260Y22283403D01*
X30917567Y22244596D01*
X30919952Y22210237D01*
X30895750Y22174784D01*
X30894857Y22173886D01*
X30876153Y22159461D01*
X30850732Y22150687D01*
X30811584Y22146261D01*
X30751697Y22144882D01*
X30738430Y22144857D01*
X30655901Y22148188D01*
X30598691Y22159031D01*
X30563766Y22178660D01*
X30548094Y22208350D01*
X30546514Y22225509D01*
X30553926Y22266234D01*
X30578330Y22294168D01*
X30622980Y22310983D01*
X30691130Y22318350D01*
X30728603Y22319029D01*
X30728603Y22458528D01*
X30715245Y22458292D01*
X30650333Y22456323D01*
X30602958Y22453550D01*
X30569290Y22449612D01*
X30545498Y22444151D01*
X30527753Y22436808D01*
X30512224Y22427223D01*
X30506381Y22423113D01*
X30451185Y22368595D01*
X30419890Y22299664D01*
X30411165Y22219928D01*
X30419918Y22150256D01*
G36*
X30427780Y21033907D02*
X30454723Y20987328D01*
X30481466Y20954943D01*
X30509484Y20931258D01*
X30543748Y20914941D01*
X30589227Y20904661D01*
X30650892Y20899086D01*
X30733711Y20896884D01*
X30793246Y20896629D01*
X31012391Y20896629D01*
X31040044Y20958314D01*
X31067697Y21020000D01*
X30827670Y21027257D01*
X30738028Y21030256D01*
X30672962Y21033402D01*
X30628026Y21037299D01*
X30598770Y21042553D01*
X30580748Y21049769D01*
X30569511Y21059550D01*
X30567079Y21062688D01*
X30548083Y21110239D01*
X30555600Y21158303D01*
X30575543Y21186914D01*
X30589675Y21198553D01*
X30608220Y21206609D01*
X30636334Y21211729D01*
X30679173Y21214559D01*
X30741895Y21215744D01*
X30807261Y21215943D01*
X30889268Y21215982D01*
X30947316Y21217386D01*
X30986465Y21222086D01*
X31011780Y21232013D01*
X31028323Y21249097D01*
X31041156Y21275268D01*
X31054491Y21310225D01*
X31069007Y21348404D01*
X30811389Y21343859D01*
X30718519Y21342029D01*
X30649889Y21339888D01*
X30600711Y21336819D01*
X30566198Y21332206D01*
X30541562Y21325432D01*
X30522016Y21315881D01*
X30504770Y21304366D01*
X30449680Y21248810D01*
X30417822Y21181020D01*
X30410191Y21107287D01*
X30427780Y21033907D01*
X30427780Y21033907D01*
G37*
X30427780Y21033907D02*
X30454723Y20987328D01*
X30481466Y20954943D01*
X30509484Y20931258D01*
X30543748Y20914941D01*
X30589227Y20904661D01*
X30650892Y20899086D01*
X30733711Y20896884D01*
X30793246Y20896629D01*
X31012391Y20896629D01*
X31040044Y20958314D01*
X31067697Y21020000D01*
X30827670Y21027257D01*
X30738028Y21030256D01*
X30672962Y21033402D01*
X30628026Y21037299D01*
X30598770Y21042553D01*
X30580748Y21049769D01*
X30569511Y21059550D01*
X30567079Y21062688D01*
X30548083Y21110239D01*
X30555600Y21158303D01*
X30575543Y21186914D01*
X30589675Y21198553D01*
X30608220Y21206609D01*
X30636334Y21211729D01*
X30679173Y21214559D01*
X30741895Y21215744D01*
X30807261Y21215943D01*
X30889268Y21215982D01*
X30947316Y21217386D01*
X30986465Y21222086D01*
X31011780Y21232013D01*
X31028323Y21249097D01*
X31041156Y21275268D01*
X31054491Y21310225D01*
X31069007Y21348404D01*
X30811389Y21343859D01*
X30718519Y21342029D01*
X30649889Y21339888D01*
X30600711Y21336819D01*
X30566198Y21332206D01*
X30541562Y21325432D01*
X30522016Y21315881D01*
X30504770Y21304366D01*
X30449680Y21248810D01*
X30417822Y21181020D01*
X30410191Y21107287D01*
X30427780Y21033907D01*
G36*
X30421962Y22708885D02*
X30457733Y22640855D01*
X30515301Y22590649D01*
X30552312Y22572815D01*
X30607882Y22558937D01*
X30678096Y22551833D01*
X30754727Y22551160D01*
X30829552Y22556573D01*
X30894342Y22567730D01*
X30940873Y22584286D01*
X30948887Y22589374D01*
X31008707Y22649645D01*
X31044535Y22721231D01*
X31055020Y22798908D01*
X31038810Y22877452D01*
X31029092Y22899311D01*
X30999143Y22941878D01*
X30959433Y22979237D01*
X30954397Y22982768D01*
X30930124Y22997119D01*
X30904178Y23006606D01*
X30870022Y23012210D01*
X30821119Y23014914D01*
X30750935Y23015701D01*
X30735200Y23015714D01*
X30730192Y23015678D01*
X30730192Y22870571D01*
X30796430Y22869727D01*
X30840386Y22866404D01*
X30868779Y22859417D01*
X30888325Y22847584D01*
X30894857Y22841543D01*
X30919680Y22806814D01*
X30918548Y22773097D01*
X30897016Y22739005D01*
X30874029Y22718671D01*
X30840478Y22706629D01*
X30787569Y22699866D01*
X30781399Y22699402D01*
X30685513Y22698248D01*
X30614299Y22710312D01*
X30568194Y22735430D01*
X30547635Y22773440D01*
X30546514Y22787008D01*
X30552152Y22822636D01*
X30571686Y22847006D01*
X30609042Y22861907D01*
X30668150Y22869125D01*
X30730192Y22870571D01*
X30730192Y23015678D01*
X30660413Y23015174D01*
X30608159Y23012904D01*
X30571949Y23007932D01*
X30545299Y22999287D01*
X30521722Y22985995D01*
X30517338Y22983057D01*
X30458249Y22933687D01*
X30423947Y22879891D01*
X30410331Y22814398D01*
X30409665Y22792158D01*
X30421962Y22708885D01*
X30421962Y22708885D01*
G37*
X30421962Y22708885D02*
X30457733Y22640855D01*
X30515301Y22590649D01*
X30552312Y22572815D01*
X30607882Y22558937D01*
X30678096Y22551833D01*
X30754727Y22551160D01*
X30829552Y22556573D01*
X30894342Y22567730D01*
X30940873Y22584286D01*
X30948887Y22589374D01*
X31008707Y22649645D01*
X31044535Y22721231D01*
X31055020Y22798908D01*
X31038810Y22877452D01*
X31029092Y22899311D01*
X30999143Y22941878D01*
X30959433Y22979237D01*
X30954397Y22982768D01*
X30930124Y22997119D01*
X30904178Y23006606D01*
X30870022Y23012210D01*
X30821119Y23014914D01*
X30750935Y23015701D01*
X30735200Y23015714D01*
X30730192Y23015678D01*
X30730192Y22870571D01*
X30796430Y22869727D01*
X30840386Y22866404D01*
X30868779Y22859417D01*
X30888325Y22847584D01*
X30894857Y22841543D01*
X30919680Y22806814D01*
X30918548Y22773097D01*
X30897016Y22739005D01*
X30874029Y22718671D01*
X30840478Y22706629D01*
X30787569Y22699866D01*
X30781399Y22699402D01*
X30685513Y22698248D01*
X30614299Y22710312D01*
X30568194Y22735430D01*
X30547635Y22773440D01*
X30546514Y22787008D01*
X30552152Y22822636D01*
X30571686Y22847006D01*
X30609042Y22861907D01*
X30668150Y22869125D01*
X30730192Y22870571D01*
X30730192Y23015678D01*
X30660413Y23015174D01*
X30608159Y23012904D01*
X30571949Y23007932D01*
X30545299Y22999287D01*
X30521722Y22985995D01*
X30517338Y22983057D01*
X30458249Y22933687D01*
X30423947Y22879891D01*
X30410331Y22814398D01*
X30409665Y22792158D01*
X30421962Y22708885D01*
G36*
X30431239Y21581697D02*
X30469735Y21524473D01*
X30525335Y21480251D01*
X30596086Y21453833D01*
X30648162Y21448490D01*
X30669893Y21449097D01*
X30686531Y21454178D01*
X30701437Y21468145D01*
X30717973Y21495411D01*
X30739498Y21540388D01*
X30769374Y21607489D01*
X30769524Y21607829D01*
X30797813Y21669593D01*
X30822933Y21720241D01*
X30842179Y21754596D01*
X30852848Y21767482D01*
X30852934Y21767486D01*
X30876166Y21756128D01*
X30901774Y21729569D01*
X30920221Y21699077D01*
X30923886Y21683630D01*
X30911212Y21641485D01*
X30879471Y21605192D01*
X30844572Y21587483D01*
X30818845Y21570448D01*
X30789546Y21537078D01*
X30764235Y21497851D01*
X30750471Y21463244D01*
X30749714Y21456007D01*
X30762160Y21447861D01*
X30793972Y21447370D01*
X30836866Y21453357D01*
X30882558Y21464643D01*
X30922761Y21480050D01*
X30924322Y21480829D01*
X30989062Y21527196D01*
X31033097Y21587289D01*
X31054711Y21655535D01*
X31052185Y21726362D01*
X31023804Y21794196D01*
X31021808Y21797212D01*
X30973448Y21850573D01*
X30910352Y21885660D01*
X30827387Y21905078D01*
X30804078Y21907684D01*
X30694055Y21912299D01*
X30642748Y21906767D01*
X30642748Y21767486D01*
X30674753Y21765676D01*
X30684093Y21755778D01*
X30677105Y21731102D01*
X30660587Y21692205D01*
X30639881Y21648725D01*
X30639333Y21647644D01*
X30619949Y21610791D01*
X30607013Y21596000D01*
X30593451Y21599647D01*
X30575632Y21615005D01*
X30549845Y21654077D01*
X30547950Y21696154D01*
X30566717Y21733897D01*
X30602915Y21759966D01*
X30642748Y21767486D01*
X30642748Y21906767D01*
X30606027Y21902806D01*
X30536212Y21878450D01*
X30487302Y21844544D01*
X30437878Y21783347D01*
X30413359Y21715937D01*
X30411797Y21647120D01*
X30431239Y21581697D01*
X30431239Y21581697D01*
G37*
X30431239Y21581697D02*
X30469735Y21524473D01*
X30525335Y21480251D01*
X30596086Y21453833D01*
X30648162Y21448490D01*
X30669893Y21449097D01*
X30686531Y21454178D01*
X30701437Y21468145D01*
X30717973Y21495411D01*
X30739498Y21540388D01*
X30769374Y21607489D01*
X30769524Y21607829D01*
X30797813Y21669593D01*
X30822933Y21720241D01*
X30842179Y21754596D01*
X30852848Y21767482D01*
X30852934Y21767486D01*
X30876166Y21756128D01*
X30901774Y21729569D01*
X30920221Y21699077D01*
X30923886Y21683630D01*
X30911212Y21641485D01*
X30879471Y21605192D01*
X30844572Y21587483D01*
X30818845Y21570448D01*
X30789546Y21537078D01*
X30764235Y21497851D01*
X30750471Y21463244D01*
X30749714Y21456007D01*
X30762160Y21447861D01*
X30793972Y21447370D01*
X30836866Y21453357D01*
X30882558Y21464643D01*
X30922761Y21480050D01*
X30924322Y21480829D01*
X30989062Y21527196D01*
X31033097Y21587289D01*
X31054711Y21655535D01*
X31052185Y21726362D01*
X31023804Y21794196D01*
X31021808Y21797212D01*
X30973448Y21850573D01*
X30910352Y21885660D01*
X30827387Y21905078D01*
X30804078Y21907684D01*
X30694055Y21912299D01*
X30642748Y21906767D01*
X30642748Y21767486D01*
X30674753Y21765676D01*
X30684093Y21755778D01*
X30677105Y21731102D01*
X30660587Y21692205D01*
X30639881Y21648725D01*
X30639333Y21647644D01*
X30619949Y21610791D01*
X30607013Y21596000D01*
X30593451Y21599647D01*
X30575632Y21615005D01*
X30549845Y21654077D01*
X30547950Y21696154D01*
X30566717Y21733897D01*
X30602915Y21759966D01*
X30642748Y21767486D01*
X30642748Y21906767D01*
X30606027Y21902806D01*
X30536212Y21878450D01*
X30487302Y21844544D01*
X30437878Y21783347D01*
X30413359Y21715937D01*
X30411797Y21647120D01*
X30431239Y21581697D01*
G36*
X30351289Y20374114D02*
X30410613Y20369861D01*
X30445572Y20364975D01*
X30460820Y20358205D01*
X30461015Y20348298D01*
X30459195Y20345086D01*
X30446015Y20302356D01*
X30446785Y20246773D01*
X30460333Y20190263D01*
X30477861Y20154918D01*
X30505861Y20118679D01*
X30537549Y20092187D01*
X30577813Y20074001D01*
X30631543Y20062678D01*
X30703626Y20056778D01*
X30798951Y20054857D01*
X30817237Y20054823D01*
X31022646Y20054800D01*
X31038580Y20100509D01*
X31049420Y20132973D01*
X31054468Y20150785D01*
X31054514Y20151309D01*
X31040828Y20153063D01*
X31003076Y20154556D01*
X30946224Y20155674D01*
X30875234Y20156303D01*
X30832073Y20156400D01*
X30746973Y20156602D01*
X30685981Y20157642D01*
X30644177Y20160169D01*
X30616642Y20164836D01*
X30598456Y20172293D01*
X30584698Y20183189D01*
X30578073Y20189993D01*
X30551375Y20236728D01*
X30549375Y20287728D01*
X30571955Y20333999D01*
X30580107Y20342556D01*
X30595436Y20355107D01*
X30613618Y20363812D01*
X30639909Y20369369D01*
X30679562Y20372474D01*
X30737832Y20373824D01*
X30818173Y20374114D01*
X31022646Y20374114D01*
X31038580Y20419823D01*
X31049420Y20452287D01*
X31054468Y20470099D01*
X31054514Y20470623D01*
X31040623Y20471963D01*
X31001439Y20473172D01*
X30940700Y20474199D01*
X30862141Y20474998D01*
X30769498Y20475519D01*
X30666509Y20475714D01*
X30269342Y20475714D01*
X30249444Y20428543D01*
X30229547Y20381371D01*
X30351289Y20374114D01*
X30351289Y20374114D01*
G37*
X30351289Y20374114D02*
X30410613Y20369861D01*
X30445572Y20364975D01*
X30460820Y20358205D01*
X30461015Y20348298D01*
X30459195Y20345086D01*
X30446015Y20302356D01*
X30446785Y20246773D01*
X30460333Y20190263D01*
X30477861Y20154918D01*
X30505861Y20118679D01*
X30537549Y20092187D01*
X30577813Y20074001D01*
X30631543Y20062678D01*
X30703626Y20056778D01*
X30798951Y20054857D01*
X30817237Y20054823D01*
X31022646Y20054800D01*
X31038580Y20100509D01*
X31049420Y20132973D01*
X31054468Y20150785D01*
X31054514Y20151309D01*
X31040828Y20153063D01*
X31003076Y20154556D01*
X30946224Y20155674D01*
X30875234Y20156303D01*
X30832073Y20156400D01*
X30746973Y20156602D01*
X30685981Y20157642D01*
X30644177Y20160169D01*
X30616642Y20164836D01*
X30598456Y20172293D01*
X30584698Y20183189D01*
X30578073Y20189993D01*
X30551375Y20236728D01*
X30549375Y20287728D01*
X30571955Y20333999D01*
X30580107Y20342556D01*
X30595436Y20355107D01*
X30613618Y20363812D01*
X30639909Y20369369D01*
X30679562Y20372474D01*
X30737832Y20373824D01*
X30818173Y20374114D01*
X31022646Y20374114D01*
X31038580Y20419823D01*
X31049420Y20452287D01*
X31054468Y20470099D01*
X31054514Y20470623D01*
X31040623Y20471963D01*
X31001439Y20473172D01*
X30940700Y20474199D01*
X30862141Y20474998D01*
X30769498Y20475519D01*
X30666509Y20475714D01*
X30269342Y20475714D01*
X30249444Y20428543D01*
X30229547Y20381371D01*
X30351289Y20374114D01*
G36*
X30450968Y19710256D02*
X30472087Y19653384D01*
X30472493Y19652733D01*
X30498380Y19617560D01*
X30528633Y19591593D01*
X30568058Y19573330D01*
X30621462Y19561268D01*
X30693651Y19553904D01*
X30789432Y19549736D01*
X30803078Y19549371D01*
X31008842Y19544124D01*
X31031678Y19588284D01*
X31047110Y19620237D01*
X31054423Y19639530D01*
X31054514Y19640422D01*
X31041022Y19643761D01*
X31004626Y19646413D01*
X30951452Y19648044D01*
X30908393Y19648400D01*
X30838641Y19648408D01*
X30794837Y19651597D01*
X30773944Y19662712D01*
X30772925Y19686499D01*
X30788741Y19727704D01*
X30817815Y19789914D01*
X30841963Y19835659D01*
X30862913Y19859187D01*
X30885747Y19866104D01*
X30886877Y19866114D01*
X30926212Y19854701D01*
X30947462Y19820908D01*
X30950539Y19769191D01*
X30950006Y19731939D01*
X30960735Y19712297D01*
X30986505Y19700048D01*
X31019337Y19692998D01*
X31037966Y19703158D01*
X31040632Y19706983D01*
X31051340Y19742999D01*
X31052856Y19793434D01*
X31045759Y19845374D01*
X31032788Y19882178D01*
X30989585Y19933062D01*
X30929446Y19961986D01*
X30882462Y19967714D01*
X30840082Y19963343D01*
X30805488Y19947525D01*
X30774763Y19916203D01*
X30743990Y19865322D01*
X30709252Y19790824D01*
X30707288Y19786286D01*
X30676287Y19719179D01*
X30650862Y19677768D01*
X30628014Y19660019D01*
X30604745Y19663893D01*
X30578056Y19687357D01*
X30571914Y19694373D01*
X30548100Y19741370D01*
X30549103Y19790067D01*
X30572451Y19832478D01*
X30615675Y19860616D01*
X30624160Y19863231D01*
X30665308Y19888692D01*
X30685128Y19920999D01*
X30704770Y19967714D01*
X30653950Y19967714D01*
X30580082Y19953504D01*
X30512327Y19911325D01*
X30489661Y19889376D01*
X30460569Y19839483D01*
X30447400Y19776033D01*
X30450968Y19710256D01*
X30450968Y19710256D01*
G37*
X30450968Y19710256D02*
X30472087Y19653384D01*
X30472493Y19652733D01*
X30498380Y19617560D01*
X30528633Y19591593D01*
X30568058Y19573330D01*
X30621462Y19561268D01*
X30693651Y19553904D01*
X30789432Y19549736D01*
X30803078Y19549371D01*
X31008842Y19544124D01*
X31031678Y19588284D01*
X31047110Y19620237D01*
X31054423Y19639530D01*
X31054514Y19640422D01*
X31041022Y19643761D01*
X31004626Y19646413D01*
X30951452Y19648044D01*
X30908393Y19648400D01*
X30838641Y19648408D01*
X30794837Y19651597D01*
X30773944Y19662712D01*
X30772925Y19686499D01*
X30788741Y19727704D01*
X30817815Y19789914D01*
X30841963Y19835659D01*
X30862913Y19859187D01*
X30885747Y19866104D01*
X30886877Y19866114D01*
X30926212Y19854701D01*
X30947462Y19820908D01*
X30950539Y19769191D01*
X30950006Y19731939D01*
X30960735Y19712297D01*
X30986505Y19700048D01*
X31019337Y19692998D01*
X31037966Y19703158D01*
X31040632Y19706983D01*
X31051340Y19742999D01*
X31052856Y19793434D01*
X31045759Y19845374D01*
X31032788Y19882178D01*
X30989585Y19933062D01*
X30929446Y19961986D01*
X30882462Y19967714D01*
X30840082Y19963343D01*
X30805488Y19947525D01*
X30774763Y19916203D01*
X30743990Y19865322D01*
X30709252Y19790824D01*
X30707288Y19786286D01*
X30676287Y19719179D01*
X30650862Y19677768D01*
X30628014Y19660019D01*
X30604745Y19663893D01*
X30578056Y19687357D01*
X30571914Y19694373D01*
X30548100Y19741370D01*
X30549103Y19790067D01*
X30572451Y19832478D01*
X30615675Y19860616D01*
X30624160Y19863231D01*
X30665308Y19888692D01*
X30685128Y19920999D01*
X30704770Y19967714D01*
X30653950Y19967714D01*
X30580082Y19953504D01*
X30512327Y19911325D01*
X30489661Y19889376D01*
X30460569Y19839483D01*
X30447400Y19776033D01*
X30450968Y19710256D01*
G36*
X30449755Y19220074D02*
X30474084Y19154142D01*
X30517117Y19100727D01*
X30547409Y19079836D01*
X30602994Y19057061D01*
X30643186Y19057534D01*
X30670217Y19081438D01*
X30674813Y19090283D01*
X30689144Y19128470D01*
X30685472Y19147972D01*
X30661407Y19154578D01*
X30648114Y19154914D01*
X30599210Y19167008D01*
X30564999Y19198529D01*
X30548476Y19242341D01*
X30552634Y19291305D01*
X30574227Y19331106D01*
X30586544Y19344550D01*
X30601487Y19354079D01*
X30624075Y19360515D01*
X30659328Y19364683D01*
X30712266Y19367403D01*
X30787907Y19369498D01*
X30811857Y19370040D01*
X30893790Y19372019D01*
X30951455Y19374269D01*
X30989608Y19377643D01*
X31013004Y19382994D01*
X31026398Y19391176D01*
X31034545Y19403041D01*
X31038144Y19410638D01*
X31050452Y19442898D01*
X31054514Y19461889D01*
X31040948Y19468164D01*
X30999934Y19471994D01*
X30930999Y19473400D01*
X30833669Y19472402D01*
X30818657Y19472092D01*
X30729859Y19469899D01*
X30665019Y19467307D01*
X30619067Y19463618D01*
X30586935Y19458136D01*
X30563553Y19450165D01*
X30543852Y19439007D01*
X30535410Y19433170D01*
X30498057Y19399704D01*
X30469003Y19362273D01*
X30466467Y19357691D01*
X30446443Y19290574D01*
X30449755Y19220074D01*
X30449755Y19220074D01*
G37*
X30449755Y19220074D02*
X30474084Y19154142D01*
X30517117Y19100727D01*
X30547409Y19079836D01*
X30602994Y19057061D01*
X30643186Y19057534D01*
X30670217Y19081438D01*
X30674813Y19090283D01*
X30689144Y19128470D01*
X30685472Y19147972D01*
X30661407Y19154578D01*
X30648114Y19154914D01*
X30599210Y19167008D01*
X30564999Y19198529D01*
X30548476Y19242341D01*
X30552634Y19291305D01*
X30574227Y19331106D01*
X30586544Y19344550D01*
X30601487Y19354079D01*
X30624075Y19360515D01*
X30659328Y19364683D01*
X30712266Y19367403D01*
X30787907Y19369498D01*
X30811857Y19370040D01*
X30893790Y19372019D01*
X30951455Y19374269D01*
X30989608Y19377643D01*
X31013004Y19382994D01*
X31026398Y19391176D01*
X31034545Y19403041D01*
X31038144Y19410638D01*
X31050452Y19442898D01*
X31054514Y19461889D01*
X31040948Y19468164D01*
X30999934Y19471994D01*
X30930999Y19473400D01*
X30833669Y19472402D01*
X30818657Y19472092D01*
X30729859Y19469899D01*
X30665019Y19467307D01*
X30619067Y19463618D01*
X30586935Y19458136D01*
X30563553Y19450165D01*
X30543852Y19439007D01*
X30535410Y19433170D01*
X30498057Y19399704D01*
X30469003Y19362273D01*
X30466467Y19357691D01*
X30446443Y19290574D01*
X30449755Y19220074D01*
G36*
X30565358Y18559883D02*
X30673837Y18560067D01*
X30757287Y18560781D01*
X30819704Y18562325D01*
X30865085Y18564999D01*
X30897429Y18569106D01*
X30920733Y18574945D01*
X30938995Y18582818D01*
X30949418Y18588779D01*
X31005945Y18638145D01*
X31041377Y18700736D01*
X31054090Y18769987D01*
X31042463Y18839332D01*
X31021568Y18880625D01*
X30985422Y18923975D01*
X30941276Y18953519D01*
X30883462Y18971345D01*
X30806313Y18979537D01*
X30749714Y18980698D01*
X30745647Y18980542D01*
X30745647Y18879143D01*
X30810550Y18878524D01*
X30853514Y18875686D01*
X30881622Y18869160D01*
X30901953Y18857477D01*
X30917288Y18843517D01*
X30946890Y18796635D01*
X30949419Y18746299D01*
X30924705Y18698724D01*
X30921356Y18695021D01*
X30903935Y18679217D01*
X30883209Y18669307D01*
X30852362Y18663942D01*
X30804577Y18661772D01*
X30751748Y18661429D01*
X30685381Y18662173D01*
X30641106Y18665252D01*
X30612009Y18671939D01*
X30591173Y18683504D01*
X30580107Y18692987D01*
X30552198Y18737040D01*
X30548843Y18787776D01*
X30570159Y18836204D01*
X30578073Y18845550D01*
X30595647Y18861460D01*
X30616587Y18871390D01*
X30647782Y18876722D01*
X30696122Y18878837D01*
X30745647Y18879143D01*
X30745647Y18980542D01*
X30658568Y18977190D01*
X30590086Y18965274D01*
X30538600Y18942865D01*
X30498443Y18907876D01*
X30477861Y18880625D01*
X30455625Y18831093D01*
X30445304Y18773684D01*
X30448067Y18720318D01*
X30459212Y18690457D01*
X30462383Y18678739D01*
X30450557Y18670963D01*
X30418866Y18665535D01*
X30370593Y18661429D01*
X30316829Y18656933D01*
X30284482Y18650687D01*
X30265985Y18639324D01*
X30253770Y18619472D01*
X30248362Y18607000D01*
X30228601Y18559829D01*
X30565358Y18559883D01*
X30565358Y18559883D01*
G37*
X30565358Y18559883D02*
X30673837Y18560067D01*
X30757287Y18560781D01*
X30819704Y18562325D01*
X30865085Y18564999D01*
X30897429Y18569106D01*
X30920733Y18574945D01*
X30938995Y18582818D01*
X30949418Y18588779D01*
X31005945Y18638145D01*
X31041377Y18700736D01*
X31054090Y18769987D01*
X31042463Y18839332D01*
X31021568Y18880625D01*
X30985422Y18923975D01*
X30941276Y18953519D01*
X30883462Y18971345D01*
X30806313Y18979537D01*
X30749714Y18980698D01*
X30745647Y18980542D01*
X30745647Y18879143D01*
X30810550Y18878524D01*
X30853514Y18875686D01*
X30881622Y18869160D01*
X30901953Y18857477D01*
X30917288Y18843517D01*
X30946890Y18796635D01*
X30949419Y18746299D01*
X30924705Y18698724D01*
X30921356Y18695021D01*
X30903935Y18679217D01*
X30883209Y18669307D01*
X30852362Y18663942D01*
X30804577Y18661772D01*
X30751748Y18661429D01*
X30685381Y18662173D01*
X30641106Y18665252D01*
X30612009Y18671939D01*
X30591173Y18683504D01*
X30580107Y18692987D01*
X30552198Y18737040D01*
X30548843Y18787776D01*
X30570159Y18836204D01*
X30578073Y18845550D01*
X30595647Y18861460D01*
X30616587Y18871390D01*
X30647782Y18876722D01*
X30696122Y18878837D01*
X30745647Y18879143D01*
X30745647Y18980542D01*
X30658568Y18977190D01*
X30590086Y18965274D01*
X30538600Y18942865D01*
X30498443Y18907876D01*
X30477861Y18880625D01*
X30455625Y18831093D01*
X30445304Y18773684D01*
X30448067Y18720318D01*
X30459212Y18690457D01*
X30462383Y18678739D01*
X30450557Y18670963D01*
X30418866Y18665535D01*
X30370593Y18661429D01*
X30316829Y18656933D01*
X30284482Y18650687D01*
X30265985Y18639324D01*
X30253770Y18619472D01*
X30248362Y18607000D01*
X30228601Y18559829D01*
X30565358Y18559883D01*
G36*
X30458663Y17970167D02*
X30496850Y17967952D01*
X30554886Y17966216D01*
X30628180Y17965101D01*
X30705055Y17964743D01*
X30965196Y17964743D01*
X31011127Y18010674D01*
X31039429Y18042325D01*
X31050893Y18070110D01*
X31050168Y18108085D01*
X31048321Y18123160D01*
X31042948Y18170274D01*
X31039869Y18209244D01*
X31039585Y18218743D01*
X31041445Y18250767D01*
X31046114Y18296568D01*
X31048321Y18314326D01*
X31051735Y18357943D01*
X31044320Y18387255D01*
X31021427Y18416320D01*
X31011127Y18426812D01*
X30965196Y18472743D01*
X30478602Y18472743D01*
X30461758Y18435774D01*
X30449282Y18403941D01*
X30444914Y18385317D01*
X30458718Y18380542D01*
X30497286Y18376079D01*
X30556356Y18372225D01*
X30631663Y18369278D01*
X30695286Y18367857D01*
X30945657Y18363886D01*
X30950556Y18329241D01*
X30947131Y18297732D01*
X30936041Y18282292D01*
X30915308Y18277977D01*
X30871145Y18274292D01*
X30809146Y18271531D01*
X30734909Y18269988D01*
X30696706Y18269765D01*
X30476783Y18269543D01*
X30460849Y18223834D01*
X30450015Y18191482D01*
X30444962Y18173885D01*
X30444914Y18173377D01*
X30458648Y18171612D01*
X30496730Y18169671D01*
X30554482Y18167718D01*
X30627227Y18165916D01*
X30695286Y18164657D01*
X30945657Y18160686D01*
X30945657Y18073600D01*
X30717240Y18069604D01*
X30488822Y18065608D01*
X30466868Y18023153D01*
X30451793Y17991808D01*
X30444951Y17973256D01*
X30444914Y17972721D01*
X30458663Y17970167D01*
X30458663Y17970167D01*
G37*
X30458663Y17970167D02*
X30496850Y17967952D01*
X30554886Y17966216D01*
X30628180Y17965101D01*
X30705055Y17964743D01*
X30965196Y17964743D01*
X31011127Y18010674D01*
X31039429Y18042325D01*
X31050893Y18070110D01*
X31050168Y18108085D01*
X31048321Y18123160D01*
X31042948Y18170274D01*
X31039869Y18209244D01*
X31039585Y18218743D01*
X31041445Y18250767D01*
X31046114Y18296568D01*
X31048321Y18314326D01*
X31051735Y18357943D01*
X31044320Y18387255D01*
X31021427Y18416320D01*
X31011127Y18426812D01*
X30965196Y18472743D01*
X30478602Y18472743D01*
X30461758Y18435774D01*
X30449282Y18403941D01*
X30444914Y18385317D01*
X30458718Y18380542D01*
X30497286Y18376079D01*
X30556356Y18372225D01*
X30631663Y18369278D01*
X30695286Y18367857D01*
X30945657Y18363886D01*
X30950556Y18329241D01*
X30947131Y18297732D01*
X30936041Y18282292D01*
X30915308Y18277977D01*
X30871145Y18274292D01*
X30809146Y18271531D01*
X30734909Y18269988D01*
X30696706Y18269765D01*
X30476783Y18269543D01*
X30460849Y18223834D01*
X30450015Y18191482D01*
X30444962Y18173885D01*
X30444914Y18173377D01*
X30458648Y18171612D01*
X30496730Y18169671D01*
X30554482Y18167718D01*
X30627227Y18165916D01*
X30695286Y18164657D01*
X30945657Y18160686D01*
X30945657Y18073600D01*
X30717240Y18069604D01*
X30488822Y18065608D01*
X30466868Y18023153D01*
X30451793Y17991808D01*
X30444951Y17973256D01*
X30444914Y17972721D01*
X30458663Y17970167D01*
G36*
X30456335Y17605124D02*
X30475344Y17563333D01*
X30498378Y17530531D01*
X30524133Y17506497D01*
X30557358Y17489903D01*
X30602800Y17479423D01*
X30665207Y17473729D01*
X30749327Y17471493D01*
X30804721Y17471257D01*
X31020826Y17471257D01*
X31037670Y17508226D01*
X31049981Y17537344D01*
X31054514Y17551769D01*
X31041025Y17554528D01*
X31004653Y17556718D01*
X30951542Y17558058D01*
X30909372Y17558343D01*
X30848447Y17559566D01*
X30800115Y17562864D01*
X30770518Y17567679D01*
X30764229Y17571504D01*
X30770652Y17597217D01*
X30787125Y17637582D01*
X30809458Y17684321D01*
X30833457Y17729155D01*
X30854930Y17763807D01*
X30869685Y17779998D01*
X30869845Y17780062D01*
X30897152Y17778670D01*
X30923219Y17766182D01*
X30944392Y17744257D01*
X30951474Y17712257D01*
X30950649Y17684908D01*
X30950042Y17646174D01*
X30959116Y17625842D01*
X30983092Y17613631D01*
X30987613Y17612091D01*
X31021806Y17606797D01*
X31042568Y17620953D01*
X31052462Y17657852D01*
X31054292Y17697711D01*
X31040727Y17769438D01*
X31021355Y17806568D01*
X30975845Y17852424D01*
X30919983Y17876744D01*
X30860957Y17878927D01*
X30805953Y17858371D01*
X30771486Y17827451D01*
X30752189Y17796580D01*
X30727759Y17748058D01*
X30702985Y17691515D01*
X30699199Y17682090D01*
X30671791Y17619981D01*
X30647634Y17584178D01*
X30623619Y17572663D01*
X30596635Y17583420D01*
X30575543Y17601886D01*
X30549572Y17645531D01*
X30547624Y17693554D01*
X30567637Y17737594D01*
X30607551Y17769291D01*
X30617848Y17773451D01*
X30655724Y17797673D01*
X30683842Y17833035D01*
X30706917Y17877657D01*
X30641485Y17877657D01*
X30601506Y17875031D01*
X30569997Y17863770D01*
X30536378Y17838801D01*
X30510484Y17814831D01*
X30473817Y17777559D01*
X30454121Y17748599D01*
X30446220Y17717495D01*
X30444914Y17682287D01*
X30456335Y17605124D01*
X30456335Y17605124D01*
G37*
X30456335Y17605124D02*
X30475344Y17563333D01*
X30498378Y17530531D01*
X30524133Y17506497D01*
X30557358Y17489903D01*
X30602800Y17479423D01*
X30665207Y17473729D01*
X30749327Y17471493D01*
X30804721Y17471257D01*
X31020826Y17471257D01*
X31037670Y17508226D01*
X31049981Y17537344D01*
X31054514Y17551769D01*
X31041025Y17554528D01*
X31004653Y17556718D01*
X30951542Y17558058D01*
X30909372Y17558343D01*
X30848447Y17559566D01*
X30800115Y17562864D01*
X30770518Y17567679D01*
X30764229Y17571504D01*
X30770652Y17597217D01*
X30787125Y17637582D01*
X30809458Y17684321D01*
X30833457Y17729155D01*
X30854930Y17763807D01*
X30869685Y17779998D01*
X30869845Y17780062D01*
X30897152Y17778670D01*
X30923219Y17766182D01*
X30944392Y17744257D01*
X30951474Y17712257D01*
X30950649Y17684908D01*
X30950042Y17646174D01*
X30959116Y17625842D01*
X30983092Y17613631D01*
X30987613Y17612091D01*
X31021806Y17606797D01*
X31042568Y17620953D01*
X31052462Y17657852D01*
X31054292Y17697711D01*
X31040727Y17769438D01*
X31021355Y17806568D01*
X30975845Y17852424D01*
X30919983Y17876744D01*
X30860957Y17878927D01*
X30805953Y17858371D01*
X30771486Y17827451D01*
X30752189Y17796580D01*
X30727759Y17748058D01*
X30702985Y17691515D01*
X30699199Y17682090D01*
X30671791Y17619981D01*
X30647634Y17584178D01*
X30623619Y17572663D01*
X30596635Y17583420D01*
X30575543Y17601886D01*
X30549572Y17645531D01*
X30547624Y17693554D01*
X30567637Y17737594D01*
X30607551Y17769291D01*
X30617848Y17773451D01*
X30655724Y17797673D01*
X30683842Y17833035D01*
X30706917Y17877657D01*
X30641485Y17877657D01*
X30601506Y17875031D01*
X30569997Y17863770D01*
X30536378Y17838801D01*
X30510484Y17814831D01*
X30473817Y17777559D01*
X30454121Y17748599D01*
X30446220Y17717495D01*
X30444914Y17682287D01*
X30456335Y17605124D01*
G36*
X30458752Y17097400D02*
X30466334Y17080052D01*
X30499128Y17038644D01*
X30546547Y17003235D01*
X30597151Y16981336D01*
X30622098Y16977771D01*
X30656927Y16989721D01*
X30675357Y17015933D01*
X30686516Y17044036D01*
X30688572Y17056905D01*
X30673649Y17063171D01*
X30641175Y17075544D01*
X30626502Y17080972D01*
X30575744Y17111410D01*
X30550427Y17155480D01*
X30551206Y17211990D01*
X30552203Y17216175D01*
X30566507Y17246345D01*
X30594393Y17268524D01*
X30639287Y17283673D01*
X30704615Y17292750D01*
X30793804Y17296714D01*
X30841261Y17297086D01*
X30916071Y17297270D01*
X30967069Y17298478D01*
X30999471Y17301691D01*
X31018495Y17307891D01*
X31029356Y17318060D01*
X31037272Y17333181D01*
X31037670Y17334054D01*
X31049981Y17363172D01*
X31054514Y17377597D01*
X31040809Y17379814D01*
X31002925Y17381711D01*
X30945715Y17383153D01*
X30874027Y17384002D01*
X30821565Y17384171D01*
X30720047Y17383308D01*
X30643032Y17379930D01*
X30586023Y17372858D01*
X30544526Y17360912D01*
X30514043Y17342910D01*
X30490080Y17317673D01*
X30473355Y17292753D01*
X30451097Y17232829D01*
X30446076Y17163089D01*
X30458752Y17097400D01*
X30458752Y17097400D01*
G37*
X30458752Y17097400D02*
X30466334Y17080052D01*
X30499128Y17038644D01*
X30546547Y17003235D01*
X30597151Y16981336D01*
X30622098Y16977771D01*
X30656927Y16989721D01*
X30675357Y17015933D01*
X30686516Y17044036D01*
X30688572Y17056905D01*
X30673649Y17063171D01*
X30641175Y17075544D01*
X30626502Y17080972D01*
X30575744Y17111410D01*
X30550427Y17155480D01*
X30551206Y17211990D01*
X30552203Y17216175D01*
X30566507Y17246345D01*
X30594393Y17268524D01*
X30639287Y17283673D01*
X30704615Y17292750D01*
X30793804Y17296714D01*
X30841261Y17297086D01*
X30916071Y17297270D01*
X30967069Y17298478D01*
X30999471Y17301691D01*
X31018495Y17307891D01*
X31029356Y17318060D01*
X31037272Y17333181D01*
X31037670Y17334054D01*
X31049981Y17363172D01*
X31054514Y17377597D01*
X31040809Y17379814D01*
X31002925Y17381711D01*
X30945715Y17383153D01*
X30874027Y17384002D01*
X30821565Y17384171D01*
X30720047Y17383308D01*
X30643032Y17379930D01*
X30586023Y17372858D01*
X30544526Y17360912D01*
X30514043Y17342910D01*
X30490080Y17317673D01*
X30473355Y17292753D01*
X30451097Y17232829D01*
X30446076Y17163089D01*
X30458752Y17097400D01*
G36*
X30466966Y16596405D02*
X30504497Y16538979D01*
X30538096Y16511281D01*
X30599064Y16489338D01*
X30647308Y16487595D01*
X30711816Y16491543D01*
X30776934Y16640314D01*
X30810202Y16712651D01*
X30836964Y16759916D01*
X30860144Y16784493D01*
X30882667Y16788763D01*
X30907455Y16775111D01*
X30923886Y16760057D01*
X30950235Y16716254D01*
X30952081Y16668611D01*
X30931546Y16624855D01*
X30890752Y16592711D01*
X30876347Y16586962D01*
X30831356Y16559424D01*
X30812182Y16527742D01*
X30795779Y16484286D01*
X30857966Y16484286D01*
X30900283Y16488128D01*
X30935969Y16503177D01*
X30976943Y16534720D01*
X30982267Y16539408D01*
X31018720Y16574494D01*
X31038283Y16604653D01*
X31047283Y16642385D01*
X31050230Y16673665D01*
X31050965Y16729615D01*
X31041660Y16769445D01*
X31027846Y16794292D01*
X30997467Y16833344D01*
X30964613Y16860375D01*
X30923294Y16877483D01*
X30867521Y16886762D01*
X30791305Y16890307D01*
X30752622Y16890590D01*
X30706247Y16889628D01*
X30706247Y16801993D01*
X30731126Y16800977D01*
X30735200Y16798444D01*
X30729665Y16781726D01*
X30715017Y16745751D01*
X30694190Y16697669D01*
X30689714Y16687614D01*
X30658814Y16626848D01*
X30631657Y16593368D01*
X30606220Y16586010D01*
X30580481Y16603609D01*
X30569109Y16618144D01*
X30546364Y16670590D01*
X30550122Y16719678D01*
X30577884Y16760773D01*
X30627152Y16789242D01*
X30666257Y16798369D01*
X30706247Y16801993D01*
X30706247Y16889628D01*
X30662249Y16888715D01*
X30595384Y16881804D01*
X30546695Y16868116D01*
X30510849Y16845904D01*
X30482513Y16813426D01*
X30473355Y16799267D01*
X30449507Y16734947D01*
X30448006Y16664527D01*
X30466966Y16596405D01*
X30466966Y16596405D01*
G37*
X30466966Y16596405D02*
X30504497Y16538979D01*
X30538096Y16511281D01*
X30599064Y16489338D01*
X30647308Y16487595D01*
X30711816Y16491543D01*
X30776934Y16640314D01*
X30810202Y16712651D01*
X30836964Y16759916D01*
X30860144Y16784493D01*
X30882667Y16788763D01*
X30907455Y16775111D01*
X30923886Y16760057D01*
X30950235Y16716254D01*
X30952081Y16668611D01*
X30931546Y16624855D01*
X30890752Y16592711D01*
X30876347Y16586962D01*
X30831356Y16559424D01*
X30812182Y16527742D01*
X30795779Y16484286D01*
X30857966Y16484286D01*
X30900283Y16488128D01*
X30935969Y16503177D01*
X30976943Y16534720D01*
X30982267Y16539408D01*
X31018720Y16574494D01*
X31038283Y16604653D01*
X31047283Y16642385D01*
X31050230Y16673665D01*
X31050965Y16729615D01*
X31041660Y16769445D01*
X31027846Y16794292D01*
X30997467Y16833344D01*
X30964613Y16860375D01*
X30923294Y16877483D01*
X30867521Y16886762D01*
X30791305Y16890307D01*
X30752622Y16890590D01*
X30706247Y16889628D01*
X30706247Y16801993D01*
X30731126Y16800977D01*
X30735200Y16798444D01*
X30729665Y16781726D01*
X30715017Y16745751D01*
X30694190Y16697669D01*
X30689714Y16687614D01*
X30658814Y16626848D01*
X30631657Y16593368D01*
X30606220Y16586010D01*
X30580481Y16603609D01*
X30569109Y16618144D01*
X30546364Y16670590D01*
X30550122Y16719678D01*
X30577884Y16760773D01*
X30627152Y16789242D01*
X30666257Y16798369D01*
X30706247Y16801993D01*
X30706247Y16889628D01*
X30662249Y16888715D01*
X30595384Y16881804D01*
X30546695Y16868116D01*
X30510849Y16845904D01*
X30482513Y16813426D01*
X30473355Y16799267D01*
X30449507Y16734947D01*
X30448006Y16664527D01*
X30466966Y16596405D01*
G36*
X25742348Y19646090D02*
X25742778Y19567546D01*
X25743942Y19510702D01*
X25746207Y19471895D01*
X25749940Y19447462D01*
X25755506Y19433738D01*
X25763273Y19427060D01*
X25773605Y19423764D01*
X25774943Y19423444D01*
X25799079Y19418438D01*
X25846701Y19409171D01*
X25912741Y19396608D01*
X25992128Y19381713D01*
X26079796Y19365449D01*
X26082875Y19364881D01*
X26168789Y19348590D01*
X26244696Y19333348D01*
X26306045Y19320139D01*
X26348282Y19309946D01*
X26366855Y19303752D01*
X26367184Y19303457D01*
X26376253Y19285212D01*
X26391367Y19247595D01*
X26409262Y19198729D01*
X26409358Y19198457D01*
X26432493Y19136907D01*
X26461965Y19064343D01*
X26491597Y18995943D01*
X26493062Y18992706D01*
X26543626Y18881298D01*
X26375160Y18634601D01*
X26323803Y18558923D01*
X26277889Y18490369D01*
X26240030Y18432912D01*
X26212837Y18390524D01*
X26198921Y18367175D01*
X26197889Y18364958D01*
X26202484Y18347990D01*
X26224655Y18316299D01*
X26265447Y18268648D01*
X26325905Y18203802D01*
X26390227Y18137603D01*
X26453612Y18073786D01*
X26511451Y18016671D01*
X26560175Y17969695D01*
X26596210Y17936297D01*
X26615984Y17919915D01*
X26617002Y17919306D01*
X26630572Y17917495D01*
X26652733Y17924317D01*
X26686478Y17941460D01*
X26734800Y17970607D01*
X26800692Y18013445D01*
X26885517Y18070552D01*
X26960177Y18121234D01*
X27027140Y18166539D01*
X27082516Y18203850D01*
X27122420Y18230548D01*
X27142962Y18244015D01*
X27144356Y18244863D01*
X27164038Y18243219D01*
X27202293Y18230755D01*
X27251889Y18209952D01*
X27267728Y18202538D01*
X27338290Y18170186D01*
X27418353Y18135672D01*
X27487629Y18107635D01*
X27539045Y18087432D01*
X27578119Y18071385D01*
X27598541Y18062112D01*
X27600114Y18060959D01*
X27602721Y18043904D01*
X27609863Y18003702D01*
X27620523Y17945698D01*
X27633685Y17875237D01*
X27648333Y17797665D01*
X27663449Y17718328D01*
X27678018Y17642569D01*
X27691022Y17575736D01*
X27701445Y17523172D01*
X27708270Y17490224D01*
X27710199Y17482143D01*
X27714962Y17473795D01*
X27725718Y17467494D01*
X27746098Y17462955D01*
X27779734Y17459896D01*
X27830255Y17458033D01*
X27901292Y17457082D01*
X27996476Y17456760D01*
X28035492Y17456743D01*
X28352799Y17456743D01*
X28367839Y17532943D01*
X28375995Y17575337D01*
X28387899Y17638600D01*
X28402116Y17715038D01*
X28417210Y17796957D01*
X28421355Y17819600D01*
X28436053Y17895194D01*
X28450505Y17961047D01*
X28463375Y18011634D01*
X28473322Y18041426D01*
X28476287Y18046388D01*
X28497283Y18058574D01*
X28537967Y18076047D01*
X28590322Y18095423D01*
X28601600Y18099266D01*
X28671523Y18124661D01*
X28750418Y18156183D01*
X28821266Y18187031D01*
X28821595Y18187183D01*
X28932733Y18238553D01*
X29181253Y18069601D01*
X29429772Y17900648D01*
X29647058Y18117571D01*
X29711726Y18183181D01*
X29768733Y18243021D01*
X29815033Y18293733D01*
X29847584Y18331954D01*
X29863343Y18354325D01*
X29864343Y18357534D01*
X29856469Y18376374D01*
X29834578Y18414820D01*
X29801267Y18468670D01*
X29759131Y18533724D01*
X29711943Y18604060D01*
X29663810Y18675445D01*
X29621928Y18739092D01*
X29588871Y18790959D01*
X29567218Y18827005D01*
X29559543Y18843133D01*
X29566037Y18862811D01*
X29583150Y18900125D01*
X29607326Y18947379D01*
X29610013Y18952388D01*
X29641927Y19016023D01*
X29657579Y19059659D01*
X29657745Y19086798D01*
X29643204Y19100943D01*
X29643000Y19101025D01*
X29625779Y19108095D01*
X29584899Y19124958D01*
X29523525Y19150305D01*
X29444819Y19182829D01*
X29351947Y19221222D01*
X29248072Y19264178D01*
X29147502Y19305778D01*
X29036516Y19351496D01*
X28933703Y19393474D01*
X28842215Y19430452D01*
X28765201Y19461173D01*
X28705815Y19484378D01*
X28667209Y19498810D01*
X28652800Y19503257D01*
X28636272Y19492104D01*
X28609930Y19462931D01*
X28580887Y19424029D01*
X28489039Y19313243D01*
X28383759Y19226649D01*
X28267266Y19165284D01*
X28141776Y19130185D01*
X28009507Y19122392D01*
X27948457Y19128057D01*
X27821795Y19158922D01*
X27709941Y19212080D01*
X27614001Y19284233D01*
X27535076Y19372083D01*
X27474270Y19472335D01*
X27432687Y19581690D01*
X27411428Y19696853D01*
X27411599Y19814525D01*
X27434301Y19931410D01*
X27480638Y20044211D01*
X27551713Y20149631D01*
X27591911Y20193632D01*
X27695129Y20278021D01*
X27807925Y20336778D01*
X27927010Y20370296D01*
X28049095Y20378965D01*
X28170893Y20363177D01*
X28289116Y20323322D01*
X28400475Y20259793D01*
X28501684Y20172979D01*
X28580887Y20075971D01*
X28611162Y20035563D01*
X28637219Y20007018D01*
X28652825Y19996743D01*
X28669843Y20002123D01*
X28710500Y20017425D01*
X28771642Y20041388D01*
X28850119Y20072756D01*
X28942780Y20110268D01*
X29046472Y20152667D01*
X29147526Y20194337D01*
X29258607Y20240310D01*
X29361541Y20282893D01*
X29453165Y20320779D01*
X29530316Y20352660D01*
X29589831Y20377229D01*
X29628544Y20393180D01*
X29643000Y20399090D01*
X29657685Y20413052D01*
X29657642Y20440060D01*
X29642099Y20483587D01*
X29610284Y20547110D01*
X29610013Y20547612D01*
X29585323Y20595440D01*
X29567338Y20634103D01*
X29559614Y20655905D01*
X29559543Y20656867D01*
X29567378Y20673279D01*
X29589165Y20709513D01*
X29622328Y20761526D01*
X29664291Y20825275D01*
X29711943Y20895940D01*
X29760191Y20967884D01*
X29802151Y21032726D01*
X29835227Y21086265D01*
X29856821Y21124303D01*
X29864343Y21142467D01*
X29854457Y21159192D01*
X29826826Y21192820D01*
X29784495Y21239990D01*
X29730505Y21297342D01*
X29667899Y21361516D01*
X29646983Y21382503D01*
X29429623Y21599501D01*
X29187220Y21434332D01*
X29112781Y21384136D01*
X29045972Y21340081D01*
X28990665Y21304638D01*
X28950729Y21280281D01*
X28930036Y21269478D01*
X28928563Y21269162D01*
X28909058Y21274857D01*
X28869822Y21290174D01*
X28817430Y21312463D01*
X28782355Y21328107D01*
X28715201Y21357359D01*
X28647358Y21384906D01*
X28590034Y21406263D01*
X28572572Y21412065D01*
X28525938Y21428548D01*
X28489905Y21444660D01*
X28476287Y21453510D01*
X28467952Y21473040D01*
X28456137Y21515666D01*
X28442181Y21575855D01*
X28427422Y21648078D01*
X28421355Y21680400D01*
X28406273Y21762478D01*
X28391669Y21841205D01*
X28378980Y21908891D01*
X28369642Y21957840D01*
X28367839Y21967057D01*
X28352799Y22043257D01*
X28035492Y22043257D01*
X27931154Y22043086D01*
X27852213Y22042384D01*
X27795038Y22040866D01*
X27755999Y22038251D01*
X27731465Y22034254D01*
X27717805Y22028591D01*
X27711389Y22020980D01*
X27710199Y22017857D01*
X27705980Y21999022D01*
X27697562Y21957412D01*
X27685961Y21898370D01*
X27672195Y21827243D01*
X27657280Y21749375D01*
X27642232Y21670113D01*
X27628069Y21594802D01*
X27615806Y21528787D01*
X27606461Y21477413D01*
X27601050Y21446025D01*
X27600114Y21439041D01*
X27587596Y21432715D01*
X27554246Y21418710D01*
X27506377Y21399645D01*
X27487629Y21392366D01*
X27415195Y21363004D01*
X27335170Y21328429D01*
X27267728Y21297463D01*
X27216159Y21274677D01*
X27173785Y21259518D01*
X27147834Y21254458D01*
X27144356Y21255264D01*
X27127936Y21265959D01*
X27091417Y21290380D01*
X27038687Y21325905D01*
X26973635Y21369913D01*
X26900151Y21419783D01*
X26885645Y21429644D01*
X26799704Y21487508D01*
X26734261Y21530044D01*
X26686304Y21558946D01*
X26652820Y21575910D01*
X26630795Y21582633D01*
X26617217Y21580810D01*
X26617131Y21580764D01*
X26599297Y21566414D01*
X26564817Y21534677D01*
X26517268Y21488990D01*
X26460222Y21432796D01*
X26397255Y21369532D01*
X26390227Y21362398D01*
X26313020Y21282670D01*
X26256330Y21221143D01*
X26219110Y21176579D01*
X26200315Y21147743D01*
X26197889Y21135042D01*
X26208471Y21116506D01*
X26232916Y21078039D01*
X26268612Y21023614D01*
X26312947Y20957202D01*
X26363311Y20882775D01*
X26375160Y20865399D01*
X26543626Y20618703D01*
X26493062Y20507294D01*
X26463595Y20439543D01*
X26433959Y20366817D01*
X26410330Y20304297D01*
X26409358Y20301543D01*
X26391457Y20252640D01*
X26376320Y20214943D01*
X26367210Y20196575D01*
X26367184Y20196544D01*
X26350717Y20190715D01*
X26310219Y20180808D01*
X26250242Y20167805D01*
X26175340Y20152691D01*
X26090064Y20136448D01*
X26082875Y20135119D01*
X25995014Y20118825D01*
X25915260Y20103867D01*
X25848681Y20091209D01*
X25800347Y20081814D01*
X25775325Y20076646D01*
X25774943Y20076556D01*
X25764299Y20073411D01*
X25756262Y20067296D01*
X25750467Y20054547D01*
X25746547Y20031500D01*
X25744135Y19994491D01*
X25742865Y19939856D01*
X25742371Y19863933D01*
X25742286Y19763056D01*
X25742286Y19750000D01*
X25742348Y19646090D01*
X25742348Y19646090D01*
G37*
X25742348Y19646090D02*
X25742778Y19567546D01*
X25743942Y19510702D01*
X25746207Y19471895D01*
X25749940Y19447462D01*
X25755506Y19433738D01*
X25763273Y19427060D01*
X25773605Y19423764D01*
X25774943Y19423444D01*
X25799079Y19418438D01*
X25846701Y19409171D01*
X25912741Y19396608D01*
X25992128Y19381713D01*
X26079796Y19365449D01*
X26082875Y19364881D01*
X26168789Y19348590D01*
X26244696Y19333348D01*
X26306045Y19320139D01*
X26348282Y19309946D01*
X26366855Y19303752D01*
X26367184Y19303457D01*
X26376253Y19285212D01*
X26391367Y19247595D01*
X26409262Y19198729D01*
X26409358Y19198457D01*
X26432493Y19136907D01*
X26461965Y19064343D01*
X26491597Y18995943D01*
X26493062Y18992706D01*
X26543626Y18881298D01*
X26375160Y18634601D01*
X26323803Y18558923D01*
X26277889Y18490369D01*
X26240030Y18432912D01*
X26212837Y18390524D01*
X26198921Y18367175D01*
X26197889Y18364958D01*
X26202484Y18347990D01*
X26224655Y18316299D01*
X26265447Y18268648D01*
X26325905Y18203802D01*
X26390227Y18137603D01*
X26453612Y18073786D01*
X26511451Y18016671D01*
X26560175Y17969695D01*
X26596210Y17936297D01*
X26615984Y17919915D01*
X26617002Y17919306D01*
X26630572Y17917495D01*
X26652733Y17924317D01*
X26686478Y17941460D01*
X26734800Y17970607D01*
X26800692Y18013445D01*
X26885517Y18070552D01*
X26960177Y18121234D01*
X27027140Y18166539D01*
X27082516Y18203850D01*
X27122420Y18230548D01*
X27142962Y18244015D01*
X27144356Y18244863D01*
X27164038Y18243219D01*
X27202293Y18230755D01*
X27251889Y18209952D01*
X27267728Y18202538D01*
X27338290Y18170186D01*
X27418353Y18135672D01*
X27487629Y18107635D01*
X27539045Y18087432D01*
X27578119Y18071385D01*
X27598541Y18062112D01*
X27600114Y18060959D01*
X27602721Y18043904D01*
X27609863Y18003702D01*
X27620523Y17945698D01*
X27633685Y17875237D01*
X27648333Y17797665D01*
X27663449Y17718328D01*
X27678018Y17642569D01*
X27691022Y17575736D01*
X27701445Y17523172D01*
X27708270Y17490224D01*
X27710199Y17482143D01*
X27714962Y17473795D01*
X27725718Y17467494D01*
X27746098Y17462955D01*
X27779734Y17459896D01*
X27830255Y17458033D01*
X27901292Y17457082D01*
X27996476Y17456760D01*
X28035492Y17456743D01*
X28352799Y17456743D01*
X28367839Y17532943D01*
X28375995Y17575337D01*
X28387899Y17638600D01*
X28402116Y17715038D01*
X28417210Y17796957D01*
X28421355Y17819600D01*
X28436053Y17895194D01*
X28450505Y17961047D01*
X28463375Y18011634D01*
X28473322Y18041426D01*
X28476287Y18046388D01*
X28497283Y18058574D01*
X28537967Y18076047D01*
X28590322Y18095423D01*
X28601600Y18099266D01*
X28671523Y18124661D01*
X28750418Y18156183D01*
X28821266Y18187031D01*
X28821595Y18187183D01*
X28932733Y18238553D01*
X29181253Y18069601D01*
X29429772Y17900648D01*
X29647058Y18117571D01*
X29711726Y18183181D01*
X29768733Y18243021D01*
X29815033Y18293733D01*
X29847584Y18331954D01*
X29863343Y18354325D01*
X29864343Y18357534D01*
X29856469Y18376374D01*
X29834578Y18414820D01*
X29801267Y18468670D01*
X29759131Y18533724D01*
X29711943Y18604060D01*
X29663810Y18675445D01*
X29621928Y18739092D01*
X29588871Y18790959D01*
X29567218Y18827005D01*
X29559543Y18843133D01*
X29566037Y18862811D01*
X29583150Y18900125D01*
X29607326Y18947379D01*
X29610013Y18952388D01*
X29641927Y19016023D01*
X29657579Y19059659D01*
X29657745Y19086798D01*
X29643204Y19100943D01*
X29643000Y19101025D01*
X29625779Y19108095D01*
X29584899Y19124958D01*
X29523525Y19150305D01*
X29444819Y19182829D01*
X29351947Y19221222D01*
X29248072Y19264178D01*
X29147502Y19305778D01*
X29036516Y19351496D01*
X28933703Y19393474D01*
X28842215Y19430452D01*
X28765201Y19461173D01*
X28705815Y19484378D01*
X28667209Y19498810D01*
X28652800Y19503257D01*
X28636272Y19492104D01*
X28609930Y19462931D01*
X28580887Y19424029D01*
X28489039Y19313243D01*
X28383759Y19226649D01*
X28267266Y19165284D01*
X28141776Y19130185D01*
X28009507Y19122392D01*
X27948457Y19128057D01*
X27821795Y19158922D01*
X27709941Y19212080D01*
X27614001Y19284233D01*
X27535076Y19372083D01*
X27474270Y19472335D01*
X27432687Y19581690D01*
X27411428Y19696853D01*
X27411599Y19814525D01*
X27434301Y19931410D01*
X27480638Y20044211D01*
X27551713Y20149631D01*
X27591911Y20193632D01*
X27695129Y20278021D01*
X27807925Y20336778D01*
X27927010Y20370296D01*
X28049095Y20378965D01*
X28170893Y20363177D01*
X28289116Y20323322D01*
X28400475Y20259793D01*
X28501684Y20172979D01*
X28580887Y20075971D01*
X28611162Y20035563D01*
X28637219Y20007018D01*
X28652825Y19996743D01*
X28669843Y20002123D01*
X28710500Y20017425D01*
X28771642Y20041388D01*
X28850119Y20072756D01*
X28942780Y20110268D01*
X29046472Y20152667D01*
X29147526Y20194337D01*
X29258607Y20240310D01*
X29361541Y20282893D01*
X29453165Y20320779D01*
X29530316Y20352660D01*
X29589831Y20377229D01*
X29628544Y20393180D01*
X29643000Y20399090D01*
X29657685Y20413052D01*
X29657642Y20440060D01*
X29642099Y20483587D01*
X29610284Y20547110D01*
X29610013Y20547612D01*
X29585323Y20595440D01*
X29567338Y20634103D01*
X29559614Y20655905D01*
X29559543Y20656867D01*
X29567378Y20673279D01*
X29589165Y20709513D01*
X29622328Y20761526D01*
X29664291Y20825275D01*
X29711943Y20895940D01*
X29760191Y20967884D01*
X29802151Y21032726D01*
X29835227Y21086265D01*
X29856821Y21124303D01*
X29864343Y21142467D01*
X29854457Y21159192D01*
X29826826Y21192820D01*
X29784495Y21239990D01*
X29730505Y21297342D01*
X29667899Y21361516D01*
X29646983Y21382503D01*
X29429623Y21599501D01*
X29187220Y21434332D01*
X29112781Y21384136D01*
X29045972Y21340081D01*
X28990665Y21304638D01*
X28950729Y21280281D01*
X28930036Y21269478D01*
X28928563Y21269162D01*
X28909058Y21274857D01*
X28869822Y21290174D01*
X28817430Y21312463D01*
X28782355Y21328107D01*
X28715201Y21357359D01*
X28647358Y21384906D01*
X28590034Y21406263D01*
X28572572Y21412065D01*
X28525938Y21428548D01*
X28489905Y21444660D01*
X28476287Y21453510D01*
X28467952Y21473040D01*
X28456137Y21515666D01*
X28442181Y21575855D01*
X28427422Y21648078D01*
X28421355Y21680400D01*
X28406273Y21762478D01*
X28391669Y21841205D01*
X28378980Y21908891D01*
X28369642Y21957840D01*
X28367839Y21967057D01*
X28352799Y22043257D01*
X28035492Y22043257D01*
X27931154Y22043086D01*
X27852213Y22042384D01*
X27795038Y22040866D01*
X27755999Y22038251D01*
X27731465Y22034254D01*
X27717805Y22028591D01*
X27711389Y22020980D01*
X27710199Y22017857D01*
X27705980Y21999022D01*
X27697562Y21957412D01*
X27685961Y21898370D01*
X27672195Y21827243D01*
X27657280Y21749375D01*
X27642232Y21670113D01*
X27628069Y21594802D01*
X27615806Y21528787D01*
X27606461Y21477413D01*
X27601050Y21446025D01*
X27600114Y21439041D01*
X27587596Y21432715D01*
X27554246Y21418710D01*
X27506377Y21399645D01*
X27487629Y21392366D01*
X27415195Y21363004D01*
X27335170Y21328429D01*
X27267728Y21297463D01*
X27216159Y21274677D01*
X27173785Y21259518D01*
X27147834Y21254458D01*
X27144356Y21255264D01*
X27127936Y21265959D01*
X27091417Y21290380D01*
X27038687Y21325905D01*
X26973635Y21369913D01*
X26900151Y21419783D01*
X26885645Y21429644D01*
X26799704Y21487508D01*
X26734261Y21530044D01*
X26686304Y21558946D01*
X26652820Y21575910D01*
X26630795Y21582633D01*
X26617217Y21580810D01*
X26617131Y21580764D01*
X26599297Y21566414D01*
X26564817Y21534677D01*
X26517268Y21488990D01*
X26460222Y21432796D01*
X26397255Y21369532D01*
X26390227Y21362398D01*
X26313020Y21282670D01*
X26256330Y21221143D01*
X26219110Y21176579D01*
X26200315Y21147743D01*
X26197889Y21135042D01*
X26208471Y21116506D01*
X26232916Y21078039D01*
X26268612Y21023614D01*
X26312947Y20957202D01*
X26363311Y20882775D01*
X26375160Y20865399D01*
X26543626Y20618703D01*
X26493062Y20507294D01*
X26463595Y20439543D01*
X26433959Y20366817D01*
X26410330Y20304297D01*
X26409358Y20301543D01*
X26391457Y20252640D01*
X26376320Y20214943D01*
X26367210Y20196575D01*
X26367184Y20196544D01*
X26350717Y20190715D01*
X26310219Y20180808D01*
X26250242Y20167805D01*
X26175340Y20152691D01*
X26090064Y20136448D01*
X26082875Y20135119D01*
X25995014Y20118825D01*
X25915260Y20103867D01*
X25848681Y20091209D01*
X25800347Y20081814D01*
X25775325Y20076646D01*
X25774943Y20076556D01*
X25764299Y20073411D01*
X25756262Y20067296D01*
X25750467Y20054547D01*
X25746547Y20031500D01*
X25744135Y19994491D01*
X25742865Y19939856D01*
X25742371Y19863933D01*
X25742286Y19763056D01*
X25742286Y19750000D01*
X25742348Y19646090D01*
D13*
X25460000Y13263748D02*
X25460000Y13786252D01*
X24040000Y13263748D02*
X24040000Y13786252D01*
X7290000Y6763748D02*
X7290000Y7286252D01*
X8710000Y6763748D02*
X8710000Y7286252D01*
X12710000Y6713748D02*
X12710000Y7236252D01*
X11290000Y6713748D02*
X11290000Y7236252D01*
X16790000Y19786252D02*
X16790000Y19263748D01*
X18210000Y19786252D02*
X18210000Y19263748D01*
X14790000Y13263748D02*
X14790000Y13786252D01*
X16210000Y13263748D02*
X16210000Y13786252D01*
X19210000Y25236252D02*
X19210000Y24713748D01*
X17790000Y25236252D02*
X17790000Y24713748D01*
X22210000Y13263748D02*
X22210000Y13786252D01*
X20790000Y13263748D02*
X20790000Y13786252D01*
X19210000Y13263748D02*
X19210000Y13786252D01*
X17790000Y13263748D02*
X17790000Y13786252D01*
X10290000Y19761252D02*
X10290000Y19238748D01*
X11710000Y19761252D02*
X11710000Y19238748D01*
X14990000Y19786252D02*
X14990000Y19263748D01*
X13570000Y19786252D02*
X13570000Y19263748D01*
X14790000Y6713748D02*
X14790000Y7236252D01*
X16210000Y6713748D02*
X16210000Y7236252D01*
D14*
X43488095Y30337620D02*
X42869047Y30337620D01*
X43202380Y29956667D01*
X43059523Y29956667D01*
X42964285Y29909048D01*
X42916666Y29861429D01*
X42869047Y29766191D01*
X42869047Y29528096D01*
X42916666Y29432858D01*
X42964285Y29385239D01*
X43059523Y29337620D01*
X43345238Y29337620D01*
X43440476Y29385239D01*
X43488095Y29432858D01*
X42583333Y30337620D02*
X42250000Y29337620D01*
X41916666Y30337620D01*
X41678571Y30337620D02*
X41059523Y30337620D01*
X41392857Y29956667D01*
X41250000Y29956667D01*
X41154761Y29909048D01*
X41107142Y29861429D01*
X41059523Y29766191D01*
X41059523Y29528096D01*
X41107142Y29432858D01*
X41154761Y29385239D01*
X41250000Y29337620D01*
X41535714Y29337620D01*
X41630952Y29385239D01*
X41678571Y29432858D01*
X42869047Y18837620D02*
X43440476Y18837620D01*
X43154761Y18837620D02*
X43154761Y19837620D01*
X43250000Y19694762D01*
X43345238Y19599524D01*
X43440476Y19551905D01*
X42488095Y19742381D02*
X42440476Y19790000D01*
X42345238Y19837620D01*
X42107142Y19837620D01*
X42011904Y19790000D01*
X41964285Y19742381D01*
X41916666Y19647143D01*
X41916666Y19551905D01*
X41964285Y19409048D01*
X42535714Y18837620D01*
X41916666Y18837620D01*
X41630952Y19837620D02*
X41297619Y18837620D01*
X40964285Y19837620D01*
X26757142Y13691667D02*
X26804761Y13739286D01*
X26852380Y13882143D01*
X26852380Y13977381D01*
X26804761Y14120239D01*
X26709523Y14215477D01*
X26614285Y14263096D01*
X26423809Y14310715D01*
X26280952Y14310715D01*
X26090476Y14263096D01*
X25995238Y14215477D01*
X25900000Y14120239D01*
X25852380Y13977381D01*
X25852380Y13882143D01*
X25900000Y13739286D01*
X25947619Y13691667D01*
X25947619Y13310715D02*
X25900000Y13263096D01*
X25852380Y13167858D01*
X25852380Y12929762D01*
X25900000Y12834524D01*
X25947619Y12786905D01*
X26042857Y12739286D01*
X26138095Y12739286D01*
X26280952Y12786905D01*
X26852380Y13358334D01*
X26852380Y12739286D01*
X10102380Y7191667D02*
X9626190Y7525000D01*
X10102380Y7763096D02*
X9102380Y7763096D01*
X9102380Y7382143D01*
X9150000Y7286905D01*
X9197619Y7239286D01*
X9292857Y7191667D01*
X9435714Y7191667D01*
X9530952Y7239286D01*
X9578571Y7286905D01*
X9626190Y7382143D01*
X9626190Y7763096D01*
X10102380Y6239286D02*
X10102380Y6810715D01*
X10102380Y6525000D02*
X9102380Y6525000D01*
X9245238Y6620239D01*
X9340476Y6715477D01*
X9388095Y6810715D01*
X13952380Y7166667D02*
X13476190Y7500000D01*
X13952380Y7738096D02*
X12952380Y7738096D01*
X12952380Y7357143D01*
X13000000Y7261905D01*
X13047619Y7214286D01*
X13142857Y7166667D01*
X13285714Y7166667D01*
X13380952Y7214286D01*
X13428571Y7261905D01*
X13476190Y7357143D01*
X13476190Y7738096D01*
X13047619Y6785715D02*
X13000000Y6738096D01*
X12952380Y6642858D01*
X12952380Y6404762D01*
X13000000Y6309524D01*
X13047619Y6261905D01*
X13142857Y6214286D01*
X13238095Y6214286D01*
X13380952Y6261905D01*
X13952380Y6833334D01*
X13952380Y6214286D01*
X16302380Y19691667D02*
X15826190Y20025000D01*
X16302380Y20263096D02*
X15302380Y20263096D01*
X15302380Y19882143D01*
X15350000Y19786905D01*
X15397619Y19739286D01*
X15492857Y19691667D01*
X15635714Y19691667D01*
X15730952Y19739286D01*
X15778571Y19786905D01*
X15826190Y19882143D01*
X15826190Y20263096D01*
X15302380Y19358334D02*
X15302380Y18739286D01*
X15683333Y19072620D01*
X15683333Y18929762D01*
X15730952Y18834524D01*
X15778571Y18786905D01*
X15873809Y18739286D01*
X16111904Y18739286D01*
X16207142Y18786905D01*
X16254761Y18834524D01*
X16302380Y18929762D01*
X16302380Y19215477D01*
X16254761Y19310715D01*
X16207142Y19358334D01*
X17602380Y13691667D02*
X17126190Y14025000D01*
X17602380Y14263096D02*
X16602380Y14263096D01*
X16602380Y13882143D01*
X16650000Y13786905D01*
X16697619Y13739286D01*
X16792857Y13691667D01*
X16935714Y13691667D01*
X17030952Y13739286D01*
X17078571Y13786905D01*
X17126190Y13882143D01*
X17126190Y14263096D01*
X16935714Y12834524D02*
X17602380Y12834524D01*
X16554761Y13072620D02*
X17269047Y13310715D01*
X17269047Y12691667D01*
X17302380Y25141667D02*
X16826190Y25475000D01*
X17302380Y25713096D02*
X16302380Y25713096D01*
X16302380Y25332143D01*
X16350000Y25236905D01*
X16397619Y25189286D01*
X16492857Y25141667D01*
X16635714Y25141667D01*
X16730952Y25189286D01*
X16778571Y25236905D01*
X16826190Y25332143D01*
X16826190Y25713096D01*
X16302380Y24236905D02*
X16302380Y24713096D01*
X16778571Y24760715D01*
X16730952Y24713096D01*
X16683333Y24617858D01*
X16683333Y24379762D01*
X16730952Y24284524D01*
X16778571Y24236905D01*
X16873809Y24189286D01*
X17111904Y24189286D01*
X17207142Y24236905D01*
X17254761Y24284524D01*
X17302380Y24379762D01*
X17302380Y24617858D01*
X17254761Y24713096D01*
X17207142Y24760715D01*
X23602380Y13691667D02*
X23126190Y14025000D01*
X23602380Y14263096D02*
X22602380Y14263096D01*
X22602380Y13882143D01*
X22650000Y13786905D01*
X22697619Y13739286D01*
X22792857Y13691667D01*
X22935714Y13691667D01*
X23030952Y13739286D01*
X23078571Y13786905D01*
X23126190Y13882143D01*
X23126190Y14263096D01*
X22602380Y12834524D02*
X22602380Y13025000D01*
X22650000Y13120239D01*
X22697619Y13167858D01*
X22840476Y13263096D01*
X23030952Y13310715D01*
X23411904Y13310715D01*
X23507142Y13263096D01*
X23554761Y13215477D01*
X23602380Y13120239D01*
X23602380Y12929762D01*
X23554761Y12834524D01*
X23507142Y12786905D01*
X23411904Y12739286D01*
X23173809Y12739286D01*
X23078571Y12786905D01*
X23030952Y12834524D01*
X22983333Y12929762D01*
X22983333Y13120239D01*
X23030952Y13215477D01*
X23078571Y13263096D01*
X23173809Y13310715D01*
X20602380Y13691667D02*
X20126190Y14025000D01*
X20602380Y14263096D02*
X19602380Y14263096D01*
X19602380Y13882143D01*
X19650000Y13786905D01*
X19697619Y13739286D01*
X19792857Y13691667D01*
X19935714Y13691667D01*
X20030952Y13739286D01*
X20078571Y13786905D01*
X20126190Y13882143D01*
X20126190Y14263096D01*
X19602380Y13358334D02*
X19602380Y12691667D01*
X20602380Y13120239D01*
X9802380Y19666667D02*
X9326190Y20000000D01*
X9802380Y20238096D02*
X8802380Y20238096D01*
X8802380Y19857143D01*
X8850000Y19761905D01*
X8897619Y19714286D01*
X8992857Y19666667D01*
X9135714Y19666667D01*
X9230952Y19714286D01*
X9278571Y19761905D01*
X9326190Y19857143D01*
X9326190Y20238096D01*
X9230952Y19095239D02*
X9183333Y19190477D01*
X9135714Y19238096D01*
X9040476Y19285715D01*
X8992857Y19285715D01*
X8897619Y19238096D01*
X8850000Y19190477D01*
X8802380Y19095239D01*
X8802380Y18904762D01*
X8850000Y18809524D01*
X8897619Y18761905D01*
X8992857Y18714286D01*
X9040476Y18714286D01*
X9135714Y18761905D01*
X9183333Y18809524D01*
X9230952Y18904762D01*
X9230952Y19095239D01*
X9278571Y19190477D01*
X9326190Y19238096D01*
X9421428Y19285715D01*
X9611904Y19285715D01*
X9707142Y19238096D01*
X9754761Y19190477D01*
X9802380Y19095239D01*
X9802380Y18904762D01*
X9754761Y18809524D01*
X9707142Y18761905D01*
X9611904Y18714286D01*
X9421428Y18714286D01*
X9326190Y18761905D01*
X9278571Y18809524D01*
X9230952Y18904762D01*
X13082380Y19691667D02*
X12606190Y20025000D01*
X13082380Y20263096D02*
X12082380Y20263096D01*
X12082380Y19882143D01*
X12130000Y19786905D01*
X12177619Y19739286D01*
X12272857Y19691667D01*
X12415714Y19691667D01*
X12510952Y19739286D01*
X12558571Y19786905D01*
X12606190Y19882143D01*
X12606190Y20263096D01*
X13082380Y19215477D02*
X13082380Y19025000D01*
X13034761Y18929762D01*
X12987142Y18882143D01*
X12844285Y18786905D01*
X12653809Y18739286D01*
X12272857Y18739286D01*
X12177619Y18786905D01*
X12130000Y18834524D01*
X12082380Y18929762D01*
X12082380Y19120239D01*
X12130000Y19215477D01*
X12177619Y19263096D01*
X12272857Y19310715D01*
X12510952Y19310715D01*
X12606190Y19263096D01*
X12653809Y19215477D01*
X12701428Y19120239D01*
X12701428Y18929762D01*
X12653809Y18834524D01*
X12606190Y18786905D01*
X12510952Y18739286D01*
X17702380Y7892858D02*
X17226190Y8226191D01*
X17702380Y8464286D02*
X16702380Y8464286D01*
X16702380Y8083334D01*
X16750000Y7988096D01*
X16797619Y7940477D01*
X16892857Y7892858D01*
X17035714Y7892858D01*
X17130952Y7940477D01*
X17178571Y7988096D01*
X17226190Y8083334D01*
X17226190Y8464286D01*
X17702380Y6940477D02*
X17702380Y7511905D01*
X17702380Y7226191D02*
X16702380Y7226191D01*
X16845238Y7321429D01*
X16940476Y7416667D01*
X16988095Y7511905D01*
X16702380Y6321429D02*
X16702380Y6226191D01*
X16750000Y6130953D01*
X16797619Y6083334D01*
X16892857Y6035715D01*
X17083333Y5988096D01*
X17321428Y5988096D01*
X17511904Y6035715D01*
X17607142Y6083334D01*
X17654761Y6130953D01*
X17702380Y6226191D01*
X17702380Y6321429D01*
X17654761Y6416667D01*
X17607142Y6464286D01*
X17511904Y6511905D01*
X17321428Y6559524D01*
X17083333Y6559524D01*
X16892857Y6511905D01*
X16797619Y6464286D01*
X16750000Y6416667D01*
X16702380Y6321429D01*
M02*
