%TF.GenerationSoftware,KiCad,Pcbnew,5.1.2-f72e74a~84~ubuntu18.04.1*%
%TF.CreationDate,2019-05-18T14:46:29+02:00*%
%TF.ProjectId,rgbww-micro-board,72676277-772d-46d6-9963-726f2d626f61,rev?*%
%TF.SameCoordinates,PXb903480PY55d4a80*%
%TF.FileFunction,Soldermask,Bot*%
%TF.FilePolarity,Negative*%
%FSLAX46Y46*%
G04 Gerber Fmt 4.6, Leading zero omitted, Abs format (unit mm)*
G04 Created by KiCad (PCBNEW 5.1.2-f72e74a~84~ubuntu18.04.1) date 2019-05-18 14:46:29*
%MOMM*%
%LPD*%
G04 APERTURE LIST*
%ADD10C,0.200000*%
%ADD11C,0.100000*%
G04 APERTURE END LIST*
D10*
X44500000Y33750000D02*
X0Y33750000D01*
X44500000Y0D02*
X44500000Y33750000D01*
X0Y0D02*
X44500000Y0D01*
X0Y33750000D02*
X0Y0D01*
D11*
G36*
X13056416Y3010121D02*
G01*
X13247592Y2930933D01*
X13247594Y2930932D01*
X13263995Y2919973D01*
X13419648Y2815969D01*
X13565969Y2669648D01*
X13680933Y2497592D01*
X13760121Y2306416D01*
X13800490Y2103466D01*
X13800490Y1896534D01*
X13760121Y1693584D01*
X13713084Y1580027D01*
X13680932Y1502406D01*
X13565969Y1330352D01*
X13419648Y1184031D01*
X13247594Y1069068D01*
X13247593Y1069067D01*
X13247592Y1069067D01*
X13056416Y989879D01*
X12853466Y949510D01*
X12646534Y949510D01*
X12443584Y989879D01*
X12252408Y1069067D01*
X12252407Y1069067D01*
X12252406Y1069068D01*
X12080352Y1184031D01*
X11934031Y1330352D01*
X11819068Y1502406D01*
X11786916Y1580027D01*
X11739879Y1693584D01*
X11699510Y1896534D01*
X11699510Y2103466D01*
X11739879Y2306416D01*
X11819067Y2497592D01*
X11934031Y2669648D01*
X12080352Y2815969D01*
X12236005Y2919973D01*
X12252406Y2930932D01*
X12252408Y2930933D01*
X12443584Y3010121D01*
X12646534Y3050490D01*
X12853466Y3050490D01*
X13056416Y3010121D01*
X13056416Y3010121D01*
G37*
G36*
X19556416Y3010121D02*
G01*
X19747592Y2930933D01*
X19747594Y2930932D01*
X19763995Y2919973D01*
X19919648Y2815969D01*
X20065969Y2669648D01*
X20180933Y2497592D01*
X20260121Y2306416D01*
X20300490Y2103466D01*
X20300490Y1896534D01*
X20260121Y1693584D01*
X20213084Y1580027D01*
X20180932Y1502406D01*
X20065969Y1330352D01*
X19919648Y1184031D01*
X19747594Y1069068D01*
X19747593Y1069067D01*
X19747592Y1069067D01*
X19556416Y989879D01*
X19353466Y949510D01*
X19146534Y949510D01*
X18943584Y989879D01*
X18752408Y1069067D01*
X18752407Y1069067D01*
X18752406Y1069068D01*
X18580352Y1184031D01*
X18434031Y1330352D01*
X18319068Y1502406D01*
X18286916Y1580027D01*
X18239879Y1693584D01*
X18199510Y1896534D01*
X18199510Y2103466D01*
X18239879Y2306416D01*
X18319067Y2497592D01*
X18434031Y2669648D01*
X18580352Y2815969D01*
X18736005Y2919973D01*
X18752406Y2930932D01*
X18752408Y2930933D01*
X18943584Y3010121D01*
X19146534Y3050490D01*
X19353466Y3050490D01*
X19556416Y3010121D01*
X19556416Y3010121D01*
G37*
G36*
X16306416Y3010121D02*
G01*
X16497592Y2930933D01*
X16497594Y2930932D01*
X16513995Y2919973D01*
X16669648Y2815969D01*
X16815969Y2669648D01*
X16930933Y2497592D01*
X17010121Y2306416D01*
X17050490Y2103466D01*
X17050490Y1896534D01*
X17010121Y1693584D01*
X16963084Y1580027D01*
X16930932Y1502406D01*
X16815969Y1330352D01*
X16669648Y1184031D01*
X16497594Y1069068D01*
X16497593Y1069067D01*
X16497592Y1069067D01*
X16306416Y989879D01*
X16103466Y949510D01*
X15896534Y949510D01*
X15693584Y989879D01*
X15502408Y1069067D01*
X15502407Y1069067D01*
X15502406Y1069068D01*
X15330352Y1184031D01*
X15184031Y1330352D01*
X15069068Y1502406D01*
X15036916Y1580027D01*
X14989879Y1693584D01*
X14949510Y1896534D01*
X14949510Y2103466D01*
X14989879Y2306416D01*
X15069067Y2497592D01*
X15184031Y2669648D01*
X15330352Y2815969D01*
X15486005Y2919973D01*
X15502406Y2930932D01*
X15502408Y2930933D01*
X15693584Y3010121D01*
X15896534Y3050490D01*
X16103466Y3050490D01*
X16306416Y3010121D01*
X16306416Y3010121D01*
G37*
G36*
X39551000Y1199000D02*
G01*
X37449000Y1199000D01*
X37449000Y3301000D01*
X39551000Y3301000D01*
X39551000Y1199000D01*
X39551000Y1199000D01*
G37*
G36*
X35306564Y3260611D02*
G01*
X35497833Y3181385D01*
X35497835Y3181384D01*
X35669973Y3066365D01*
X35816365Y2919973D01*
X35892143Y2806564D01*
X35931385Y2747833D01*
X36010611Y2556564D01*
X36051000Y2353516D01*
X36051000Y2146484D01*
X36010611Y1943436D01*
X35931385Y1752167D01*
X35931384Y1752165D01*
X35816365Y1580027D01*
X35669973Y1433635D01*
X35497835Y1318616D01*
X35497834Y1318615D01*
X35497833Y1318615D01*
X35306564Y1239389D01*
X35103516Y1199000D01*
X34896484Y1199000D01*
X34693436Y1239389D01*
X34502167Y1318615D01*
X34502166Y1318615D01*
X34502165Y1318616D01*
X34330027Y1433635D01*
X34183635Y1580027D01*
X34068616Y1752165D01*
X34068615Y1752167D01*
X33989389Y1943436D01*
X33949000Y2146484D01*
X33949000Y2353516D01*
X33989389Y2556564D01*
X34068615Y2747833D01*
X34107858Y2806564D01*
X34183635Y2919973D01*
X34330027Y3066365D01*
X34502165Y3181384D01*
X34502167Y3181385D01*
X34693436Y3260611D01*
X34896484Y3301000D01*
X35103516Y3301000D01*
X35306564Y3260611D01*
X35306564Y3260611D01*
G37*
G36*
X28306564Y3510611D02*
G01*
X28497833Y3431385D01*
X28497835Y3431384D01*
X28669973Y3316365D01*
X28816365Y3169973D01*
X28923175Y3010121D01*
X28931385Y2997833D01*
X29010611Y2806564D01*
X29051000Y2603516D01*
X29051000Y2396484D01*
X29010611Y2193436D01*
X28973344Y2103466D01*
X28931384Y2002165D01*
X28816365Y1830027D01*
X28669973Y1683635D01*
X28497835Y1568616D01*
X28497834Y1568615D01*
X28497833Y1568615D01*
X28306564Y1489389D01*
X28103516Y1449000D01*
X27896484Y1449000D01*
X27693436Y1489389D01*
X27502167Y1568615D01*
X27502166Y1568615D01*
X27502165Y1568616D01*
X27330027Y1683635D01*
X27183635Y1830027D01*
X27068616Y2002165D01*
X27026656Y2103466D01*
X26989389Y2193436D01*
X26949000Y2396484D01*
X26949000Y2603516D01*
X26989389Y2806564D01*
X27068615Y2997833D01*
X27076826Y3010121D01*
X27183635Y3169973D01*
X27330027Y3316365D01*
X27502165Y3431384D01*
X27502167Y3431385D01*
X27693436Y3510611D01*
X27896484Y3551000D01*
X28103516Y3551000D01*
X28306564Y3510611D01*
X28306564Y3510611D01*
G37*
G36*
X25551000Y1449000D02*
G01*
X23449000Y1449000D01*
X23449000Y3551000D01*
X25551000Y3551000D01*
X25551000Y1449000D01*
X25551000Y1449000D01*
G37*
G36*
X16088674Y6571535D02*
G01*
X16126367Y6560101D01*
X16161103Y6541534D01*
X16191548Y6516548D01*
X16216534Y6486103D01*
X16235101Y6451367D01*
X16246535Y6413674D01*
X16251000Y6368339D01*
X16251000Y5531661D01*
X16246535Y5486326D01*
X16235101Y5448633D01*
X16216534Y5413897D01*
X16191548Y5383452D01*
X16161103Y5358466D01*
X16126367Y5339899D01*
X16088674Y5328465D01*
X16043339Y5324000D01*
X14956661Y5324000D01*
X14911326Y5328465D01*
X14873633Y5339899D01*
X14838897Y5358466D01*
X14808452Y5383452D01*
X14783466Y5413897D01*
X14764899Y5448633D01*
X14753465Y5486326D01*
X14749000Y5531661D01*
X14749000Y6368339D01*
X14753465Y6413674D01*
X14764899Y6451367D01*
X14783466Y6486103D01*
X14808452Y6516548D01*
X14838897Y6541534D01*
X14873633Y6560101D01*
X14911326Y6571535D01*
X14956661Y6576000D01*
X16043339Y6576000D01*
X16088674Y6571535D01*
X16088674Y6571535D01*
G37*
G36*
X12588674Y6571535D02*
G01*
X12626367Y6560101D01*
X12661103Y6541534D01*
X12691548Y6516548D01*
X12716534Y6486103D01*
X12735101Y6451367D01*
X12746535Y6413674D01*
X12751000Y6368339D01*
X12751000Y5531661D01*
X12746535Y5486326D01*
X12735101Y5448633D01*
X12716534Y5413897D01*
X12691548Y5383452D01*
X12661103Y5358466D01*
X12626367Y5339899D01*
X12588674Y5328465D01*
X12543339Y5324000D01*
X11456661Y5324000D01*
X11411326Y5328465D01*
X11373633Y5339899D01*
X11338897Y5358466D01*
X11308452Y5383452D01*
X11283466Y5413897D01*
X11264899Y5448633D01*
X11253465Y5486326D01*
X11249000Y5531661D01*
X11249000Y6368339D01*
X11253465Y6413674D01*
X11264899Y6451367D01*
X11283466Y6486103D01*
X11308452Y6516548D01*
X11338897Y6541534D01*
X11373633Y6560101D01*
X11411326Y6571535D01*
X11456661Y6576000D01*
X12543339Y6576000D01*
X12588674Y6571535D01*
X12588674Y6571535D01*
G37*
G36*
X8588674Y6621535D02*
G01*
X8626367Y6610101D01*
X8661103Y6591534D01*
X8691548Y6566548D01*
X8716534Y6536103D01*
X8735101Y6501367D01*
X8746535Y6463674D01*
X8751000Y6418339D01*
X8751000Y5581661D01*
X8746535Y5536326D01*
X8735101Y5498633D01*
X8716534Y5463897D01*
X8691548Y5433452D01*
X8661103Y5408466D01*
X8626367Y5389899D01*
X8588674Y5378465D01*
X8543339Y5374000D01*
X7456661Y5374000D01*
X7411326Y5378465D01*
X7373633Y5389899D01*
X7338897Y5408466D01*
X7308452Y5433452D01*
X7283466Y5463897D01*
X7264899Y5498633D01*
X7253465Y5536326D01*
X7249000Y5581661D01*
X7249000Y6418339D01*
X7253465Y6463674D01*
X7264899Y6501367D01*
X7283466Y6536103D01*
X7308452Y6566548D01*
X7338897Y6591534D01*
X7373633Y6610101D01*
X7411326Y6621535D01*
X7456661Y6626000D01*
X8543339Y6626000D01*
X8588674Y6621535D01*
X8588674Y6621535D01*
G37*
G36*
X16088674Y8621535D02*
G01*
X16126367Y8610101D01*
X16161103Y8591534D01*
X16191548Y8566548D01*
X16216534Y8536103D01*
X16235101Y8501367D01*
X16246535Y8463674D01*
X16251000Y8418339D01*
X16251000Y7581661D01*
X16246535Y7536326D01*
X16235101Y7498633D01*
X16216534Y7463897D01*
X16191548Y7433452D01*
X16161103Y7408466D01*
X16126367Y7389899D01*
X16088674Y7378465D01*
X16043339Y7374000D01*
X14956661Y7374000D01*
X14911326Y7378465D01*
X14873633Y7389899D01*
X14838897Y7408466D01*
X14808452Y7433452D01*
X14783466Y7463897D01*
X14764899Y7498633D01*
X14753465Y7536326D01*
X14749000Y7581661D01*
X14749000Y8418339D01*
X14753465Y8463674D01*
X14764899Y8501367D01*
X14783466Y8536103D01*
X14808452Y8566548D01*
X14838897Y8591534D01*
X14873633Y8610101D01*
X14911326Y8621535D01*
X14956661Y8626000D01*
X16043339Y8626000D01*
X16088674Y8621535D01*
X16088674Y8621535D01*
G37*
G36*
X12588674Y8621535D02*
G01*
X12626367Y8610101D01*
X12661103Y8591534D01*
X12691548Y8566548D01*
X12716534Y8536103D01*
X12735101Y8501367D01*
X12746535Y8463674D01*
X12751000Y8418339D01*
X12751000Y7581661D01*
X12746535Y7536326D01*
X12735101Y7498633D01*
X12716534Y7463897D01*
X12691548Y7433452D01*
X12661103Y7408466D01*
X12626367Y7389899D01*
X12588674Y7378465D01*
X12543339Y7374000D01*
X11456661Y7374000D01*
X11411326Y7378465D01*
X11373633Y7389899D01*
X11338897Y7408466D01*
X11308452Y7433452D01*
X11283466Y7463897D01*
X11264899Y7498633D01*
X11253465Y7536326D01*
X11249000Y7581661D01*
X11249000Y8418339D01*
X11253465Y8463674D01*
X11264899Y8501367D01*
X11283466Y8536103D01*
X11308452Y8566548D01*
X11338897Y8591534D01*
X11373633Y8610101D01*
X11411326Y8621535D01*
X11456661Y8626000D01*
X12543339Y8626000D01*
X12588674Y8621535D01*
X12588674Y8621535D01*
G37*
G36*
X8588674Y8671535D02*
G01*
X8626367Y8660101D01*
X8661103Y8641534D01*
X8691548Y8616548D01*
X8716534Y8586103D01*
X8735101Y8551367D01*
X8746535Y8513674D01*
X8751000Y8468339D01*
X8751000Y7631661D01*
X8746535Y7586326D01*
X8735101Y7548633D01*
X8716534Y7513897D01*
X8691548Y7483452D01*
X8661103Y7458466D01*
X8626367Y7439899D01*
X8588674Y7428465D01*
X8543339Y7424000D01*
X7456661Y7424000D01*
X7411326Y7428465D01*
X7373633Y7439899D01*
X7338897Y7458466D01*
X7308452Y7483452D01*
X7283466Y7513897D01*
X7264899Y7548633D01*
X7253465Y7586326D01*
X7249000Y7631661D01*
X7249000Y8468339D01*
X7253465Y8513674D01*
X7264899Y8551367D01*
X7283466Y8586103D01*
X7308452Y8616548D01*
X7338897Y8641534D01*
X7373633Y8660101D01*
X7411326Y8671535D01*
X7456661Y8676000D01*
X8543339Y8676000D01*
X8588674Y8671535D01*
X8588674Y8671535D01*
G37*
G36*
X43556416Y10260121D02*
G01*
X43747592Y10180933D01*
X43747594Y10180932D01*
X43873901Y10096536D01*
X43919648Y10065969D01*
X44065969Y9919648D01*
X44180933Y9747592D01*
X44260121Y9556416D01*
X44300490Y9353466D01*
X44300490Y9146534D01*
X44260121Y8943584D01*
X44180933Y8752408D01*
X44180932Y8752406D01*
X44065969Y8580352D01*
X43919648Y8434031D01*
X43747594Y8319068D01*
X43747593Y8319067D01*
X43747592Y8319067D01*
X43556416Y8239879D01*
X43353466Y8199510D01*
X43146534Y8199510D01*
X42943584Y8239879D01*
X42752408Y8319067D01*
X42752407Y8319067D01*
X42752406Y8319068D01*
X42580352Y8434031D01*
X42434031Y8580352D01*
X42319068Y8752406D01*
X42319067Y8752408D01*
X42239879Y8943584D01*
X42199510Y9146534D01*
X42199510Y9353466D01*
X42239879Y9556416D01*
X42319067Y9747592D01*
X42434031Y9919648D01*
X42580352Y10065969D01*
X42626099Y10096536D01*
X42752406Y10180932D01*
X42752408Y10180933D01*
X42943584Y10260121D01*
X43146534Y10300490D01*
X43353466Y10300490D01*
X43556416Y10260121D01*
X43556416Y10260121D01*
G37*
G36*
X40556416Y10260121D02*
G01*
X40747592Y10180933D01*
X40747594Y10180932D01*
X40873901Y10096536D01*
X40919648Y10065969D01*
X41065969Y9919648D01*
X41180933Y9747592D01*
X41260121Y9556416D01*
X41300490Y9353466D01*
X41300490Y9146534D01*
X41260121Y8943584D01*
X41180933Y8752408D01*
X41180932Y8752406D01*
X41065969Y8580352D01*
X40919648Y8434031D01*
X40747594Y8319068D01*
X40747593Y8319067D01*
X40747592Y8319067D01*
X40556416Y8239879D01*
X40353466Y8199510D01*
X40146534Y8199510D01*
X39943584Y8239879D01*
X39752408Y8319067D01*
X39752407Y8319067D01*
X39752406Y8319068D01*
X39580352Y8434031D01*
X39434031Y8580352D01*
X39319068Y8752406D01*
X39319067Y8752408D01*
X39239879Y8943584D01*
X39199510Y9146534D01*
X39199510Y9353466D01*
X39239879Y9556416D01*
X39319067Y9747592D01*
X39434031Y9919648D01*
X39580352Y10065969D01*
X39626099Y10096536D01*
X39752406Y10180932D01*
X39752408Y10180933D01*
X39943584Y10260121D01*
X40146534Y10300490D01*
X40353466Y10300490D01*
X40556416Y10260121D01*
X40556416Y10260121D01*
G37*
G36*
X37556416Y10260121D02*
G01*
X37747592Y10180933D01*
X37747594Y10180932D01*
X37873901Y10096536D01*
X37919648Y10065969D01*
X38065969Y9919648D01*
X38180933Y9747592D01*
X38260121Y9556416D01*
X38300490Y9353466D01*
X38300490Y9146534D01*
X38260121Y8943584D01*
X38180933Y8752408D01*
X38180932Y8752406D01*
X38065969Y8580352D01*
X37919648Y8434031D01*
X37747594Y8319068D01*
X37747593Y8319067D01*
X37747592Y8319067D01*
X37556416Y8239879D01*
X37353466Y8199510D01*
X37146534Y8199510D01*
X36943584Y8239879D01*
X36752408Y8319067D01*
X36752407Y8319067D01*
X36752406Y8319068D01*
X36580352Y8434031D01*
X36434031Y8580352D01*
X36319068Y8752406D01*
X36319067Y8752408D01*
X36239879Y8943584D01*
X36199510Y9146534D01*
X36199510Y9353466D01*
X36239879Y9556416D01*
X36319067Y9747592D01*
X36434031Y9919648D01*
X36580352Y10065969D01*
X36626099Y10096536D01*
X36752406Y10180932D01*
X36752408Y10180933D01*
X36943584Y10260121D01*
X37146534Y10300490D01*
X37353466Y10300490D01*
X37556416Y10260121D01*
X37556416Y10260121D01*
G37*
G36*
X27606416Y11210121D02*
G01*
X27797592Y11130933D01*
X27797594Y11130932D01*
X27969648Y11015969D01*
X28115969Y10869648D01*
X28230933Y10697592D01*
X28310121Y10506416D01*
X28350490Y10303466D01*
X28350490Y10096534D01*
X28310121Y9893584D01*
X28249649Y9747592D01*
X28230932Y9702406D01*
X28115969Y9530352D01*
X27969648Y9384031D01*
X27797594Y9269068D01*
X27797593Y9269067D01*
X27797592Y9269067D01*
X27606416Y9189879D01*
X27403466Y9149510D01*
X27196534Y9149510D01*
X26993584Y9189879D01*
X26802408Y9269067D01*
X26802407Y9269067D01*
X26802406Y9269068D01*
X26630352Y9384031D01*
X26484031Y9530352D01*
X26369068Y9702406D01*
X26350351Y9747592D01*
X26289879Y9893584D01*
X26249510Y10096534D01*
X26249510Y10303466D01*
X26289879Y10506416D01*
X26369067Y10697592D01*
X26484031Y10869648D01*
X26630352Y11015969D01*
X26802406Y11130932D01*
X26802408Y11130933D01*
X26993584Y11210121D01*
X27196534Y11250490D01*
X27403466Y11250490D01*
X27606416Y11210121D01*
X27606416Y11210121D01*
G37*
G36*
X25338674Y13121535D02*
G01*
X25376367Y13110101D01*
X25411103Y13091534D01*
X25441548Y13066548D01*
X25466534Y13036103D01*
X25485101Y13001367D01*
X25496535Y12963674D01*
X25501000Y12918339D01*
X25501000Y12081661D01*
X25496535Y12036326D01*
X25485101Y11998633D01*
X25466534Y11963897D01*
X25441548Y11933452D01*
X25411103Y11908466D01*
X25376367Y11889899D01*
X25338674Y11878465D01*
X25293339Y11874000D01*
X24206661Y11874000D01*
X24161326Y11878465D01*
X24123633Y11889899D01*
X24088897Y11908466D01*
X24058452Y11933452D01*
X24033466Y11963897D01*
X24014899Y11998633D01*
X24003465Y12036326D01*
X23999000Y12081661D01*
X23999000Y12918339D01*
X24003465Y12963674D01*
X24014899Y13001367D01*
X24033466Y13036103D01*
X24058452Y13066548D01*
X24088897Y13091534D01*
X24123633Y13110101D01*
X24161326Y13121535D01*
X24206661Y13126000D01*
X25293339Y13126000D01*
X25338674Y13121535D01*
X25338674Y13121535D01*
G37*
G36*
X16088674Y13121535D02*
G01*
X16126367Y13110101D01*
X16161103Y13091534D01*
X16191548Y13066548D01*
X16216534Y13036103D01*
X16235101Y13001367D01*
X16246535Y12963674D01*
X16251000Y12918339D01*
X16251000Y12081661D01*
X16246535Y12036326D01*
X16235101Y11998633D01*
X16216534Y11963897D01*
X16191548Y11933452D01*
X16161103Y11908466D01*
X16126367Y11889899D01*
X16088674Y11878465D01*
X16043339Y11874000D01*
X14956661Y11874000D01*
X14911326Y11878465D01*
X14873633Y11889899D01*
X14838897Y11908466D01*
X14808452Y11933452D01*
X14783466Y11963897D01*
X14764899Y11998633D01*
X14753465Y12036326D01*
X14749000Y12081661D01*
X14749000Y12918339D01*
X14753465Y12963674D01*
X14764899Y13001367D01*
X14783466Y13036103D01*
X14808452Y13066548D01*
X14838897Y13091534D01*
X14873633Y13110101D01*
X14911326Y13121535D01*
X14956661Y13126000D01*
X16043339Y13126000D01*
X16088674Y13121535D01*
X16088674Y13121535D01*
G37*
G36*
X22088674Y13121535D02*
G01*
X22126367Y13110101D01*
X22161103Y13091534D01*
X22191548Y13066548D01*
X22216534Y13036103D01*
X22235101Y13001367D01*
X22246535Y12963674D01*
X22251000Y12918339D01*
X22251000Y12081661D01*
X22246535Y12036326D01*
X22235101Y11998633D01*
X22216534Y11963897D01*
X22191548Y11933452D01*
X22161103Y11908466D01*
X22126367Y11889899D01*
X22088674Y11878465D01*
X22043339Y11874000D01*
X20956661Y11874000D01*
X20911326Y11878465D01*
X20873633Y11889899D01*
X20838897Y11908466D01*
X20808452Y11933452D01*
X20783466Y11963897D01*
X20764899Y11998633D01*
X20753465Y12036326D01*
X20749000Y12081661D01*
X20749000Y12918339D01*
X20753465Y12963674D01*
X20764899Y13001367D01*
X20783466Y13036103D01*
X20808452Y13066548D01*
X20838897Y13091534D01*
X20873633Y13110101D01*
X20911326Y13121535D01*
X20956661Y13126000D01*
X22043339Y13126000D01*
X22088674Y13121535D01*
X22088674Y13121535D01*
G37*
G36*
X19088674Y13121535D02*
G01*
X19126367Y13110101D01*
X19161103Y13091534D01*
X19191548Y13066548D01*
X19216534Y13036103D01*
X19235101Y13001367D01*
X19246535Y12963674D01*
X19251000Y12918339D01*
X19251000Y12081661D01*
X19246535Y12036326D01*
X19235101Y11998633D01*
X19216534Y11963897D01*
X19191548Y11933452D01*
X19161103Y11908466D01*
X19126367Y11889899D01*
X19088674Y11878465D01*
X19043339Y11874000D01*
X17956661Y11874000D01*
X17911326Y11878465D01*
X17873633Y11889899D01*
X17838897Y11908466D01*
X17808452Y11933452D01*
X17783466Y11963897D01*
X17764899Y11998633D01*
X17753465Y12036326D01*
X17749000Y12081661D01*
X17749000Y12918339D01*
X17753465Y12963674D01*
X17764899Y13001367D01*
X17783466Y13036103D01*
X17808452Y13066548D01*
X17838897Y13091534D01*
X17873633Y13110101D01*
X17911326Y13121535D01*
X17956661Y13126000D01*
X19043339Y13126000D01*
X19088674Y13121535D01*
X19088674Y13121535D01*
G37*
G36*
X42687142Y13831758D02*
G01*
X42835101Y13770471D01*
X42968255Y13681501D01*
X43081501Y13568255D01*
X43170471Y13435101D01*
X43231758Y13287142D01*
X43263000Y13130075D01*
X43263000Y12969925D01*
X43231758Y12812858D01*
X43170471Y12664899D01*
X43081501Y12531745D01*
X42968255Y12418499D01*
X42835101Y12329529D01*
X42687142Y12268242D01*
X42530075Y12237000D01*
X42369925Y12237000D01*
X42212858Y12268242D01*
X42064899Y12329529D01*
X41931745Y12418499D01*
X41818499Y12531745D01*
X41729529Y12664899D01*
X41668242Y12812858D01*
X41637000Y12969925D01*
X41637000Y13130075D01*
X41668242Y13287142D01*
X41729529Y13435101D01*
X41818499Y13568255D01*
X41931745Y13681501D01*
X42064899Y13770471D01*
X42212858Y13831758D01*
X42369925Y13863000D01*
X42530075Y13863000D01*
X42687142Y13831758D01*
X42687142Y13831758D01*
G37*
G36*
X29287142Y13831758D02*
G01*
X29435101Y13770471D01*
X29568255Y13681501D01*
X29681501Y13568255D01*
X29770471Y13435101D01*
X29831758Y13287142D01*
X29863000Y13130075D01*
X29863000Y12969925D01*
X29831758Y12812858D01*
X29770471Y12664899D01*
X29681501Y12531745D01*
X29568255Y12418499D01*
X29435101Y12329529D01*
X29287142Y12268242D01*
X29130075Y12237000D01*
X28969925Y12237000D01*
X28812858Y12268242D01*
X28664899Y12329529D01*
X28531745Y12418499D01*
X28418499Y12531745D01*
X28329529Y12664899D01*
X28268242Y12812858D01*
X28237000Y12969925D01*
X28237000Y13130075D01*
X28268242Y13287142D01*
X28329529Y13435101D01*
X28418499Y13568255D01*
X28531745Y13681501D01*
X28664899Y13770471D01*
X28812858Y13831758D01*
X28969925Y13863000D01*
X29130075Y13863000D01*
X29287142Y13831758D01*
X29287142Y13831758D01*
G37*
G36*
X31787142Y13831758D02*
G01*
X31935101Y13770471D01*
X32068255Y13681501D01*
X32181501Y13568255D01*
X32270471Y13435101D01*
X32331758Y13287142D01*
X32363000Y13130075D01*
X32363000Y12969925D01*
X32331758Y12812858D01*
X32270471Y12664899D01*
X32181501Y12531745D01*
X32068255Y12418499D01*
X31935101Y12329529D01*
X31787142Y12268242D01*
X31630075Y12237000D01*
X31469925Y12237000D01*
X31312858Y12268242D01*
X31164899Y12329529D01*
X31031745Y12418499D01*
X30918499Y12531745D01*
X30829529Y12664899D01*
X30768242Y12812858D01*
X30737000Y12969925D01*
X30737000Y13130075D01*
X30768242Y13287142D01*
X30829529Y13435101D01*
X30918499Y13568255D01*
X31031745Y13681501D01*
X31164899Y13770471D01*
X31312858Y13831758D01*
X31469925Y13863000D01*
X31630075Y13863000D01*
X31787142Y13831758D01*
X31787142Y13831758D01*
G37*
G36*
X40187142Y13831758D02*
G01*
X40335101Y13770471D01*
X40468255Y13681501D01*
X40581501Y13568255D01*
X40670471Y13435101D01*
X40731758Y13287142D01*
X40763000Y13130075D01*
X40763000Y12969925D01*
X40731758Y12812858D01*
X40670471Y12664899D01*
X40581501Y12531745D01*
X40468255Y12418499D01*
X40335101Y12329529D01*
X40187142Y12268242D01*
X40030075Y12237000D01*
X39869925Y12237000D01*
X39712858Y12268242D01*
X39564899Y12329529D01*
X39431745Y12418499D01*
X39318499Y12531745D01*
X39229529Y12664899D01*
X39168242Y12812858D01*
X39137000Y12969925D01*
X39137000Y13130075D01*
X39168242Y13287142D01*
X39229529Y13435101D01*
X39318499Y13568255D01*
X39431745Y13681501D01*
X39564899Y13770471D01*
X39712858Y13831758D01*
X39869925Y13863000D01*
X40030075Y13863000D01*
X40187142Y13831758D01*
X40187142Y13831758D01*
G37*
G36*
X19088674Y15171535D02*
G01*
X19126367Y15160101D01*
X19161103Y15141534D01*
X19191548Y15116548D01*
X19216534Y15086103D01*
X19235101Y15051367D01*
X19246535Y15013674D01*
X19251000Y14968339D01*
X19251000Y14131661D01*
X19246535Y14086326D01*
X19235101Y14048633D01*
X19216534Y14013897D01*
X19191548Y13983452D01*
X19161103Y13958466D01*
X19126367Y13939899D01*
X19088674Y13928465D01*
X19043339Y13924000D01*
X17956661Y13924000D01*
X17911326Y13928465D01*
X17873633Y13939899D01*
X17838897Y13958466D01*
X17808452Y13983452D01*
X17783466Y14013897D01*
X17764899Y14048633D01*
X17753465Y14086326D01*
X17749000Y14131661D01*
X17749000Y14968339D01*
X17753465Y15013674D01*
X17764899Y15051367D01*
X17783466Y15086103D01*
X17808452Y15116548D01*
X17838897Y15141534D01*
X17873633Y15160101D01*
X17911326Y15171535D01*
X17956661Y15176000D01*
X19043339Y15176000D01*
X19088674Y15171535D01*
X19088674Y15171535D01*
G37*
G36*
X25338674Y15171535D02*
G01*
X25376367Y15160101D01*
X25411103Y15141534D01*
X25441548Y15116548D01*
X25466534Y15086103D01*
X25485101Y15051367D01*
X25496535Y15013674D01*
X25501000Y14968339D01*
X25501000Y14131661D01*
X25496535Y14086326D01*
X25485101Y14048633D01*
X25466534Y14013897D01*
X25441548Y13983452D01*
X25411103Y13958466D01*
X25376367Y13939899D01*
X25338674Y13928465D01*
X25293339Y13924000D01*
X24206661Y13924000D01*
X24161326Y13928465D01*
X24123633Y13939899D01*
X24088897Y13958466D01*
X24058452Y13983452D01*
X24033466Y14013897D01*
X24014899Y14048633D01*
X24003465Y14086326D01*
X23999000Y14131661D01*
X23999000Y14968339D01*
X24003465Y15013674D01*
X24014899Y15051367D01*
X24033466Y15086103D01*
X24058452Y15116548D01*
X24088897Y15141534D01*
X24123633Y15160101D01*
X24161326Y15171535D01*
X24206661Y15176000D01*
X25293339Y15176000D01*
X25338674Y15171535D01*
X25338674Y15171535D01*
G37*
G36*
X22088674Y15171535D02*
G01*
X22126367Y15160101D01*
X22161103Y15141534D01*
X22191548Y15116548D01*
X22216534Y15086103D01*
X22235101Y15051367D01*
X22246535Y15013674D01*
X22251000Y14968339D01*
X22251000Y14131661D01*
X22246535Y14086326D01*
X22235101Y14048633D01*
X22216534Y14013897D01*
X22191548Y13983452D01*
X22161103Y13958466D01*
X22126367Y13939899D01*
X22088674Y13928465D01*
X22043339Y13924000D01*
X20956661Y13924000D01*
X20911326Y13928465D01*
X20873633Y13939899D01*
X20838897Y13958466D01*
X20808452Y13983452D01*
X20783466Y14013897D01*
X20764899Y14048633D01*
X20753465Y14086326D01*
X20749000Y14131661D01*
X20749000Y14968339D01*
X20753465Y15013674D01*
X20764899Y15051367D01*
X20783466Y15086103D01*
X20808452Y15116548D01*
X20838897Y15141534D01*
X20873633Y15160101D01*
X20911326Y15171535D01*
X20956661Y15176000D01*
X22043339Y15176000D01*
X22088674Y15171535D01*
X22088674Y15171535D01*
G37*
G36*
X16088674Y15171535D02*
G01*
X16126367Y15160101D01*
X16161103Y15141534D01*
X16191548Y15116548D01*
X16216534Y15086103D01*
X16235101Y15051367D01*
X16246535Y15013674D01*
X16251000Y14968339D01*
X16251000Y14131661D01*
X16246535Y14086326D01*
X16235101Y14048633D01*
X16216534Y14013897D01*
X16191548Y13983452D01*
X16161103Y13958466D01*
X16126367Y13939899D01*
X16088674Y13928465D01*
X16043339Y13924000D01*
X14956661Y13924000D01*
X14911326Y13928465D01*
X14873633Y13939899D01*
X14838897Y13958466D01*
X14808452Y13983452D01*
X14783466Y14013897D01*
X14764899Y14048633D01*
X14753465Y14086326D01*
X14749000Y14131661D01*
X14749000Y14968339D01*
X14753465Y15013674D01*
X14764899Y15051367D01*
X14783466Y15086103D01*
X14808452Y15116548D01*
X14838897Y15141534D01*
X14873633Y15160101D01*
X14911326Y15171535D01*
X14956661Y15176000D01*
X16043339Y15176000D01*
X16088674Y15171535D01*
X16088674Y15171535D01*
G37*
G36*
X42556416Y17760121D02*
G01*
X42747592Y17680933D01*
X42747594Y17680932D01*
X42919648Y17565969D01*
X43065969Y17419648D01*
X43180933Y17247592D01*
X43260121Y17056416D01*
X43300490Y16853466D01*
X43300490Y16646534D01*
X43260121Y16443584D01*
X43180933Y16252408D01*
X43180932Y16252406D01*
X43065969Y16080352D01*
X42919648Y15934031D01*
X42747594Y15819068D01*
X42747593Y15819067D01*
X42747592Y15819067D01*
X42556416Y15739879D01*
X42353466Y15699510D01*
X42146534Y15699510D01*
X41943584Y15739879D01*
X41752408Y15819067D01*
X41752407Y15819067D01*
X41752406Y15819068D01*
X41580352Y15934031D01*
X41434031Y16080352D01*
X41319068Y16252406D01*
X41319067Y16252408D01*
X41239879Y16443584D01*
X41199510Y16646534D01*
X41199510Y16853466D01*
X41239879Y17056416D01*
X41319067Y17247592D01*
X41434031Y17419648D01*
X41580352Y17565969D01*
X41752406Y17680932D01*
X41752408Y17680933D01*
X41943584Y17760121D01*
X42146534Y17800490D01*
X42353466Y17800490D01*
X42556416Y17760121D01*
X42556416Y17760121D01*
G37*
G36*
X39556416Y17760121D02*
G01*
X39747592Y17680933D01*
X39747594Y17680932D01*
X39919648Y17565969D01*
X40065969Y17419648D01*
X40180933Y17247592D01*
X40260121Y17056416D01*
X40300490Y16853466D01*
X40300490Y16646534D01*
X40260121Y16443584D01*
X40180933Y16252408D01*
X40180932Y16252406D01*
X40065969Y16080352D01*
X39919648Y15934031D01*
X39747594Y15819068D01*
X39747593Y15819067D01*
X39747592Y15819067D01*
X39556416Y15739879D01*
X39353466Y15699510D01*
X39146534Y15699510D01*
X38943584Y15739879D01*
X38752408Y15819067D01*
X38752407Y15819067D01*
X38752406Y15819068D01*
X38580352Y15934031D01*
X38434031Y16080352D01*
X38319068Y16252406D01*
X38319067Y16252408D01*
X38239879Y16443584D01*
X38199510Y16646534D01*
X38199510Y16853466D01*
X38239879Y17056416D01*
X38319067Y17247592D01*
X38434031Y17419648D01*
X38580352Y17565969D01*
X38752406Y17680932D01*
X38752408Y17680933D01*
X38943584Y17760121D01*
X39146534Y17800490D01*
X39353466Y17800490D01*
X39556416Y17760121D01*
X39556416Y17760121D01*
G37*
G36*
X11588674Y19096535D02*
G01*
X11626367Y19085101D01*
X11661103Y19066534D01*
X11691548Y19041548D01*
X11716534Y19011103D01*
X11735101Y18976367D01*
X11746535Y18938674D01*
X11751000Y18893339D01*
X11751000Y18056661D01*
X11746535Y18011326D01*
X11735101Y17973633D01*
X11716534Y17938897D01*
X11691548Y17908452D01*
X11661103Y17883466D01*
X11626367Y17864899D01*
X11588674Y17853465D01*
X11543339Y17849000D01*
X10456661Y17849000D01*
X10411326Y17853465D01*
X10373633Y17864899D01*
X10338897Y17883466D01*
X10308452Y17908452D01*
X10283466Y17938897D01*
X10264899Y17973633D01*
X10253465Y18011326D01*
X10249000Y18056661D01*
X10249000Y18893339D01*
X10253465Y18938674D01*
X10264899Y18976367D01*
X10283466Y19011103D01*
X10308452Y19041548D01*
X10338897Y19066534D01*
X10373633Y19085101D01*
X10411326Y19096535D01*
X10456661Y19101000D01*
X11543339Y19101000D01*
X11588674Y19096535D01*
X11588674Y19096535D01*
G37*
G36*
X14868674Y19121535D02*
G01*
X14906367Y19110101D01*
X14941103Y19091534D01*
X14971548Y19066548D01*
X14996534Y19036103D01*
X15015101Y19001367D01*
X15026535Y18963674D01*
X15031000Y18918339D01*
X15031000Y18081661D01*
X15026535Y18036326D01*
X15015101Y17998633D01*
X14996534Y17963897D01*
X14971548Y17933452D01*
X14941103Y17908466D01*
X14906367Y17889899D01*
X14868674Y17878465D01*
X14823339Y17874000D01*
X13736661Y17874000D01*
X13691326Y17878465D01*
X13653633Y17889899D01*
X13618897Y17908466D01*
X13588452Y17933452D01*
X13563466Y17963897D01*
X13544899Y17998633D01*
X13533465Y18036326D01*
X13529000Y18081661D01*
X13529000Y18918339D01*
X13533465Y18963674D01*
X13544899Y19001367D01*
X13563466Y19036103D01*
X13588452Y19066548D01*
X13618897Y19091534D01*
X13653633Y19110101D01*
X13691326Y19121535D01*
X13736661Y19126000D01*
X14823339Y19126000D01*
X14868674Y19121535D01*
X14868674Y19121535D01*
G37*
G36*
X18088674Y19121535D02*
G01*
X18126367Y19110101D01*
X18161103Y19091534D01*
X18191548Y19066548D01*
X18216534Y19036103D01*
X18235101Y19001367D01*
X18246535Y18963674D01*
X18251000Y18918339D01*
X18251000Y18081661D01*
X18246535Y18036326D01*
X18235101Y17998633D01*
X18216534Y17963897D01*
X18191548Y17933452D01*
X18161103Y17908466D01*
X18126367Y17889899D01*
X18088674Y17878465D01*
X18043339Y17874000D01*
X16956661Y17874000D01*
X16911326Y17878465D01*
X16873633Y17889899D01*
X16838897Y17908466D01*
X16808452Y17933452D01*
X16783466Y17963897D01*
X16764899Y17998633D01*
X16753465Y18036326D01*
X16749000Y18081661D01*
X16749000Y18918339D01*
X16753465Y18963674D01*
X16764899Y19001367D01*
X16783466Y19036103D01*
X16808452Y19066548D01*
X16838897Y19091534D01*
X16873633Y19110101D01*
X16911326Y19121535D01*
X16956661Y19126000D01*
X18043339Y19126000D01*
X18088674Y19121535D01*
X18088674Y19121535D01*
G37*
G36*
X11588674Y21146535D02*
G01*
X11626367Y21135101D01*
X11661103Y21116534D01*
X11691548Y21091548D01*
X11716534Y21061103D01*
X11735101Y21026367D01*
X11746535Y20988674D01*
X11751000Y20943339D01*
X11751000Y20106661D01*
X11746535Y20061326D01*
X11735101Y20023633D01*
X11716534Y19988897D01*
X11691548Y19958452D01*
X11661103Y19933466D01*
X11626367Y19914899D01*
X11588674Y19903465D01*
X11543339Y19899000D01*
X10456661Y19899000D01*
X10411326Y19903465D01*
X10373633Y19914899D01*
X10338897Y19933466D01*
X10308452Y19958452D01*
X10283466Y19988897D01*
X10264899Y20023633D01*
X10253465Y20061326D01*
X10249000Y20106661D01*
X10249000Y20943339D01*
X10253465Y20988674D01*
X10264899Y21026367D01*
X10283466Y21061103D01*
X10308452Y21091548D01*
X10338897Y21116534D01*
X10373633Y21135101D01*
X10411326Y21146535D01*
X10456661Y21151000D01*
X11543339Y21151000D01*
X11588674Y21146535D01*
X11588674Y21146535D01*
G37*
G36*
X14868674Y21171535D02*
G01*
X14906367Y21160101D01*
X14941103Y21141534D01*
X14971548Y21116548D01*
X14996534Y21086103D01*
X15015101Y21051367D01*
X15026535Y21013674D01*
X15031000Y20968339D01*
X15031000Y20131661D01*
X15026535Y20086326D01*
X15015101Y20048633D01*
X14996534Y20013897D01*
X14971548Y19983452D01*
X14941103Y19958466D01*
X14906367Y19939899D01*
X14868674Y19928465D01*
X14823339Y19924000D01*
X13736661Y19924000D01*
X13691326Y19928465D01*
X13653633Y19939899D01*
X13618897Y19958466D01*
X13588452Y19983452D01*
X13563466Y20013897D01*
X13544899Y20048633D01*
X13533465Y20086326D01*
X13529000Y20131661D01*
X13529000Y20968339D01*
X13533465Y21013674D01*
X13544899Y21051367D01*
X13563466Y21086103D01*
X13588452Y21116548D01*
X13618897Y21141534D01*
X13653633Y21160101D01*
X13691326Y21171535D01*
X13736661Y21176000D01*
X14823339Y21176000D01*
X14868674Y21171535D01*
X14868674Y21171535D01*
G37*
G36*
X18088674Y21171535D02*
G01*
X18126367Y21160101D01*
X18161103Y21141534D01*
X18191548Y21116548D01*
X18216534Y21086103D01*
X18235101Y21051367D01*
X18246535Y21013674D01*
X18251000Y20968339D01*
X18251000Y20131661D01*
X18246535Y20086326D01*
X18235101Y20048633D01*
X18216534Y20013897D01*
X18191548Y19983452D01*
X18161103Y19958466D01*
X18126367Y19939899D01*
X18088674Y19928465D01*
X18043339Y19924000D01*
X16956661Y19924000D01*
X16911326Y19928465D01*
X16873633Y19939899D01*
X16838897Y19958466D01*
X16808452Y19983452D01*
X16783466Y20013897D01*
X16764899Y20048633D01*
X16753465Y20086326D01*
X16749000Y20131661D01*
X16749000Y20968339D01*
X16753465Y21013674D01*
X16764899Y21051367D01*
X16783466Y21086103D01*
X16808452Y21116548D01*
X16838897Y21141534D01*
X16873633Y21160101D01*
X16911326Y21171535D01*
X16956661Y21176000D01*
X18043339Y21176000D01*
X18088674Y21171535D01*
X18088674Y21171535D01*
G37*
G36*
X19088674Y24571535D02*
G01*
X19126367Y24560101D01*
X19161103Y24541534D01*
X19191548Y24516548D01*
X19216534Y24486103D01*
X19235101Y24451367D01*
X19246535Y24413674D01*
X19251000Y24368339D01*
X19251000Y23531661D01*
X19246535Y23486326D01*
X19235101Y23448633D01*
X19216534Y23413897D01*
X19191548Y23383452D01*
X19161103Y23358466D01*
X19126367Y23339899D01*
X19088674Y23328465D01*
X19043339Y23324000D01*
X17956661Y23324000D01*
X17911326Y23328465D01*
X17873633Y23339899D01*
X17838897Y23358466D01*
X17808452Y23383452D01*
X17783466Y23413897D01*
X17764899Y23448633D01*
X17753465Y23486326D01*
X17749000Y23531661D01*
X17749000Y24368339D01*
X17753465Y24413674D01*
X17764899Y24451367D01*
X17783466Y24486103D01*
X17808452Y24516548D01*
X17838897Y24541534D01*
X17873633Y24560101D01*
X17911326Y24571535D01*
X17956661Y24576000D01*
X19043339Y24576000D01*
X19088674Y24571535D01*
X19088674Y24571535D01*
G37*
G36*
X19088674Y26621535D02*
G01*
X19126367Y26610101D01*
X19161103Y26591534D01*
X19191548Y26566548D01*
X19216534Y26536103D01*
X19235101Y26501367D01*
X19246535Y26463674D01*
X19251000Y26418339D01*
X19251000Y25581661D01*
X19246535Y25536326D01*
X19235101Y25498633D01*
X19216534Y25463897D01*
X19191548Y25433452D01*
X19161103Y25408466D01*
X19126367Y25389899D01*
X19088674Y25378465D01*
X19043339Y25374000D01*
X17956661Y25374000D01*
X17911326Y25378465D01*
X17873633Y25389899D01*
X17838897Y25408466D01*
X17808452Y25433452D01*
X17783466Y25463897D01*
X17764899Y25498633D01*
X17753465Y25536326D01*
X17749000Y25581661D01*
X17749000Y26418339D01*
X17753465Y26463674D01*
X17764899Y26501367D01*
X17783466Y26536103D01*
X17808452Y26566548D01*
X17838897Y26591534D01*
X17873633Y26610101D01*
X17911326Y26621535D01*
X17956661Y26626000D01*
X19043339Y26626000D01*
X19088674Y26621535D01*
X19088674Y26621535D01*
G37*
G36*
X42556416Y28260121D02*
G01*
X42747592Y28180933D01*
X42747594Y28180932D01*
X42853932Y28109879D01*
X42919648Y28065969D01*
X43065969Y27919648D01*
X43180933Y27747592D01*
X43260121Y27556416D01*
X43300490Y27353466D01*
X43300490Y27146534D01*
X43260121Y26943584D01*
X43180933Y26752408D01*
X43180932Y26752406D01*
X43065969Y26580352D01*
X42919648Y26434031D01*
X42747594Y26319068D01*
X42747593Y26319067D01*
X42747592Y26319067D01*
X42556416Y26239879D01*
X42353466Y26199510D01*
X42146534Y26199510D01*
X41943584Y26239879D01*
X41752408Y26319067D01*
X41752407Y26319067D01*
X41752406Y26319068D01*
X41580352Y26434031D01*
X41434031Y26580352D01*
X41319068Y26752406D01*
X41319067Y26752408D01*
X41239879Y26943584D01*
X41199510Y27146534D01*
X41199510Y27353466D01*
X41239879Y27556416D01*
X41319067Y27747592D01*
X41434031Y27919648D01*
X41580352Y28065969D01*
X41646068Y28109879D01*
X41752406Y28180932D01*
X41752408Y28180933D01*
X41943584Y28260121D01*
X42146534Y28300490D01*
X42353466Y28300490D01*
X42556416Y28260121D01*
X42556416Y28260121D01*
G37*
G36*
X29556416Y28260121D02*
G01*
X29747592Y28180933D01*
X29747594Y28180932D01*
X29853932Y28109879D01*
X29919648Y28065969D01*
X30065969Y27919648D01*
X30180933Y27747592D01*
X30260121Y27556416D01*
X30300490Y27353466D01*
X30300490Y27146534D01*
X30260121Y26943584D01*
X30180933Y26752408D01*
X30180932Y26752406D01*
X30065969Y26580352D01*
X29919648Y26434031D01*
X29747594Y26319068D01*
X29747593Y26319067D01*
X29747592Y26319067D01*
X29556416Y26239879D01*
X29353466Y26199510D01*
X29146534Y26199510D01*
X28943584Y26239879D01*
X28752408Y26319067D01*
X28752407Y26319067D01*
X28752406Y26319068D01*
X28580352Y26434031D01*
X28434031Y26580352D01*
X28319068Y26752406D01*
X28319067Y26752408D01*
X28239879Y26943584D01*
X28199510Y27146534D01*
X28199510Y27353466D01*
X28239879Y27556416D01*
X28319067Y27747592D01*
X28434031Y27919648D01*
X28580352Y28065969D01*
X28646068Y28109879D01*
X28752406Y28180932D01*
X28752408Y28180933D01*
X28943584Y28260121D01*
X29146534Y28300490D01*
X29353466Y28300490D01*
X29556416Y28260121D01*
X29556416Y28260121D01*
G37*
G36*
X32556416Y28260121D02*
G01*
X32747592Y28180933D01*
X32747594Y28180932D01*
X32853932Y28109879D01*
X32919648Y28065969D01*
X33065969Y27919648D01*
X33180933Y27747592D01*
X33260121Y27556416D01*
X33300490Y27353466D01*
X33300490Y27146534D01*
X33260121Y26943584D01*
X33180933Y26752408D01*
X33180932Y26752406D01*
X33065969Y26580352D01*
X32919648Y26434031D01*
X32747594Y26319068D01*
X32747593Y26319067D01*
X32747592Y26319067D01*
X32556416Y26239879D01*
X32353466Y26199510D01*
X32146534Y26199510D01*
X31943584Y26239879D01*
X31752408Y26319067D01*
X31752407Y26319067D01*
X31752406Y26319068D01*
X31580352Y26434031D01*
X31434031Y26580352D01*
X31319068Y26752406D01*
X31319067Y26752408D01*
X31239879Y26943584D01*
X31199510Y27146534D01*
X31199510Y27353466D01*
X31239879Y27556416D01*
X31319067Y27747592D01*
X31434031Y27919648D01*
X31580352Y28065969D01*
X31646068Y28109879D01*
X31752406Y28180932D01*
X31752408Y28180933D01*
X31943584Y28260121D01*
X32146534Y28300490D01*
X32353466Y28300490D01*
X32556416Y28260121D01*
X32556416Y28260121D01*
G37*
G36*
X39556416Y28260121D02*
G01*
X39747592Y28180933D01*
X39747594Y28180932D01*
X39853932Y28109879D01*
X39919648Y28065969D01*
X40065969Y27919648D01*
X40180933Y27747592D01*
X40260121Y27556416D01*
X40300490Y27353466D01*
X40300490Y27146534D01*
X40260121Y26943584D01*
X40180933Y26752408D01*
X40180932Y26752406D01*
X40065969Y26580352D01*
X39919648Y26434031D01*
X39747594Y26319068D01*
X39747593Y26319067D01*
X39747592Y26319067D01*
X39556416Y26239879D01*
X39353466Y26199510D01*
X39146534Y26199510D01*
X38943584Y26239879D01*
X38752408Y26319067D01*
X38752407Y26319067D01*
X38752406Y26319068D01*
X38580352Y26434031D01*
X38434031Y26580352D01*
X38319068Y26752406D01*
X38319067Y26752408D01*
X38239879Y26943584D01*
X38199510Y27146534D01*
X38199510Y27353466D01*
X38239879Y27556416D01*
X38319067Y27747592D01*
X38434031Y27919648D01*
X38580352Y28065969D01*
X38646068Y28109879D01*
X38752406Y28180932D01*
X38752408Y28180933D01*
X38943584Y28260121D01*
X39146534Y28300490D01*
X39353466Y28300490D01*
X39556416Y28260121D01*
X39556416Y28260121D01*
G37*
G36*
X26606416Y30110121D02*
G01*
X26773452Y30040932D01*
X26797594Y30030932D01*
X26969648Y29915969D01*
X27115969Y29769648D01*
X27224252Y29607592D01*
X27230933Y29597592D01*
X27310121Y29406416D01*
X27350490Y29203466D01*
X27350490Y28996534D01*
X27310121Y28793584D01*
X27239217Y28622408D01*
X27230932Y28602406D01*
X27115969Y28430352D01*
X26969648Y28284031D01*
X26797594Y28169068D01*
X26797593Y28169067D01*
X26797592Y28169067D01*
X26606416Y28089879D01*
X26403466Y28049510D01*
X26196534Y28049510D01*
X25993584Y28089879D01*
X25802408Y28169067D01*
X25802407Y28169067D01*
X25802406Y28169068D01*
X25630352Y28284031D01*
X25484031Y28430352D01*
X25369068Y28602406D01*
X25360783Y28622408D01*
X25289879Y28793584D01*
X25249510Y28996534D01*
X25249510Y29203466D01*
X25289879Y29406416D01*
X25369067Y29597592D01*
X25375749Y29607592D01*
X25484031Y29769648D01*
X25630352Y29915969D01*
X25802406Y30030932D01*
X25826548Y30040932D01*
X25993584Y30110121D01*
X26196534Y30150490D01*
X26403466Y30150490D01*
X26606416Y30110121D01*
X26606416Y30110121D01*
G37*
G36*
X5426416Y30120121D02*
G01*
X5593452Y30050932D01*
X5617594Y30040932D01*
X5789648Y29925969D01*
X5935969Y29779648D01*
X6044252Y29617592D01*
X6050933Y29607592D01*
X6130121Y29416416D01*
X6170490Y29213466D01*
X6170490Y29006534D01*
X6130121Y28803584D01*
X6125978Y28793583D01*
X6050932Y28612406D01*
X5935969Y28440352D01*
X5789648Y28294031D01*
X5617594Y28179068D01*
X5617593Y28179067D01*
X5617592Y28179067D01*
X5426416Y28099879D01*
X5223466Y28059510D01*
X5016534Y28059510D01*
X4813584Y28099879D01*
X4622408Y28179067D01*
X4622407Y28179067D01*
X4622406Y28179068D01*
X4450352Y28294031D01*
X4304031Y28440352D01*
X4189068Y28612406D01*
X4114022Y28793583D01*
X4109879Y28803584D01*
X4069510Y29006534D01*
X4069510Y29213466D01*
X4109879Y29416416D01*
X4189067Y29607592D01*
X4195749Y29617592D01*
X4304031Y29779648D01*
X4450352Y29925969D01*
X4622406Y30040932D01*
X4646548Y30050932D01*
X4813584Y30120121D01*
X5016534Y30160490D01*
X5223466Y30160490D01*
X5426416Y30120121D01*
X5426416Y30120121D01*
G37*
G36*
X2906416Y30130121D02*
G01*
X3097592Y30050933D01*
X3097594Y30050932D01*
X3127526Y30030932D01*
X3269648Y29935969D01*
X3415969Y29789648D01*
X3530933Y29617592D01*
X3610121Y29426416D01*
X3650490Y29223466D01*
X3650490Y29016534D01*
X3610121Y28813584D01*
X3601836Y28793583D01*
X3530932Y28622406D01*
X3415969Y28450352D01*
X3269648Y28304031D01*
X3097594Y28189068D01*
X3097593Y28189067D01*
X3097592Y28189067D01*
X2906416Y28109879D01*
X2703466Y28069510D01*
X2496534Y28069510D01*
X2293584Y28109879D01*
X2102408Y28189067D01*
X2102407Y28189067D01*
X2102406Y28189068D01*
X1930352Y28304031D01*
X1784031Y28450352D01*
X1669068Y28622406D01*
X1598164Y28793583D01*
X1589879Y28813584D01*
X1549510Y29016534D01*
X1549510Y29223466D01*
X1589879Y29426416D01*
X1669067Y29617592D01*
X1784031Y29789648D01*
X1930352Y29935969D01*
X2072474Y30030932D01*
X2102406Y30050932D01*
X2102408Y30050933D01*
X2293584Y30130121D01*
X2496534Y30170490D01*
X2703466Y30170490D01*
X2906416Y30130121D01*
X2906416Y30130121D01*
G37*
G36*
X23206416Y31010121D02*
G01*
X23397592Y30930933D01*
X23397594Y30930932D01*
X23416198Y30918501D01*
X23569648Y30815969D01*
X23715969Y30669648D01*
X23830933Y30497592D01*
X23910121Y30306416D01*
X23950490Y30103466D01*
X23950490Y29896534D01*
X23910121Y29693584D01*
X23830933Y29502408D01*
X23830932Y29502406D01*
X23715969Y29330352D01*
X23569648Y29184031D01*
X23397594Y29069068D01*
X23397593Y29069067D01*
X23397592Y29069067D01*
X23206416Y28989879D01*
X23003466Y28949510D01*
X22796534Y28949510D01*
X22593584Y28989879D01*
X22402408Y29069067D01*
X22402407Y29069067D01*
X22402406Y29069068D01*
X22230352Y29184031D01*
X22084031Y29330352D01*
X21969068Y29502406D01*
X21969067Y29502408D01*
X21889879Y29693584D01*
X21849510Y29896534D01*
X21849510Y30103466D01*
X21889879Y30306416D01*
X21969067Y30497592D01*
X22084031Y30669648D01*
X22230352Y30815969D01*
X22383802Y30918501D01*
X22402406Y30930932D01*
X22402408Y30930933D01*
X22593584Y31010121D01*
X22796534Y31050490D01*
X23003466Y31050490D01*
X23206416Y31010121D01*
X23206416Y31010121D01*
G37*
G36*
X10806416Y31010121D02*
G01*
X10997592Y30930933D01*
X10997594Y30930932D01*
X11016198Y30918501D01*
X11169648Y30815969D01*
X11315969Y30669648D01*
X11430933Y30497592D01*
X11510121Y30306416D01*
X11550490Y30103466D01*
X11550490Y29896534D01*
X11510121Y29693584D01*
X11430933Y29502408D01*
X11430932Y29502406D01*
X11315969Y29330352D01*
X11169648Y29184031D01*
X10997594Y29069068D01*
X10997593Y29069067D01*
X10997592Y29069067D01*
X10806416Y28989879D01*
X10603466Y28949510D01*
X10396534Y28949510D01*
X10193584Y28989879D01*
X10002408Y29069067D01*
X10002407Y29069067D01*
X10002406Y29069068D01*
X9830352Y29184031D01*
X9684031Y29330352D01*
X9569068Y29502406D01*
X9569067Y29502408D01*
X9489879Y29693584D01*
X9449510Y29896534D01*
X9449510Y30103466D01*
X9489879Y30306416D01*
X9569067Y30497592D01*
X9684031Y30669648D01*
X9830352Y30815969D01*
X9983802Y30918501D01*
X10002406Y30930932D01*
X10002408Y30930933D01*
X10193584Y31010121D01*
X10396534Y31050490D01*
X10603466Y31050490D01*
X10806416Y31010121D01*
X10806416Y31010121D01*
G37*
G36*
X14306416Y31010121D02*
G01*
X14497592Y30930933D01*
X14497594Y30930932D01*
X14516198Y30918501D01*
X14669648Y30815969D01*
X14815969Y30669648D01*
X14930933Y30497592D01*
X15010121Y30306416D01*
X15050490Y30103466D01*
X15050490Y29896534D01*
X15010121Y29693584D01*
X14930933Y29502408D01*
X14930932Y29502406D01*
X14815969Y29330352D01*
X14669648Y29184031D01*
X14497594Y29069068D01*
X14497593Y29069067D01*
X14497592Y29069067D01*
X14306416Y28989879D01*
X14103466Y28949510D01*
X13896534Y28949510D01*
X13693584Y28989879D01*
X13502408Y29069067D01*
X13502407Y29069067D01*
X13502406Y29069068D01*
X13330352Y29184031D01*
X13184031Y29330352D01*
X13069068Y29502406D01*
X13069067Y29502408D01*
X12989879Y29693584D01*
X12949510Y29896534D01*
X12949510Y30103466D01*
X12989879Y30306416D01*
X13069067Y30497592D01*
X13184031Y30669648D01*
X13330352Y30815969D01*
X13483802Y30918501D01*
X13502406Y30930932D01*
X13502408Y30930933D01*
X13693584Y31010121D01*
X13896534Y31050490D01*
X14103466Y31050490D01*
X14306416Y31010121D01*
X14306416Y31010121D01*
G37*
G36*
X5426416Y32680121D02*
G01*
X5593452Y32610932D01*
X5617594Y32600932D01*
X5789648Y32485969D01*
X5935969Y32339648D01*
X6044252Y32177592D01*
X6050933Y32167592D01*
X6130121Y31976416D01*
X6170490Y31773466D01*
X6170490Y31566534D01*
X6130121Y31363584D01*
X6109109Y31312857D01*
X6050932Y31172406D01*
X5935969Y31000352D01*
X5789648Y30854031D01*
X5617594Y30739068D01*
X5617593Y30739067D01*
X5617592Y30739067D01*
X5426416Y30659879D01*
X5223466Y30619510D01*
X5016534Y30619510D01*
X4813584Y30659879D01*
X4622408Y30739067D01*
X4622407Y30739067D01*
X4622406Y30739068D01*
X4450352Y30854031D01*
X4304031Y31000352D01*
X4189068Y31172406D01*
X4130891Y31312857D01*
X4109879Y31363584D01*
X4069510Y31566534D01*
X4069510Y31773466D01*
X4109879Y31976416D01*
X4189067Y32167592D01*
X4195749Y32177592D01*
X4304031Y32339648D01*
X4450352Y32485969D01*
X4622406Y32600932D01*
X4646548Y32610932D01*
X4813584Y32680121D01*
X5016534Y32720490D01*
X5223466Y32720490D01*
X5426416Y32680121D01*
X5426416Y32680121D01*
G37*
G36*
X2906416Y32690121D02*
G01*
X3085434Y32615969D01*
X3097594Y32610932D01*
X3269648Y32495969D01*
X3415969Y32349648D01*
X3528323Y32181499D01*
X3530933Y32177592D01*
X3610121Y31986416D01*
X3650490Y31783466D01*
X3650490Y31576534D01*
X3610121Y31373584D01*
X3580638Y31302406D01*
X3530932Y31182406D01*
X3415969Y31010352D01*
X3269648Y30864031D01*
X3097594Y30749068D01*
X3097593Y30749067D01*
X3097592Y30749067D01*
X2906416Y30669879D01*
X2703466Y30629510D01*
X2496534Y30629510D01*
X2293584Y30669879D01*
X2102408Y30749067D01*
X2102407Y30749067D01*
X2102406Y30749068D01*
X1930352Y30864031D01*
X1784031Y31010352D01*
X1669068Y31182406D01*
X1619362Y31302406D01*
X1589879Y31373584D01*
X1549510Y31576534D01*
X1549510Y31783466D01*
X1589879Y31986416D01*
X1669067Y32177592D01*
X1671678Y32181499D01*
X1784031Y32349648D01*
X1930352Y32495969D01*
X2102406Y32610932D01*
X2114566Y32615969D01*
X2293584Y32690121D01*
X2496534Y32730490D01*
X2703466Y32730490D01*
X2906416Y32690121D01*
X2906416Y32690121D01*
G37*
G36*
X42687142Y32331758D02*
G01*
X42835101Y32270471D01*
X42968255Y32181501D01*
X43081501Y32068255D01*
X43170471Y31935101D01*
X43231758Y31787142D01*
X43263000Y31630075D01*
X43263000Y31469925D01*
X43231758Y31312858D01*
X43170471Y31164899D01*
X43081501Y31031745D01*
X42968255Y30918499D01*
X42835101Y30829529D01*
X42687142Y30768242D01*
X42530075Y30737000D01*
X42369925Y30737000D01*
X42212858Y30768242D01*
X42064899Y30829529D01*
X41931745Y30918499D01*
X41818499Y31031745D01*
X41729529Y31164899D01*
X41668242Y31312858D01*
X41637000Y31469925D01*
X41637000Y31630075D01*
X41668242Y31787142D01*
X41729529Y31935101D01*
X41818499Y32068255D01*
X41931745Y32181501D01*
X42064899Y32270471D01*
X42212858Y32331758D01*
X42369925Y32363000D01*
X42530075Y32363000D01*
X42687142Y32331758D01*
X42687142Y32331758D01*
G37*
G36*
X40187142Y32331758D02*
G01*
X40335101Y32270471D01*
X40468255Y32181501D01*
X40581501Y32068255D01*
X40670471Y31935101D01*
X40731758Y31787142D01*
X40763000Y31630075D01*
X40763000Y31469925D01*
X40731758Y31312858D01*
X40670471Y31164899D01*
X40581501Y31031745D01*
X40468255Y30918499D01*
X40335101Y30829529D01*
X40187142Y30768242D01*
X40030075Y30737000D01*
X39869925Y30737000D01*
X39712858Y30768242D01*
X39564899Y30829529D01*
X39431745Y30918499D01*
X39318499Y31031745D01*
X39229529Y31164899D01*
X39168242Y31312858D01*
X39137000Y31469925D01*
X39137000Y31630075D01*
X39168242Y31787142D01*
X39229529Y31935101D01*
X39318499Y32068255D01*
X39431745Y32181501D01*
X39564899Y32270471D01*
X39712858Y32331758D01*
X39869925Y32363000D01*
X40030075Y32363000D01*
X40187142Y32331758D01*
X40187142Y32331758D01*
G37*
G36*
X31787142Y32331758D02*
G01*
X31935101Y32270471D01*
X32068255Y32181501D01*
X32181501Y32068255D01*
X32270471Y31935101D01*
X32331758Y31787142D01*
X32363000Y31630075D01*
X32363000Y31469925D01*
X32331758Y31312858D01*
X32270471Y31164899D01*
X32181501Y31031745D01*
X32068255Y30918499D01*
X31935101Y30829529D01*
X31787142Y30768242D01*
X31630075Y30737000D01*
X31469925Y30737000D01*
X31312858Y30768242D01*
X31164899Y30829529D01*
X31031745Y30918499D01*
X30918499Y31031745D01*
X30829529Y31164899D01*
X30768242Y31312858D01*
X30737000Y31469925D01*
X30737000Y31630075D01*
X30768242Y31787142D01*
X30829529Y31935101D01*
X30918499Y32068255D01*
X31031745Y32181501D01*
X31164899Y32270471D01*
X31312858Y32331758D01*
X31469925Y32363000D01*
X31630075Y32363000D01*
X31787142Y32331758D01*
X31787142Y32331758D01*
G37*
G36*
X29287142Y32331758D02*
G01*
X29435101Y32270471D01*
X29568255Y32181501D01*
X29681501Y32068255D01*
X29770471Y31935101D01*
X29831758Y31787142D01*
X29863000Y31630075D01*
X29863000Y31469925D01*
X29831758Y31312858D01*
X29770471Y31164899D01*
X29681501Y31031745D01*
X29568255Y30918499D01*
X29435101Y30829529D01*
X29287142Y30768242D01*
X29130075Y30737000D01*
X28969925Y30737000D01*
X28812858Y30768242D01*
X28664899Y30829529D01*
X28531745Y30918499D01*
X28418499Y31031745D01*
X28329529Y31164899D01*
X28268242Y31312858D01*
X28237000Y31469925D01*
X28237000Y31630075D01*
X28268242Y31787142D01*
X28329529Y31935101D01*
X28418499Y32068255D01*
X28531745Y32181501D01*
X28664899Y32270471D01*
X28812858Y32331758D01*
X28969925Y32363000D01*
X29130075Y32363000D01*
X29287142Y32331758D01*
X29287142Y32331758D01*
G37*
G36*
X26506416Y32810121D02*
G01*
X26697592Y32730933D01*
X26697594Y32730932D01*
X26869648Y32615969D01*
X27015969Y32469648D01*
X27096151Y32349648D01*
X27130933Y32297592D01*
X27210121Y32106416D01*
X27250490Y31903466D01*
X27250490Y31696534D01*
X27210121Y31493584D01*
X27135261Y31312857D01*
X27130932Y31302406D01*
X27015969Y31130352D01*
X26869648Y30984031D01*
X26697594Y30869068D01*
X26697593Y30869067D01*
X26697592Y30869067D01*
X26506416Y30789879D01*
X26303466Y30749510D01*
X26096534Y30749510D01*
X25893584Y30789879D01*
X25702408Y30869067D01*
X25702407Y30869067D01*
X25702406Y30869068D01*
X25530352Y30984031D01*
X25384031Y31130352D01*
X25269068Y31302406D01*
X25264739Y31312857D01*
X25189879Y31493584D01*
X25149510Y31696534D01*
X25149510Y31903466D01*
X25189879Y32106416D01*
X25269067Y32297592D01*
X25303850Y32349648D01*
X25384031Y32469648D01*
X25530352Y32615969D01*
X25702406Y32730932D01*
X25702408Y32730933D01*
X25893584Y32810121D01*
X26096534Y32850490D01*
X26303466Y32850490D01*
X26506416Y32810121D01*
X26506416Y32810121D01*
G37*
M02*
