%TF.GenerationSoftware,KiCad,Pcbnew,5.0.1*%
%TF.CreationDate,2019-02-20T12:32:28+01:00*%
%TF.ProjectId,rgbww-micro-board,72676277772D6D6963726F2D626F6172,rev?*%
%TF.SameCoordinates,PXb903480PY55d4a80*%
%TF.FileFunction,Soldermask,Top*%
%TF.FilePolarity,Negative*%
%FSLAX46Y46*%
G04 Gerber Fmt 4.6, Leading zero omitted, Abs format (unit mm)*
G04 Created by KiCad (PCBNEW 5.0.1) date Mi 20 Feb 2019 12:32:28 CET*
%MOMM*%
%LPD*%
G01*
G04 APERTURE LIST*
%ADD10C,0.200000*%
%ADD11C,0.100000*%
G04 APERTURE END LIST*
D10*
X44500000Y33750000D02*
X0Y33750000D01*
X44500000Y0D02*
X44500000Y33750000D01*
X0Y0D02*
X44500000Y0D01*
X0Y33750000D02*
X0Y0D01*
D11*
G36*
X13056414Y3010121D02*
X13056416Y3010120D01*
X13056417Y3010120D01*
X13086078Y2997834D01*
X13247594Y2930932D01*
X13419651Y2815967D01*
X13565967Y2669651D01*
X13680932Y2497594D01*
X13760121Y2306414D01*
X13800490Y2103466D01*
X13800490Y1896534D01*
X13760121Y1693586D01*
X13680932Y1502406D01*
X13565967Y1330349D01*
X13419651Y1184033D01*
X13419648Y1184031D01*
X13247594Y1069068D01*
X13056417Y989880D01*
X13056416Y989880D01*
X13056414Y989879D01*
X12853466Y949510D01*
X12646534Y949510D01*
X12443586Y989879D01*
X12443584Y989880D01*
X12443583Y989880D01*
X12252406Y1069068D01*
X12080352Y1184031D01*
X12080349Y1184033D01*
X11934033Y1330349D01*
X11819068Y1502406D01*
X11739879Y1693586D01*
X11699510Y1896534D01*
X11699510Y2103466D01*
X11739879Y2306414D01*
X11819068Y2497594D01*
X11934033Y2669651D01*
X12080349Y2815967D01*
X12252406Y2930932D01*
X12413922Y2997834D01*
X12443583Y3010120D01*
X12443584Y3010120D01*
X12443586Y3010121D01*
X12646534Y3050490D01*
X12853466Y3050490D01*
X13056414Y3010121D01*
X13056414Y3010121D01*
G37*
G36*
X16306414Y3010121D02*
X16306416Y3010120D01*
X16306417Y3010120D01*
X16336078Y2997834D01*
X16497594Y2930932D01*
X16669651Y2815967D01*
X16815967Y2669651D01*
X16930932Y2497594D01*
X17010121Y2306414D01*
X17050490Y2103466D01*
X17050490Y1896534D01*
X17010121Y1693586D01*
X16930932Y1502406D01*
X16815967Y1330349D01*
X16669651Y1184033D01*
X16669648Y1184031D01*
X16497594Y1069068D01*
X16306417Y989880D01*
X16306416Y989880D01*
X16306414Y989879D01*
X16103466Y949510D01*
X15896534Y949510D01*
X15693586Y989879D01*
X15693584Y989880D01*
X15693583Y989880D01*
X15502406Y1069068D01*
X15330352Y1184031D01*
X15330349Y1184033D01*
X15184033Y1330349D01*
X15069068Y1502406D01*
X14989879Y1693586D01*
X14949510Y1896534D01*
X14949510Y2103466D01*
X14989879Y2306414D01*
X15069068Y2497594D01*
X15184033Y2669651D01*
X15330349Y2815967D01*
X15502406Y2930932D01*
X15663922Y2997834D01*
X15693583Y3010120D01*
X15693584Y3010120D01*
X15693586Y3010121D01*
X15896534Y3050490D01*
X16103466Y3050490D01*
X16306414Y3010121D01*
X16306414Y3010121D01*
G37*
G36*
X19556414Y3010121D02*
X19556416Y3010120D01*
X19556417Y3010120D01*
X19586078Y2997834D01*
X19747594Y2930932D01*
X19919651Y2815967D01*
X20065967Y2669651D01*
X20180932Y2497594D01*
X20260121Y2306414D01*
X20300490Y2103466D01*
X20300490Y1896534D01*
X20260121Y1693586D01*
X20180932Y1502406D01*
X20065967Y1330349D01*
X19919651Y1184033D01*
X19919648Y1184031D01*
X19747594Y1069068D01*
X19556417Y989880D01*
X19556416Y989880D01*
X19556414Y989879D01*
X19353466Y949510D01*
X19146534Y949510D01*
X18943586Y989879D01*
X18943584Y989880D01*
X18943583Y989880D01*
X18752406Y1069068D01*
X18580352Y1184031D01*
X18580349Y1184033D01*
X18434033Y1330349D01*
X18319068Y1502406D01*
X18239879Y1693586D01*
X18199510Y1896534D01*
X18199510Y2103466D01*
X18239879Y2306414D01*
X18319068Y2497594D01*
X18434033Y2669651D01*
X18580349Y2815967D01*
X18752406Y2930932D01*
X18913922Y2997834D01*
X18943583Y3010120D01*
X18943584Y3010120D01*
X18943586Y3010121D01*
X19146534Y3050490D01*
X19353466Y3050490D01*
X19556414Y3010121D01*
X19556414Y3010121D01*
G37*
G36*
X6201000Y1199000D02*
X3799000Y1199000D01*
X3799000Y2801000D01*
X6201000Y2801000D01*
X6201000Y1199000D01*
X6201000Y1199000D01*
G37*
G36*
X39551000Y1199000D02*
X37449000Y1199000D01*
X37449000Y3301000D01*
X39551000Y3301000D01*
X39551000Y1199000D01*
X39551000Y1199000D01*
G37*
G36*
X35306565Y3260611D02*
X35497834Y3181385D01*
X35669976Y3066363D01*
X35816363Y2919976D01*
X35931385Y2747834D01*
X36010611Y2556565D01*
X36051000Y2353516D01*
X36051000Y2146484D01*
X36010611Y1943435D01*
X35931385Y1752166D01*
X35816363Y1580024D01*
X35669976Y1433637D01*
X35497834Y1318615D01*
X35306565Y1239389D01*
X35103516Y1199000D01*
X34896484Y1199000D01*
X34693435Y1239389D01*
X34502166Y1318615D01*
X34330024Y1433637D01*
X34183637Y1580024D01*
X34068615Y1752166D01*
X33989389Y1943435D01*
X33949000Y2146484D01*
X33949000Y2353516D01*
X33989389Y2556565D01*
X34068615Y2747834D01*
X34183637Y2919976D01*
X34330024Y3066363D01*
X34502166Y3181385D01*
X34693435Y3260611D01*
X34896484Y3301000D01*
X35103516Y3301000D01*
X35306565Y3260611D01*
X35306565Y3260611D01*
G37*
G36*
X25551000Y1449000D02*
X23449000Y1449000D01*
X23449000Y3551000D01*
X25551000Y3551000D01*
X25551000Y1449000D01*
X25551000Y1449000D01*
G37*
G36*
X28306565Y3510611D02*
X28497834Y3431385D01*
X28669976Y3316363D01*
X28816363Y3169976D01*
X28931385Y2997834D01*
X29010611Y2806565D01*
X29051000Y2603516D01*
X29051000Y2396484D01*
X29010611Y2193435D01*
X28931385Y2002166D01*
X28816363Y1830024D01*
X28669976Y1683637D01*
X28497834Y1568615D01*
X28306565Y1489389D01*
X28103516Y1449000D01*
X27896484Y1449000D01*
X27693435Y1489389D01*
X27502166Y1568615D01*
X27330024Y1683637D01*
X27183637Y1830024D01*
X27068615Y2002166D01*
X26989389Y2193435D01*
X26949000Y2396484D01*
X26949000Y2603516D01*
X26989389Y2806565D01*
X27068615Y2997834D01*
X27183637Y3169976D01*
X27330024Y3316363D01*
X27502166Y3431385D01*
X27693435Y3510611D01*
X27896484Y3551000D01*
X28103516Y3551000D01*
X28306565Y3510611D01*
X28306565Y3510611D01*
G37*
G36*
X6201000Y4199000D02*
X3799000Y4199000D01*
X3799000Y5801000D01*
X6201000Y5801000D01*
X6201000Y4199000D01*
X6201000Y4199000D01*
G37*
G36*
X10791000Y7439000D02*
X9689000Y7439000D01*
X9689000Y10041000D01*
X10791000Y10041000D01*
X10791000Y7439000D01*
X10791000Y7439000D01*
G37*
G36*
X8791000Y7439000D02*
X7689000Y7439000D01*
X7689000Y10041000D01*
X8791000Y10041000D01*
X8791000Y7439000D01*
X8791000Y7439000D01*
G37*
G36*
X12791000Y7439000D02*
X11689000Y7439000D01*
X11689000Y10041000D01*
X12791000Y10041000D01*
X12791000Y7439000D01*
X12791000Y7439000D01*
G37*
G36*
X14791000Y7439000D02*
X13689000Y7439000D01*
X13689000Y10041000D01*
X14791000Y10041000D01*
X14791000Y7439000D01*
X14791000Y7439000D01*
G37*
G36*
X16791000Y7439000D02*
X15689000Y7439000D01*
X15689000Y10041000D01*
X16791000Y10041000D01*
X16791000Y7439000D01*
X16791000Y7439000D01*
G37*
G36*
X18791000Y7439000D02*
X17689000Y7439000D01*
X17689000Y10041000D01*
X18791000Y10041000D01*
X18791000Y7439000D01*
X18791000Y7439000D01*
G37*
G36*
X22791000Y7439000D02*
X21689000Y7439000D01*
X21689000Y10041000D01*
X22791000Y10041000D01*
X22791000Y7439000D01*
X22791000Y7439000D01*
G37*
G36*
X20791000Y7439000D02*
X19689000Y7439000D01*
X19689000Y10041000D01*
X20791000Y10041000D01*
X20791000Y7439000D01*
X20791000Y7439000D01*
G37*
G36*
X43556414Y10260121D02*
X43556416Y10260120D01*
X43556417Y10260120D01*
X43747594Y10180932D01*
X43919651Y10065967D01*
X44065967Y9919651D01*
X44180932Y9747594D01*
X44260121Y9556414D01*
X44300490Y9353466D01*
X44300490Y9146534D01*
X44260121Y8943586D01*
X44180932Y8752406D01*
X44065967Y8580349D01*
X43919651Y8434033D01*
X43919648Y8434031D01*
X43747594Y8319068D01*
X43556417Y8239880D01*
X43556416Y8239880D01*
X43556414Y8239879D01*
X43353466Y8199510D01*
X43146534Y8199510D01*
X42943586Y8239879D01*
X42943584Y8239880D01*
X42943583Y8239880D01*
X42752406Y8319068D01*
X42580352Y8434031D01*
X42580349Y8434033D01*
X42434033Y8580349D01*
X42319068Y8752406D01*
X42239879Y8943586D01*
X42199510Y9146534D01*
X42199510Y9353466D01*
X42239879Y9556414D01*
X42319068Y9747594D01*
X42434033Y9919651D01*
X42580349Y10065967D01*
X42752406Y10180932D01*
X42943583Y10260120D01*
X42943584Y10260120D01*
X42943586Y10260121D01*
X43146534Y10300490D01*
X43353466Y10300490D01*
X43556414Y10260121D01*
X43556414Y10260121D01*
G37*
G36*
X40556414Y10260121D02*
X40556416Y10260120D01*
X40556417Y10260120D01*
X40747594Y10180932D01*
X40919651Y10065967D01*
X41065967Y9919651D01*
X41180932Y9747594D01*
X41260121Y9556414D01*
X41300490Y9353466D01*
X41300490Y9146534D01*
X41260121Y8943586D01*
X41180932Y8752406D01*
X41065967Y8580349D01*
X40919651Y8434033D01*
X40919648Y8434031D01*
X40747594Y8319068D01*
X40556417Y8239880D01*
X40556416Y8239880D01*
X40556414Y8239879D01*
X40353466Y8199510D01*
X40146534Y8199510D01*
X39943586Y8239879D01*
X39943584Y8239880D01*
X39943583Y8239880D01*
X39752406Y8319068D01*
X39580352Y8434031D01*
X39580349Y8434033D01*
X39434033Y8580349D01*
X39319068Y8752406D01*
X39239879Y8943586D01*
X39199510Y9146534D01*
X39199510Y9353466D01*
X39239879Y9556414D01*
X39319068Y9747594D01*
X39434033Y9919651D01*
X39580349Y10065967D01*
X39752406Y10180932D01*
X39943583Y10260120D01*
X39943584Y10260120D01*
X39943586Y10260121D01*
X40146534Y10300490D01*
X40353466Y10300490D01*
X40556414Y10260121D01*
X40556414Y10260121D01*
G37*
G36*
X37556414Y10260121D02*
X37556416Y10260120D01*
X37556417Y10260120D01*
X37747594Y10180932D01*
X37919651Y10065967D01*
X38065967Y9919651D01*
X38180932Y9747594D01*
X38260121Y9556414D01*
X38300490Y9353466D01*
X38300490Y9146534D01*
X38260121Y8943586D01*
X38180932Y8752406D01*
X38065967Y8580349D01*
X37919651Y8434033D01*
X37919648Y8434031D01*
X37747594Y8319068D01*
X37556417Y8239880D01*
X37556416Y8239880D01*
X37556414Y8239879D01*
X37353466Y8199510D01*
X37146534Y8199510D01*
X36943586Y8239879D01*
X36943584Y8239880D01*
X36943583Y8239880D01*
X36752406Y8319068D01*
X36580352Y8434031D01*
X36580349Y8434033D01*
X36434033Y8580349D01*
X36319068Y8752406D01*
X36239879Y8943586D01*
X36199510Y9146534D01*
X36199510Y9353466D01*
X36239879Y9556414D01*
X36319068Y9747594D01*
X36434033Y9919651D01*
X36580349Y10065967D01*
X36752406Y10180932D01*
X36943583Y10260120D01*
X36943584Y10260120D01*
X36943586Y10260121D01*
X37146534Y10300490D01*
X37353466Y10300490D01*
X37556414Y10260121D01*
X37556414Y10260121D01*
G37*
G36*
X24691000Y10789000D02*
X22789000Y10789000D01*
X22789000Y11891000D01*
X24691000Y11891000D01*
X24691000Y10789000D01*
X24691000Y10789000D01*
G37*
G36*
X40187142Y13831758D02*
X40335102Y13770470D01*
X40468258Y13681498D01*
X40581498Y13568258D01*
X40670470Y13435102D01*
X40731758Y13287142D01*
X40763000Y13130075D01*
X40763000Y12969925D01*
X40731758Y12812858D01*
X40670470Y12664898D01*
X40581498Y12531742D01*
X40468258Y12418502D01*
X40335102Y12329530D01*
X40187142Y12268242D01*
X40030075Y12237000D01*
X39869925Y12237000D01*
X39712858Y12268242D01*
X39564898Y12329530D01*
X39431742Y12418502D01*
X39318502Y12531742D01*
X39229530Y12664898D01*
X39168242Y12812858D01*
X39137000Y12969925D01*
X39137000Y13130075D01*
X39168242Y13287142D01*
X39229530Y13435102D01*
X39318502Y13568258D01*
X39431742Y13681498D01*
X39564898Y13770470D01*
X39712858Y13831758D01*
X39869925Y13863000D01*
X40030075Y13863000D01*
X40187142Y13831758D01*
X40187142Y13831758D01*
G37*
G36*
X31787142Y13831758D02*
X31935102Y13770470D01*
X32068258Y13681498D01*
X32181498Y13568258D01*
X32270470Y13435102D01*
X32331758Y13287142D01*
X32363000Y13130075D01*
X32363000Y12969925D01*
X32331758Y12812858D01*
X32270470Y12664898D01*
X32181498Y12531742D01*
X32068258Y12418502D01*
X31935102Y12329530D01*
X31787142Y12268242D01*
X31630075Y12237000D01*
X31469925Y12237000D01*
X31312858Y12268242D01*
X31164898Y12329530D01*
X31031742Y12418502D01*
X30918502Y12531742D01*
X30829530Y12664898D01*
X30768242Y12812858D01*
X30737000Y12969925D01*
X30737000Y13130075D01*
X30768242Y13287142D01*
X30829530Y13435102D01*
X30918502Y13568258D01*
X31031742Y13681498D01*
X31164898Y13770470D01*
X31312858Y13831758D01*
X31469925Y13863000D01*
X31630075Y13863000D01*
X31787142Y13831758D01*
X31787142Y13831758D01*
G37*
G36*
X42687142Y13831758D02*
X42835102Y13770470D01*
X42968258Y13681498D01*
X43081498Y13568258D01*
X43170470Y13435102D01*
X43231758Y13287142D01*
X43263000Y13130075D01*
X43263000Y12969925D01*
X43231758Y12812858D01*
X43170470Y12664898D01*
X43081498Y12531742D01*
X42968258Y12418502D01*
X42835102Y12329530D01*
X42687142Y12268242D01*
X42530075Y12237000D01*
X42369925Y12237000D01*
X42212858Y12268242D01*
X42064898Y12329530D01*
X41931742Y12418502D01*
X41818502Y12531742D01*
X41729530Y12664898D01*
X41668242Y12812858D01*
X41637000Y12969925D01*
X41637000Y13130075D01*
X41668242Y13287142D01*
X41729530Y13435102D01*
X41818502Y13568258D01*
X41931742Y13681498D01*
X42064898Y13770470D01*
X42212858Y13831758D01*
X42369925Y13863000D01*
X42530075Y13863000D01*
X42687142Y13831758D01*
X42687142Y13831758D01*
G37*
G36*
X29287142Y13831758D02*
X29435102Y13770470D01*
X29568258Y13681498D01*
X29681498Y13568258D01*
X29770470Y13435102D01*
X29831758Y13287142D01*
X29863000Y13130075D01*
X29863000Y12969925D01*
X29831758Y12812858D01*
X29770470Y12664898D01*
X29681498Y12531742D01*
X29568258Y12418502D01*
X29435102Y12329530D01*
X29287142Y12268242D01*
X29130075Y12237000D01*
X28969925Y12237000D01*
X28812858Y12268242D01*
X28664898Y12329530D01*
X28531742Y12418502D01*
X28418502Y12531742D01*
X28329530Y12664898D01*
X28268242Y12812858D01*
X28237000Y12969925D01*
X28237000Y13130075D01*
X28268242Y13287142D01*
X28329530Y13435102D01*
X28418502Y13568258D01*
X28531742Y13681498D01*
X28664898Y13770470D01*
X28812858Y13831758D01*
X28969925Y13863000D01*
X29130075Y13863000D01*
X29287142Y13831758D01*
X29287142Y13831758D01*
G37*
G36*
X24691000Y12789000D02*
X22789000Y12789000D01*
X22789000Y13891000D01*
X24691000Y13891000D01*
X24691000Y12789000D01*
X24691000Y12789000D01*
G37*
G36*
X24691000Y14789000D02*
X22789000Y14789000D01*
X22789000Y15891000D01*
X24691000Y15891000D01*
X24691000Y14789000D01*
X24691000Y14789000D01*
G37*
G36*
X42556414Y17760121D02*
X42556416Y17760120D01*
X42556417Y17760120D01*
X42747594Y17680932D01*
X42919651Y17565967D01*
X43065967Y17419651D01*
X43180932Y17247594D01*
X43260121Y17056414D01*
X43300490Y16853466D01*
X43300490Y16646534D01*
X43260121Y16443586D01*
X43180932Y16252406D01*
X43065967Y16080349D01*
X42919651Y15934033D01*
X42919648Y15934031D01*
X42747594Y15819068D01*
X42556417Y15739880D01*
X42556416Y15739880D01*
X42556414Y15739879D01*
X42353466Y15699510D01*
X42146534Y15699510D01*
X41943586Y15739879D01*
X41943584Y15739880D01*
X41943583Y15739880D01*
X41752406Y15819068D01*
X41580352Y15934031D01*
X41580349Y15934033D01*
X41434033Y16080349D01*
X41319068Y16252406D01*
X41239879Y16443586D01*
X41199510Y16646534D01*
X41199510Y16853466D01*
X41239879Y17056414D01*
X41319068Y17247594D01*
X41434033Y17419651D01*
X41580349Y17565967D01*
X41752406Y17680932D01*
X41943583Y17760120D01*
X41943584Y17760120D01*
X41943586Y17760121D01*
X42146534Y17800490D01*
X42353466Y17800490D01*
X42556414Y17760121D01*
X42556414Y17760121D01*
G37*
G36*
X39556414Y17760121D02*
X39556416Y17760120D01*
X39556417Y17760120D01*
X39747594Y17680932D01*
X39919651Y17565967D01*
X40065967Y17419651D01*
X40180932Y17247594D01*
X40260121Y17056414D01*
X40300490Y16853466D01*
X40300490Y16646534D01*
X40260121Y16443586D01*
X40180932Y16252406D01*
X40065967Y16080349D01*
X39919651Y15934033D01*
X39919648Y15934031D01*
X39747594Y15819068D01*
X39556417Y15739880D01*
X39556416Y15739880D01*
X39556414Y15739879D01*
X39353466Y15699510D01*
X39146534Y15699510D01*
X38943586Y15739879D01*
X38943584Y15739880D01*
X38943583Y15739880D01*
X38752406Y15819068D01*
X38580352Y15934031D01*
X38580349Y15934033D01*
X38434033Y16080349D01*
X38319068Y16252406D01*
X38239879Y16443586D01*
X38199510Y16646534D01*
X38199510Y16853466D01*
X38239879Y17056414D01*
X38319068Y17247594D01*
X38434033Y17419651D01*
X38580349Y17565967D01*
X38752406Y17680932D01*
X38943583Y17760120D01*
X38943584Y17760120D01*
X38943586Y17760121D01*
X39146534Y17800490D01*
X39353466Y17800490D01*
X39556414Y17760121D01*
X39556414Y17760121D01*
G37*
G36*
X24691000Y16789000D02*
X22789000Y16789000D01*
X22789000Y17891000D01*
X24691000Y17891000D01*
X24691000Y16789000D01*
X24691000Y16789000D01*
G37*
G36*
X24691000Y18789000D02*
X22789000Y18789000D01*
X22789000Y19891000D01*
X24691000Y19891000D01*
X24691000Y18789000D01*
X24691000Y18789000D01*
G37*
G36*
X24691000Y20789000D02*
X22789000Y20789000D01*
X22789000Y21891000D01*
X24691000Y21891000D01*
X24691000Y20789000D01*
X24691000Y20789000D01*
G37*
G36*
X22791000Y22639000D02*
X21689000Y22639000D01*
X21689000Y25241000D01*
X22791000Y25241000D01*
X22791000Y22639000D01*
X22791000Y22639000D01*
G37*
G36*
X8791000Y22639000D02*
X7689000Y22639000D01*
X7689000Y25241000D01*
X8791000Y25241000D01*
X8791000Y22639000D01*
X8791000Y22639000D01*
G37*
G36*
X10791000Y22639000D02*
X9689000Y22639000D01*
X9689000Y25241000D01*
X10791000Y25241000D01*
X10791000Y22639000D01*
X10791000Y22639000D01*
G37*
G36*
X12791000Y22639000D02*
X11689000Y22639000D01*
X11689000Y25241000D01*
X12791000Y25241000D01*
X12791000Y22639000D01*
X12791000Y22639000D01*
G37*
G36*
X14791000Y22639000D02*
X13689000Y22639000D01*
X13689000Y25241000D01*
X14791000Y25241000D01*
X14791000Y22639000D01*
X14791000Y22639000D01*
G37*
G36*
X16791000Y22639000D02*
X15689000Y22639000D01*
X15689000Y25241000D01*
X16791000Y25241000D01*
X16791000Y22639000D01*
X16791000Y22639000D01*
G37*
G36*
X18791000Y22639000D02*
X17689000Y22639000D01*
X17689000Y25241000D01*
X18791000Y25241000D01*
X18791000Y22639000D01*
X18791000Y22639000D01*
G37*
G36*
X20791000Y22639000D02*
X19689000Y22639000D01*
X19689000Y25241000D01*
X20791000Y25241000D01*
X20791000Y22639000D01*
X20791000Y22639000D01*
G37*
G36*
X32556414Y28260121D02*
X32556416Y28260120D01*
X32556417Y28260120D01*
X32740112Y28184031D01*
X32747594Y28180932D01*
X32919651Y28065967D01*
X33065967Y27919651D01*
X33180932Y27747594D01*
X33260121Y27556414D01*
X33300490Y27353466D01*
X33300490Y27146534D01*
X33260121Y26943586D01*
X33180932Y26752406D01*
X33065967Y26580349D01*
X32919651Y26434033D01*
X32919648Y26434031D01*
X32747594Y26319068D01*
X32556417Y26239880D01*
X32556416Y26239880D01*
X32556414Y26239879D01*
X32353466Y26199510D01*
X32146534Y26199510D01*
X31943586Y26239879D01*
X31943584Y26239880D01*
X31943583Y26239880D01*
X31752406Y26319068D01*
X31580352Y26434031D01*
X31580349Y26434033D01*
X31434033Y26580349D01*
X31319068Y26752406D01*
X31239879Y26943586D01*
X31199510Y27146534D01*
X31199510Y27353466D01*
X31239879Y27556414D01*
X31319068Y27747594D01*
X31434033Y27919651D01*
X31580349Y28065967D01*
X31752406Y28180932D01*
X31759888Y28184031D01*
X31943583Y28260120D01*
X31943584Y28260120D01*
X31943586Y28260121D01*
X32146534Y28300490D01*
X32353466Y28300490D01*
X32556414Y28260121D01*
X32556414Y28260121D01*
G37*
G36*
X29556414Y28260121D02*
X29556416Y28260120D01*
X29556417Y28260120D01*
X29740112Y28184031D01*
X29747594Y28180932D01*
X29919651Y28065967D01*
X30065967Y27919651D01*
X30180932Y27747594D01*
X30260121Y27556414D01*
X30300490Y27353466D01*
X30300490Y27146534D01*
X30260121Y26943586D01*
X30180932Y26752406D01*
X30065967Y26580349D01*
X29919651Y26434033D01*
X29919648Y26434031D01*
X29747594Y26319068D01*
X29556417Y26239880D01*
X29556416Y26239880D01*
X29556414Y26239879D01*
X29353466Y26199510D01*
X29146534Y26199510D01*
X28943586Y26239879D01*
X28943584Y26239880D01*
X28943583Y26239880D01*
X28752406Y26319068D01*
X28580352Y26434031D01*
X28580349Y26434033D01*
X28434033Y26580349D01*
X28319068Y26752406D01*
X28239879Y26943586D01*
X28199510Y27146534D01*
X28199510Y27353466D01*
X28239879Y27556414D01*
X28319068Y27747594D01*
X28434033Y27919651D01*
X28580349Y28065967D01*
X28752406Y28180932D01*
X28759888Y28184031D01*
X28943583Y28260120D01*
X28943584Y28260120D01*
X28943586Y28260121D01*
X29146534Y28300490D01*
X29353466Y28300490D01*
X29556414Y28260121D01*
X29556414Y28260121D01*
G37*
G36*
X39556414Y28260121D02*
X39556416Y28260120D01*
X39556417Y28260120D01*
X39740112Y28184031D01*
X39747594Y28180932D01*
X39919651Y28065967D01*
X40065967Y27919651D01*
X40180932Y27747594D01*
X40260121Y27556414D01*
X40300490Y27353466D01*
X40300490Y27146534D01*
X40260121Y26943586D01*
X40180932Y26752406D01*
X40065967Y26580349D01*
X39919651Y26434033D01*
X39919648Y26434031D01*
X39747594Y26319068D01*
X39556417Y26239880D01*
X39556416Y26239880D01*
X39556414Y26239879D01*
X39353466Y26199510D01*
X39146534Y26199510D01*
X38943586Y26239879D01*
X38943584Y26239880D01*
X38943583Y26239880D01*
X38752406Y26319068D01*
X38580352Y26434031D01*
X38580349Y26434033D01*
X38434033Y26580349D01*
X38319068Y26752406D01*
X38239879Y26943586D01*
X38199510Y27146534D01*
X38199510Y27353466D01*
X38239879Y27556414D01*
X38319068Y27747594D01*
X38434033Y27919651D01*
X38580349Y28065967D01*
X38752406Y28180932D01*
X38759888Y28184031D01*
X38943583Y28260120D01*
X38943584Y28260120D01*
X38943586Y28260121D01*
X39146534Y28300490D01*
X39353466Y28300490D01*
X39556414Y28260121D01*
X39556414Y28260121D01*
G37*
G36*
X42556414Y28260121D02*
X42556416Y28260120D01*
X42556417Y28260120D01*
X42740112Y28184031D01*
X42747594Y28180932D01*
X42919651Y28065967D01*
X43065967Y27919651D01*
X43180932Y27747594D01*
X43260121Y27556414D01*
X43300490Y27353466D01*
X43300490Y27146534D01*
X43260121Y26943586D01*
X43180932Y26752406D01*
X43065967Y26580349D01*
X42919651Y26434033D01*
X42919648Y26434031D01*
X42747594Y26319068D01*
X42556417Y26239880D01*
X42556416Y26239880D01*
X42556414Y26239879D01*
X42353466Y26199510D01*
X42146534Y26199510D01*
X41943586Y26239879D01*
X41943584Y26239880D01*
X41943583Y26239880D01*
X41752406Y26319068D01*
X41580352Y26434031D01*
X41580349Y26434033D01*
X41434033Y26580349D01*
X41319068Y26752406D01*
X41239879Y26943586D01*
X41199510Y27146534D01*
X41199510Y27353466D01*
X41239879Y27556414D01*
X41319068Y27747594D01*
X41434033Y27919651D01*
X41580349Y28065967D01*
X41752406Y28180932D01*
X41759888Y28184031D01*
X41943583Y28260120D01*
X41943584Y28260120D01*
X41943586Y28260121D01*
X42146534Y28300490D01*
X42353466Y28300490D01*
X42556414Y28260121D01*
X42556414Y28260121D01*
G37*
G36*
X5806414Y30010121D02*
X5806416Y30010120D01*
X5806417Y30010120D01*
X5997594Y29930932D01*
X6169651Y29815967D01*
X6315967Y29669651D01*
X6430932Y29497594D01*
X6510121Y29306414D01*
X6550490Y29103466D01*
X6550490Y28896534D01*
X6510121Y28693586D01*
X6430932Y28502406D01*
X6315967Y28330349D01*
X6169651Y28184033D01*
X6169648Y28184031D01*
X5997594Y28069068D01*
X5806417Y27989880D01*
X5806416Y27989880D01*
X5806414Y27989879D01*
X5603466Y27949510D01*
X5396534Y27949510D01*
X5193586Y27989879D01*
X5193584Y27989880D01*
X5193583Y27989880D01*
X5002406Y28069068D01*
X4830352Y28184031D01*
X4830349Y28184033D01*
X4684033Y28330349D01*
X4569068Y28502406D01*
X4489879Y28693586D01*
X4449510Y28896534D01*
X4449510Y29103466D01*
X4489879Y29306414D01*
X4569068Y29497594D01*
X4684033Y29669651D01*
X4830349Y29815967D01*
X5002406Y29930932D01*
X5193583Y30010120D01*
X5193584Y30010120D01*
X5193586Y30010121D01*
X5396534Y30050490D01*
X5603466Y30050490D01*
X5806414Y30010121D01*
X5806414Y30010121D01*
G37*
G36*
X2806414Y30010121D02*
X2806416Y30010120D01*
X2806417Y30010120D01*
X2997594Y29930932D01*
X3169651Y29815967D01*
X3315967Y29669651D01*
X3430932Y29497594D01*
X3510121Y29306414D01*
X3550490Y29103466D01*
X3550490Y28896534D01*
X3510121Y28693586D01*
X3430932Y28502406D01*
X3315967Y28330349D01*
X3169651Y28184033D01*
X3169648Y28184031D01*
X2997594Y28069068D01*
X2806417Y27989880D01*
X2806416Y27989880D01*
X2806414Y27989879D01*
X2603466Y27949510D01*
X2396534Y27949510D01*
X2193586Y27989879D01*
X2193584Y27989880D01*
X2193583Y27989880D01*
X2002406Y28069068D01*
X1830352Y28184031D01*
X1830349Y28184033D01*
X1684033Y28330349D01*
X1569068Y28502406D01*
X1489879Y28693586D01*
X1449510Y28896534D01*
X1449510Y29103466D01*
X1489879Y29306414D01*
X1569068Y29497594D01*
X1684033Y29669651D01*
X1830349Y29815967D01*
X2002406Y29930932D01*
X2193583Y30010120D01*
X2193584Y30010120D01*
X2193586Y30010121D01*
X2396534Y30050490D01*
X2603466Y30050490D01*
X2806414Y30010121D01*
X2806414Y30010121D01*
G37*
G36*
X20301000Y28799000D02*
X18699000Y28799000D01*
X18699000Y31201000D01*
X20301000Y31201000D01*
X20301000Y28799000D01*
X20301000Y28799000D01*
G37*
G36*
X10806414Y31010121D02*
X10806416Y31010120D01*
X10806417Y31010120D01*
X10855283Y30989879D01*
X10997594Y30930932D01*
X11169651Y30815967D01*
X11315967Y30669651D01*
X11430932Y30497594D01*
X11510121Y30306414D01*
X11550490Y30103466D01*
X11550490Y29896534D01*
X11510121Y29693586D01*
X11430932Y29502406D01*
X11315967Y29330349D01*
X11169651Y29184033D01*
X11169648Y29184031D01*
X10997594Y29069068D01*
X10806417Y28989880D01*
X10806416Y28989880D01*
X10806414Y28989879D01*
X10603466Y28949510D01*
X10396534Y28949510D01*
X10193586Y28989879D01*
X10193584Y28989880D01*
X10193583Y28989880D01*
X10002406Y29069068D01*
X9830352Y29184031D01*
X9830349Y29184033D01*
X9684033Y29330349D01*
X9569068Y29502406D01*
X9489879Y29693586D01*
X9449510Y29896534D01*
X9449510Y30103466D01*
X9489879Y30306414D01*
X9569068Y30497594D01*
X9684033Y30669651D01*
X9830349Y30815967D01*
X10002406Y30930932D01*
X10144717Y30989879D01*
X10193583Y31010120D01*
X10193584Y31010120D01*
X10193586Y31010121D01*
X10396534Y31050490D01*
X10603466Y31050490D01*
X10806414Y31010121D01*
X10806414Y31010121D01*
G37*
G36*
X14306414Y31010121D02*
X14306416Y31010120D01*
X14306417Y31010120D01*
X14355283Y30989879D01*
X14497594Y30930932D01*
X14669651Y30815967D01*
X14815967Y30669651D01*
X14930932Y30497594D01*
X15010121Y30306414D01*
X15050490Y30103466D01*
X15050490Y29896534D01*
X15010121Y29693586D01*
X14930932Y29502406D01*
X14815967Y29330349D01*
X14669651Y29184033D01*
X14669648Y29184031D01*
X14497594Y29069068D01*
X14306417Y28989880D01*
X14306416Y28989880D01*
X14306414Y28989879D01*
X14103466Y28949510D01*
X13896534Y28949510D01*
X13693586Y28989879D01*
X13693584Y28989880D01*
X13693583Y28989880D01*
X13502406Y29069068D01*
X13330352Y29184031D01*
X13330349Y29184033D01*
X13184033Y29330349D01*
X13069068Y29502406D01*
X12989879Y29693586D01*
X12949510Y29896534D01*
X12949510Y30103466D01*
X12989879Y30306414D01*
X13069068Y30497594D01*
X13184033Y30669651D01*
X13330349Y30815967D01*
X13502406Y30930932D01*
X13644717Y30989879D01*
X13693583Y31010120D01*
X13693584Y31010120D01*
X13693586Y31010121D01*
X13896534Y31050490D01*
X14103466Y31050490D01*
X14306414Y31010121D01*
X14306414Y31010121D01*
G37*
G36*
X23806414Y31010121D02*
X23806416Y31010120D01*
X23806417Y31010120D01*
X23855283Y30989879D01*
X23997594Y30930932D01*
X24169651Y30815967D01*
X24315967Y30669651D01*
X24430932Y30497594D01*
X24510121Y30306414D01*
X24550490Y30103466D01*
X24550490Y29896534D01*
X24510121Y29693586D01*
X24430932Y29502406D01*
X24315967Y29330349D01*
X24169651Y29184033D01*
X24169648Y29184031D01*
X23997594Y29069068D01*
X23806417Y28989880D01*
X23806416Y28989880D01*
X23806414Y28989879D01*
X23603466Y28949510D01*
X23396534Y28949510D01*
X23193586Y28989879D01*
X23193584Y28989880D01*
X23193583Y28989880D01*
X23002406Y29069068D01*
X22830352Y29184031D01*
X22830349Y29184033D01*
X22684033Y29330349D01*
X22569068Y29502406D01*
X22489879Y29693586D01*
X22449510Y29896534D01*
X22449510Y30103466D01*
X22489879Y30306414D01*
X22569068Y30497594D01*
X22684033Y30669651D01*
X22830349Y30815967D01*
X23002406Y30930932D01*
X23144717Y30989879D01*
X23193583Y31010120D01*
X23193584Y31010120D01*
X23193586Y31010121D01*
X23396534Y31050490D01*
X23603466Y31050490D01*
X23806414Y31010121D01*
X23806414Y31010121D01*
G37*
G36*
X29287142Y32331758D02*
X29435102Y32270470D01*
X29568258Y32181498D01*
X29681498Y32068258D01*
X29770470Y31935102D01*
X29831758Y31787142D01*
X29863000Y31630075D01*
X29863000Y31469925D01*
X29831758Y31312858D01*
X29785424Y31201000D01*
X29770471Y31164900D01*
X29706439Y31069068D01*
X29681498Y31031742D01*
X29568258Y30918502D01*
X29435102Y30829530D01*
X29287142Y30768242D01*
X29130075Y30737000D01*
X28969925Y30737000D01*
X28812858Y30768242D01*
X28664898Y30829530D01*
X28531742Y30918502D01*
X28418502Y31031742D01*
X28393562Y31069068D01*
X28329529Y31164900D01*
X28314576Y31201000D01*
X28268242Y31312858D01*
X28237000Y31469925D01*
X28237000Y31630075D01*
X28268242Y31787142D01*
X28329530Y31935102D01*
X28418502Y32068258D01*
X28531742Y32181498D01*
X28664898Y32270470D01*
X28812858Y32331758D01*
X28969925Y32363000D01*
X29130075Y32363000D01*
X29287142Y32331758D01*
X29287142Y32331758D01*
G37*
G36*
X31787142Y32331758D02*
X31935102Y32270470D01*
X32068258Y32181498D01*
X32181498Y32068258D01*
X32270470Y31935102D01*
X32331758Y31787142D01*
X32363000Y31630075D01*
X32363000Y31469925D01*
X32331758Y31312858D01*
X32285424Y31201000D01*
X32270471Y31164900D01*
X32206439Y31069068D01*
X32181498Y31031742D01*
X32068258Y30918502D01*
X31935102Y30829530D01*
X31787142Y30768242D01*
X31630075Y30737000D01*
X31469925Y30737000D01*
X31312858Y30768242D01*
X31164898Y30829530D01*
X31031742Y30918502D01*
X30918502Y31031742D01*
X30893562Y31069068D01*
X30829529Y31164900D01*
X30814576Y31201000D01*
X30768242Y31312858D01*
X30737000Y31469925D01*
X30737000Y31630075D01*
X30768242Y31787142D01*
X30829530Y31935102D01*
X30918502Y32068258D01*
X31031742Y32181498D01*
X31164898Y32270470D01*
X31312858Y32331758D01*
X31469925Y32363000D01*
X31630075Y32363000D01*
X31787142Y32331758D01*
X31787142Y32331758D01*
G37*
G36*
X40187142Y32331758D02*
X40335102Y32270470D01*
X40468258Y32181498D01*
X40581498Y32068258D01*
X40670470Y31935102D01*
X40731758Y31787142D01*
X40763000Y31630075D01*
X40763000Y31469925D01*
X40731758Y31312858D01*
X40685424Y31201000D01*
X40670471Y31164900D01*
X40606439Y31069068D01*
X40581498Y31031742D01*
X40468258Y30918502D01*
X40335102Y30829530D01*
X40187142Y30768242D01*
X40030075Y30737000D01*
X39869925Y30737000D01*
X39712858Y30768242D01*
X39564898Y30829530D01*
X39431742Y30918502D01*
X39318502Y31031742D01*
X39293562Y31069068D01*
X39229529Y31164900D01*
X39214576Y31201000D01*
X39168242Y31312858D01*
X39137000Y31469925D01*
X39137000Y31630075D01*
X39168242Y31787142D01*
X39229530Y31935102D01*
X39318502Y32068258D01*
X39431742Y32181498D01*
X39564898Y32270470D01*
X39712858Y32331758D01*
X39869925Y32363000D01*
X40030075Y32363000D01*
X40187142Y32331758D01*
X40187142Y32331758D01*
G37*
G36*
X42687142Y32331758D02*
X42835102Y32270470D01*
X42968258Y32181498D01*
X43081498Y32068258D01*
X43170470Y31935102D01*
X43231758Y31787142D01*
X43263000Y31630075D01*
X43263000Y31469925D01*
X43231758Y31312858D01*
X43185424Y31201000D01*
X43170471Y31164900D01*
X43106439Y31069068D01*
X43081498Y31031742D01*
X42968258Y30918502D01*
X42835102Y30829530D01*
X42687142Y30768242D01*
X42530075Y30737000D01*
X42369925Y30737000D01*
X42212858Y30768242D01*
X42064898Y30829530D01*
X41931742Y30918502D01*
X41818502Y31031742D01*
X41793562Y31069068D01*
X41729529Y31164900D01*
X41714576Y31201000D01*
X41668242Y31312858D01*
X41637000Y31469925D01*
X41637000Y31630075D01*
X41668242Y31787142D01*
X41729530Y31935102D01*
X41818502Y32068258D01*
X41931742Y32181498D01*
X42064898Y32270470D01*
X42212858Y32331758D01*
X42369925Y32363000D01*
X42530075Y32363000D01*
X42687142Y32331758D01*
X42687142Y32331758D01*
G37*
G36*
X2806414Y33010121D02*
X2806416Y33010120D01*
X2806417Y33010120D01*
X2997594Y32930932D01*
X3169651Y32815967D01*
X3315967Y32669651D01*
X3315969Y32669648D01*
X3430932Y32497594D01*
X3486683Y32363000D01*
X3510121Y32306414D01*
X3550490Y32103466D01*
X3550490Y31896534D01*
X3510121Y31693586D01*
X3430932Y31502406D01*
X3315967Y31330349D01*
X3169651Y31184033D01*
X3169648Y31184031D01*
X2997594Y31069068D01*
X2806417Y30989880D01*
X2806416Y30989880D01*
X2806414Y30989879D01*
X2603466Y30949510D01*
X2396534Y30949510D01*
X2193586Y30989879D01*
X2193584Y30989880D01*
X2193583Y30989880D01*
X2002406Y31069068D01*
X1830352Y31184031D01*
X1830349Y31184033D01*
X1684033Y31330349D01*
X1569068Y31502406D01*
X1489879Y31693586D01*
X1449510Y31896534D01*
X1449510Y32103466D01*
X1489879Y32306414D01*
X1513318Y32363000D01*
X1569068Y32497594D01*
X1684031Y32669648D01*
X1684033Y32669651D01*
X1830349Y32815967D01*
X2002406Y32930932D01*
X2193583Y33010120D01*
X2193584Y33010120D01*
X2193586Y33010121D01*
X2396534Y33050490D01*
X2603466Y33050490D01*
X2806414Y33010121D01*
X2806414Y33010121D01*
G37*
G36*
X5806414Y33010121D02*
X5806416Y33010120D01*
X5806417Y33010120D01*
X5997594Y32930932D01*
X6169651Y32815967D01*
X6315967Y32669651D01*
X6315969Y32669648D01*
X6430932Y32497594D01*
X6486683Y32363000D01*
X6510121Y32306414D01*
X6550490Y32103466D01*
X6550490Y31896534D01*
X6510121Y31693586D01*
X6430932Y31502406D01*
X6315967Y31330349D01*
X6169651Y31184033D01*
X6169648Y31184031D01*
X5997594Y31069068D01*
X5806417Y30989880D01*
X5806416Y30989880D01*
X5806414Y30989879D01*
X5603466Y30949510D01*
X5396534Y30949510D01*
X5193586Y30989879D01*
X5193584Y30989880D01*
X5193583Y30989880D01*
X5002406Y31069068D01*
X4830352Y31184031D01*
X4830349Y31184033D01*
X4684033Y31330349D01*
X4569068Y31502406D01*
X4489879Y31693586D01*
X4449510Y31896534D01*
X4449510Y32103466D01*
X4489879Y32306414D01*
X4513318Y32363000D01*
X4569068Y32497594D01*
X4684031Y32669648D01*
X4684033Y32669651D01*
X4830349Y32815967D01*
X5002406Y32930932D01*
X5193583Y33010120D01*
X5193584Y33010120D01*
X5193586Y33010121D01*
X5396534Y33050490D01*
X5603466Y33050490D01*
X5806414Y33010121D01*
X5806414Y33010121D01*
G37*
M02*
