M48
;DRILL file {KiCad 5.0.1} date Mi 20 Feb 2019 12:33:16 CET
;FORMAT={-:-/ absolute / inch / decimal}
FMAT,2
INCH,TZ
T1C0.0157
T2C0.0300
T3C0.0315
T4C0.0394
%
G90
G05
M72
T1
X0.0984Y0.2165
X0.0984Y0.128
X0.315Y0.4331
X0.3346Y1.2697
X0.3642Y0.0689
X0.3642Y0.0689
X0.3642Y0.0689
X0.374Y0.6102
X0.374Y0.5413
X0.4134Y0.1575
X0.4429Y0.6102
X0.4429Y0.5413
X0.4823Y1.2697
X0.4823Y0.8563
X0.4823Y0.4429
X0.4921Y1.0925
X0.5118Y0.6102
X0.5118Y0.5413
X0.5413Y0.4429
X0.561Y0.8563
X0.6201Y1.0925
X0.6398Y1.2697
X0.6398Y0.4331
X0.7283Y0.4232
X0.7382Y0.8661
X0.7874Y0.8465
X0.7972Y0.4331
X0.8169Y0.748
X0.8169Y0.6693
X0.8465Y1.2697
X0.8465Y1.1024
X0.8563Y0.7972
X0.8563Y0.7087
X0.9547Y0.315
X1.0138Y0.6299
X1.0236Y1.0236
X1.0236Y0.9449
X1.0236Y0.8661
T2
X1.1437Y1.2421
X1.1437Y0.5138
X1.2421Y1.2421
X1.2421Y0.5138
X1.5728Y1.2421
X1.5728Y0.5138
X1.6713Y1.2421
X1.6713Y0.5138
T3
X0.502Y0.0787
X0.2165Y1.2598
X0.4134Y1.1811
X1.5453Y1.0728
X1.6634Y1.0728
X0.6299Y0.0787
X1.2697Y1.0728
X0.7579Y0.0787
X1.5846Y0.3642
X0.5512Y1.1811
X1.6634Y0.6594
X0.2165Y1.1417
X1.1516Y1.0728
X0.0984Y1.2598
X1.4665Y0.3642
X0.0984Y1.1417
X0.9252Y1.1811
X1.5453Y0.6594
X1.7028Y0.3642
T4
X0.9646Y0.0984
X1.1024Y0.0984
X1.378Y0.0886
X1.5157Y0.0886
T0
M30
